<svg width="20" height="20" viewBox="0 0 20 20" fill="none" xmlns="http://www.w3.org/2000/svg">
<path d="M19.336 18.47L15.5298 14.629C16.8022 13.106 17.5721 11.143 17.5721 9C17.5721 4.175 13.6826 0.25 8.90128 0.25C4.11995 0.25 0.230469 4.175 0.230469 9C0.230469 13.825 4.11995 17.75 8.90128 17.75C11.0249 17.75 12.9702 16.973 14.4794 15.689L18.2856 19.53C18.4302 19.676 18.6205 19.75 18.8108 19.75C19.001 19.75 19.1913 19.677 19.336 19.53C19.6264 19.238 19.6264 18.763 19.336 18.47ZM1.71689 9C1.71689 5.002 4.93946 1.75 8.90128 1.75C12.8631 1.75 16.0857 5.002 16.0857 9C16.0857 12.998 12.8631 16.25 8.90128 16.25C4.93946 16.25 1.71689 12.998 1.71689 9Z" fill="#171717"/>
</svg>
