<svg width="1045" height="154" viewBox="0 0 1045 154" fill="none" xmlns="http://www.w3.org/2000/svg">
<path d="M316.22 117L302.934 92.885H299.203V117H283.642V53.118H309.759C314.794 53.118 319.071 53.9977 322.59 55.757C326.169 57.5163 328.839 59.943 330.598 63.037C332.357 66.0703 333.237 69.4677 333.237 73.229C333.237 77.4757 332.024 81.2673 329.597 84.604C327.231 87.9407 323.712 90.3067 319.041 91.702L333.783 117H316.22ZM299.203 81.874H308.849C311.7 81.874 313.824 81.1763 315.219 79.781C316.675 78.3857 317.403 76.414 317.403 73.866C317.403 71.4393 316.675 69.5283 315.219 68.133C313.824 66.7377 311.7 66.04 308.849 66.04H299.203V81.874ZM389.051 90.792C389.051 92.248 388.96 93.7647 388.778 95.342H353.561C353.804 98.4967 354.805 100.923 356.564 102.622C358.384 104.26 360.599 105.079 363.207 105.079C367.09 105.079 369.79 103.441 371.306 100.165H387.868C387.019 103.502 385.472 106.505 383.227 109.174C381.043 111.843 378.283 113.936 374.946 115.453C371.61 116.97 367.879 117.728 363.753 117.728C358.779 117.728 354.35 116.666 350.467 114.543C346.585 112.42 343.551 109.386 341.367 105.443C339.183 101.5 338.091 96.889 338.091 91.611C338.091 86.333 339.153 81.7223 341.276 77.779C343.46 73.8357 346.494 70.8023 350.376 68.679C354.259 66.5557 358.718 65.494 363.753 65.494C368.667 65.494 373.035 66.5253 376.857 68.588C380.679 70.6507 383.652 73.593 385.775 77.415C387.959 81.237 389.051 85.696 389.051 90.792ZM373.126 86.697C373.126 84.0277 372.216 81.9043 370.396 80.327C368.576 78.7497 366.301 77.961 363.571 77.961C360.963 77.961 358.748 78.7193 356.928 80.236C355.169 81.7527 354.077 83.9063 353.652 86.697H373.126ZM416.097 117.728C411.669 117.728 407.725 116.97 404.267 115.453C400.809 113.936 398.079 111.874 396.077 109.265C394.075 106.596 392.953 103.623 392.71 100.347H408.089C408.271 102.106 409.09 103.532 410.546 104.624C412.002 105.716 413.792 106.262 415.915 106.262C417.857 106.262 419.343 105.898 420.374 105.17C421.466 104.381 422.012 103.38 422.012 102.167C422.012 100.711 421.254 99.6493 419.737 98.982C418.221 98.254 415.764 97.4653 412.366 96.616C408.726 95.7667 405.693 94.887 403.266 93.977C400.84 93.0063 398.747 91.52 396.987 89.518C395.228 87.4553 394.348 84.695 394.348 81.237C394.348 78.325 395.137 75.686 396.714 73.32C398.352 70.8933 400.718 68.9823 403.812 67.587C406.967 66.1917 410.698 65.494 415.005 65.494C421.375 65.494 426.38 67.0713 430.02 70.226C433.721 73.3807 435.844 77.5667 436.39 82.784H422.012C421.77 81.0247 420.981 79.6293 419.646 78.598C418.372 77.5667 416.674 77.051 414.55 77.051C412.73 77.051 411.335 77.415 410.364 78.143C409.394 78.8103 408.908 79.7507 408.908 80.964C408.908 82.42 409.667 83.512 411.183 84.24C412.761 84.968 415.187 85.696 418.463 86.424C422.225 87.3947 425.288 88.3653 427.654 89.336C430.02 90.246 432.083 91.7627 433.842 93.886C435.662 95.9487 436.603 98.7393 436.663 102.258C436.663 105.231 435.814 107.9 434.115 110.266C432.477 112.571 430.081 114.391 426.926 115.726C423.832 117.061 420.223 117.728 416.097 117.728ZM472.665 103.805V117H464.748C459.106 117 454.707 115.635 451.553 112.905C448.398 110.114 446.821 105.595 446.821 99.346V79.144H440.633V66.222H446.821V53.846H462.382V66.222H472.574V79.144H462.382V99.528C462.382 101.045 462.746 102.137 463.474 102.804C464.202 103.471 465.415 103.805 467.114 103.805H472.665ZM476.418 91.52C476.418 86.3027 477.389 81.7223 479.33 77.779C481.332 73.8357 484.032 70.8023 487.429 68.679C490.827 66.5557 494.618 65.494 498.804 65.494C502.384 65.494 505.508 66.222 508.177 67.678C510.907 69.134 513 71.045 514.456 73.411V66.222H530.017V117H514.456V109.811C512.94 112.177 510.816 114.088 508.086 115.544C505.417 117 502.293 117.728 498.713 117.728C494.588 117.728 490.827 116.666 487.429 114.543C484.032 112.359 481.332 109.295 479.33 105.352C477.389 101.348 476.418 96.7373 476.418 91.52ZM514.456 91.611C514.456 87.7283 513.364 84.6647 511.18 82.42C509.057 80.1753 506.448 79.053 503.354 79.053C500.26 79.053 497.621 80.1753 495.437 82.42C493.314 84.604 492.252 87.6373 492.252 91.52C492.252 95.4027 493.314 98.4967 495.437 100.802C497.621 103.047 500.26 104.169 503.354 104.169C506.448 104.169 509.057 103.047 511.18 100.802C513.364 98.5573 514.456 95.4937 514.456 91.611ZM589.596 66.222V117H574.035V110.084C572.458 112.329 570.304 114.149 567.574 115.544C564.905 116.879 561.932 117.546 558.656 117.546C554.773 117.546 551.346 116.697 548.373 114.998C545.4 113.239 543.095 110.721 541.457 107.445C539.819 104.169 539 100.317 539 95.888V66.222H554.47V93.795C554.47 97.1923 555.35 99.8313 557.109 101.712C558.868 103.593 561.234 104.533 564.207 104.533C567.24 104.533 569.637 103.593 571.396 101.712C573.155 99.8313 574.035 97.1923 574.035 93.795V66.222H589.596ZM614.514 74.685C616.334 71.8943 618.609 69.7103 621.339 68.133C624.069 66.495 627.103 65.676 630.439 65.676V82.147H626.162C622.28 82.147 619.368 82.9963 617.426 84.695C615.485 86.333 614.514 89.245 614.514 93.431V117H598.953V66.222H614.514V74.685ZM632.963 91.52C632.963 86.3027 633.934 81.7223 635.875 77.779C637.877 73.8357 640.577 70.8023 643.974 68.679C647.372 66.5557 651.163 65.494 655.349 65.494C658.929 65.494 662.053 66.222 664.722 67.678C667.452 69.134 669.545 71.045 671.001 73.411V66.222H686.562V117H671.001V109.811C669.485 112.177 667.361 114.088 664.631 115.544C661.962 117 658.838 117.728 655.258 117.728C651.133 117.728 647.372 116.666 643.974 114.543C640.577 112.359 637.877 109.295 635.875 105.352C633.934 101.348 632.963 96.7373 632.963 91.52ZM671.001 91.611C671.001 87.7283 669.909 84.6647 667.725 82.42C665.602 80.1753 662.993 79.053 659.899 79.053C656.805 79.053 654.166 80.1753 651.982 82.42C649.859 84.604 648.797 87.6373 648.797 91.52C648.797 95.4027 649.859 98.4967 651.982 100.802C654.166 103.047 656.805 104.169 659.899 104.169C662.993 104.169 665.602 103.047 667.725 100.802C669.909 98.5573 671.001 95.4937 671.001 91.611ZM726.94 65.676C732.885 65.676 737.617 67.6173 741.136 71.5C744.715 75.322 746.505 80.6 746.505 87.334V117H731.035V89.427C731.035 86.0297 730.155 83.3907 728.396 81.51C726.637 79.6293 724.271 78.689 721.298 78.689C718.325 78.689 715.959 79.6293 714.2 81.51C712.441 83.3907 711.561 86.0297 711.561 89.427V117H696V66.222H711.561V72.956C713.138 70.7113 715.262 68.952 717.931 67.678C720.6 66.3433 723.603 65.676 726.94 65.676ZM783.799 103.805V117H775.882C770.24 117 765.842 115.635 762.687 112.905C759.533 110.114 757.955 105.595 757.955 99.346V79.144H751.767V66.222H757.955V53.846H773.516V66.222H783.708V79.144H773.516V99.528C773.516 101.045 773.88 102.137 774.608 102.804C775.336 103.471 776.55 103.805 778.248 103.805H783.799ZM847.878 105.716H824.036L820.214 117H803.925L827.039 53.118H845.057L868.171 117H851.7L847.878 105.716ZM843.874 93.704L835.957 70.317L828.131 93.704H843.874ZM888.947 73.411C890.464 71.045 892.557 69.134 895.226 67.678C897.895 66.222 901.02 65.494 904.599 65.494C908.785 65.494 912.577 66.5557 915.974 68.679C919.371 70.8023 922.041 73.8357 923.982 77.779C925.984 81.7223 926.985 86.3027 926.985 91.52C926.985 96.7373 925.984 101.348 923.982 105.352C922.041 109.295 919.371 112.359 915.974 114.543C912.577 116.666 908.785 117.728 904.599 117.728C901.08 117.728 897.956 117 895.226 115.544C892.557 114.088 890.464 112.207 888.947 109.902V141.206H873.386V66.222H888.947V73.411ZM911.151 91.52C911.151 87.6373 910.059 84.604 907.875 82.42C905.752 80.1753 903.113 79.053 899.958 79.053C896.864 79.053 894.225 80.1753 892.041 82.42C889.918 84.6647 888.856 87.7283 888.856 91.611C888.856 95.4937 889.918 98.5573 892.041 100.802C894.225 103.047 896.864 104.169 899.958 104.169C903.052 104.169 905.691 103.047 907.875 100.802C910.059 98.4967 911.151 95.4027 911.151 91.52ZM948.89 73.411C950.406 71.045 952.499 69.134 955.169 67.678C957.838 66.222 960.962 65.494 964.542 65.494C968.728 65.494 972.519 66.5557 975.917 68.679C979.314 70.8023 981.983 73.8357 983.925 77.779C985.927 81.7223 986.928 86.3027 986.928 91.52C986.928 96.7373 985.927 101.348 983.925 105.352C981.983 109.295 979.314 112.359 975.917 114.543C972.519 116.666 968.728 117.728 964.542 117.728C961.023 117.728 957.899 117 955.169 115.544C952.499 114.088 950.406 112.207 948.89 109.902V141.206H933.329V66.222H948.89V73.411ZM971.094 91.52C971.094 87.6373 970.002 84.604 967.818 82.42C965.694 80.1753 963.055 79.053 959.901 79.053C956.807 79.053 954.168 80.1753 951.984 82.42C949.86 84.6647 948.799 87.7283 948.799 91.611C948.799 95.4937 949.86 98.5573 951.984 100.802C954.168 103.047 956.807 104.169 959.901 104.169C962.995 104.169 965.634 103.047 967.818 100.802C970.002 98.4967 971.094 95.4027 971.094 91.52Z" fill="#1C1C1C"/>
<path d="M243.236 116.581H220.773C220.773 73.0697 188.959 36.6227 146.24 27.1126V22.3078C146.24 10.0917 136.335 0.186523 124.119 0.186523C111.903 0.186523 101.997 10.0917 101.997 22.3078V27.1126C59.2785 36.6227 27.4644 73.0697 27.4644 116.581H5.00177C2.37097 116.581 0.237305 118.715 0.237305 121.346C0.237305 123.977 2.37097 126.11 5.00177 126.11H243.236C245.867 126.11 248 123.977 248 121.346C248 118.715 245.867 116.581 243.236 116.581Z" fill="#2F5A76"/>
<path d="M142.692 45.7925C142.294 45.7925 141.905 45.908 141.647 46.1311C141.254 46.4697 140.658 47.1468 139.849 48.4985C139.223 49.2536 138.72 50.0625 138.312 50.9036C137.481 52.6154 136.826 54.354 136.286 56.1115C136.286 56.1141 136.283 56.1168 136.283 56.1195C132.196 66.4466 131.072 101.606 131.072 101.606H145.1L144.105 46.8136C144.095 46.2466 143.466 45.7925 142.692 45.7925Z" fill="white"/>
<path d="M144.994 107.042H132.907V126.1H144.994V107.042Z" fill="white"/>
<path d="M121.194 56.4645C121.004 55.4353 120.372 54.5243 119.321 53.788C118.693 53.35 117.924 52.9093 117.005 53.1108C116.027 53.3285 116.295 54.0514 116.266 54.5754C116.032 58.7325 115.868 62.8897 115.61 67.0441C115.551 67.9847 116.113 69.4841 114.189 69.5352C112.111 69.5916 112.48 67.9981 112.367 67.0307C111.891 62.9434 111.582 58.8454 111.155 54.7527C111.066 53.9036 111.249 52.7507 109.389 52.7454C107.688 52.7427 107.769 53.8176 107.68 54.6237C107.218 58.7675 106.847 62.9192 106.369 67.063C106.256 68.0492 106.646 69.597 104.531 69.5191C102.631 69.4519 103.125 67.9766 103.077 67.028C102.878 62.9837 102.771 58.9368 102.591 54.8925C102.564 54.312 102.816 53.5112 101.709 53.3151C100.645 53.127 99.9517 53.7262 99.4089 54.2932C98.6807 55.0537 98.4254 55.9351 98.24 56.8353C97.286 61.4224 97.4311 66.0472 97.7724 70.6397C98.0626 74.563 99.7609 78.1854 105.162 80.2707C106.092 80.6308 106.517 81.1978 106.401 81.9529C106.329 82.5817 106.269 83.2132 106.218 83.842H106.216L106.197 84.1269C106.148 84.7584 106.108 85.3899 106.073 86.0214L105.324 97.5012V126.091H114.965V97.5012L114.202 84.1161C114.199 83.232 114.191 82.3479 114.21 81.4665C114.224 80.8726 114.444 80.5287 114.976 80.182C118.66 78.3063 121.049 75.7588 121.46 72.6121C122.167 67.2403 122.194 61.839 121.194 56.4645Z" fill="white"/>
</svg>
