<svg width="24" height="19" viewBox="0 0 24 19" fill="none" xmlns="http://www.w3.org/2000/svg">
<path d="M23.8966 4.46401C23.8966 3.42829 23.5518 2.55329 22.8621 1.83901C22.1725 1.12472 21.3449 0.767578 20.3794 0.767578H3.62076C2.65524 0.767578 1.82765 1.12472 1.138 1.83901C0.448343 2.55329 0.103516 3.42829 0.103516 4.46401V14.3747C0.103516 15.4104 0.448343 16.2854 1.138 16.9997C1.82765 17.714 2.65524 18.0711 3.62076 18.0711H20.3794C21.3449 18.0711 22.1725 17.714 22.8621 16.9997C23.5518 16.2854 23.8966 15.4104 23.8966 14.3747V4.46401ZM9.62076 13.6247V4.30329L16.4483 8.96401L9.62076 13.6247Z" fill="white"/>
</svg>
