<svg width="1690" height="252" viewBox="0 0 1690 252" fill="none" xmlns="http://www.w3.org/2000/svg">
<path d="M505.2 205L481.84 162.6H475.28V205H447.92V92.68H493.84C502.693 92.68 510.213 94.2267 516.4 97.32C522.693 100.413 527.387 104.68 530.48 110.12C533.573 115.453 535.12 121.427 535.12 128.04C535.12 135.507 532.987 142.173 528.72 148.04C524.56 153.907 518.373 158.067 510.16 160.52L536.08 205H505.2ZM475.28 143.24H492.24C497.253 143.24 500.987 142.013 503.44 139.56C506 137.107 507.28 133.64 507.28 129.16C507.28 124.893 506 121.533 503.44 119.08C500.987 116.627 497.253 115.4 492.24 115.4H475.28V143.24ZM633.255 158.92C633.255 161.48 633.095 164.147 632.775 166.92H570.855C571.282 172.467 573.042 176.733 576.135 179.72C579.335 182.6 583.228 184.04 587.815 184.04C594.642 184.04 599.388 181.16 602.055 175.4H631.175C629.682 181.267 626.962 186.547 623.015 191.24C619.175 195.933 614.322 199.613 608.455 202.28C602.588 204.947 596.028 206.28 588.775 206.28C580.028 206.28 572.242 204.413 565.415 200.68C558.588 196.947 553.255 191.613 549.415 184.68C545.575 177.747 543.655 169.64 543.655 160.36C543.655 151.08 545.522 142.973 549.255 136.04C553.095 129.107 558.428 123.773 565.255 120.04C572.082 116.307 579.922 114.44 588.775 114.44C597.415 114.44 605.095 116.253 611.815 119.88C618.535 123.507 623.762 128.68 627.495 135.4C631.335 142.12 633.255 149.96 633.255 158.92ZM605.255 151.72C605.255 147.027 603.655 143.293 600.455 140.52C597.255 137.747 593.255 136.36 588.455 136.36C583.868 136.36 579.975 137.693 576.775 140.36C573.682 143.027 571.762 146.813 571.015 151.72H605.255ZM680.809 206.28C673.022 206.28 666.089 204.947 660.009 202.28C653.929 199.613 649.129 195.987 645.609 191.4C642.089 186.707 640.115 181.48 639.689 175.72H666.729C667.049 178.813 668.489 181.32 671.049 183.24C673.609 185.16 676.755 186.12 680.489 186.12C683.902 186.12 686.515 185.48 688.329 184.2C690.249 182.813 691.209 181.053 691.209 178.92C691.209 176.36 689.875 174.493 687.209 173.32C684.542 172.04 680.222 170.653 674.249 169.16C667.849 167.667 662.515 166.12 658.249 164.52C653.982 162.813 650.302 160.2 647.209 156.68C644.115 153.053 642.569 148.2 642.569 142.12C642.569 137 643.955 132.36 646.729 128.2C649.609 123.933 653.769 120.573 659.209 118.12C664.755 115.667 671.315 114.44 678.889 114.44C690.089 114.44 698.889 117.213 705.289 122.76C711.795 128.307 715.529 135.667 716.489 144.84H691.209C690.782 141.747 689.395 139.293 687.049 137.48C684.809 135.667 681.822 134.76 678.089 134.76C674.889 134.76 672.435 135.4 670.729 136.68C669.022 137.853 668.169 139.507 668.169 141.64C668.169 144.2 669.502 146.12 672.169 147.4C674.942 148.68 679.209 149.96 684.969 151.24C691.582 152.947 696.969 154.653 701.129 156.36C705.289 157.96 708.915 160.627 712.009 164.36C715.209 167.987 716.862 172.893 716.969 179.08C716.969 184.307 715.475 189 712.489 193.16C709.609 197.213 705.395 200.413 699.849 202.76C694.409 205.107 688.062 206.28 680.809 206.28ZM780.267 181.8V205H766.347C756.427 205 748.694 202.6 743.147 197.8C737.601 192.893 734.827 184.947 734.827 173.96V138.44H723.947V115.72H734.827V93.96H762.187V115.72H780.107V138.44H762.187V174.28C762.187 176.947 762.827 178.867 764.107 180.04C765.387 181.213 767.521 181.8 770.507 181.8H780.267ZM786.868 160.2C786.868 151.027 788.574 142.973 791.988 136.04C795.508 129.107 800.254 123.773 806.228 120.04C812.201 116.307 818.868 114.44 826.228 114.44C832.521 114.44 838.014 115.72 842.708 118.28C847.508 120.84 851.188 124.2 853.748 128.36V115.72H881.108V205H853.748V192.36C851.081 196.52 847.348 199.88 842.548 202.44C837.854 205 832.361 206.28 826.068 206.28C818.814 206.28 812.201 204.413 806.228 200.68C800.254 196.84 795.508 191.453 791.988 184.52C788.574 177.48 786.868 169.373 786.868 160.2ZM853.748 160.36C853.748 153.533 851.828 148.147 847.988 144.2C844.254 140.253 839.668 138.28 834.228 138.28C828.788 138.28 824.148 140.253 820.308 144.2C816.574 148.04 814.708 153.373 814.708 160.2C814.708 167.027 816.574 172.467 820.308 176.52C824.148 180.467 828.788 182.44 834.228 182.44C839.668 182.44 844.254 180.467 847.988 176.52C851.828 172.573 853.748 167.187 853.748 160.36ZM985.861 115.72V205H958.501V192.84C955.728 196.787 951.941 199.987 947.141 202.44C942.448 204.787 937.221 205.96 931.461 205.96C924.635 205.96 918.608 204.467 913.381 201.48C908.155 198.387 904.101 193.96 901.221 188.2C898.341 182.44 896.901 175.667 896.901 167.88V115.72H924.101V164.2C924.101 170.173 925.648 174.813 928.741 178.12C931.835 181.427 935.995 183.08 941.221 183.08C946.555 183.08 950.768 181.427 953.861 178.12C956.955 174.813 958.501 170.173 958.501 164.2V115.72H985.861ZM1029.67 130.6C1032.87 125.693 1036.87 121.853 1041.67 119.08C1046.47 116.2 1051.81 114.76 1057.67 114.76V143.72H1050.15C1043.33 143.72 1038.21 145.213 1034.79 148.2C1031.38 151.08 1029.67 156.2 1029.67 163.56V205H1002.31V115.72H1029.67V130.6ZM1062.11 160.2C1062.11 151.027 1063.82 142.973 1067.23 136.04C1070.75 129.107 1075.5 123.773 1081.47 120.04C1087.44 116.307 1094.11 114.44 1101.47 114.44C1107.76 114.44 1113.26 115.72 1117.95 118.28C1122.75 120.84 1126.43 124.2 1128.99 128.36V115.72H1156.35V205H1128.99V192.36C1126.32 196.52 1122.59 199.88 1117.79 202.44C1113.1 205 1107.6 206.28 1101.31 206.28C1094.06 206.28 1087.44 204.413 1081.47 200.68C1075.5 196.84 1070.75 191.453 1067.23 184.52C1063.82 177.48 1062.11 169.373 1062.11 160.2ZM1128.99 160.36C1128.99 153.533 1127.07 148.147 1123.23 144.2C1119.5 140.253 1114.91 138.28 1109.47 138.28C1104.03 138.28 1099.39 140.253 1095.55 144.2C1091.82 148.04 1089.95 153.373 1089.95 160.2C1089.95 167.027 1091.82 172.467 1095.55 176.52C1099.39 180.467 1104.03 182.44 1109.47 182.44C1114.91 182.44 1119.5 180.467 1123.23 176.52C1127.07 172.573 1128.99 167.187 1128.99 160.36ZM1227.35 114.76C1237.8 114.76 1246.12 118.173 1252.31 125C1258.6 131.72 1261.75 141 1261.75 152.84V205H1234.55V156.52C1234.55 150.547 1233 145.907 1229.91 142.6C1226.81 139.293 1222.65 137.64 1217.43 137.64C1212.2 137.64 1208.04 139.293 1204.95 142.6C1201.85 145.907 1200.31 150.547 1200.31 156.52V205H1172.95V115.72H1200.31V127.56C1203.08 123.613 1206.81 120.52 1211.51 118.28C1216.2 115.933 1221.48 114.76 1227.35 114.76ZM1327.32 181.8V205H1313.4C1303.48 205 1295.74 202.6 1290.2 197.8C1284.65 192.893 1281.88 184.947 1281.88 173.96V138.44H1271V115.72H1281.88V93.96H1309.24V115.72H1327.16V138.44H1309.24V174.28C1309.24 176.947 1309.88 178.867 1311.16 180.04C1312.44 181.213 1314.57 181.8 1317.56 181.8H1327.32ZM1439.98 185.16H1398.06L1391.34 205H1362.7L1403.34 92.68H1435.02L1475.66 205H1446.7L1439.98 185.16ZM1432.94 164.04L1419.02 122.92L1405.26 164.04H1432.94ZM1512.19 128.36C1514.86 124.2 1518.54 120.84 1523.23 118.28C1527.93 115.72 1533.42 114.44 1539.71 114.44C1547.07 114.44 1553.74 116.307 1559.71 120.04C1565.69 123.773 1570.38 129.107 1573.79 136.04C1577.31 142.973 1579.07 151.027 1579.07 160.2C1579.07 169.373 1577.31 177.48 1573.79 184.52C1570.38 191.453 1565.69 196.84 1559.71 200.68C1553.74 204.413 1547.07 206.28 1539.71 206.28C1533.53 206.28 1528.03 205 1523.23 202.44C1518.54 199.88 1514.86 196.573 1512.19 192.52V247.56H1484.83V115.72H1512.19V128.36ZM1551.23 160.2C1551.23 153.373 1549.31 148.04 1545.47 144.2C1541.74 140.253 1537.1 138.28 1531.55 138.28C1526.11 138.28 1521.47 140.253 1517.63 144.2C1513.9 148.147 1512.03 153.533 1512.03 160.36C1512.03 167.187 1513.9 172.573 1517.63 176.52C1521.47 180.467 1526.11 182.44 1531.55 182.44C1536.99 182.44 1541.63 180.467 1545.47 176.52C1549.31 172.467 1551.23 167.027 1551.23 160.2ZM1617.59 128.36C1620.25 124.2 1623.93 120.84 1628.63 118.28C1633.32 115.72 1638.81 114.44 1645.11 114.44C1652.47 114.44 1659.13 116.307 1665.11 120.04C1671.08 123.773 1675.77 129.107 1679.19 136.04C1682.71 142.973 1684.47 151.027 1684.47 160.2C1684.47 169.373 1682.71 177.48 1679.19 184.52C1675.77 191.453 1671.08 196.84 1665.11 200.68C1659.13 204.413 1652.47 206.28 1645.11 206.28C1638.92 206.28 1633.43 205 1628.63 202.44C1623.93 199.88 1620.25 196.573 1617.59 192.52V247.56H1590.23V115.72H1617.59V128.36ZM1656.63 160.2C1656.63 153.373 1654.71 148.04 1650.87 144.2C1647.13 140.253 1642.49 138.28 1636.95 138.28C1631.51 138.28 1626.87 140.253 1623.03 144.2C1619.29 148.147 1617.43 153.533 1617.43 160.36C1617.43 167.187 1619.29 172.573 1623.03 176.52C1626.87 180.467 1631.51 182.44 1636.95 182.44C1642.39 182.44 1647.03 180.467 1650.87 176.52C1654.71 172.467 1656.63 167.027 1656.63 160.2Z" fill="#1C1C1C"/>
<path d="M408.441 196.718H370.685C370.685 123.179 317.211 61.5804 245.407 45.5075V37.387C245.407 16.7406 228.758 0 208.225 0C187.691 0 171.042 16.7406 171.042 37.387V45.5075C99.2388 61.5804 45.7643 123.179 45.7643 196.718H8.0083C3.58635 196.718 0 200.324 0 204.77C0 209.216 3.58635 212.822 8.0083 212.822H408.441C412.863 212.822 416.45 209.216 416.45 204.77C416.45 200.324 412.863 196.718 408.441 196.718Z" fill="#2F5A76"/>
<path d="M239.443 77.0781C238.774 77.0781 238.119 77.2734 237.686 77.6504C237.026 78.2226 236.024 79.3671 234.664 81.6516C233.612 82.9278 232.767 84.2948 232.08 85.7164C230.685 88.6094 229.583 91.5479 228.675 94.5181C228.675 94.5226 228.67 94.5272 228.67 94.5317C221.8 111.985 219.912 171.408 219.912 171.408H243.49L241.819 78.804C241.801 77.8457 240.744 77.0781 239.443 77.0781Z" fill="white"/>
<path d="M243.313 180.596H222.996V212.805H243.313V180.596Z" fill="white"/>
<path d="M203.309 95.1148C202.988 93.3753 201.927 91.8357 200.161 90.5913C199.104 89.851 197.812 89.1062 196.267 89.4468C194.623 89.8147 195.075 91.0364 195.025 91.922C194.632 98.9479 194.357 105.974 193.923 112.995C193.824 114.585 194.768 117.119 191.534 117.205C188.042 117.301 188.661 114.608 188.471 112.973C187.672 106.065 187.152 99.1387 186.434 92.2217C186.285 90.7866 186.592 88.8382 183.467 88.8291C180.607 88.8246 180.743 90.6412 180.594 92.0037C179.817 99.007 179.194 106.024 178.39 113.027C178.2 114.694 178.855 117.31 175.3 117.178C172.107 117.065 172.938 114.571 172.857 112.968C172.522 106.133 172.342 99.2931 172.039 92.4579C171.994 91.4769 172.418 90.1235 170.558 89.792C168.769 89.474 167.604 90.4868 166.691 91.4451C165.467 92.7304 165.038 94.2201 164.726 95.7415C163.123 103.494 163.367 111.31 163.94 119.072C164.428 125.703 167.283 131.825 176.362 135.349C177.924 135.958 178.638 136.916 178.444 138.192C178.322 139.255 178.223 140.322 178.137 141.385H178.132L178.101 141.867C178.019 142.934 177.952 144.001 177.893 145.069L176.633 164.47V212.789H192.839V164.47L191.556 141.848C191.552 140.354 191.538 138.86 191.57 137.37C191.592 136.367 191.963 135.785 192.857 135.2C199.05 132.029 203.065 127.724 203.756 122.406C204.944 113.327 204.989 104.198 203.309 95.1148Z" fill="white"/>
</svg>
