<svg width="38" height="38" viewBox="0 0 38 38" fill="none" xmlns="http://www.w3.org/2000/svg">
<path d="M20.1921 5.87811H18.005C14.0005 5.88121 10.1415 7.38026 7.18505 10.0813C4.22856 12.7823 2.38781 16.4904 2.0238 20.4783C2.01617 20.5947 2.03253 20.7114 2.07186 20.8211C2.1112 20.9309 2.17267 21.0314 2.25247 21.1164C2.33227 21.2015 2.42868 21.2692 2.53574 21.3154C2.6428 21.3616 2.75821 21.3853 2.87481 21.385H35.3246C35.4412 21.3853 35.5566 21.3616 35.6636 21.3154C35.7707 21.2692 35.8671 21.2015 35.9469 21.1164C36.0267 21.0314 36.0882 20.9309 36.1275 20.8211C36.1669 20.7114 36.1832 20.5947 36.1756 20.4783C35.8115 16.49 33.9705 12.7816 31.0135 10.0805C28.0565 7.37942 24.197 5.88063 20.1921 5.87811ZM18.2703 4.96079H19.929C20.3129 4.95936 20.6806 4.80563 20.9513 4.53337C21.2219 4.26111 21.3735 3.89257 21.3727 3.50866V3.42279C21.3716 3.04023 21.2192 2.67363 20.9487 2.40312C20.6782 2.13261 20.3116 1.98019 19.929 1.97916H18.2703C17.8877 1.97998 17.5209 2.13231 17.2502 2.40285C16.9795 2.67338 16.827 3.04009 16.8259 3.42279V3.50866C16.8253 3.89264 16.9771 4.26118 17.2479 4.53342C17.5186 4.80566 17.8864 4.95936 18.2703 4.96079Z" fill="#2F5A76"/>
<path d="M4.93078 24.8145L1.52142 25.4958C1.1184 25.5763 0.85697 25.9683 0.937501 26.3713L2.89226 36.1539C2.97279 36.557 3.36478 36.8184 3.7678 36.7378L7.17716 36.0566C7.58018 35.9761 7.84161 35.5841 7.76108 35.181L5.80632 25.3985C5.72579 24.9954 5.3338 24.734 4.93078 24.8145Z" fill="#2F5A76"/>
<path d="M36.7025 23.3601C36.7006 23.3601 36.6987 23.3593 36.6973 23.3579C36.6959 23.3565 36.6951 23.3546 36.6951 23.3526C36.5264 23.1217 36.2848 22.9542 36.0093 22.8773C35.7338 22.8004 35.4404 22.8185 35.1765 22.9287C34.4175 23.1444 33.6578 23.4349 32.9211 23.7173C32.2437 23.9707 31.5514 24.2309 30.8369 24.4547C29.2522 24.9618 27.6359 25.3646 25.9986 25.6606C24.5203 25.9073 23.0291 26.0687 21.5323 26.1439C21.3101 26.5584 20.9892 26.9118 20.598 27.1728C20.2067 27.4338 19.7571 27.5944 19.2891 27.6403C19.2648 27.6461 19.2399 27.6486 19.2149 27.6477H19.2075L13.4457 27.6106C13.2483 27.6087 13.0597 27.5283 12.9214 27.3873C12.7832 27.2463 12.7067 27.0562 12.7086 26.8587C12.7106 26.6613 12.7909 26.4727 12.9319 26.3345C13.0729 26.1962 13.2631 26.1197 13.4605 26.1216L19.1704 26.1594C19.441 26.1284 19.6957 26.0156 19.9005 25.836C20.1052 25.6564 20.2503 25.4186 20.3163 25.1544C20.353 24.9945 20.3479 24.8278 20.3015 24.6704C20.2699 24.5161 20.2038 24.3709 20.108 24.2458C19.9956 24.1026 19.8537 23.9854 19.6919 23.902C19.5301 23.8186 19.3522 23.771 19.1704 23.7625L12.4933 23.3081C11.6718 23.254 10.8494 23.3995 10.0963 23.7321L7.80456 24.7553C7.64997 24.8237 7.52338 24.9429 7.44578 25.093C7.36818 25.2432 7.34423 25.4154 7.37788 25.5811L9.11087 34.244C9.14457 34.4148 9.23733 34.5684 9.3729 34.6777C9.50847 34.787 9.6782 34.8452 9.85233 34.8419L20.8731 34.6396C22.2379 34.617 23.569 34.2121 24.7152 33.4708L36.7248 25.6923C36.99 25.5331 37.1823 25.2763 37.2603 24.977C37.3383 24.6777 37.2958 24.3597 37.142 24.0914L36.7025 23.3601Z" fill="#2F5A76"/>
</svg>
