<svg width="51" height="26" viewBox="0 0 51 26" fill="none" xmlns="http://www.w3.org/2000/svg">
<path d="M49.4877 23.4892H44.9546C44.9546 14.7082 38.5344 7.35304 29.9134 5.43384V4.46421C29.9134 1.99891 27.9145 0 25.4492 0C22.9839 0 20.985 1.99891 20.985 4.46421V5.43384C12.3641 7.35304 5.9438 14.7082 5.9438 23.4892H1.41072C0.879805 23.4892 0.449219 23.9197 0.449219 24.4507C0.449219 24.9816 0.879805 25.4121 1.41072 25.4121H49.4877C50.0186 25.4121 50.4492 24.9816 50.4492 24.4507C50.4492 23.9197 50.0186 23.4892 49.4877 23.4892Z" fill="#2F5A76"/>
<path d="M28.4005 9.19141C28.3419 9.19141 28.2839 9.21473 28.246 9.25974C28.1879 9.32807 28.1001 9.46473 27.9802 9.7375C27.8875 9.88989 27.8137 10.0531 27.753 10.2229C27.6305 10.5683 27.5334 10.9192 27.4537 11.2738C27.4537 11.2744 27.4531 11.2749 27.4531 11.2755C26.849 13.3595 26.6836 20.455 26.6836 20.455H28.7563L28.6093 9.39748C28.6077 9.28305 28.5144 9.19141 28.4005 9.19141Z" fill="white"/>
<path d="M28.735 21.5586H26.9492V25.4046H28.735V21.5586Z" fill="white"/>
<path d="M24.4122 11.3404C24.3851 11.1327 24.295 10.9488 24.1454 10.8003C24.0559 10.7119 23.9463 10.6229 23.8156 10.6636C23.6763 10.7075 23.7148 10.8534 23.7104 10.9592C23.6768 11.7981 23.6535 12.637 23.6172 13.4754C23.609 13.6652 23.6887 13.9678 23.4149 13.9781C23.1193 13.9895 23.1714 13.6679 23.1551 13.4727C23.0873 12.6479 23.0434 11.8209 22.9827 10.9949C22.9702 10.8236 22.9962 10.5909 22.731 10.5898C22.4886 10.5893 22.5006 10.8062 22.4875 10.9689C22.4219 11.8051 22.3688 12.643 22.301 13.4792C22.2847 13.6782 22.3406 13.9906 22.0391 13.9749C21.7685 13.9613 21.8384 13.6636 21.8319 13.4722C21.8037 12.656 21.7885 11.8393 21.7625 11.0231C21.7587 10.906 21.795 10.7444 21.6367 10.7048C21.4848 10.6669 21.3861 10.7878 21.3091 10.9022C21.205 11.0557 21.1692 11.2336 21.1426 11.4152C21.0065 12.3409 21.0277 13.2742 21.0759 14.201C21.1172 14.9928 21.359 15.7238 22.1285 16.1446C22.2609 16.2173 22.3216 16.3317 22.3048 16.4841C22.2945 16.611 22.2864 16.7384 22.2788 16.8653H22.2782L22.2755 16.9228C22.2685 17.0503 22.2625 17.1777 22.2576 17.3051L22.1508 19.6218V25.3914H23.5244V19.6218L23.416 16.9206C23.4154 16.7422 23.4143 16.5638 23.417 16.3859C23.4187 16.2661 23.4501 16.1967 23.5261 16.1267C24.051 15.7482 24.391 15.2341 24.4496 14.5991C24.5505 13.515 24.5542 12.425 24.4122 11.3404Z" fill="white"/>
</svg>
