<svg width="221" height="38" viewBox="0 0 221 38" fill="none" xmlns="http://www.w3.org/2000/svg">
<path d="M20.1921 5.87811H18.005C14.0005 5.88121 10.1415 7.38026 7.18505 10.0813C4.22856 12.7823 2.38781 16.4904 2.0238 20.4783C2.01617 20.5947 2.03253 20.7114 2.07186 20.8211C2.1112 20.9309 2.17267 21.0314 2.25247 21.1164C2.33227 21.2015 2.42868 21.2692 2.53574 21.3154C2.6428 21.3616 2.75821 21.3853 2.87481 21.385H35.3246C35.4412 21.3853 35.5566 21.3616 35.6636 21.3154C35.7707 21.2692 35.8671 21.2015 35.9469 21.1164C36.0267 21.0314 36.0882 20.9309 36.1275 20.8211C36.1669 20.7114 36.1832 20.5947 36.1756 20.4783C35.8115 16.49 33.9705 12.7816 31.0135 10.0805C28.0565 7.37942 24.197 5.88063 20.1921 5.87811ZM18.2703 4.96079H19.929C20.3129 4.95936 20.6806 4.80563 20.9513 4.53337C21.2219 4.26111 21.3735 3.89257 21.3727 3.50866V3.42279C21.3716 3.04023 21.2192 2.67363 20.9487 2.40312C20.6782 2.13261 20.3116 1.98019 19.929 1.97916H18.2703C17.8877 1.97998 17.5209 2.13231 17.2502 2.40285C16.9795 2.67338 16.827 3.04009 16.8259 3.42279V3.50866C16.8253 3.89264 16.9771 4.26118 17.2479 4.53342C17.5186 4.80566 17.8864 4.95936 18.2703 4.96079Z" fill="#2F5A76"/>
<path d="M4.93084 24.8145L1.52148 25.4958C1.11846 25.5763 0.857031 25.9683 0.937562 26.3713L2.89232 36.1539C2.97285 36.557 3.36484 36.8184 3.76786 36.7378L7.17722 36.0566C7.58024 35.9761 7.84167 35.5841 7.76114 35.181L5.80638 25.3985C5.72585 24.9954 5.33386 24.734 4.93084 24.8145Z" fill="#2F5A76"/>
<path d="M36.7025 23.3601C36.7006 23.3601 36.6987 23.3593 36.6973 23.3579C36.6959 23.3565 36.6951 23.3546 36.6951 23.3526C36.5264 23.1217 36.2848 22.9542 36.0093 22.8773C35.7338 22.8004 35.4404 22.8185 35.1765 22.9287C34.4175 23.1444 33.6578 23.4349 32.9211 23.7173C32.2437 23.9707 31.5514 24.2309 30.8369 24.4547C29.2522 24.9618 27.6359 25.3646 25.9986 25.6606C24.5203 25.9073 23.0291 26.0687 21.5323 26.1439C21.3101 26.5584 20.9892 26.9118 20.598 27.1728C20.2067 27.4338 19.7571 27.5944 19.2891 27.6403C19.2648 27.6461 19.2399 27.6486 19.2149 27.6477H19.2075L13.4457 27.6106C13.2483 27.6087 13.0597 27.5283 12.9214 27.3873C12.7832 27.2463 12.7067 27.0562 12.7086 26.8587C12.7106 26.6613 12.7909 26.4727 12.9319 26.3345C13.0729 26.1962 13.2631 26.1197 13.4605 26.1216L19.1704 26.1594C19.441 26.1284 19.6957 26.0156 19.9005 25.836C20.1052 25.6564 20.2503 25.4186 20.3163 25.1544C20.353 24.9945 20.3479 24.8278 20.3015 24.6704C20.2699 24.5161 20.2038 24.3709 20.108 24.2458C19.9956 24.1026 19.8537 23.9854 19.6919 23.902C19.5301 23.8186 19.3522 23.771 19.1704 23.7625L12.4933 23.3081C11.6718 23.254 10.8494 23.3995 10.0963 23.7321L7.80456 24.7553C7.64997 24.8237 7.52338 24.9429 7.44578 25.093C7.36818 25.2432 7.34423 25.4154 7.37788 25.5811L9.11087 34.244C9.14457 34.4148 9.23733 34.5684 9.3729 34.6777C9.50847 34.787 9.6782 34.8452 9.85233 34.8419L20.8731 34.6396C22.2379 34.617 23.569 34.2121 24.7152 33.4708L36.7248 25.6923C36.99 25.5331 37.1823 25.2763 37.2603 24.977C37.3383 24.6777 37.2958 24.3597 37.142 24.0914L36.7025 23.3601Z" fill="#2F5A76"/>
<path d="M57.4621 26.5L54.2501 20.67H53.3481V26.5H49.5861V11.056H55.9001C57.1174 11.056 58.1514 11.2687 59.0021 11.694C59.8674 12.1193 60.5128 12.706 60.9381 13.454C61.3634 14.1873 61.5761 15.0087 61.5761 15.918C61.5761 16.9447 61.2828 17.8613 60.6961 18.668C60.1241 19.4747 59.2734 20.0467 58.1441 20.384L61.7081 26.5H57.4621ZM53.3481 18.008H55.6801C56.3694 18.008 56.8828 17.8393 57.2201 17.502C57.5721 17.1647 57.7481 16.688 57.7481 16.072C57.7481 15.4853 57.5721 15.0233 57.2201 14.686C56.8828 14.3487 56.3694 14.18 55.6801 14.18H53.3481V18.008ZM75.0697 20.164C75.0697 20.516 75.0477 20.8827 75.0037 21.264H66.4897C66.5483 22.0267 66.7903 22.6133 67.2157 23.024C67.6557 23.42 68.191 23.618 68.8217 23.618C69.7603 23.618 70.413 23.222 70.7797 22.43H74.7837C74.5783 23.2367 74.2043 23.9627 73.6617 24.608C73.1337 25.2533 72.4663 25.7593 71.6597 26.126C70.853 26.4927 69.951 26.676 68.9537 26.676C67.751 26.676 66.6803 26.4193 65.7417 25.906C64.803 25.3927 64.0697 24.6593 63.5417 23.706C63.0137 22.7527 62.7497 21.638 62.7497 20.362C62.7497 19.086 63.0063 17.9713 63.5197 17.018C64.0477 16.0647 64.781 15.3313 65.7197 14.818C66.6583 14.3047 67.7363 14.048 68.9537 14.048C70.1417 14.048 71.1977 14.2973 72.1217 14.796C73.0457 15.2947 73.7643 16.006 74.2777 16.93C74.8057 17.854 75.0697 18.932 75.0697 20.164ZM71.2197 19.174C71.2197 18.5287 70.9997 18.0153 70.5597 17.634C70.1197 17.2527 69.5697 17.062 68.9097 17.062C68.279 17.062 67.7437 17.2453 67.3037 17.612C66.8783 17.9787 66.6143 18.4993 66.5117 19.174H71.2197ZM81.6083 26.676C80.5376 26.676 79.5843 26.4927 78.7483 26.126C77.9123 25.7593 77.2523 25.2607 76.7683 24.63C76.2843 23.9847 76.013 23.266 75.9543 22.474H79.6723C79.7163 22.8993 79.9143 23.244 80.2663 23.508C80.6183 23.772 81.051 23.904 81.5643 23.904C82.0336 23.904 82.393 23.816 82.6423 23.64C82.9063 23.4493 83.0383 23.2073 83.0383 22.914C83.0383 22.562 82.855 22.3053 82.4883 22.144C82.1216 21.968 81.5276 21.7773 80.7063 21.572C79.8263 21.3667 79.093 21.154 78.5063 20.934C77.9196 20.6993 77.4136 20.34 76.9883 19.856C76.563 19.3573 76.3503 18.69 76.3503 17.854C76.3503 17.15 76.541 16.512 76.9223 15.94C77.3183 15.3533 77.8903 14.8913 78.6383 14.554C79.401 14.2167 80.303 14.048 81.3443 14.048C82.8843 14.048 84.0943 14.4293 84.9743 15.192C85.869 15.9547 86.3823 16.9667 86.5143 18.228H83.0383C82.9796 17.8027 82.789 17.4653 82.4663 17.216C82.1583 16.9667 81.7476 16.842 81.2343 16.842C80.7943 16.842 80.457 16.93 80.2223 17.106C79.9876 17.2673 79.8703 17.4947 79.8703 17.788C79.8703 18.14 80.0536 18.404 80.4203 18.58C80.8016 18.756 81.3883 18.932 82.1803 19.108C83.0896 19.3427 83.8303 19.5773 84.4023 19.812C84.9743 20.032 85.473 20.3987 85.8983 20.912C86.3383 21.4107 86.5656 22.0853 86.5803 22.936C86.5803 23.6547 86.375 24.3 85.9643 24.872C85.5683 25.4293 84.989 25.8693 84.2263 26.192C83.4783 26.5147 82.6056 26.676 81.6083 26.676ZM95.2839 23.31V26.5H93.3699C92.0059 26.5 90.9426 26.17 90.1799 25.51C89.4172 24.8353 89.0359 23.7427 89.0359 22.232V17.348H87.5399V14.224H89.0359V11.232H92.7979V14.224H95.2619V17.348H92.7979V22.276C92.7979 22.6427 92.8859 22.9067 93.0619 23.068C93.2379 23.2293 93.5312 23.31 93.9419 23.31H95.2839ZM96.1914 20.34C96.1914 19.0787 96.4261 17.9713 96.8954 17.018C97.3794 16.0647 98.0321 15.3313 98.8534 14.818C99.6747 14.3047 100.591 14.048 101.603 14.048C102.469 14.048 103.224 14.224 103.869 14.576C104.529 14.928 105.035 15.39 105.387 15.962V14.224H109.149V26.5H105.387V24.762C105.021 25.334 104.507 25.796 103.847 26.148C103.202 26.5 102.447 26.676 101.581 26.676C100.584 26.676 99.6747 26.4193 98.8534 25.906C98.0321 25.378 97.3794 24.6373 96.8954 23.684C96.4261 22.716 96.1914 21.6013 96.1914 20.34ZM105.387 20.362C105.387 19.4233 105.123 18.6827 104.595 18.14C104.082 17.5973 103.451 17.326 102.703 17.326C101.955 17.326 101.317 17.5973 100.789 18.14C100.276 18.668 100.019 19.4013 100.019 20.34C100.019 21.2787 100.276 22.0267 100.789 22.584C101.317 23.1267 101.955 23.398 102.703 23.398C103.451 23.398 104.082 23.1267 104.595 22.584C105.123 22.0413 105.387 21.3007 105.387 20.362ZM123.553 14.224V26.5H119.791V24.828C119.41 25.3707 118.889 25.8107 118.229 26.148C117.584 26.4707 116.865 26.632 116.073 26.632C115.134 26.632 114.306 26.4267 113.587 26.016C112.868 25.5907 112.311 24.982 111.915 24.19C111.519 23.398 111.321 22.4667 111.321 21.396V14.224H115.061V20.89C115.061 21.7113 115.274 22.3493 115.699 22.804C116.124 23.2587 116.696 23.486 117.415 23.486C118.148 23.486 118.728 23.2587 119.153 22.804C119.578 22.3493 119.791 21.7113 119.791 20.89V14.224H123.553ZM129.577 16.27C130.017 15.5953 130.567 15.0673 131.227 14.686C131.887 14.29 132.621 14.092 133.427 14.092V18.074H132.393C131.455 18.074 130.751 18.2793 130.281 18.69C129.812 19.086 129.577 19.79 129.577 20.802V26.5H125.815V14.224H129.577V16.27ZM134.037 20.34C134.037 19.0787 134.272 17.9713 134.741 17.018C135.225 16.0647 135.878 15.3313 136.699 14.818C137.521 14.3047 138.437 14.048 139.449 14.048C140.315 14.048 141.07 14.224 141.715 14.576C142.375 14.928 142.881 15.39 143.233 15.962V14.224H146.995V26.5H143.233V24.762C142.867 25.334 142.353 25.796 141.693 26.148C141.048 26.5 140.293 26.676 139.427 26.676C138.43 26.676 137.521 26.4193 136.699 25.906C135.878 25.378 135.225 24.6373 134.741 23.684C134.272 22.716 134.037 21.6013 134.037 20.34ZM143.233 20.362C143.233 19.4233 142.969 18.6827 142.441 18.14C141.928 17.5973 141.297 17.326 140.549 17.326C139.801 17.326 139.163 17.5973 138.635 18.14C138.122 18.668 137.865 19.4013 137.865 20.34C137.865 21.2787 138.122 22.0267 138.635 22.584C139.163 23.1267 139.801 23.398 140.549 23.398C141.297 23.398 141.928 23.1267 142.441 22.584C142.969 22.0413 143.233 21.3007 143.233 20.362ZM156.757 14.092C158.194 14.092 159.338 14.5613 160.189 15.5C161.054 16.424 161.487 17.7 161.487 19.328V26.5H157.747V19.834C157.747 19.0127 157.534 18.3747 157.109 17.92C156.684 17.4653 156.112 17.238 155.393 17.238C154.674 17.238 154.102 17.4653 153.677 17.92C153.252 18.3747 153.039 19.0127 153.039 19.834V26.5H149.277V14.224H153.039V15.852C153.42 15.3093 153.934 14.884 154.579 14.576C155.224 14.2533 155.95 14.092 156.757 14.092ZM170.503 23.31V26.5H168.589C167.225 26.5 166.162 26.17 165.399 25.51C164.637 24.8353 164.255 23.7427 164.255 22.232V17.348H162.759V14.224H164.255V11.232H168.017V14.224H170.481V17.348H168.017V22.276C168.017 22.6427 168.105 22.9067 168.281 23.068C168.457 23.2293 168.751 23.31 169.161 23.31H170.503ZM185.995 23.772H180.231L179.307 26.5H175.369L180.957 11.056H185.313L190.901 26.5H186.919L185.995 23.772ZM185.027 20.868L183.113 15.214L181.221 20.868H185.027ZM195.924 15.962C196.29 15.39 196.796 14.928 197.442 14.576C198.087 14.224 198.842 14.048 199.708 14.048C200.72 14.048 201.636 14.3047 202.458 14.818C203.279 15.3313 203.924 16.0647 204.394 17.018C204.878 17.9713 205.12 19.0787 205.12 20.34C205.12 21.6013 204.878 22.716 204.394 23.684C203.924 24.6373 203.279 25.378 202.458 25.906C201.636 26.4193 200.72 26.676 199.708 26.676C198.857 26.676 198.102 26.5 197.442 26.148C196.796 25.796 196.29 25.3413 195.924 24.784V32.352H192.162V14.224H195.924V15.962ZM201.292 20.34C201.292 19.4013 201.028 18.668 200.5 18.14C199.986 17.5973 199.348 17.326 198.586 17.326C197.838 17.326 197.2 17.5973 196.672 18.14C196.158 18.6827 195.902 19.4233 195.902 20.362C195.902 21.3007 196.158 22.0413 196.672 22.584C197.2 23.1267 197.838 23.398 198.586 23.398C199.334 23.398 199.972 23.1267 200.5 22.584C201.028 22.0267 201.292 21.2787 201.292 20.34ZM210.415 15.962C210.782 15.39 211.288 14.928 211.933 14.576C212.579 14.224 213.334 14.048 214.199 14.048C215.211 14.048 216.128 14.3047 216.949 14.818C217.771 15.3313 218.416 16.0647 218.885 17.018C219.369 17.9713 219.611 19.0787 219.611 20.34C219.611 21.6013 219.369 22.716 218.885 23.684C218.416 24.6373 217.771 25.378 216.949 25.906C216.128 26.4193 215.211 26.676 214.199 26.676C213.349 26.676 212.593 26.5 211.933 26.148C211.288 25.796 210.782 25.3413 210.415 24.784V32.352H206.653V14.224H210.415V15.962ZM215.783 20.34C215.783 19.4013 215.519 18.668 214.991 18.14C214.478 17.5973 213.84 17.326 213.077 17.326C212.329 17.326 211.691 17.5973 211.163 18.14C210.65 18.6827 210.393 19.4233 210.393 20.362C210.393 21.3007 210.65 22.0413 211.163 22.584C211.691 23.1267 212.329 23.398 213.077 23.398C213.825 23.398 214.463 23.1267 214.991 22.584C215.519 22.0267 215.783 21.2787 215.783 20.34Z" fill="#1C1C1C"/>
</svg>
