<svg width="631" height="663" viewBox="0 0 631 663" fill="none" xmlns="http://www.w3.org/2000/svg">
<rect width="631" height="663" rx="8" fill="#2F5A76" fill-opacity="0.1"/>
<path d="M385.955 587.371H198C195.949 587.368 193.924 586.918 192.065 586.051C190.207 585.184 188.56 583.921 187.241 582.35C185.922 580.78 184.963 578.94 184.429 576.96C183.896 574.98 183.802 572.907 184.154 570.887C195.695 503.731 195.641 439.318 183.992 377.647C183.638 375.787 183.664 373.875 184.066 372.026C184.469 370.176 185.24 368.426 186.335 366.882C187.43 365.337 188.824 364.029 190.436 363.037C192.048 362.044 193.844 361.386 195.715 361.103C259.513 351.445 324.412 351.588 388.167 361.527C391.473 362.049 394.484 363.735 396.656 366.281C398.829 368.827 400.02 372.066 400.015 375.413V573.31C400.015 575.157 399.651 576.985 398.945 578.691C398.238 580.397 397.202 581.947 395.897 583.252C394.591 584.558 393.041 585.594 391.336 586.301C389.63 587.007 387.801 587.371 385.955 587.371Z" fill="#5B5B5B"/>
<path d="M195.826 570.886C207.367 503.731 207.313 439.318 195.662 377.647C195.309 375.787 195.334 373.875 195.737 372.025C196.14 370.176 196.912 368.426 198.006 366.882C199.101 365.337 200.496 364.029 202.108 363.037C203.72 362.044 205.515 361.386 207.387 361.103C236.837 356.657 266.563 354.283 296.346 353.997C262.667 353.696 229.018 356.072 195.716 361.103C193.844 361.386 192.048 362.043 190.436 363.036C188.824 364.029 187.429 365.337 186.335 366.881C185.24 368.426 184.469 370.176 184.066 372.025C183.663 373.875 183.638 375.787 183.992 377.647C195.642 439.319 195.696 503.733 184.154 570.886C183.802 572.907 183.896 574.98 184.43 576.96C184.963 578.94 185.923 580.78 187.241 582.35C188.56 583.92 190.207 585.183 192.065 586.051C193.923 586.918 195.949 587.368 198 587.37H209.67C207.62 587.368 205.594 586.918 203.736 586.05C201.878 585.183 200.232 583.92 198.913 582.35C197.594 580.779 196.635 578.94 196.101 576.96C195.568 574.979 195.474 572.907 195.826 570.886Z" fill="#D1D3D4"/>
<path d="M416.794 314.185C409.787 302.179 404.968 286.251 402.743 272.914C415.561 230.241 401.639 182.907 341.29 192.518C317.065 185.821 277.2 189.225 281.445 232.46C280.643 242.98 281.193 254.23 280.875 264.529C281.758 300.861 257.801 335.516 257.883 362.006C256.319 390.306 432.515 394.496 424.89 359.164C432.845 344.513 424.594 330.123 416.794 314.185V314.185ZM282.169 225.821C282.812 192.959 311.724 188.082 333.215 191.694C295.9 188.969 285.205 205.118 282.169 225.821H282.169ZM402.441 271.192C400.634 257.57 406.392 242.662 403.706 230.364C407.22 242.546 407.995 258.087 402.441 271.193V271.192ZM426.804 351.115C426.499 353.317 425.813 355.448 424.775 357.413C423.632 343.993 416.877 324.218 410.874 304.414C417.889 319.5 429.079 336.33 426.804 351.115Z" fill="#0B2D50"/>
<path d="M444.662 399.209C413.307 370.005 337.497 361.928 294.898 376.103L294.74 375.874C290.895 377.145 286.944 378.508 283.013 379.722L283.15 379.872C265.431 386.317 243.885 395.678 238.417 403.341C226.573 419.926 227.608 538.605 227.608 538.605H456.283C456.283 538.605 456.515 415.793 444.662 399.209Z" fill="#9D31FF"/>
<path d="M363.655 371.119C363.49 374.234 342.974 403.107 342.974 403.107L320.472 369.66C322.105 361.172 327.33 334.03 328.87 326.011L357.915 326.602L358.096 327.999L363.655 371.119Z" fill="#F9CBCB"/>
<path d="M363.655 371.119C356.087 362.158 353.251 335.108 326.575 338.25L328.862 326.342L357.906 326.934L358.096 327.999L363.655 371.119Z" fill="#EBB0B0"/>
<path d="M293.302 277.032L300.689 300.944C300.448 300.865 300.191 300.849 299.942 300.899L299.898 300.767C262.39 299.34 259.577 260.186 285.255 264.77C286.214 269.322 290.176 273.197 293.302 277.032H293.302ZM390.809 303.805C389.907 304.035 389.034 304.13 387.992 304.328C388.134 303.951 392.257 282.857 392.468 281.831C395.104 277.659 397.309 273.229 399.048 268.611C421.312 261.595 426.834 295.27 390.809 303.805Z" fill="#F9CBCB"/>
<path d="M404.513 264.909C396.477 358.446 288.95 353.194 282.648 261.621C286.586 172.619 405.408 175.961 404.513 264.909Z" fill="#F9CBCB"/>
<path d="M345.401 195.623C344.404 195.597 343.427 195.683 342.44 195.709C418.694 200.52 413.431 332.697 339.749 333.43C418.93 336.772 428.004 199.192 345.401 195.623Z" fill="#EBB0B0"/>
<path d="M359.514 299.4C358.122 304.146 355.655 307.563 352.743 309.587V309.652C343.829 316.071 332.725 309.942 330.718 299.4C340.237 301.14 349.994 301.14 359.513 299.4H359.514Z" fill="#3B2612"/>
<path d="M356.921 299.78V302.944C349.263 304.59 341.416 304.212 333.314 302.691V299.78C341.15 300.807 349.085 300.807 356.921 299.78Z" fill="white"/>
<path d="M352.742 309.587V309.652C350.389 311.413 347.513 312.332 344.575 312.264C341.637 312.195 338.807 311.142 336.539 309.273C339.357 305.294 350.254 305.396 352.742 309.587Z" fill="#E24897"/>
<path d="M311.263 281.657C311.101 277.765 323.246 277.765 323.083 281.659C323.245 285.549 311.1 285.549 311.263 281.657ZM367.231 281.657C367.071 277.765 379.215 277.765 379.051 281.659C379.214 285.549 367.069 285.549 367.231 281.657Z" fill="#0B2D50"/>
<path d="M309.025 274.778C310.322 265.407 328.665 265.032 329.654 274.778C324.13 269.912 314.684 270.382 309.025 274.778ZM358.349 274.778C359.645 265.407 377.988 265.032 378.978 274.778C373.455 269.912 364.008 270.382 358.349 274.778Z" fill="#0B2D50"/>
<path d="M340.105 494.261C339.965 484.631 355.092 484.631 354.949 494.261C355.09 503.89 339.963 503.891 340.105 494.261ZM340.105 519.124C339.965 509.495 355.092 509.495 354.949 519.125C355.09 528.755 339.963 528.755 340.105 519.124Z" fill="#D1D3D4"/>
<path d="M335.932 494.261C335.791 484.631 350.917 484.631 350.775 494.261C350.916 503.89 335.789 503.891 335.932 494.261ZM335.932 519.124C335.791 509.495 350.917 509.495 350.775 519.125C350.916 528.755 335.789 528.755 335.932 519.124Z" fill="#646A6C"/>
<path d="M340.105 438.734C339.965 429.105 355.092 429.105 354.949 438.734C355.09 448.366 339.963 448.364 340.105 438.734ZM340.105 463.599C339.965 453.97 355.092 453.969 354.949 463.6C355.09 473.229 339.963 473.229 340.105 463.599Z" fill="#D1D3D4"/>
<path d="M335.932 438.734C335.791 429.105 350.917 429.105 350.775 438.734C350.916 448.366 335.789 448.364 335.932 438.734ZM335.932 463.599C335.791 453.97 350.917 453.969 350.775 463.6C350.916 473.229 335.789 473.229 335.932 463.599Z" fill="#646A6C"/>
<path d="M320.471 369.661L299.832 379.915C314.491 385.263 328.843 393.233 342.973 403.108L320.471 369.661ZM363.655 369.43L386.114 379.915C369.021 385.351 354.213 392.72 342.973 403.108L363.655 369.43Z" fill="#7C0DE2"/>
<path d="M324.514 216.865C324.514 216.865 329.46 242.135 284.628 275.374C255.799 169.76 431.589 161.772 404.648 280.355C404.648 280.355 369.053 257.076 366.33 232.774C366.33 232.774 365.282 244.297 366.33 247.65C366.33 247.65 335.643 246.614 324.514 216.865Z" fill="#0B2D50"/>
<path d="M405.49 265.798H400.857C412.211 165.368 274.288 165.442 285.67 265.798H281.039C269.555 159.282 417.001 159.357 405.49 265.798Z" fill="white"/>
<path d="M278.402 261.848C278.308 255.426 288.396 255.426 288.301 261.85C288.396 268.269 278.307 268.269 278.402 261.848ZM398.221 261.848C398.128 255.426 408.215 255.426 408.12 261.85C408.213 268.269 398.128 268.269 398.221 261.848ZM337.897 324.584C337.91 324.58 337.922 324.577 337.935 324.572C337.767 324.169 336.471 318.992 336.319 318.418C334.598 318.695 332.776 319.572 332.305 321.327C305.091 328.231 283.509 321.625 284.7 293.351L280.075 293.097C277.434 325.392 307.681 333.664 333.799 325.724C335.04 326.7 336.812 326.465 338.256 325.983L337.897 324.584Z" fill="white"/>
<path d="M337.899 324.583C337.912 324.579 337.924 324.576 337.937 324.571C337.769 324.168 336.473 318.992 336.321 318.418L336.233 318.438C336.405 319.093 337.257 322.511 337.459 323.071C337.447 323.076 337.435 323.078 337.422 323.082L337.781 324.481C336.334 324.964 334.566 325.199 333.325 324.222C313.754 329.673 288.529 328.345 281.505 307.26C287.68 329.562 313.702 331.402 333.8 325.724C335.042 326.7 336.813 326.464 338.258 325.983L337.899 324.583ZM284.174 293.321C284.059 297.991 284.651 302.187 285.921 305.834C284.822 301.77 284.41 297.55 284.701 293.35L284.174 293.321Z" fill="#CCCCCC"/>
<path d="M263.771 284.597C263.771 293.299 270.074 300.354 277.848 300.354V268.841C270.074 268.841 263.771 275.895 263.771 284.597Z" fill="#7C0DE2"/>
<path d="M264.328 281.192C264.328 280.795 264.355 280.406 264.38 280.017C263.976 281.51 263.771 283.05 263.771 284.597C263.771 293.298 270.074 300.353 277.848 300.353V296.916C270.334 296.586 264.328 289.683 264.328 281.192Z" fill="#CCCCCC"/>
<path d="M402.962 247.787C401.696 247.782 400.479 247.3 399.552 246.438C398.625 245.576 398.056 244.396 397.959 243.134C395.59 215.037 371.964 192.897 343.264 192.897C314.563 192.897 290.937 215.037 288.567 243.134C288.47 244.396 287.902 245.576 286.975 246.438C286.048 247.3 284.831 247.782 283.565 247.787C280.217 247.797 277.951 244.666 278.647 241.41C281.892 208.261 310.184 182.341 344.281 182.87C377.864 183.39 405.353 209.532 407.98 242.581C408.007 243.256 407.897 243.929 407.657 244.561C407.417 245.192 407.051 245.768 406.582 246.255C406.113 246.741 405.551 247.128 404.929 247.391C404.306 247.654 403.638 247.789 402.962 247.787Z" fill="#2F5A76"/>
<path d="M339.588 192.08C310.887 192.08 287.26 214.219 284.89 242.318C284.802 243.438 284.344 244.496 283.587 245.325C282.83 246.155 281.819 246.708 280.712 246.899C283.744 249.112 288.371 246.927 288.568 243.135C290.862 211.499 321.759 187.609 353.293 193.824C348.816 192.668 344.211 192.082 339.588 192.081V192.08ZM407.971 242.408C405.563 213.192 383.727 189.406 355.451 184.014C381.925 190.687 401.99 213.658 404.293 241.589C404.388 242.835 404.012 244.071 403.24 245.053C402.469 246.035 401.357 246.692 400.124 246.895C403.39 249.317 408.429 246.497 407.971 242.408Z" fill="#CCCCCC"/>
<path d="M283.354 263.073C282.234 263.073 281.125 263.294 280.091 263.723C279.056 264.151 278.116 264.779 277.324 265.571C276.533 266.363 275.905 267.303 275.476 268.338C275.048 269.372 274.828 270.481 274.828 271.601V297.594C274.828 299.855 275.726 302.024 277.325 303.623C278.924 305.222 281.092 306.12 283.354 306.12C285.615 306.12 287.783 305.222 289.382 303.623C290.981 302.024 291.879 299.855 291.879 297.594V271.601C291.879 270.481 291.659 269.372 291.23 268.338C290.802 267.303 290.174 266.363 289.382 265.571C288.591 264.779 287.651 264.151 286.616 263.723C285.582 263.294 284.473 263.074 283.354 263.073Z" fill="#2F5A76"/>
<path d="M285.024 263.24C287.635 265.55 285.907 290.501 286.374 293.825C286.435 299.137 281.363 303.278 276.176 302.186C277.168 303.739 278.638 304.929 280.364 305.577C282.09 306.225 283.979 306.295 285.749 305.777C287.518 305.26 289.072 304.183 290.178 302.707C291.283 301.231 291.88 299.437 291.878 297.594V271.601C291.878 269.63 291.195 267.72 289.946 266.196C288.696 264.671 286.957 263.627 285.024 263.24Z" fill="#CCCCCC"/>
<path d="M408.097 266.759V298.272C426.502 298.203 426.488 266.823 408.097 266.759Z" fill="#7C0DE2"/>
<path d="M421.619 279.111C421.619 278.715 421.59 278.326 421.566 277.936C421.97 279.429 422.174 280.97 422.174 282.517C422.174 291.219 415.872 298.272 408.097 298.272V294.836C415.612 294.508 421.619 287.602 421.619 279.111Z" fill="#CCCCCC"/>
<path d="M402.594 260.994C401.474 260.994 400.366 261.215 399.331 261.643C398.297 262.071 397.357 262.699 396.566 263.49C395.774 264.282 395.146 265.222 394.717 266.256C394.289 267.29 394.068 268.399 394.068 269.518V295.512C394.068 297.774 394.967 299.942 396.565 301.541C398.164 303.14 400.333 304.038 402.594 304.038C404.855 304.038 407.024 303.14 408.623 301.541C410.222 299.942 411.12 297.774 411.12 295.512V269.518C411.12 268.399 410.899 267.29 410.471 266.256C410.042 265.221 409.414 264.282 408.622 263.49C407.831 262.699 406.891 262.071 405.856 261.643C404.822 261.214 403.713 260.994 402.594 260.994Z" fill="#2F5A76"/>
<path d="M400.923 261.159C398.311 263.469 400.04 288.422 399.574 291.744C399.579 293.004 399.862 294.248 400.403 295.385C400.944 296.523 401.73 297.527 402.704 298.326C403.679 299.125 404.818 299.698 406.04 300.005C407.261 300.313 408.536 300.346 409.772 300.103C405.628 307.154 393.775 303.858 394.07 295.513V269.518C394.07 267.548 394.753 265.638 396.003 264.114C397.252 262.59 398.991 261.546 400.923 261.159Z" fill="#CCCCCC"/>
<path d="M351.698 324.285C347.056 325.081 336.84 330.296 335.075 322.738C332.98 315.265 344.472 314.922 348.909 313.392C349.624 313.209 350.369 313.168 351.1 313.273C351.83 313.377 352.534 313.625 353.169 314.001C353.804 314.377 354.359 314.875 354.802 315.466C355.244 316.057 355.567 316.729 355.75 317.444C356.119 318.888 355.9 320.42 355.14 321.703C354.38 322.986 353.142 323.915 351.698 324.285Z" fill="#2F5A76"/>
<path d="M355.749 317.444C355.445 316.259 354.762 315.205 353.805 314.443C352.847 313.682 351.667 313.253 350.444 313.224C355.649 314.693 355.499 322.832 350.107 324.013C349.06 324.198 339.646 326.894 338.789 326.687C340.936 327.778 349.456 324.606 351.697 324.285C353.141 323.915 354.379 322.986 355.139 321.703C355.899 320.42 356.118 318.889 355.749 317.444ZM341.015 318.776C341.124 318.718 341.25 318.705 341.368 318.741C341.486 318.776 341.584 318.856 341.643 318.964C341.702 319.072 341.715 319.199 341.681 319.317C341.646 319.435 341.566 319.534 341.459 319.593C341.351 319.649 341.225 319.66 341.109 319.624C340.993 319.588 340.895 319.508 340.837 319.401C340.779 319.294 340.766 319.169 340.799 319.052C340.832 318.935 340.91 318.836 341.015 318.776ZM343.609 319.263C343.621 319.143 343.679 319.033 343.771 318.955C343.863 318.877 343.981 318.837 344.101 318.845C344.222 318.852 344.334 318.906 344.416 318.995C344.497 319.083 344.541 319.2 344.538 319.321C344.526 319.441 344.468 319.551 344.377 319.629C344.285 319.707 344.166 319.747 344.046 319.739C343.926 319.732 343.813 319.678 343.732 319.589C343.65 319.5 343.606 319.384 343.609 319.263Z" fill="#CCCCCC"/>
<path d="M343.535 322.288C343.543 322.165 343.6 322.049 343.692 321.968C343.785 321.886 343.906 321.845 344.029 321.852C344.153 321.86 344.268 321.916 344.349 322.009C344.431 322.102 344.473 322.223 344.465 322.346C344.457 322.469 344.401 322.585 344.308 322.666C344.216 322.748 344.094 322.789 343.971 322.782C343.848 322.774 343.733 322.718 343.651 322.625C343.569 322.532 343.528 322.411 343.535 322.288ZM341.65 321.249C341.759 321.193 341.885 321.182 342.002 321.218C342.119 321.254 342.217 321.334 342.275 321.442C342.333 321.549 342.346 321.675 342.313 321.793C342.279 321.91 342.2 322.009 342.094 322.069C341.985 322.126 341.859 322.137 341.742 322.101C341.625 322.065 341.527 321.984 341.469 321.877C341.411 321.769 341.397 321.643 341.431 321.526C341.465 321.408 341.544 321.309 341.65 321.249ZM342.218 316.801C342.326 316.746 342.451 316.736 342.567 316.772C342.682 316.809 342.779 316.888 342.836 316.995C342.894 317.101 342.908 317.226 342.875 317.342C342.843 317.459 342.766 317.558 342.661 317.618C342.553 317.673 342.428 317.683 342.313 317.647C342.197 317.611 342.101 317.531 342.043 317.425C341.985 317.318 341.971 317.194 342.004 317.077C342.037 316.961 342.114 316.862 342.218 316.801ZM344.954 316.985C345.008 316.956 345.067 316.938 345.128 316.932C345.188 316.926 345.25 316.931 345.308 316.949C345.367 316.966 345.421 316.995 345.469 317.033C345.516 317.072 345.556 317.119 345.585 317.173C345.614 317.226 345.632 317.285 345.638 317.346C345.645 317.407 345.639 317.468 345.621 317.527C345.604 317.585 345.575 317.64 345.537 317.687C345.498 317.735 345.451 317.774 345.397 317.803C345.289 317.862 345.162 317.875 345.043 317.84C344.925 317.805 344.826 317.724 344.767 317.616C344.709 317.507 344.695 317.38 344.73 317.262C344.766 317.144 344.846 317.044 344.954 316.985ZM346.275 315.445C346.384 315.386 346.511 315.373 346.629 315.408C346.688 315.426 346.742 315.454 346.79 315.493C346.837 315.531 346.876 315.579 346.905 315.632C346.934 315.686 346.953 315.745 346.959 315.806C346.965 315.866 346.959 315.928 346.942 315.986C346.925 316.045 346.896 316.099 346.857 316.147C346.819 316.194 346.771 316.233 346.718 316.262C346.609 316.321 346.482 316.334 346.364 316.299C346.246 316.264 346.146 316.183 346.088 316.075C346.029 315.967 346.016 315.839 346.051 315.721C346.086 315.603 346.167 315.504 346.275 315.445ZM348.548 316.116C348.656 316.061 348.781 316.051 348.896 316.087C349.012 316.123 349.109 316.203 349.166 316.31C349.224 316.416 349.238 316.54 349.205 316.657C349.172 316.773 349.095 316.872 348.991 316.933C348.883 316.988 348.758 316.998 348.642 316.962C348.527 316.925 348.43 316.846 348.373 316.739C348.315 316.633 348.301 316.508 348.334 316.392C348.367 316.276 348.443 316.176 348.548 316.116ZM349.601 314.401C349.709 314.342 349.836 314.328 349.955 314.363C350.073 314.398 350.172 314.479 350.231 314.587C350.29 314.695 350.304 314.823 350.269 314.941C350.234 315.059 350.153 315.159 350.045 315.217C349.937 315.276 349.809 315.29 349.691 315.255C349.573 315.22 349.473 315.139 349.414 315.031C349.356 314.923 349.342 314.796 349.377 314.677C349.412 314.559 349.492 314.46 349.601 314.401ZM351.703 316.021C351.812 315.964 351.938 315.953 352.055 315.989C352.172 316.024 352.271 316.105 352.329 316.213C352.387 316.321 352.4 316.447 352.366 316.565C352.332 316.682 352.253 316.782 352.146 316.841C352.037 316.9 351.909 316.913 351.791 316.877C351.672 316.842 351.573 316.761 351.514 316.652C351.456 316.543 351.443 316.416 351.478 316.297C351.514 316.179 351.595 316.079 351.703 316.021L351.703 316.021ZM350.868 317.814C350.977 317.76 351.102 317.75 351.217 317.787C351.332 317.823 351.429 317.903 351.486 318.009C351.544 318.116 351.558 318.24 351.525 318.357C351.493 318.473 351.416 318.573 351.312 318.634C351.203 318.687 351.079 318.696 350.964 318.659C350.849 318.623 350.753 318.543 350.696 318.437C350.639 318.331 350.625 318.207 350.657 318.09C350.689 317.974 350.764 317.875 350.868 317.814ZM349.809 320.527C349.694 320.571 349.566 320.568 349.453 320.518C349.34 320.467 349.252 320.374 349.207 320.259C349.163 320.143 349.167 320.015 349.217 319.902C349.267 319.789 349.36 319.701 349.476 319.657C349.59 319.617 349.716 319.623 349.826 319.673C349.936 319.724 350.022 319.816 350.066 319.93C350.109 320.043 350.107 320.169 350.059 320.28C350.011 320.392 349.921 320.48 349.809 320.527V320.527ZM352.193 321.088C352.079 321.127 351.955 321.12 351.846 321.068C351.737 321.017 351.653 320.926 351.61 320.813C351.567 320.701 351.569 320.576 351.616 320.466C351.663 320.355 351.75 320.267 351.861 320.219C351.975 320.179 352.101 320.185 352.211 320.236C352.321 320.287 352.407 320.379 352.45 320.492C352.493 320.606 352.491 320.731 352.443 320.843C352.395 320.954 352.305 321.042 352.193 321.089V321.088ZM348.168 322.23C348.054 322.269 347.929 322.262 347.819 322.211C347.71 322.159 347.625 322.068 347.581 321.955C347.538 321.842 347.541 321.717 347.588 321.605C347.635 321.494 347.724 321.406 347.835 321.358C347.95 321.317 348.077 321.323 348.187 321.374C348.298 321.425 348.385 321.517 348.428 321.631C348.472 321.745 348.469 321.872 348.421 321.984C348.372 322.096 348.281 322.184 348.168 322.23V322.23ZM346.124 319.682C346.232 319.626 346.358 319.616 346.474 319.652C346.59 319.688 346.688 319.768 346.745 319.875C346.803 319.982 346.817 320.108 346.784 320.225C346.75 320.342 346.672 320.441 346.566 320.501C346.458 320.555 346.334 320.564 346.219 320.528C346.104 320.491 346.007 320.411 345.95 320.305C345.893 320.199 345.879 320.075 345.911 319.959C345.943 319.842 346.02 319.743 346.124 319.682V319.682ZM347.78 318.227C347.889 318.173 348.013 318.164 348.128 318.2C348.243 318.237 348.34 318.317 348.397 318.423C348.454 318.529 348.468 318.653 348.436 318.769C348.404 318.886 348.327 318.985 348.223 319.046C348.115 319.099 347.991 319.109 347.876 319.072C347.761 319.036 347.664 318.956 347.607 318.85C347.55 318.744 347.536 318.619 347.568 318.503C347.6 318.387 347.677 318.288 347.78 318.227ZM337.029 318.559C337.017 318.439 337.052 318.32 337.126 318.225C337.2 318.13 337.308 318.068 337.427 318.051C337.546 318.033 337.667 318.063 337.765 318.133C337.863 318.203 337.93 318.308 337.952 318.427C337.964 318.546 337.929 318.666 337.855 318.761C337.781 318.855 337.673 318.918 337.554 318.935C337.435 318.952 337.314 318.922 337.216 318.852C337.118 318.782 337.051 318.677 337.029 318.559ZM339.221 320.376C339.33 320.319 339.456 320.308 339.573 320.344C339.69 320.379 339.789 320.46 339.847 320.567C339.905 320.675 339.919 320.801 339.885 320.919C339.851 321.036 339.772 321.136 339.666 321.196C339.557 321.252 339.431 321.264 339.314 321.228C339.197 321.192 339.098 321.112 339.04 321.004C338.982 320.897 338.968 320.771 339.002 320.653C339.036 320.535 339.115 320.436 339.221 320.376ZM339.109 322.85C339.217 322.795 339.343 322.784 339.459 322.821C339.575 322.857 339.672 322.937 339.73 323.044C339.788 323.151 339.801 323.277 339.768 323.394C339.734 323.511 339.656 323.61 339.551 323.67C339.442 323.725 339.317 323.736 339.201 323.699C339.085 323.663 338.987 323.583 338.93 323.476C338.872 323.369 338.858 323.243 338.892 323.126C338.925 323.01 339.003 322.91 339.109 322.85ZM353.573 318.926C353.517 318.948 353.456 318.959 353.395 318.957C353.334 318.956 353.274 318.942 353.218 318.917C353.162 318.892 353.112 318.857 353.07 318.813C353.027 318.768 352.995 318.716 352.973 318.659C352.951 318.602 352.94 318.542 352.942 318.481C352.943 318.42 352.957 318.359 352.982 318.304C353.006 318.248 353.042 318.197 353.086 318.155C353.13 318.113 353.183 318.08 353.24 318.058C353.355 318.014 353.483 318.017 353.595 318.067C353.708 318.118 353.796 318.21 353.84 318.325C353.885 318.44 353.881 318.568 353.831 318.681C353.781 318.794 353.689 318.882 353.573 318.926ZM339.207 317.349C339.315 317.296 339.439 317.287 339.554 317.324C339.668 317.361 339.764 317.44 339.821 317.546C339.878 317.652 339.892 317.776 339.86 317.891C339.828 318.007 339.753 318.106 339.65 318.168C339.541 318.221 339.417 318.229 339.303 318.193C339.188 318.156 339.093 318.076 339.035 317.97C338.978 317.865 338.964 317.741 338.996 317.625C339.028 317.509 339.104 317.41 339.207 317.349ZM336.595 320.449C336.703 320.396 336.828 320.386 336.943 320.423C337.057 320.459 337.154 320.539 337.211 320.645C337.269 320.751 337.283 320.876 337.25 320.992C337.218 321.108 337.142 321.207 337.038 321.268C336.929 321.323 336.804 321.333 336.689 321.297C336.573 321.26 336.476 321.18 336.418 321.074C336.361 320.967 336.347 320.842 336.38 320.726C336.413 320.609 336.49 320.51 336.595 320.449Z" fill="#CCCCCC"/>
<path d="M234.947 405.851C221.949 422.795 213.979 550.378 228.243 564.372C245.965 581.752 322.101 574.211 322.101 574.211L329.714 524.163L288.46 523.415L298.109 462.591L234.947 405.851Z" fill="white" fill-opacity="0.49"/>
<path d="M238.417 403.341C223.531 418.653 200.73 544.437 213.266 559.997C228.837 579.326 305.334 580.721 305.334 580.721L318.733 531.902L277.849 526.346L302.093 452.746L238.417 403.341Z" fill="#9D31FF"/>
<g style="mix-blend-mode:multiply">
<path d="M225.8 552.545C212.692 539.726 229.745 436.903 240.756 405.999L238.417 403.341C223.531 418.653 200.73 544.437 213.266 559.997C228.837 579.326 305.334 580.721 305.334 580.721L308.462 569.323C284.533 570.171 237.243 563.735 225.8 552.545Z" fill="#E6E7E8"/>
</g>
<path d="M316.56 412.763H512.986C516.437 412.763 519.745 414.134 522.185 416.574C524.625 419.013 525.995 422.322 525.995 425.772V567.712C525.995 569.42 525.659 571.112 525.005 572.69C524.351 574.269 523.393 575.703 522.185 576.911C520.977 578.119 519.543 579.077 517.965 579.731C516.386 580.384 514.695 580.721 512.986 580.721H316.561C313.11 580.721 309.801 579.35 307.361 576.91C304.921 574.47 303.551 571.161 303.551 567.711V425.773C303.551 422.322 304.921 419.013 307.361 416.574C309.801 414.134 313.11 412.763 316.56 412.763Z" fill="white"/>
<path d="M506.545 412.763V483.883C506.545 502.057 499.325 519.486 486.474 532.337C473.623 545.187 456.194 552.407 438.02 552.407H303.551V567.712C303.551 571.162 304.922 574.471 307.361 576.911C309.801 579.35 313.11 580.721 316.561 580.721H512.986C514.694 580.721 516.386 580.385 517.965 579.731C519.543 579.077 520.977 578.119 522.186 576.911C523.394 575.703 524.352 574.269 525.006 572.69C525.66 571.112 525.996 569.42 525.996 567.712V425.774C525.996 424.066 525.66 422.374 525.006 420.795C524.352 419.217 523.394 417.782 522.186 416.574C520.978 415.366 519.543 414.408 517.965 413.754C516.386 413.1 514.695 412.763 512.986 412.763H506.545Z" fill="#F8F8F8"/>
<path d="M406.545 494.26C406.545 491.799 407.275 489.393 408.642 487.347C410.01 485.3 411.953 483.705 414.227 482.763C416.501 481.821 419.003 481.575 421.417 482.055C423.831 482.535 426.049 483.72 427.789 485.461C429.53 487.201 430.715 489.419 431.195 491.833C431.675 494.247 431.429 496.749 430.487 499.023C429.545 501.297 427.95 503.24 425.903 504.608C423.857 505.975 421.451 506.705 418.99 506.705C415.689 506.705 412.524 505.394 410.19 503.06C407.856 500.726 406.545 497.561 406.545 494.26Z" fill="#DADADA"/>
<path d="M91.0957 496.736L96.5757 492.765L102.122 500.418L96.6421 504.39L91.0957 496.736Z" fill="#979797"/>
<path d="M138.119 500.021L143.667 492.368L149.146 496.34L143.598 503.993L138.119 500.021Z" fill="#979797"/>
<path d="M138.681 555.765L131.176 561.848C135.121 565.946 139.067 570.044 143.014 574.141C144.866 584.078 157.589 573.757 148.253 569.894C145.063 565.186 141.872 560.476 138.681 555.765ZM103.103 555.765C105.605 557.793 108.106 559.82 110.607 561.848C106.662 565.946 102.716 570.044 98.7699 574.141C96.9184 584.078 84.1945 573.757 93.5297 569.894C96.721 565.186 99.9121 560.476 103.103 555.765Z" fill="#979797"/>
<path d="M103.102 555.765C102.681 556.39 102.259 557.013 101.837 557.634L107.969 562.604C104.024 566.702 100.078 570.8 96.131 574.897C96.1141 575.566 95.9403 576.222 95.6234 576.812C95.3065 577.402 94.8555 577.909 94.3066 578.292C96.5529 578.494 98.8058 576.429 98.7692 574.141C102.716 570.044 106.661 565.946 110.606 561.848L103.102 555.765Z" fill="#CCCCCC"/>
<path d="M158.916 532.271C158.042 583.435 81.9388 583.427 81.0723 532.269C81.9462 481.109 158.049 481.118 158.916 532.271Z" fill="#2F5A76"/>
<path d="M129.59 494.544C176.724 509.85 157.114 581.016 108.386 569.433C159.088 584.02 179.975 508.331 129.59 494.544Z" fill="#CCCCCC"/>
<path d="M154.086 532.272C153.321 577.087 86.6603 577.08 85.9023 532.271C86.6677 487.457 153.328 487.465 154.086 532.272L154.086 532.272Z" fill="white"/>
<path d="M119.995 498.181C75.1798 498.946 75.188 565.606 119.996 566.364C164.809 565.599 164.801 498.94 119.995 498.181ZM119.995 564.655C77.4273 563.928 77.4347 500.61 119.996 499.89C162.561 500.617 162.555 563.934 119.995 564.655Z" fill="#CCCCCC"/>
<path d="M117.538 561.351C117.491 558.162 122.499 558.162 122.452 561.351C122.499 564.539 117.49 564.539 117.538 561.351ZM138.015 552.545C137.987 550.685 140.908 550.685 140.882 552.545C140.908 554.403 137.987 554.403 138.015 552.545ZM99.7223 550.293C101.582 550.265 101.582 553.187 99.7223 553.159C97.8622 553.187 97.8622 550.265 99.7223 550.293ZM101.975 512C102.001 513.859 99.0803 513.859 99.1083 512C99.0803 510.139 102.001 510.139 101.975 512ZM140.267 514.251C138.408 514.28 138.407 511.357 140.267 511.386C142.127 511.358 142.127 514.28 140.267 514.251ZM90.9164 529.815C94.1045 529.768 94.1049 534.776 90.9164 534.73C87.7284 534.776 87.7284 529.768 90.9164 529.815ZM122.452 503.195C122.499 506.383 117.49 506.383 117.538 503.195C117.491 500.007 122.499 500.007 122.452 503.195ZM149.073 534.73C145.884 534.776 145.884 529.768 149.073 529.815C152.261 529.768 152.261 534.776 149.073 534.73Z" fill="#2F5A76"/>
<path d="M132.521 539.667C131.815 538.538 131.578 537.877 130.575 538.512L123.024 533.816C123.15 533.315 123.077 532.784 122.82 532.336C122.563 531.887 122.141 531.556 121.645 531.412L121.375 511.757C123.04 510.878 120.739 509.095 120.605 507.422C120.517 509.097 118.265 510.943 119.955 511.776L120.227 531.538C120.075 531.612 119.934 531.704 119.806 531.814L117.859 530.603L117.108 531.81L119.129 533.066C119.074 533.488 119.155 533.916 119.362 534.288C119.568 534.66 119.888 534.956 120.275 535.133L120.316 538.117L121.738 538.096L121.698 535.221C121.876 535.164 122.046 535.082 122.202 534.979L129.826 539.719C129.667 541.596 132.41 540.62 133.889 541.41C133.383 540.87 132.925 540.287 132.521 539.667Z" fill="#CCCCCC"/>
<path d="M120.933 536.936L120.762 510.597C122.433 509.728 120.144 507.929 120.023 506.256C119.923 507.929 117.658 509.76 119.341 510.606L119.511 536.947L120.933 536.936Z" fill="#2F5A76"/>
<path d="M131.707 538.585C131.009 537.45 130.778 536.789 129.77 537.416L117.111 529.415L116.353 530.617L129.011 538.62C128.84 540.493 131.59 539.54 133.064 540.339C132.561 539.795 132.107 539.208 131.707 538.585Z" fill="#2F5A76"/>
<path d="M122.32 532.174C122.339 534.755 118.286 534.726 118.343 532.145C118.324 529.565 122.377 529.593 122.32 532.174Z" fill="#666666"/>
<path d="M103.332 493.544L88.0776 502.352C86.7062 503.138 85.0793 503.35 83.5522 502.941C82.0252 502.531 80.722 501.535 79.9273 500.168C79.1412 498.797 78.9296 497.17 79.3387 495.643C79.7479 494.116 80.7445 492.813 82.1111 492.019L97.3655 483.21C98.7371 482.424 100.364 482.213 101.891 482.622C103.418 483.031 104.721 484.028 105.516 485.395C106.302 486.766 106.514 488.393 106.105 489.92C105.695 491.447 104.699 492.75 103.332 493.544Z" fill="#2F5A76"/>
<path d="M105.982 486.2C104.978 483.997 103.085 481.873 100.521 482.078C104.235 483.942 106.215 490.258 101.905 492.638C100.567 493.169 83.8441 503.723 82.6934 503.043C86.1274 505.615 101.032 494.11 104.14 493.081C105.293 492.41 106.135 491.31 106.48 490.021C106.825 488.731 106.647 487.358 105.982 486.2Z" fill="#CCCCCC"/>
<path d="M136.659 493.544L151.913 502.352C153.284 503.138 154.911 503.35 156.438 502.941C157.965 502.532 159.268 501.535 160.063 500.168C160.849 498.797 161.061 497.17 160.652 495.643C160.243 494.116 159.246 492.813 157.879 492.019L142.625 483.211C141.253 482.424 139.626 482.213 138.099 482.622C136.572 483.031 135.269 484.028 134.474 485.395C133.688 486.767 133.476 488.393 133.886 489.92C134.295 491.447 135.292 492.75 136.659 493.544Z" fill="#2F5A76"/>
<path d="M158.684 492.483C155.442 491.422 140.812 479.962 137.227 482.526C138.262 481.815 155.167 492.439 156.417 492.929C160.722 495.306 158.751 501.615 155.044 503.484C160.192 503.708 163.726 495.23 158.684 492.483Z" fill="#CCCCCC"/>
<path d="M590.145 596.208H40.8544C37.0688 596.208 34 591.953 34 586.707C34 581.459 37.0688 577.204 40.8542 577.204H590.145C593.931 577.204 597 581.459 597 586.707C597 591.953 593.931 596.208 590.145 596.208Z" fill="#DADADA"/>
<path d="M513.149 72.5717H409.928C404.842 72.5721 399.965 74.5925 396.37 78.1884C392.774 81.7843 390.754 86.6613 390.754 91.7465V142.67C390.754 147.755 392.774 152.632 396.37 156.228C399.965 159.824 404.842 161.845 409.928 161.845V176.955L428.559 161.845H513.149C515.667 161.845 518.16 161.349 520.486 160.385C522.812 159.421 524.926 158.009 526.706 156.228C528.487 154.448 529.899 152.334 530.863 150.008C531.826 147.681 532.322 145.188 532.322 142.67V91.7465C532.322 86.6614 530.302 81.7844 526.706 78.1885C523.111 74.5925 518.234 72.5721 513.149 72.5717Z" fill="#D1D3D4"/>
<path d="M503.872 67H400.651C395.566 67.0003 390.688 69.0208 387.093 72.6169C383.497 76.213 381.477 81.0902 381.477 86.1757V137.098C381.477 142.184 383.497 147.061 387.093 150.657C390.689 154.253 395.566 156.273 400.651 156.273V171.385L419.281 156.273H503.872C506.39 156.273 508.883 155.777 511.21 154.814C513.536 153.85 515.65 152.437 517.43 150.657C519.211 148.876 520.623 146.763 521.586 144.436C522.55 142.11 523.046 139.616 523.046 137.098V86.1757C523.046 83.6576 522.55 81.1642 521.587 78.8377C520.623 76.5112 519.211 74.3973 517.43 72.6167C515.65 70.836 513.536 69.4235 511.21 68.4598C508.884 67.4961 506.39 67.0001 503.872 67Z" fill="#FC7F19"/>
<path d="M396.431 108.614C396.431 107.608 396.729 106.624 397.288 105.788C397.847 104.951 398.641 104.299 399.571 103.914C400.5 103.529 401.523 103.428 402.51 103.624C403.497 103.82 404.403 104.305 405.115 105.016C405.826 105.727 406.311 106.634 406.507 107.62C406.703 108.607 406.603 109.63 406.218 110.56C405.833 111.489 405.181 112.284 404.344 112.843C403.508 113.402 402.524 113.7 401.518 113.7C400.169 113.7 398.875 113.164 397.921 112.21C396.967 111.257 396.431 109.963 396.431 108.614ZM412.708 108.614C412.708 107.608 413.006 106.624 413.565 105.788C414.124 104.951 414.918 104.299 415.848 103.914C416.777 103.529 417.8 103.428 418.787 103.624C419.774 103.82 420.68 104.305 421.392 105.016C422.103 105.727 422.588 106.634 422.784 107.62C422.98 108.607 422.88 109.63 422.495 110.56C422.11 111.489 421.458 112.284 420.621 112.843C419.785 113.402 418.801 113.7 417.795 113.7C416.446 113.7 415.152 113.164 414.198 112.21C413.244 111.257 412.708 109.963 412.708 108.614H412.708ZM428.985 108.614C428.984 107.608 429.283 106.624 429.841 105.788C430.4 104.951 431.195 104.299 432.124 103.914C433.054 103.529 434.076 103.428 435.063 103.624C436.05 103.82 436.956 104.304 437.668 105.016C438.379 105.727 438.864 106.633 439.06 107.62C439.257 108.607 439.156 109.63 438.771 110.559C438.386 111.489 437.734 112.283 436.898 112.842C436.061 113.402 435.078 113.7 434.072 113.7C432.723 113.7 431.429 113.164 430.475 112.21C429.521 111.257 428.985 109.963 428.985 108.614ZM445.262 108.614C445.262 107.608 445.56 106.624 446.119 105.787C446.678 104.951 447.472 104.298 448.402 103.913C449.331 103.528 450.354 103.427 451.341 103.623C452.328 103.819 453.235 104.304 453.946 105.015C454.658 105.727 455.142 106.633 455.339 107.62C455.535 108.607 455.434 109.63 455.049 110.559C454.664 111.489 454.012 112.284 453.176 112.843C452.339 113.402 451.356 113.7 450.349 113.7C449 113.7 447.707 113.164 446.753 112.21C445.799 111.257 445.262 109.963 445.262 108.614ZM461.539 108.614C461.539 107.608 461.837 106.624 462.396 105.788C462.955 104.951 463.749 104.299 464.679 103.914C465.608 103.529 466.631 103.428 467.618 103.624C468.605 103.82 469.511 104.305 470.223 105.016C470.934 105.728 471.419 106.634 471.615 107.621C471.811 108.608 471.71 109.63 471.325 110.56C470.94 111.489 470.288 112.284 469.452 112.843C468.615 113.402 467.631 113.7 466.625 113.7C465.276 113.7 463.983 113.164 463.029 112.21C462.075 111.256 461.539 109.963 461.539 108.614ZM477.817 108.614C477.817 107.608 478.115 106.624 478.674 105.788C479.233 104.951 480.028 104.299 480.957 103.914C481.887 103.529 482.909 103.429 483.896 103.625C484.883 103.821 485.789 104.306 486.501 105.017C487.212 105.729 487.696 106.635 487.892 107.622C488.089 108.609 487.988 109.631 487.603 110.561C487.217 111.49 486.565 112.285 485.729 112.843C484.892 113.402 483.909 113.7 482.902 113.7C481.554 113.7 480.26 113.164 479.307 112.21C478.353 111.256 477.817 109.963 477.817 108.614ZM494.093 108.614C494.093 107.608 494.391 106.625 494.95 105.788C495.509 104.952 496.304 104.3 497.233 103.915C498.162 103.53 499.185 103.429 500.171 103.626C501.158 103.822 502.064 104.306 502.776 105.018C503.487 105.729 503.971 106.635 504.167 107.622C504.364 108.608 504.263 109.631 503.878 110.56C503.493 111.49 502.841 112.284 502.005 112.843C501.168 113.402 500.185 113.7 499.179 113.7C497.83 113.7 496.537 113.164 495.583 112.21C494.629 111.256 494.094 109.963 494.093 108.614Z" fill="white"/>
</svg>
