<svg width="64" height="65" viewBox="0 0 64 65" fill="none" xmlns="http://www.w3.org/2000/svg">
<rect y="0.777832" width="64" height="64" rx="32" fill="#FC8019"/>
<path fill-rule="evenodd" clip-rule="evenodd" d="M32.4375 17C28.7112 17 25.6815 19.8446 25.0436 23.3513C24.8708 23.3394 24.6964 23.3333 24.5208 23.3333C20.3672 23.3333 17 26.7005 17 30.8542C17 33.3873 18.2524 35.6263 20.1687 36.9883C19.6609 38.0015 19.375 39.1453 19.375 40.3542C19.375 44.5079 22.7422 47.875 26.8958 47.875C29.09 47.875 31.0636 46.9351 32.4375 45.4386C33.8114 46.9351 35.785 47.875 37.9792 47.875C42.1329 47.875 45.5 44.5079 45.5 40.3542C45.5 39.1453 45.2141 38.0015 44.7063 36.9883C46.6226 35.6263 47.875 33.3873 47.875 30.8542C47.875 26.7005 44.5079 23.3333 40.3542 23.3333C40.1786 23.3333 40.0042 23.3394 39.8314 23.3513C39.1936 19.8446 36.1639 17 32.4375 17ZM32.4375 37.9792C35.0609 37.9792 37.1875 35.8526 37.1875 33.2292C37.1875 30.6057 35.0609 28.4792 32.4375 28.4792C29.8141 28.4792 27.6875 30.6057 27.6875 33.2292C27.6875 35.8526 29.8141 37.9792 32.4375 37.9792Z" fill="white"/>
</svg>
