<svg width="260" height="39" viewBox="0 0 260 39" fill="none" xmlns="http://www.w3.org/2000/svg">
<path d="M66.2478 24L63.0358 18.17H62.1338V24H58.3718V8.556H64.6858C65.9031 8.556 66.9371 8.76867 67.7878 9.194C68.6531 9.61933 69.2985 10.206 69.7238 10.954C70.1491 11.6873 70.3618 12.5087 70.3618 13.418C70.3618 14.4447 70.0685 15.3613 69.4818 16.168C68.9098 16.9747 68.0591 17.5467 66.9298 17.884L70.4938 24H66.2478ZM62.1338 15.508H64.4658C65.1551 15.508 65.6685 15.3393 66.0058 15.002C66.3578 14.6647 66.5338 14.188 66.5338 13.572C66.5338 12.9853 66.3578 12.5233 66.0058 12.186C65.6685 11.8487 65.1551 11.68 64.4658 11.68H62.1338V15.508ZM83.8554 17.664C83.8554 18.016 83.8334 18.3827 83.7894 18.764H75.2754C75.334 19.5267 75.576 20.1133 76.0014 20.524C76.4414 20.92 76.9767 21.118 77.6074 21.118C78.546 21.118 79.1987 20.722 79.5654 19.93H83.5694C83.364 20.7367 82.99 21.4627 82.4474 22.108C81.9194 22.7533 81.252 23.2593 80.4454 23.626C79.6387 23.9927 78.7367 24.176 77.7394 24.176C76.5367 24.176 75.466 23.9193 74.5274 23.406C73.5887 22.8927 72.8554 22.1593 72.3274 21.206C71.7994 20.2527 71.5354 19.138 71.5354 17.862C71.5354 16.586 71.792 15.4713 72.3054 14.518C72.8334 13.5647 73.5667 12.8313 74.5054 12.318C75.444 11.8047 76.522 11.548 77.7394 11.548C78.9274 11.548 79.9834 11.7973 80.9074 12.296C81.8314 12.7947 82.55 13.506 83.0634 14.43C83.5914 15.354 83.8554 16.432 83.8554 17.664ZM80.0054 16.674C80.0054 16.0287 79.7854 15.5153 79.3454 15.134C78.9054 14.7527 78.3554 14.562 77.6954 14.562C77.0647 14.562 76.5294 14.7453 76.0894 15.112C75.664 15.4787 75.4 15.9993 75.2974 16.674H80.0054ZM90.394 24.176C89.3233 24.176 88.37 23.9927 87.534 23.626C86.698 23.2593 86.038 22.7607 85.554 22.13C85.07 21.4847 84.7987 20.766 84.74 19.974H88.458C88.502 20.3993 88.7 20.744 89.052 21.008C89.404 21.272 89.8367 21.404 90.35 21.404C90.8193 21.404 91.1787 21.316 91.428 21.14C91.692 20.9493 91.824 20.7073 91.824 20.414C91.824 20.062 91.6407 19.8053 91.274 19.644C90.9074 19.468 90.3134 19.2773 89.492 19.072C88.612 18.8667 87.8787 18.654 87.292 18.434C86.7053 18.1993 86.1993 17.84 85.774 17.356C85.3487 16.8573 85.136 16.19 85.136 15.354C85.136 14.65 85.3267 14.012 85.708 13.44C86.104 12.8533 86.676 12.3913 87.424 12.054C88.1867 11.7167 89.0887 11.548 90.13 11.548C91.67 11.548 92.88 11.9293 93.76 12.692C94.6547 13.4547 95.168 14.4667 95.3 15.728H91.824C91.7654 15.3027 91.5747 14.9653 91.252 14.716C90.944 14.4667 90.5334 14.342 90.02 14.342C89.58 14.342 89.2427 14.43 89.008 14.606C88.7734 14.7673 88.656 14.9947 88.656 15.288C88.656 15.64 88.8394 15.904 89.206 16.08C89.5874 16.256 90.174 16.432 90.966 16.608C91.8754 16.8427 92.616 17.0773 93.188 17.312C93.76 17.532 94.2587 17.8987 94.684 18.412C95.124 18.9107 95.3514 19.5853 95.366 20.436C95.366 21.1547 95.1607 21.8 94.75 22.372C94.354 22.9293 93.7747 23.3693 93.012 23.692C92.264 24.0147 91.3914 24.176 90.394 24.176ZM104.07 20.81V24H102.156C100.792 24 99.7283 23.67 98.9656 23.01C98.2029 22.3353 97.8216 21.2427 97.8216 19.732V14.848H96.3256V11.724H97.8216V8.732H101.584V11.724H104.048V14.848H101.584V19.776C101.584 20.1427 101.672 20.4067 101.848 20.568C102.024 20.7293 102.317 20.81 102.728 20.81H104.07ZM104.977 17.84C104.977 16.5787 105.212 15.4713 105.681 14.518C106.165 13.5647 106.818 12.8313 107.639 12.318C108.46 11.8047 109.377 11.548 110.389 11.548C111.254 11.548 112.01 11.724 112.655 12.076C113.315 12.428 113.821 12.89 114.173 13.462V11.724H117.935V24H114.173V22.262C113.806 22.834 113.293 23.296 112.633 23.648C111.988 24 111.232 24.176 110.367 24.176C109.37 24.176 108.46 23.9193 107.639 23.406C106.818 22.878 106.165 22.1373 105.681 21.184C105.212 20.216 104.977 19.1013 104.977 17.84ZM114.173 17.862C114.173 16.9233 113.909 16.1827 113.381 15.64C112.868 15.0973 112.237 14.826 111.489 14.826C110.741 14.826 110.103 15.0973 109.575 15.64C109.062 16.168 108.805 16.9013 108.805 17.84C108.805 18.7787 109.062 19.5267 109.575 20.084C110.103 20.6267 110.741 20.898 111.489 20.898C112.237 20.898 112.868 20.6267 113.381 20.084C113.909 19.5413 114.173 18.8007 114.173 17.862ZM132.339 11.724V24H128.577V22.328C128.195 22.8707 127.675 23.3107 127.015 23.648C126.369 23.9707 125.651 24.132 124.859 24.132C123.92 24.132 123.091 23.9267 122.373 23.516C121.654 23.0907 121.097 22.482 120.701 21.69C120.305 20.898 120.107 19.9667 120.107 18.896V11.724H123.847V18.39C123.847 19.2113 124.059 19.8493 124.485 20.304C124.91 20.7587 125.482 20.986 126.201 20.986C126.934 20.986 127.513 20.7587 127.939 20.304C128.364 19.8493 128.577 19.2113 128.577 18.39V11.724H132.339ZM138.363 13.77C138.803 13.0953 139.353 12.5673 140.013 12.186C140.673 11.79 141.406 11.592 142.213 11.592V15.574H141.179C140.24 15.574 139.536 15.7793 139.067 16.19C138.598 16.586 138.363 17.29 138.363 18.302V24H134.601V11.724H138.363V13.77ZM142.823 17.84C142.823 16.5787 143.058 15.4713 143.527 14.518C144.011 13.5647 144.664 12.8313 145.485 12.318C146.306 11.8047 147.223 11.548 148.235 11.548C149.1 11.548 149.856 11.724 150.501 12.076C151.161 12.428 151.667 12.89 152.019 13.462V11.724H155.781V24H152.019V22.262C151.652 22.834 151.139 23.296 150.479 23.648C149.834 24 149.078 24.176 148.213 24.176C147.216 24.176 146.306 23.9193 145.485 23.406C144.664 22.878 144.011 22.1373 143.527 21.184C143.058 20.216 142.823 19.1013 142.823 17.84ZM152.019 17.862C152.019 16.9233 151.755 16.1827 151.227 15.64C150.714 15.0973 150.083 14.826 149.335 14.826C148.587 14.826 147.949 15.0973 147.421 15.64C146.908 16.168 146.651 16.9013 146.651 17.84C146.651 18.7787 146.908 19.5267 147.421 20.084C147.949 20.6267 148.587 20.898 149.335 20.898C150.083 20.898 150.714 20.6267 151.227 20.084C151.755 19.5413 152.019 18.8007 152.019 17.862ZM165.543 11.592C166.98 11.592 168.124 12.0613 168.975 13C169.84 13.924 170.273 15.2 170.273 16.828V24H166.533V17.334C166.533 16.5127 166.32 15.8747 165.895 15.42C165.469 14.9653 164.897 14.738 164.179 14.738C163.46 14.738 162.888 14.9653 162.463 15.42C162.037 15.8747 161.825 16.5127 161.825 17.334V24H158.063V11.724H161.825V13.352C162.206 12.8093 162.719 12.384 163.365 12.076C164.01 11.7533 164.736 11.592 165.543 11.592ZM179.289 20.81V24H177.375C176.011 24 174.948 23.67 174.185 23.01C173.422 22.3353 173.041 21.2427 173.041 19.732V14.848H171.545V11.724H173.041V8.732H176.803V11.724H179.267V14.848H176.803V19.776C176.803 20.1427 176.891 20.4067 177.067 20.568C177.243 20.7293 177.536 20.81 177.947 20.81H179.289ZM194.781 21.272H189.017L188.093 24H184.155L189.743 8.556H194.099L199.687 24H195.705L194.781 21.272ZM193.813 18.368L191.899 12.714L190.007 18.368H193.813ZM204.709 13.462C205.076 12.89 205.582 12.428 206.227 12.076C206.873 11.724 207.628 11.548 208.493 11.548C209.505 11.548 210.422 11.8047 211.243 12.318C212.065 12.8313 212.71 13.5647 213.179 14.518C213.663 15.4713 213.905 16.5787 213.905 17.84C213.905 19.1013 213.663 20.216 213.179 21.184C212.71 22.1373 212.065 22.878 211.243 23.406C210.422 23.9193 209.505 24.176 208.493 24.176C207.643 24.176 206.887 24 206.227 23.648C205.582 23.296 205.076 22.8413 204.709 22.284V29.852H200.947V11.724H204.709V13.462ZM210.077 17.84C210.077 16.9013 209.813 16.168 209.285 15.64C208.772 15.0973 208.134 14.826 207.371 14.826C206.623 14.826 205.985 15.0973 205.457 15.64C204.944 16.1827 204.687 16.9233 204.687 17.862C204.687 18.8007 204.944 19.5413 205.457 20.084C205.985 20.6267 206.623 20.898 207.371 20.898C208.119 20.898 208.757 20.6267 209.285 20.084C209.813 19.5267 210.077 18.7787 210.077 17.84ZM219.201 13.462C219.568 12.89 220.074 12.428 220.719 12.076C221.364 11.724 222.12 11.548 222.985 11.548C223.997 11.548 224.914 11.8047 225.735 12.318C226.556 12.8313 227.202 13.5647 227.671 14.518C228.155 15.4713 228.397 16.5787 228.397 17.84C228.397 19.1013 228.155 20.216 227.671 21.184C227.202 22.1373 226.556 22.878 225.735 23.406C224.914 23.9193 223.997 24.176 222.985 24.176C222.134 24.176 221.379 24 220.719 23.648C220.074 23.296 219.568 22.8413 219.201 22.284V29.852H215.439V11.724H219.201V13.462ZM224.569 17.84C224.569 16.9013 224.305 16.168 223.777 15.64C223.264 15.0973 222.626 14.826 221.863 14.826C221.115 14.826 220.477 15.0973 219.949 15.64C219.436 16.1827 219.179 16.9233 219.179 17.862C219.179 18.8007 219.436 19.5413 219.949 20.084C220.477 20.6267 221.115 20.898 221.863 20.898C222.611 20.898 223.249 20.6267 223.777 20.084C224.305 19.5267 224.569 18.7787 224.569 17.84Z" fill="#1C1C1C"/>
<path d="M49.0385 23.4892H44.5054C44.5054 14.7082 38.0851 7.35304 29.4642 5.43384V4.46421C29.4642 1.99892 27.4653 0 25 0C22.5347 0 20.5358 1.99892 20.5358 4.46421V5.43384C11.9149 7.35304 5.49458 14.7082 5.49458 23.4892H0.961497C0.430586 23.4892 0 23.9197 0 24.4507C0 24.9816 0.430586 25.4121 0.961497 25.4121H49.0385C49.5694 25.4121 50 24.9816 50 24.4507C50 23.9197 49.5694 23.4892 49.0385 23.4892Z" fill="#2F5A76"/>
<path d="M28.7472 9.20312C28.667 9.20312 28.5884 9.22644 28.5363 9.27146C28.4571 9.33978 28.3367 9.47644 28.1735 9.74922C28.0471 9.90161 27.9457 10.0648 27.8633 10.2346C27.6957 10.58 27.5634 10.9309 27.4544 11.2856C27.4544 11.2861 27.4539 11.2866 27.4539 11.2872C26.629 13.3712 26.4023 20.4667 26.4023 20.4667H29.2331L29.0325 9.4092C29.0303 9.29477 28.9034 9.20312 28.7472 9.20312Z" fill="white"/>
<path d="M29.2127 21.5625H26.7734V25.4085H29.2127V21.5625Z" fill="white"/>
<path d="M24.4119 11.356C24.3734 11.1483 24.246 10.9645 24.0339 10.8159C23.907 10.7275 23.7519 10.6386 23.5665 10.6792C23.3691 10.7231 23.4233 10.869 23.4173 10.9748C23.3701 11.8137 23.3371 12.6527 23.285 13.491C23.2731 13.6809 23.3864 13.9835 22.9981 13.9938C22.5789 14.0051 22.6532 13.6836 22.6304 13.4883C22.5345 12.6635 22.4721 11.8365 22.3859 11.0106C22.368 10.8392 22.4048 10.6066 22.0296 10.6055C21.6863 10.6049 21.7026 10.8218 21.6847 10.9845C21.5914 11.8208 21.5166 12.6586 21.42 13.4948C21.3973 13.6939 21.4759 14.0062 21.0491 13.9905C20.6657 13.9769 20.7655 13.6792 20.7557 13.4878C20.7156 12.6716 20.6939 11.8549 20.6576 11.0388C20.6521 10.9216 20.7031 10.76 20.4797 10.7204C20.2649 10.6825 20.125 10.8034 20.0155 10.9178C19.8685 11.0713 19.817 11.2492 19.7796 11.4308C19.5871 12.3566 19.6163 13.2899 19.6852 14.2166C19.7438 15.0084 20.0865 15.7394 21.1765 16.1602C21.3642 16.2329 21.4499 16.3473 21.4265 16.4997C21.4119 16.6266 21.4 16.7541 21.3897 16.881H21.3891L21.3853 16.9384C21.3756 17.0659 21.3674 17.1933 21.3604 17.3208L21.2091 19.6375V25.407H23.1548V19.6375L23.0008 16.9363C23.0003 16.7579 22.9987 16.5794 23.0025 16.4016C23.0052 16.2817 23.0496 16.2123 23.157 16.1423C23.9005 15.7638 24.3826 15.2497 24.4656 14.6147C24.6082 13.5306 24.6136 12.4406 24.4119 11.356Z" fill="white"/>
</svg>
