<svg width="64" height="64" viewBox="0 0 64 64" fill="none" xmlns="http://www.w3.org/2000/svg">
<rect x="0.5" y="0.5" width="63" height="63" rx="31.5" fill="url(#paint0_linear_3669_1803)" stroke="white"/>
<path d="M34.9314 21.499C36.6884 22.6006 37.9204 24.4648 38.1447 26.6287C38.8815 26.9753 39.6856 27.1554 40.4998 27.1561C43.578 27.1561 46.0729 24.6611 46.0729 21.5834C46.0729 18.5052 43.578 16.0103 40.4998 16.0103C37.4509 16.0112 34.9778 18.4615 34.9314 21.499ZM31.2803 32.9099C34.3585 32.9099 36.8534 30.4145 36.8534 27.3367C36.8534 24.259 34.358 21.7641 31.2803 21.7641C28.2025 21.7641 25.7062 24.2595 25.7062 27.3372C25.7062 30.415 28.2025 32.9099 31.2803 32.9099ZM33.6443 33.2898H28.9153C24.9806 33.2898 21.7796 36.4913 21.7796 40.426V46.2092L21.7943 46.2998L22.1926 46.4245C25.9476 47.5977 29.2098 47.989 31.8949 47.989C37.1394 47.989 40.1792 46.4937 40.3665 46.3984L40.7388 46.2101H40.7786V40.426C40.78 36.4913 37.579 33.2898 33.6443 33.2898ZM42.8647 27.5364H38.1722C38.1246 29.3483 37.3626 31.0679 36.0524 32.3204C39.5499 33.3604 42.1088 36.6037 42.1088 40.4345V42.2166C46.742 42.0469 49.412 40.7337 49.5879 40.6455L49.9602 40.4568H50V34.6717C50 30.7374 46.799 27.5364 42.8647 27.5364ZM21.5012 27.157C22.5914 27.157 23.6058 26.8388 24.4651 26.2968C24.7347 24.5528 25.6626 22.9785 27.0577 21.8978C27.0634 21.7935 27.0734 21.6901 27.0734 21.5848C27.0734 18.5066 24.578 16.0117 21.5012 16.0117C18.4225 16.0117 15.928 18.5066 15.928 21.5848C15.928 24.6616 18.4225 27.157 21.5012 27.157ZM26.5062 32.3204C25.2033 31.0739 24.4425 29.3653 24.3878 27.563C24.2138 27.5502 24.0416 27.5364 23.8643 27.5364H19.1357C15.201 27.5364 12 30.7374 12 34.6717V40.4558L12.0147 40.545L12.4131 40.6707C15.4254 41.6111 18.1138 42.0445 20.4489 42.1811V40.4345C20.4498 36.6037 23.0078 33.3614 26.5062 32.3204Z" fill="#FF3B6D"/>
<defs>
<linearGradient id="paint0_linear_3669_1803" x1="32" y1="0" x2="32" y2="64" gradientUnits="userSpaceOnUse">
<stop stop-color="white"/>
<stop offset="0.802671" stop-color="#FFE2EA"/>
<stop offset="1" stop-color="#FFC1D1"/>
</linearGradient>
</defs>
</svg>
