<svg width="64" height="64" viewBox="0 0 64 64" fill="none" xmlns="http://www.w3.org/2000/svg">
<rect x="0.5" y="0.5" width="63" height="63" rx="31.5" fill="url(#paint0_linear_3669_1802)" stroke="white"/>
<g clip-path="url(#clip0_3669_1802)">
<path d="M25.2826 14C24.4542 14 23.7826 14.6716 23.7826 15.5V28.9348C23.7826 29.7632 24.4542 30.4348 25.2826 30.4348H39.5001C40.3285 30.4348 41.0001 29.7632 41.0001 28.9348V15.5C41.0001 14.6716 40.3285 14 39.5001 14H25.2826ZM37.087 19.8696C37.087 20.5179 36.5615 21.0435 35.9131 21.0435H28.8696C28.2213 21.0435 27.6957 20.5179 27.6957 19.8696V19.8696C27.6957 19.2213 28.2213 18.6957 28.8697 18.6957H35.9131C36.5615 18.6957 37.087 19.2213 37.087 19.8696V19.8696ZM15.8914 32.7826C15.0629 32.7826 14.3914 33.4542 14.3914 34.2826V48.5C14.3914 49.3284 15.0629 50 15.8914 50H29.3261C30.1546 50 30.8261 49.3284 30.8261 48.5V34.2826C30.8261 33.4542 30.1546 32.7826 29.3261 32.7826H15.8914ZM26.9131 38.6522C26.9131 39.3005 26.3875 39.8261 25.7392 39.8261H19.4783C18.83 39.8261 18.3044 39.3005 18.3044 38.6522V38.6522C18.3044 38.0038 18.83 37.4783 19.4783 37.4783H25.7392C26.3875 37.4783 26.9131 38.0038 26.9131 38.6522V38.6522ZM34.674 32.7826C33.8456 32.7826 33.174 33.4542 33.174 34.2826V48.5C33.174 49.3284 33.8456 50 34.674 50H48.1088C48.9372 50 49.6088 49.3284 49.6088 48.5V34.2826C49.6088 33.4542 48.9372 32.7826 48.1088 32.7826H34.674ZM45.6957 38.6522C45.6957 39.3005 45.1702 39.8261 44.5218 39.8261H38.2609C37.6126 39.8261 37.087 39.3005 37.087 38.6522V38.6522C37.087 38.0038 37.6126 37.4783 38.2609 37.4783H44.5218C45.1702 37.4783 45.6957 38.0038 45.6957 38.6522V38.6522Z" fill="#5003E6"/>
</g>
<defs>
<linearGradient id="paint0_linear_3669_1802" x1="32" y1="0" x2="32" y2="64" gradientUnits="userSpaceOnUse">
<stop stop-color="white"/>
<stop offset="0.802671" stop-color="#DFCEFF"/>
<stop offset="1" stop-color="#B58FFF"/>
</linearGradient>
<clipPath id="clip0_3669_1802">
<rect width="36" height="36" fill="white" transform="translate(14 14)"/>
</clipPath>
</defs>
</svg>
