<svg width="61" height="60" viewBox="0 0 61 60" fill="none" xmlns="http://www.w3.org/2000/svg">
<path d="M19.0668 47.2697C21.1401 47.2697 22.8388 49.0046 22.8388 51.1476C22.8388 53.2652 21.1401 55.0001 19.0668 55.0001C16.9684 55.0001 15.2697 53.2652 15.2697 51.1476C15.2697 49.0046 16.9684 47.2697 19.0668 47.2697ZM47.1699 47.2697C49.2432 47.2697 50.9419 49.0046 50.9419 51.1476C50.9419 53.2652 49.2432 55.0001 47.1699 55.0001C45.0715 55.0001 43.3728 53.2652 43.3728 51.1476C43.3728 49.0046 45.0715 47.2697 47.1699 47.2697ZM7.70112 5.02191L13.659 5.93781C14.5083 6.09344 15.1328 6.80525 15.2078 7.67268L15.6824 13.3875C15.7573 14.2065 16.4068 14.8188 17.2062 14.8188H50.9424C52.4662 14.8188 53.4654 15.3546 54.4647 16.5281C55.4639 17.7017 55.6388 19.3856 55.4139 20.9138L53.0408 37.6501C52.5911 40.8673 49.8932 43.2374 46.7207 43.2374H19.4669C16.1445 43.2374 13.3967 40.6377 13.1219 37.27L10.8237 9.45857L7.05162 8.79524C6.0524 8.61665 5.35295 7.62165 5.52781 6.60114C5.70267 5.55767 6.67692 4.86628 7.70112 5.02191ZM42.7238 24.2559H35.8042C34.755 24.2559 33.9307 25.0979 33.9307 26.1694C33.9307 27.2154 34.755 28.0829 35.8042 28.0829H42.7238C43.773 28.0829 44.5974 27.2154 44.5974 26.1694C44.5974 25.0979 43.773 24.2559 42.7238 24.2559Z" fill="#92949A"/>
</svg>
