<svg width="20" height="23" viewBox="0 0 20 23" fill="none" xmlns="http://www.w3.org/2000/svg">
<path d="M17.3674 5.79008C17.6401 4.01202 17.3674 2.82665 16.4129 1.73246C15.3676 0.501503 13.4586 0 11.0042 0H3.95924C3.45927 0 3.05021 0.364729 2.9593 0.866232L0.00495596 19.5586C-0.0404955 19.9233 0.232213 20.2425 0.595825 20.2425H4.95917L4.64101 22.1573C4.59556 22.4765 4.82281 22.75 5.18643 22.75H8.868C9.32251 22.75 9.68612 22.4309 9.73157 22.0205L10.5042 17.1879C10.5497 16.7776 10.9588 16.4584 11.3678 16.4584H11.9132C15.4585 16.4584 18.2765 14.9995 19.0946 10.8051C19.4127 9.07265 19.2764 7.56814 18.3674 6.56513C18.0946 6.24599 17.7765 6.01804 17.3674 5.79008Z" fill="#009CDE"/>
<path d="M17.3674 5.79008C17.6401 4.01202 17.3674 2.82665 16.4129 1.73246C15.3676 0.501503 13.4586 0 11.0042 0H3.95924C3.45927 0 3.05021 0.364729 2.9593 0.866232L0.00495596 19.5586C-0.0404955 19.9233 0.232213 20.2425 0.595825 20.2425H4.95917L6.00455 13.495C6.09545 12.9935 6.50452 12.6288 7.00448 12.6288H9.09525C13.1859 12.6288 16.3675 10.9875 17.2765 6.15481C17.322 6.06363 17.322 5.92685 17.3674 5.79008Z" fill="#012169"/>
<path d="M7.23174 5.83567C7.27719 5.51653 7.68626 5.10621 8.09532 5.10621H13.6404C14.2767 5.10621 14.913 5.1518 15.4585 5.24299C15.9584 5.33417 16.8675 5.56212 17.322 5.83567C17.5947 4.05761 17.322 2.87224 16.3675 1.77806C15.3676 0.501503 13.4586 0 11.0042 0H3.95923C3.45927 0 3.0502 0.364729 2.9593 0.866232L0.00495596 19.5586C-0.0404955 19.9233 0.232213 20.2425 0.595825 20.2425H4.95917L7.23174 5.83567Z" fill="#003087"/>
</svg>
