<svg width="13" height="19" viewBox="0 0 13 19" fill="none" xmlns="http://www.w3.org/2000/svg">
<path d="M8.30485 0H0.750971C0.334466 0 0 0.31903 0 0.703047V3.87562C0 3.88153 0 3.88744 0 3.89335C0 3.91107 0 3.92289 0 3.9347V18.2851C0 18.6751 0.309223 18.9941 0.700485 19H4.22184C4.64466 19 4.98544 18.681 4.98544 18.2851L4.99806 13.3697H8.30485C11.0689 13.3697 13 11.5737 13 8.96828V4.40734C13 1.80784 11.0689 0 8.30485 0ZM8.00194 5.93159V7.92848C8.00194 8.34795 7.64223 8.69061 7.19417 8.69061H5.00437V4.69092H7.19417C7.64223 4.69092 8.00194 5.02767 8.00194 5.44714V5.93159Z" fill="#00BAF2"/>
</svg>
