<svg width="27" height="27" viewBox="0 0 27 27" fill="none" xmlns="http://www.w3.org/2000/svg">
<path d="M11.0561 0.97345C8.67858 0.97345 6.7666 2.90205 6.7666 5.26293H22.7108C25.0883 5.26293 27.0003 3.33433 27.0003 0.97345H11.0561Z" fill="#04AB61"/>
<path d="M6.7666 5.26293C6.7666 2.88543 8.69521 0.97345 11.0561 0.97345V16.9177C11.0561 19.2952 9.12748 21.2072 6.7666 21.2072V5.26293Z" fill="#04AB61"/>
<path fill-rule="evenodd" clip-rule="evenodd" d="M12.4189 6.69275V10.9822H17.4233C19.8008 10.9822 21.7128 9.05363 21.7128 6.69275H12.4189Z" fill="#FBB016"/>
<path d="M0.963867 10.9823C0.963867 8.60479 2.89247 6.69281 5.25335 6.69281V22.6371C5.25335 25.0146 3.32475 26.9265 0.963867 26.9265V10.9823Z" fill="#FBB016"/>
</svg>
