<svg width="18" height="25" viewBox="0 0 18 25" fill="none" xmlns="http://www.w3.org/2000/svg">
<path d="M18 8.38359C18 7.67464 17.3646 7.06665 16.6237 7.06665H14.0828L8.25938 0.683905C7.73008 0.0759225 6.88309 -0.12656 6.03611 0.0759227L4.02444 0.683905C3.70675 0.785414 3.60067 1.19038 3.81283 1.39286L10.1655 7.16816H0.529297C0.211607 7.16816 0 7.37064 0 7.67464V8.68758C0 9.39654 0.635379 10.0045 1.37628 10.0045H2.85865V14.8678C2.85865 18.5152 4.87031 20.6431 8.25882 20.6431C9.31741 20.6431 10.165 20.5416 11.2235 20.1367V23.3791C11.2235 24.291 11.9645 25 12.9175 25H14.3999C14.7176 25 15.0353 24.696 15.0353 24.392V9.90355H17.4707C17.7884 9.90355 18 9.70107 18 9.39707V8.38359ZM11.2235 17.0968C10.5882 17.4008 9.74118 17.5023 9.1058 17.5023C7.41183 17.5023 6.56484 16.6918 6.56484 14.8678V10.0045H11.2235V17.0968Z" fill="#5F259F"/>
</svg>
