<svg width="26" height="26" viewBox="0 0 26 26" fill="none" xmlns="http://www.w3.org/2000/svg">
<g clip-path="url(#clip0_174_60256)">
<path d="M22.5637 9.47577L10.4424 21.5972C9.89456 22.1449 9.00648 22.1449 8.45879 21.5972L1.3258 14.4642C0.778118 13.9164 0.778118 13.0283 1.3258 12.4806L13.4471 0.359128C13.9949 -0.188557 14.883 -0.188557 15.4307 0.359128L22.5637 7.49212C23.1116 8.0398 23.1116 8.92808 22.5637 9.47577Z" fill="#AAEAD0"/>
<path d="M3.65635 13.9666C3.55875 13.9666 3.46136 13.9294 3.38697 13.855C3.2382 13.7062 3.2382 13.4652 3.38697 13.3164L9.32422 7.37916C9.47299 7.23038 9.7142 7.23038 9.86278 7.37916C10.0116 7.52793 10.0116 7.76914 9.86278 7.91772L3.92553 13.8552C3.85114 13.9294 3.75375 13.9666 3.65635 13.9666Z" fill="#FAFAFA"/>
<path d="M5.54014 15.8573C5.44254 15.8573 5.34515 15.82 5.27076 15.7456C5.12199 15.5968 5.12199 15.3558 5.27076 15.2071L11.208 9.26978C11.3568 9.12101 11.598 9.12101 11.7466 9.26978C11.8953 9.41856 11.8953 9.65977 11.7466 9.80835L5.80932 15.7456C5.73493 15.82 5.63754 15.8573 5.54014 15.8573Z" fill="#FAFAFA"/>
<path d="M13.249 3.12414L12.0611 4.31175C11.5942 4.7787 11.5942 5.53566 12.0611 6.00261C12.5281 6.46956 13.2853 6.46956 13.7522 6.00261L14.9398 4.815C15.4068 4.34805 15.4068 3.59109 14.9398 3.12414C14.4729 2.65719 13.7157 2.65719 13.249 3.12414Z" fill="#009F5E"/>
<path d="M23.8555 16.2262H25.1109V18.6496H23.8555V16.2262Z" fill="#2E2E46"/>
<path d="M23.707 13.052H6.56475C5.79013 13.052 5.16211 13.68 5.16211 14.4546V24.5423C5.16211 25.3169 5.79013 25.9449 6.56475 25.9449H23.707C24.4818 25.9449 25.1097 25.3169 25.1097 24.5423V14.4546C25.1098 13.68 24.4818 13.052 23.707 13.052Z" fill="#009F5E"/>
<path d="M5.16211 16.2262H25.1098V18.6496H5.16211V16.2262Z" fill="white"/>
<path d="M20.209 22.523V24.0177C20.209 24.1333 20.3026 24.2269 20.4183 24.2269H22.7957C22.9113 24.2269 23.0049 24.1333 23.0049 24.0177V22.523C23.0049 22.4073 22.9113 22.3137 22.7957 22.3137H20.4183C20.3026 22.3137 20.209 22.4073 20.209 22.523Z" fill="white"/>
<path d="M13.0371 22.523V24.0177C13.0371 24.1333 13.1309 24.2269 13.2464 24.2269H18.2749C18.3906 24.2269 18.4842 24.1333 18.4842 24.0177V22.523C18.4842 22.4073 18.3906 22.3137 18.2749 22.3137H13.2464C13.1309 22.3137 13.0371 22.4073 13.0371 22.523Z" fill="white"/>
<path d="M10.9915 24.6089H8.48633C8.27586 24.6089 8.10547 24.4383 8.10547 24.228C8.10547 24.0176 8.27586 23.8472 8.48633 23.8472H10.9915C11.2019 23.8472 11.3723 24.0176 11.3723 24.228C11.3723 24.4383 11.2019 24.6089 10.9915 24.6089Z" fill="white"/>
</g>
<defs>
<clipPath id="clip0_174_60256">
<rect width="26" height="26" fill="white"/>
</clipPath>
</defs>
</svg>
