<svg width="111" height="107" viewBox="0 0 111 107" fill="none" xmlns="http://www.w3.org/2000/svg">
<path d="M45.8161 9.48386C47.6403 6.17205 52.3597 6.17205 54.1839 9.48386L58.3785 17.099C59.6493 19.4062 62.5196 20.2568 64.8246 19.0094L72.4326 14.8918C75.7412 13.1011 79.7115 15.6763 79.472 19.4578L78.9215 28.1529C78.7547 30.7872 80.7137 33.069 83.321 33.2773L91.9269 33.9647C95.6695 34.2637 97.63 38.5964 95.403 41.6469L90.2821 48.6613C88.7306 50.7864 89.1564 53.775 91.2382 55.3729L98.1097 60.647C101.098 62.9407 100.426 67.6554 96.9188 69.0065L88.8534 72.1131C86.4099 73.0543 85.1672 75.8007 86.0626 78.2809L89.018 86.4672C90.3033 90.0274 87.2128 93.6272 83.5383 92.8499L75.0891 91.0624C72.5293 90.5209 70.0126 92.1532 69.4373 94.7283L67.5384 103.228C66.7126 106.924 62.1843 108.266 59.5095 105.607L53.3591 99.493C51.4958 97.6407 48.5042 97.6407 46.6409 99.493L40.4905 105.607C37.8157 108.266 33.2874 106.924 32.4616 103.228L30.5627 94.7283C29.9874 92.1532 27.4707 90.5209 24.9109 91.0624L16.4617 92.8499C12.7872 93.6272 9.69668 90.0274 10.982 86.4672L13.9374 78.2809C14.8328 75.8007 13.5901 73.0543 11.1465 72.1131L3.08118 69.0065C-0.426409 67.6554 -1.09805 62.9407 1.89032 60.647L8.76178 55.3729C10.8436 53.775 11.2694 50.7864 9.7179 48.6613L4.59701 41.6469C2.36996 38.5964 4.33049 34.2637 8.07314 33.9647L16.679 33.2773C19.2863 33.069 21.2453 30.7872 21.0785 28.1529L20.528 19.4578C20.2885 15.6763 24.2588 13.1011 27.5674 14.8918L35.1754 19.0094C37.4804 20.2568 40.3507 19.4062 41.6215 17.099L45.8161 9.48386Z" fill="#DCEAFF"/>
<path fill-rule="evenodd" clip-rule="evenodd" d="M67.4145 38.9928L41.1538 63.9898L34.1852 56.6463C32.9015 55.4525 30.8843 55.3801 29.4172 56.393C27.9868 57.4421 27.5834 59.2871 28.4636 60.7702L36.7159 74.0104C37.5228 75.2403 38.9165 76 40.4936 76C41.9974 76 43.4278 75.2403 44.2347 74.0104C45.5551 72.3101 70.7521 42.6826 70.7521 42.6826C74.053 39.3545 70.0552 36.4243 67.4145 38.9566V38.9928Z" fill="#1772FF"/>
<circle cx="108.5" cy="78.5" r="2.5" fill="#6EDD8A"/>
<circle cx="32.5" cy="2.5" r="2.5" fill="#FFC02F"/>
<circle cx="12.5" cy="104.5" r="2.5" fill="#144BD6"/>
</svg>
