<svg width="247" height="36" viewBox="0 0 247 36" fill="none" xmlns="http://www.w3.org/2000/svg">
<path d="M54.8122 30.2545H49.7455C49.7455 20.2753 42.5692 11.9164 32.9333 9.73535V8.6334C32.9333 5.83169 30.699 3.55994 27.9435 3.55994C25.1879 3.55994 22.9536 5.83169 22.9536 8.6334V9.73535C13.3177 11.9164 6.1415 20.2753 6.1415 30.2545H1.0747C0.48128 30.2545 0 30.7438 0 31.3472C0 31.9506 0.48128 32.4399 1.0747 32.4399H54.8122C55.4056 32.4399 55.8869 31.9506 55.8869 31.3472C55.8869 30.7438 55.4056 30.2545 54.8122 30.2545Z" fill="#FC8019"/>
<path d="M32.134 14.0192C32.0443 14.0192 31.9564 14.0457 31.8982 14.0967C31.8096 14.1745 31.6751 14.3298 31.4927 14.6397C31.3514 14.813 31.2382 14.9984 31.146 15.1914C30.9587 15.5839 30.8108 15.9826 30.689 16.3857C30.689 16.3863 30.6884 16.387 30.6884 16.3876C29.7664 18.7561 29.5129 26.8198 29.5129 26.8198H32.6771L32.4528 14.2533C32.4504 14.1232 32.3085 14.0192 32.134 14.0192Z" fill="white"/>
<path d="M32.6511 28.0665H29.9246V32.4374H32.6511V28.0665Z" fill="white"/>
<path d="M27.2837 16.4669C27.2407 16.2309 27.0982 16.0219 26.8612 15.8531C26.7194 15.7527 26.5459 15.6516 26.3387 15.6978C26.118 15.7477 26.1786 15.9135 26.172 16.0337C26.1193 16.9871 26.0822 17.9405 26.0241 18.8932C26.0107 19.109 26.1375 19.4529 25.7034 19.4646C25.2349 19.4775 25.318 19.1121 25.2925 18.8903C25.1852 17.9528 25.1154 17.0129 25.019 16.0744C24.9991 15.8796 25.0404 15.6152 24.6209 15.614C24.2372 15.6133 24.2553 15.8599 24.2354 16.0448C24.131 16.9951 24.0474 17.9473 23.9395 18.8976C23.9141 19.1238 24.002 19.4788 23.525 19.4609C23.0964 19.4455 23.208 19.1072 23.1971 18.8896C23.1521 17.9621 23.1279 17.0339 23.0873 16.1064C23.0812 15.9733 23.1382 15.7896 22.8885 15.7446C22.6485 15.7015 22.492 15.8389 22.3696 15.9689C22.2054 16.1433 22.1478 16.3455 22.1059 16.552C21.8907 17.604 21.9235 18.6647 22.0005 19.718C22.0659 20.6177 22.4491 21.4486 23.6673 21.9268C23.8771 22.0093 23.9728 22.1394 23.9468 22.3125C23.9305 22.4567 23.9171 22.6016 23.9056 22.7458H23.905L23.9007 22.8111C23.8898 22.956 23.8808 23.1009 23.8729 23.2456L23.7038 25.8785V32.4354H25.8786V25.8785L25.7065 22.8087C25.7059 22.6059 25.704 22.4032 25.7083 22.201C25.7113 22.0648 25.761 21.986 25.881 21.9065C26.7121 21.4763 27.251 20.892 27.3436 20.1702C27.5031 18.9383 27.5091 17.6995 27.2837 16.4669Z" fill="white"/>
<path d="M78.1829 26L74.4869 19.472H72.9029V26H69.5429V9.248H75.8309C77.1269 9.248 78.2309 9.48 79.1429 9.944C80.0549 10.392 80.7349 11.008 81.1829 11.792C81.6469 12.56 81.8789 13.424 81.8789 14.384C81.8789 15.488 81.5589 16.488 80.9189 17.384C80.2789 18.264 79.3269 18.872 78.0629 19.208L82.0709 26H78.1829ZM72.9029 16.952H75.7109C76.6229 16.952 77.3029 16.736 77.7509 16.304C78.1989 15.856 78.4229 15.24 78.4229 14.456C78.4229 13.688 78.1989 13.096 77.7509 12.68C77.3029 12.248 76.6229 12.032 75.7109 12.032H72.9029V16.952ZM96.3179 19.064C96.3179 19.544 96.2859 19.976 96.2219 20.36H86.5019C86.5819 21.32 86.9179 22.072 87.5099 22.616C88.1019 23.16 88.8299 23.432 89.6939 23.432C90.9419 23.432 91.8299 22.896 92.3579 21.824H95.9819C95.5979 23.104 94.8619 24.16 93.7739 24.992C92.6859 25.808 91.3499 26.216 89.7659 26.216C88.4859 26.216 87.3339 25.936 86.3099 25.376C85.3019 24.8 84.5099 23.992 83.9339 22.952C83.3739 21.912 83.0939 20.712 83.0939 19.352C83.0939 17.976 83.3739 16.768 83.9339 15.728C84.4939 14.688 85.2779 13.888 86.2859 13.328C87.2939 12.768 88.4539 12.488 89.7659 12.488C91.0299 12.488 92.1579 12.76 93.1499 13.304C94.1579 13.848 94.9339 14.624 95.4779 15.632C96.0379 16.624 96.3179 17.768 96.3179 19.064ZM92.8379 18.104C92.8219 17.24 92.5099 16.552 91.9019 16.04C91.2939 15.512 90.5499 15.248 89.6699 15.248C88.8379 15.248 88.1339 15.504 87.5579 16.016C86.9979 16.512 86.6539 17.208 86.5259 18.104H92.8379ZM102.898 26.216C101.81 26.216 100.834 26.024 99.9704 25.64C99.1064 25.24 98.4184 24.704 97.9064 24.032C97.4104 23.36 97.1384 22.616 97.0904 21.8H100.474C100.538 22.312 100.786 22.736 101.218 23.072C101.666 23.408 102.218 23.576 102.874 23.576C103.514 23.576 104.01 23.448 104.362 23.192C104.73 22.936 104.914 22.608 104.914 22.208C104.914 21.776 104.69 21.456 104.242 21.248C103.81 21.024 103.114 20.784 102.154 20.528C101.162 20.288 100.346 20.04 99.7064 19.784C99.0824 19.528 98.5384 19.136 98.0744 18.608C97.6264 18.08 97.4024 17.368 97.4024 16.472C97.4024 15.736 97.6104 15.064 98.0264 14.456C98.4584 13.848 99.0664 13.368 99.8504 13.016C100.65 12.664 101.586 12.488 102.658 12.488C104.242 12.488 105.506 12.888 106.45 13.688C107.394 14.472 107.914 15.536 108.01 16.88H104.794C104.746 16.352 104.522 15.936 104.122 15.632C103.738 15.312 103.218 15.152 102.562 15.152C101.954 15.152 101.482 15.264 101.146 15.488C100.826 15.712 100.666 16.024 100.666 16.424C100.666 16.872 100.89 17.216 101.338 17.456C101.786 17.68 102.482 17.912 103.426 18.152C104.386 18.392 105.178 18.64 105.802 18.896C106.426 19.152 106.962 19.552 107.41 20.096C107.874 20.624 108.114 21.328 108.13 22.208C108.13 22.976 107.914 23.664 107.482 24.272C107.066 24.88 106.458 25.36 105.658 25.712C104.874 26.048 103.954 26.216 102.898 26.216ZM113.841 15.464V21.896C113.841 22.344 113.945 22.672 114.153 22.88C114.377 23.072 114.745 23.168 115.257 23.168H116.817V26H114.705C111.873 26 110.457 24.624 110.457 21.872V15.464H108.873V12.704H110.457V9.416H113.841V12.704H116.817V15.464H113.841ZM117.409 19.304C117.409 17.96 117.673 16.768 118.201 15.728C118.745 14.688 119.473 13.888 120.385 13.328C121.313 12.768 122.345 12.488 123.481 12.488C124.473 12.488 125.337 12.688 126.073 13.088C126.825 13.488 127.425 13.992 127.873 14.6V12.704H131.257V26H127.873V24.056C127.441 24.68 126.841 25.2 126.073 25.616C125.321 26.016 124.449 26.216 123.457 26.216C122.337 26.216 121.313 25.928 120.385 25.352C119.473 24.776 118.745 23.968 118.201 22.928C117.673 21.872 117.409 20.664 117.409 19.304ZM127.873 19.352C127.873 18.536 127.713 17.84 127.393 17.264C127.073 16.672 126.641 16.224 126.097 15.92C125.553 15.6 124.969 15.44 124.345 15.44C123.721 15.44 123.145 15.592 122.617 15.896C122.089 16.2 121.657 16.648 121.321 17.24C121.001 17.816 120.841 18.504 120.841 19.304C120.841 20.104 121.001 20.808 121.321 21.416C121.657 22.008 122.089 22.464 122.617 22.784C123.161 23.104 123.737 23.264 124.345 23.264C124.969 23.264 125.553 23.112 126.097 22.808C126.641 22.488 127.073 22.04 127.393 21.464C127.713 20.872 127.873 20.168 127.873 19.352ZM146.131 12.704V26H142.747V24.32C142.315 24.896 141.747 25.352 141.043 25.688C140.355 26.008 139.603 26.168 138.787 26.168C137.747 26.168 136.827 25.952 136.027 25.52C135.227 25.072 134.595 24.424 134.131 23.576C133.683 22.712 133.459 21.688 133.459 20.504V12.704H136.819V20.024C136.819 21.08 137.083 21.896 137.611 22.472C138.139 23.032 138.859 23.312 139.771 23.312C140.699 23.312 141.427 23.032 141.955 22.472C142.483 21.896 142.747 21.08 142.747 20.024V12.704H146.131ZM151.846 14.768C152.278 14.064 152.838 13.512 153.526 13.112C154.23 12.712 155.03 12.512 155.926 12.512V16.04H155.038C153.982 16.04 153.182 16.288 152.638 16.784C152.11 17.28 151.846 18.144 151.846 19.376V26H148.486V12.704H151.846V14.768ZM156.365 19.304C156.365 17.96 156.629 16.768 157.157 15.728C157.701 14.688 158.429 13.888 159.341 13.328C160.269 12.768 161.301 12.488 162.437 12.488C163.429 12.488 164.293 12.688 165.029 13.088C165.781 13.488 166.381 13.992 166.829 14.6V12.704H170.213V26H166.829V24.056C166.397 24.68 165.797 25.2 165.029 25.616C164.277 26.016 163.405 26.216 162.413 26.216C161.293 26.216 160.269 25.928 159.341 25.352C158.429 24.776 157.701 23.968 157.157 22.928C156.629 21.872 156.365 20.664 156.365 19.304ZM166.829 19.352C166.829 18.536 166.669 17.84 166.349 17.264C166.029 16.672 165.597 16.224 165.053 15.92C164.509 15.6 163.925 15.44 163.301 15.44C162.677 15.44 162.101 15.592 161.573 15.896C161.045 16.2 160.613 16.648 160.277 17.24C159.957 17.816 159.797 18.504 159.797 19.304C159.797 20.104 159.957 20.808 160.277 21.416C160.613 22.008 161.045 22.464 161.573 22.784C162.117 23.104 162.693 23.264 163.301 23.264C163.925 23.264 164.509 23.112 165.053 22.808C165.597 22.488 166.029 22.04 166.349 21.464C166.669 20.872 166.829 20.168 166.829 19.352ZM179.903 12.512C181.487 12.512 182.767 13.016 183.743 14.024C184.719 15.016 185.207 16.408 185.207 18.2V26H181.847V18.656C181.847 17.6 181.583 16.792 181.055 16.232C180.527 15.656 179.807 15.368 178.895 15.368C177.967 15.368 177.231 15.656 176.687 16.232C176.159 16.792 175.895 17.6 175.895 18.656V26H172.535V12.704H175.895V14.36C176.343 13.784 176.911 13.336 177.599 13.016C178.303 12.68 179.071 12.512 179.903 12.512ZM191.354 15.464V21.896C191.354 22.344 191.458 22.672 191.666 22.88C191.89 23.072 192.258 23.168 192.77 23.168H194.33V26H192.218C189.386 26 187.97 24.624 187.97 21.872V15.464H186.386V12.704H187.97V9.416H191.354V12.704H194.33V15.464H191.354ZM210.817 22.808H204.145L203.041 26H199.513L205.537 9.224H209.449L215.473 26H211.921L210.817 22.808ZM209.905 20.12L207.481 13.112L205.057 20.12H209.905ZM220.125 14.624C220.557 14.016 221.149 13.512 221.901 13.112C222.669 12.696 223.541 12.488 224.517 12.488C225.653 12.488 226.677 12.768 227.589 13.328C228.517 13.888 229.245 14.688 229.773 15.728C230.317 16.752 230.589 17.944 230.589 19.304C230.589 20.664 230.317 21.872 229.773 22.928C229.245 23.968 228.517 24.776 227.589 25.352C226.677 25.928 225.653 26.216 224.517 26.216C223.541 26.216 222.677 26.016 221.925 25.616C221.189 25.216 220.589 24.712 220.125 24.104V32.336H216.765V12.704H220.125V14.624ZM227.157 19.304C227.157 18.504 226.989 17.816 226.653 17.24C226.333 16.648 225.901 16.2 225.357 15.896C224.829 15.592 224.253 15.44 223.629 15.44C223.021 15.44 222.445 15.6 221.901 15.92C221.373 16.224 220.941 16.672 220.605 17.264C220.285 17.856 220.125 18.552 220.125 19.352C220.125 20.152 220.285 20.848 220.605 21.44C220.941 22.032 221.373 22.488 221.901 22.808C222.445 23.112 223.021 23.264 223.629 23.264C224.253 23.264 224.829 23.104 225.357 22.784C225.901 22.464 226.333 22.008 226.653 21.416C226.989 20.824 227.157 20.12 227.157 19.304ZM235.431 14.624C235.863 14.016 236.455 13.512 237.207 13.112C237.975 12.696 238.847 12.488 239.823 12.488C240.959 12.488 241.983 12.768 242.895 13.328C243.823 13.888 244.551 14.688 245.079 15.728C245.623 16.752 245.895 17.944 245.895 19.304C245.895 20.664 245.623 21.872 245.079 22.928C244.551 23.968 243.823 24.776 242.895 25.352C241.983 25.928 240.959 26.216 239.823 26.216C238.847 26.216 237.983 26.016 237.231 25.616C236.495 25.216 235.895 24.712 235.431 24.104V32.336H232.071V12.704H235.431V14.624ZM242.463 19.304C242.463 18.504 242.295 17.816 241.959 17.24C241.639 16.648 241.207 16.2 240.663 15.896C240.135 15.592 239.559 15.44 238.935 15.44C238.327 15.44 237.751 15.6 237.207 15.92C236.679 16.224 236.247 16.672 235.911 17.264C235.591 17.856 235.431 18.552 235.431 19.352C235.431 20.152 235.591 20.848 235.911 21.44C236.247 22.032 236.679 22.488 237.207 22.808C237.751 23.112 238.327 23.264 238.935 23.264C239.559 23.264 240.135 23.104 240.663 22.784C241.207 22.464 241.639 22.008 241.959 21.416C242.295 20.824 242.463 20.12 242.463 19.304Z" fill="#1C1C1C"/>
</svg>
