<svg width="60" height="60" viewBox="0 0 60 60" fill="none" xmlns="http://www.w3.org/2000/svg">
<g clip-path="url(#clip0_2769_9872)">
<path d="M59.1392 42.833H53.6577C53.6577 32.9375 45.8941 24.6488 35.4695 22.486V21.3933C35.4695 18.6151 33.0524 16.3624 30.0713 16.3624C27.0902 16.3624 24.673 18.6151 24.673 21.3933V22.486C14.2485 24.6488 6.48488 32.9375 6.48488 42.833H1.00336C0.36137 42.833 -0.159302 43.3181 -0.159302 43.9164C-0.159302 44.5148 0.36137 45 1.00336 45H59.1392C59.7812 45 60.3019 44.5148 60.3019 43.9164C60.3019 43.3181 59.7812 42.833 59.1392 42.833Z" fill="#FC8019"/>
<path d="M34.6048 26.7343C34.5077 26.7343 34.4127 26.7605 34.3497 26.8112C34.2539 26.8882 34.1084 27.0422 33.9111 27.3496C33.7582 27.5214 33.6357 27.7053 33.5359 27.8966C33.3333 28.2859 33.1733 28.6812 33.0415 29.0809C33.0415 29.0816 33.0409 29.0822 33.0409 29.0828C32.0434 31.4314 31.7692 39.4275 31.7692 39.4275H35.1923L34.9498 26.9664C34.9471 26.8375 34.7936 26.7343 34.6048 26.7343Z" fill="white"/>
<path d="M35.1642 40.6636H32.2146V44.9978H35.1642V40.6636Z" fill="white"/>
<path d="M29.3575 29.1611C29.311 28.9271 29.1568 28.7199 28.9005 28.5525C28.747 28.4529 28.5594 28.3527 28.3351 28.3985C28.0964 28.448 28.162 28.6124 28.1549 28.7316C28.0978 29.677 28.0577 30.6224 27.9948 31.5671C27.9804 31.781 28.1175 32.1221 27.6479 32.1337C27.141 32.1465 27.2309 31.7841 27.2033 31.5642C27.0872 30.6346 27.0118 29.7026 26.9075 28.7719C26.8859 28.5788 26.9306 28.3166 26.4768 28.3154C26.0617 28.3148 26.0812 28.5592 26.0597 28.7426C25.9468 29.6849 25.8564 30.6291 25.7396 31.5714C25.7121 31.7958 25.8072 32.1477 25.2912 32.13C24.8274 32.1148 24.9482 31.7793 24.9364 31.5635C24.8878 30.6438 24.8616 29.7234 24.8177 28.8037C24.8111 28.6717 24.8727 28.4895 24.6026 28.4449C24.3429 28.4021 24.1737 28.5384 24.0413 28.6674C23.8635 28.8403 23.8012 29.0408 23.7559 29.2456C23.5231 30.2887 23.5586 31.3405 23.6419 32.385C23.7126 33.2772 24.1272 34.101 25.4452 34.5752C25.6721 34.6571 25.7757 34.786 25.7475 34.9577C25.7298 35.1007 25.7154 35.2444 25.7029 35.3874H25.7022L25.6977 35.4521C25.6859 35.5958 25.6761 35.7395 25.6675 35.883L25.4846 38.4938V44.9956H27.8374V38.4938L27.6512 35.4497C27.6505 35.2487 27.6485 35.0476 27.6532 34.8471C27.6564 34.712 27.7102 34.6339 27.8401 34.5551C28.7391 34.1285 29.3221 33.5491 29.4223 32.8334C29.5948 31.6118 29.6014 30.3834 29.3575 29.1611Z" fill="white"/>
</g>
<defs>
<clipPath id="clip0_2769_9872">
<rect width="60" height="60" fill="white"/>
</clipPath>
</defs>
</svg>
