<svg width="229" height="34" viewBox="0 0 229 34" fill="none" xmlns="http://www.w3.org/2000/svg">
<path d="M49.3462 28.0326H44.7847C44.7847 19.0485 38.324 11.5232 29.649 9.55961V8.56754C29.649 6.04522 27.6376 4.00002 25.1568 4.00002C22.676 4.00002 20.6646 6.04522 20.6646 8.56754V9.55961C11.9896 11.5232 5.529 19.0485 5.529 28.0326H0.967468C0.433225 28.0326 -6.10352e-05 28.473 -6.10352e-05 29.0162C-6.10352e-05 29.5595 0.433225 30 0.967468 30H49.3462C49.8804 30 50.3137 29.5595 50.3137 29.0162C50.3137 28.473 49.8804 28.0326 49.3462 28.0326Z" fill="#FC8019"/>
<path d="M28.9294 13.4162C28.8487 13.4162 28.7696 13.44 28.7172 13.486C28.6374 13.556 28.5163 13.6958 28.3521 13.9748C28.2249 14.1308 28.1229 14.2978 28.04 14.4715C27.8713 14.8249 27.7382 15.1839 27.6285 15.5467C27.6285 15.5473 27.628 15.5479 27.628 15.5484C26.798 17.6807 26.5698 24.9403 26.5698 24.9403H29.4184L29.2165 13.627C29.2143 13.5099 29.0866 13.4162 28.9294 13.4162Z" fill="white"/>
<path d="M29.395 26.0627H26.9404V29.9978H29.395V26.0627Z" fill="white"/>
<path d="M24.5628 15.6198C24.5241 15.4074 24.3958 15.2193 24.1825 15.0673C24.0548 14.9769 23.8986 14.8858 23.712 14.9275C23.5134 14.9724 23.5679 15.1217 23.562 15.2298C23.5145 16.0882 23.4812 16.9465 23.4289 17.8042C23.4168 17.9984 23.5309 18.3081 23.1401 18.3186C22.7183 18.3303 22.7931 18.0012 22.7702 17.8016C22.6736 16.9576 22.6108 16.1114 22.524 15.2665C22.5061 15.0911 22.5432 14.8531 22.1656 14.852C21.8201 14.8514 21.8364 15.0734 21.8185 15.2398C21.7246 16.0954 21.6493 16.9526 21.5521 17.8081C21.5293 18.0118 21.6083 18.3314 21.179 18.3153C20.7931 18.3014 20.8935 17.9969 20.8837 17.801C20.8432 16.966 20.8215 16.1303 20.7849 15.2953C20.7795 15.1754 20.8308 15.0101 20.6059 14.9696C20.3899 14.9307 20.249 15.0545 20.1388 15.1716C19.9909 15.3285 19.9391 15.5106 19.9014 15.6965C19.7076 16.6435 19.7372 17.5985 19.8065 18.5467C19.8653 19.3568 20.2103 20.1047 21.3071 20.5352C21.4959 20.6096 21.5821 20.7266 21.5587 20.8825C21.544 21.0123 21.532 21.1428 21.5216 21.2726H21.521L21.5172 21.3314C21.5074 21.4618 21.4993 21.5923 21.4921 21.7226L21.3399 24.0929V29.9959H23.2978V24.0929L23.1429 21.3292C23.1423 21.1467 23.1407 20.9642 23.1446 20.7821C23.1472 20.6595 23.192 20.5885 23.3 20.517C24.0482 20.1297 24.5334 19.6036 24.6168 18.9539C24.7603 17.8448 24.7658 16.7296 24.5628 15.6198Z" fill="white"/>
<path d="M65.5537 24.5L62.3417 18.67H61.4397V24.5H57.6777V9.056H63.9917C65.2091 9.056 66.2431 9.26867 67.0937 9.694C67.9591 10.1193 68.6044 10.706 69.0297 11.454C69.4551 12.1873 69.6677 13.0087 69.6677 13.918C69.6677 14.9447 69.3744 15.8613 68.7877 16.668C68.2157 17.4747 67.3651 18.0467 66.2357 18.384L69.7997 24.5H65.5537ZM61.4397 16.008H63.7717C64.4611 16.008 64.9744 15.8393 65.3117 15.502C65.6637 15.1647 65.8397 14.688 65.8397 14.072C65.8397 13.4853 65.6637 13.0233 65.3117 12.686C64.9744 12.3487 64.4611 12.18 63.7717 12.18H61.4397V16.008ZM83.1613 18.164C83.1613 18.516 83.1393 18.8827 83.0953 19.264H74.5813C74.64 20.0267 74.882 20.6133 75.3073 21.024C75.7473 21.42 76.2826 21.618 76.9133 21.618C77.852 21.618 78.5046 21.222 78.8713 20.43H82.8753C82.67 21.2367 82.296 21.9627 81.7533 22.608C81.2253 23.2533 80.558 23.7593 79.7513 24.126C78.9446 24.4927 78.0426 24.676 77.0453 24.676C75.8426 24.676 74.772 24.4193 73.8333 23.906C72.8946 23.3927 72.1613 22.6593 71.6333 21.706C71.1053 20.7527 70.8413 19.638 70.8413 18.362C70.8413 17.086 71.098 15.9713 71.6113 15.018C72.1393 14.0647 72.8726 13.3313 73.8113 12.818C74.75 12.3047 75.828 12.048 77.0453 12.048C78.2333 12.048 79.2893 12.2973 80.2133 12.796C81.1373 13.2947 81.856 14.006 82.3693 14.93C82.8973 15.854 83.1613 16.932 83.1613 18.164ZM79.3113 17.174C79.3113 16.5287 79.0913 16.0153 78.6513 15.634C78.2113 15.2527 77.6613 15.062 77.0013 15.062C76.3706 15.062 75.8353 15.2453 75.3953 15.612C74.97 15.9787 74.706 16.4993 74.6033 17.174H79.3113ZM89.6999 24.676C88.6293 24.676 87.6759 24.4927 86.8399 24.126C86.0039 23.7593 85.3439 23.2607 84.8599 22.63C84.3759 21.9847 84.1046 21.266 84.0459 20.474H87.7639C87.8079 20.8993 88.0059 21.244 88.3579 21.508C88.7099 21.772 89.1426 21.904 89.6559 21.904C90.1253 21.904 90.4846 21.816 90.7339 21.64C90.9979 21.4493 91.1299 21.2073 91.1299 20.914C91.1299 20.562 90.9466 20.3053 90.5799 20.144C90.2133 19.968 89.6193 19.7773 88.7979 19.572C87.9179 19.3667 87.1846 19.154 86.5979 18.934C86.0113 18.6993 85.5053 18.34 85.0799 17.856C84.6546 17.3573 84.4419 16.69 84.4419 15.854C84.4419 15.15 84.6326 14.512 85.0139 13.94C85.4099 13.3533 85.9819 12.8913 86.7299 12.554C87.4926 12.2167 88.3946 12.048 89.4359 12.048C90.9759 12.048 92.1859 12.4293 93.0659 13.192C93.9606 13.9547 94.4739 14.9667 94.6059 16.228H91.1299C91.0713 15.8027 90.8806 15.4653 90.5579 15.216C90.2499 14.9667 89.8393 14.842 89.3259 14.842C88.8859 14.842 88.5486 14.93 88.3139 15.106C88.0793 15.2673 87.9619 15.4947 87.9619 15.788C87.9619 16.14 88.1453 16.404 88.5119 16.58C88.8933 16.756 89.4799 16.932 90.2719 17.108C91.1813 17.3427 91.9219 17.5773 92.4939 17.812C93.0659 18.032 93.5646 18.3987 93.9899 18.912C94.4299 19.4107 94.6573 20.0853 94.6719 20.936C94.6719 21.6547 94.4666 22.3 94.0559 22.872C93.6599 23.4293 93.0806 23.8693 92.3179 24.192C91.5699 24.5147 90.6973 24.676 89.6999 24.676ZM103.376 21.31V24.5H101.462C100.098 24.5 99.0342 24.17 98.2715 23.51C97.5088 22.8353 97.1275 21.7427 97.1275 20.232V15.348H95.6315V12.224H97.1275V9.232H100.89V12.224H103.354V15.348H100.89V20.276C100.89 20.6427 100.978 20.9067 101.154 21.068C101.33 21.2293 101.623 21.31 102.034 21.31H103.376ZM104.283 18.34C104.283 17.0787 104.518 15.9713 104.987 15.018C105.471 14.0647 106.124 13.3313 106.945 12.818C107.766 12.3047 108.683 12.048 109.695 12.048C110.56 12.048 111.316 12.224 111.961 12.576C112.621 12.928 113.127 13.39 113.479 13.962V12.224H117.241V24.5H113.479V22.762C113.112 23.334 112.599 23.796 111.939 24.148C111.294 24.5 110.538 24.676 109.673 24.676C108.676 24.676 107.766 24.4193 106.945 23.906C106.124 23.378 105.471 22.6373 104.987 21.684C104.518 20.716 104.283 19.6013 104.283 18.34ZM113.479 18.362C113.479 17.4233 113.215 16.6827 112.687 16.14C112.174 15.5973 111.543 15.326 110.795 15.326C110.047 15.326 109.409 15.5973 108.881 16.14C108.368 16.668 108.111 17.4013 108.111 18.34C108.111 19.2787 108.368 20.0267 108.881 20.584C109.409 21.1267 110.047 21.398 110.795 21.398C111.543 21.398 112.174 21.1267 112.687 20.584C113.215 20.0413 113.479 19.3007 113.479 18.362ZM131.645 12.224V24.5H127.883V22.828C127.501 23.3707 126.981 23.8107 126.321 24.148C125.675 24.4707 124.957 24.632 124.165 24.632C123.226 24.632 122.397 24.4267 121.679 24.016C120.96 23.5907 120.403 22.982 120.007 22.19C119.611 21.398 119.413 20.4667 119.413 19.396V12.224H123.153V18.89C123.153 19.7113 123.365 20.3493 123.791 20.804C124.216 21.2587 124.788 21.486 125.507 21.486C126.24 21.486 126.819 21.2587 127.245 20.804C127.67 20.3493 127.883 19.7113 127.883 18.89V12.224H131.645ZM137.669 14.27C138.109 13.5953 138.659 13.0673 139.319 12.686C139.979 12.29 140.712 12.092 141.519 12.092V16.074H140.485C139.546 16.074 138.842 16.2793 138.373 16.69C137.904 17.086 137.669 17.79 137.669 18.802V24.5H133.907V12.224H137.669V14.27ZM142.129 18.34C142.129 17.0787 142.364 15.9713 142.833 15.018C143.317 14.0647 143.97 13.3313 144.791 12.818C145.612 12.3047 146.529 12.048 147.541 12.048C148.406 12.048 149.162 12.224 149.807 12.576C150.467 12.928 150.973 13.39 151.325 13.962V12.224H155.087V24.5H151.325V22.762C150.958 23.334 150.445 23.796 149.785 24.148C149.14 24.5 148.384 24.676 147.519 24.676C146.522 24.676 145.612 24.4193 144.791 23.906C143.97 23.378 143.317 22.6373 142.833 21.684C142.364 20.716 142.129 19.6013 142.129 18.34ZM151.325 18.362C151.325 17.4233 151.061 16.6827 150.533 16.14C150.02 15.5973 149.389 15.326 148.641 15.326C147.893 15.326 147.255 15.5973 146.727 16.14C146.214 16.668 145.957 17.4013 145.957 18.34C145.957 19.2787 146.214 20.0267 146.727 20.584C147.255 21.1267 147.893 21.398 148.641 21.398C149.389 21.398 150.02 21.1267 150.533 20.584C151.061 20.0413 151.325 19.3007 151.325 18.362ZM164.849 12.092C166.286 12.092 167.43 12.5613 168.281 13.5C169.146 14.424 169.579 15.7 169.579 17.328V24.5H165.839V17.834C165.839 17.0127 165.626 16.3747 165.201 15.92C164.775 15.4653 164.203 15.238 163.485 15.238C162.766 15.238 162.194 15.4653 161.769 15.92C161.343 16.3747 161.131 17.0127 161.131 17.834V24.5H157.369V12.224H161.131V13.852C161.512 13.3093 162.025 12.884 162.671 12.576C163.316 12.2533 164.042 12.092 164.849 12.092ZM178.595 21.31V24.5H176.681C175.317 24.5 174.254 24.17 173.491 23.51C172.728 22.8353 172.347 21.7427 172.347 20.232V15.348H170.851V12.224H172.347V9.232H176.109V12.224H178.573V15.348H176.109V20.276C176.109 20.6427 176.197 20.9067 176.373 21.068C176.549 21.2293 176.842 21.31 177.253 21.31H178.595ZM194.086 21.772H188.322L187.398 24.5H183.46L189.048 9.056H193.404L198.992 24.5H195.01L194.086 21.772ZM193.118 18.868L191.204 13.214L189.312 18.868H193.118ZM204.015 13.962C204.382 13.39 204.888 12.928 205.533 12.576C206.179 12.224 206.934 12.048 207.799 12.048C208.811 12.048 209.728 12.3047 210.549 12.818C211.371 13.3313 212.016 14.0647 212.485 15.018C212.969 15.9713 213.211 17.0787 213.211 18.34C213.211 19.6013 212.969 20.716 212.485 21.684C212.016 22.6373 211.371 23.378 210.549 23.906C209.728 24.4193 208.811 24.676 207.799 24.676C206.949 24.676 206.193 24.5 205.533 24.148C204.888 23.796 204.382 23.3413 204.015 22.784V30.352H200.253V12.224H204.015V13.962ZM209.383 18.34C209.383 17.4013 209.119 16.668 208.591 16.14C208.078 15.5973 207.44 15.326 206.677 15.326C205.929 15.326 205.291 15.5973 204.763 16.14C204.25 16.6827 203.993 17.4233 203.993 18.362C203.993 19.3007 204.25 20.0413 204.763 20.584C205.291 21.1267 205.929 21.398 206.677 21.398C207.425 21.398 208.063 21.1267 208.591 20.584C209.119 20.0267 209.383 19.2787 209.383 18.34ZM218.507 13.962C218.873 13.39 219.379 12.928 220.025 12.576C220.67 12.224 221.425 12.048 222.291 12.048C223.303 12.048 224.219 12.3047 225.041 12.818C225.862 13.3313 226.507 14.0647 226.977 15.018C227.461 15.9713 227.703 17.0787 227.703 18.34C227.703 19.6013 227.461 20.716 226.977 21.684C226.507 22.6373 225.862 23.378 225.041 23.906C224.219 24.4193 223.303 24.676 222.291 24.676C221.44 24.676 220.685 24.5 220.025 24.148C219.379 23.796 218.873 23.3413 218.507 22.784V30.352H214.745V12.224H218.507V13.962ZM223.875 18.34C223.875 17.4013 223.611 16.668 223.083 16.14C222.569 15.5973 221.931 15.326 221.169 15.326C220.421 15.326 219.783 15.5973 219.255 16.14C218.741 16.6827 218.485 17.4233 218.485 18.362C218.485 19.3007 218.741 20.0413 219.255 20.584C219.783 21.1267 220.421 21.398 221.169 21.398C221.917 21.398 222.555 21.1267 223.083 20.584C223.611 20.0267 223.875 19.2787 223.875 18.34Z" fill="#1C1C1C"/>
</svg>
