<svg width="84" height="41" viewBox="0 0 84 41" fill="none" xmlns="http://www.w3.org/2000/svg">
<path d="M83.0183 37.3714H75.3442C75.3442 23.5177 64.475 11.9134 49.8806 8.88555V7.35576C49.8806 3.46627 46.4966 0.3125 42.323 0.3125C38.1494 0.3125 34.7654 3.46627 34.7654 7.35576V8.88555C20.171 11.9134 9.30188 23.5177 9.30188 37.3714H1.62774C0.728944 37.3714 0 38.0506 0 38.8882C0 39.726 0.728944 40.4053 1.62774 40.4053H83.0183C83.917 40.4053 84.646 39.726 84.646 38.8882C84.646 38.0506 83.917 37.3714 83.0183 37.3714Z" fill="#FC8019"/>
<path d="M48.67 14.8325C48.5341 14.8325 48.4011 14.8693 48.3129 14.9402C48.1787 15.0481 47.975 15.2637 47.6988 15.694C47.4847 15.9345 47.3132 16.1919 47.1736 16.4599C46.8899 17.0048 46.6658 17.5583 46.4814 18.1178C46.4814 18.1188 46.4804 18.1197 46.4804 18.1205C45.0841 21.4086 44.7002 32.6031 44.7002 32.6031H49.4926L49.1529 15.1575C49.1492 14.977 48.9343 14.8325 48.67 14.8325Z" fill="white"/>
<path d="M49.4531 34.334H45.3237V40.4019H49.4531V34.334Z" fill="white"/>
<path d="M41.3237 18.2311C41.2586 17.9035 41.0428 17.6134 40.6839 17.379C40.469 17.2396 40.2063 17.0993 39.8924 17.1635C39.5582 17.2327 39.65 17.4629 39.64 17.6297C39.5601 18.9533 39.504 20.2769 39.416 21.5995C39.3957 21.899 39.5877 22.3765 38.9302 22.3927C38.2206 22.4107 38.3465 21.9033 38.3078 21.5954C38.1453 20.294 38.0397 18.9891 37.8937 17.6862C37.8635 17.4158 37.926 17.0488 37.2907 17.0471C36.7096 17.0462 36.7369 17.3884 36.7067 17.6451C36.5487 18.9644 36.4221 20.2863 36.2587 21.6055C36.2202 21.9196 36.3532 22.4124 35.6308 22.3876C34.9816 22.3662 35.1507 21.8966 35.1342 21.5945C35.0661 20.3069 35.0295 19.0182 34.9679 17.7307C34.9587 17.5459 35.045 17.2909 34.6668 17.2284C34.3033 17.1685 34.0663 17.3593 33.8809 17.5399C33.6321 17.7819 33.5449 18.0626 33.4815 18.3493C33.1556 19.8097 33.2053 21.2822 33.3218 22.7445C33.4209 23.9936 34.0012 25.147 35.8464 25.8108C36.1641 25.9255 36.3091 26.106 36.2697 26.3463C36.245 26.5465 36.2247 26.7477 36.2073 26.9479H36.2063L36.1999 27.0385C36.1834 27.2397 36.1697 27.4408 36.1577 27.6418L35.9016 31.2969V40.3994H39.1955V31.2969L38.9349 27.0351C38.934 26.7537 38.9312 26.4722 38.9377 26.1915C38.9422 26.0024 39.0175 25.893 39.1993 25.7827C40.4579 25.1854 41.2742 24.3743 41.4145 23.3723C41.656 21.662 41.6652 19.9423 41.3237 18.2311Z" fill="white"/>
</svg>
