<svg width="64" height="65" viewBox="0 0 64 65" fill="none" xmlns="http://www.w3.org/2000/svg">
<rect y="0.777832" width="64" height="64" rx="32" fill="#FC8019"/>
<rect x="0.444444" y="1.22228" width="63.1111" height="63.1111" rx="31.5556" stroke="white" stroke-opacity="0.24" stroke-width="0.888889"/>
<g filter="url(#filter0_d_2946_8749)">
<path d="M44.4487 27.4902C47.6376 27.4905 50.223 29.8575 50.2231 32.7773C50.223 35.6973 47.6376 38.0642 44.4487 38.0645C44.0189 38.0645 43.5998 38.021 43.1968 37.9395C38.6122 37.4128 33.1177 33.6499 32.1147 32.9395C32.786 33.8834 36.1688 38.7998 37.0005 43.1885C37.2243 43.8259 37.3491 44.5174 37.3491 45.2402C37.3491 48.4211 34.9751 51 32.0474 51C29.1198 50.9997 26.7466 48.421 26.7466 45.2402C26.7466 44.8138 26.7897 44.398 26.8706 43.998C27.3954 39.4272 31.1659 33.9469 31.8823 32.9404C30.8724 33.6552 25.3922 37.4072 20.814 37.9375C20.4076 38.0205 19.985 38.0654 19.5513 38.0654C16.3625 38.0654 13.7774 35.698 13.7769 32.7783C13.7769 29.8582 16.3622 27.4903 19.5513 27.4902C20.2736 27.4902 20.9647 27.6131 21.6021 27.835C26.2127 28.7012 31.4074 32.3654 31.9927 32.7861C31.9965 32.7809 31.999 32.778 31.9995 32.7773C31.9999 32.7779 32.0017 32.7811 32.0054 32.7861C32.5807 32.3725 37.7802 28.7046 42.395 27.8359C43.0331 27.6135 43.7253 27.4902 44.4487 27.4902ZM31.9556 14.5557C34.8827 14.5561 37.2559 17.1342 37.2563 20.3145C37.2563 20.7459 37.2122 21.167 37.1294 21.5713C36.5448 26.6 32.043 32.7223 32.0024 32.7773C31.967 32.7292 27.9191 27.2202 27.0005 22.3613C26.7779 21.7253 26.6538 21.0353 26.6538 20.3145C26.6542 17.1341 29.0282 14.5559 31.9556 14.5557Z" fill="url(#paint0_radial_2946_8749)"/>
</g>
<defs>
<filter id="filter0_d_2946_8749" x="8.44352" y="12.7779" width="47.113" height="47.111" filterUnits="userSpaceOnUse" color-interpolation-filters="sRGB">
<feFlood flood-opacity="0" result="BackgroundImageFix"/>
<feColorMatrix in="SourceAlpha" type="matrix" values="0 0 0 0 0 0 0 0 0 0 0 0 0 0 0 0 0 0 127 0" result="hardAlpha"/>
<feOffset dy="3.55556"/>
<feGaussianBlur stdDeviation="2.66667"/>
<feComposite in2="hardAlpha" operator="out"/>
<feColorMatrix type="matrix" values="0 0 0 0 0 0 0 0 0 0 0 0 0 0 0 0 0 0 0.1 0"/>
<feBlend mode="normal" in2="BackgroundImageFix" result="effect1_dropShadow_2946_8749"/>
<feBlend mode="normal" in="SourceGraphic" in2="effect1_dropShadow_2946_8749" result="shape"/>
</filter>
<radialGradient id="paint0_radial_2946_8749" cx="0" cy="0" r="1" gradientUnits="userSpaceOnUse" gradientTransform="translate(32 32.7778) rotate(90) scale(61.1143 61.1176)">
<stop stop-color="white"/>
<stop offset="1" stop-color="white"/>
</radialGradient>
</defs>
</svg>
