<svg width="271" height="62" viewBox="0 0 271 62" fill="none" xmlns="http://www.w3.org/2000/svg">
<g clip-path="url(#clip0_2769_9871)">
<path d="M61.1105 44.2607H55.4463C55.4463 34.0354 47.4239 25.4704 36.6519 23.2355V22.1064C36.6519 19.2356 34.1542 16.9078 31.0737 16.9078C27.9932 16.9078 25.4955 19.2356 25.4955 22.1064V23.2355C14.7234 25.4704 6.70104 34.0354 6.70104 44.2607H1.03681C0.373416 44.2607 -0.164612 44.7621 -0.164612 45.3803C-0.164612 45.9987 0.373416 46.5 1.03681 46.5H61.1105C61.7739 46.5 62.312 45.9987 62.312 45.3803C62.312 44.7621 61.7739 44.2607 61.1105 44.2607Z" fill="#FC8019"/>
<path d="M35.7583 27.6254C35.658 27.6254 35.5598 27.6525 35.4947 27.7049C35.3957 27.7845 35.2453 27.9436 35.0414 28.2612C34.8834 28.4387 34.7568 28.6287 34.6538 28.8265C34.4444 29.2287 34.279 29.6372 34.1429 30.0502C34.1429 30.0509 34.1422 30.0516 34.1422 30.0522C33.1115 32.4791 32.8282 40.7417 32.8282 40.7417H36.3654L36.1147 27.8652C36.112 27.732 35.9534 27.6254 35.7583 27.6254Z" fill="white"/>
<path d="M36.3363 42.019H33.2884V46.4977H36.3363V42.019Z" fill="white"/>
<path d="M30.3361 30.1332C30.288 29.8914 30.1287 29.6772 29.8638 29.5043C29.7052 29.4014 29.5113 29.2978 29.2796 29.3451C29.033 29.3962 29.1007 29.5662 29.0934 29.6893C29.0344 30.6662 28.993 31.6431 28.928 32.6194C28.9131 32.8404 29.0547 33.1929 28.5695 33.2048C28.0457 33.2181 28.1386 32.8436 28.1101 32.6163C27.9901 31.6557 27.9122 30.6927 27.8044 29.731C27.7821 29.5314 27.8282 29.2605 27.3593 29.2593C26.9304 29.2586 26.9506 29.5112 26.9283 29.7007C26.8117 30.6744 26.7182 31.6501 26.5976 32.6238C26.5692 32.8556 26.6674 33.2193 26.1342 33.201C25.655 33.1853 25.7798 32.8386 25.7676 32.6156C25.7173 31.6653 25.6903 30.7141 25.6449 29.7638C25.6381 29.6274 25.7018 29.4392 25.4226 29.3931C25.1544 29.3489 24.9795 29.4897 24.8426 29.623C24.659 29.8016 24.5946 30.0088 24.5478 30.2204C24.3072 31.2983 24.3439 32.3852 24.4299 33.4645C24.503 34.3864 24.9314 35.2377 26.2933 35.7277C26.5278 35.8123 26.6349 35.9455 26.6058 36.1229C26.5875 36.2707 26.5725 36.4192 26.5597 36.567H26.559L26.5543 36.6338C26.5421 36.7823 26.532 36.9308 26.5231 37.0791L26.3341 39.7769V46.4955H28.7653V39.7769L28.5729 36.6314C28.5722 36.4236 28.5701 36.2159 28.575 36.0087C28.5783 35.8691 28.6339 35.7884 28.7681 35.7069C29.6971 35.2661 30.2995 34.6674 30.4031 33.9278C30.5813 32.6655 30.5881 31.3962 30.3361 30.1332Z" fill="white"/>
</g>
<path d="M73.7422 25.8184V33.666H77.666C78.2038 33.666 78.7096 33.5658 79.1836 33.3652C79.6576 33.1556 80.0723 32.873 80.4277 32.5176C80.7832 32.1621 81.0612 31.7474 81.2617 31.2734C81.4714 30.7904 81.5762 30.2799 81.5762 29.7422C81.5762 29.2044 81.4714 28.6986 81.2617 28.2246C81.0612 27.7415 80.7832 27.3223 80.4277 26.9668C80.0723 26.6113 79.6576 26.3333 79.1836 26.1328C78.7096 25.9232 78.2038 25.8184 77.666 25.8184H73.7422ZM73.7422 41.5H69.8184V21.8945H77.666C78.3861 21.8945 79.0788 21.9902 79.7441 22.1816C80.4095 22.3639 81.0293 22.6283 81.6035 22.9746C82.1868 23.3118 82.7155 23.722 83.1895 24.2051C83.6725 24.679 84.0827 25.2077 84.4199 25.791C84.7663 26.3743 85.0306 26.9987 85.2129 27.6641C85.4043 28.3294 85.5 29.0221 85.5 29.7422C85.5 30.4167 85.4134 31.0729 85.2402 31.7109C85.0762 32.349 84.8346 32.9551 84.5156 33.5293C84.2057 34.1035 83.8229 34.6322 83.3672 35.1152C82.9115 35.5983 82.401 36.0176 81.8359 36.373L84.0098 41.5H79.8398L78.1309 37.5488L73.7422 37.5762V41.5ZM92.7877 37.918C92.9335 37.9635 93.0793 37.9954 93.2252 38.0137C93.371 38.0228 93.5168 38.0273 93.6627 38.0273C94.0272 38.0273 94.3782 37.9772 94.7154 37.877C95.0526 37.7767 95.3671 37.6354 95.6588 37.4531C95.9595 37.2617 96.2239 37.0339 96.4517 36.7695C96.6887 36.4961 96.8801 36.1953 97.0259 35.8672L99.7603 38.6152C99.414 39.1074 99.0129 39.5495 98.5572 39.9414C98.1106 40.3333 97.6229 40.666 97.0943 40.9395C96.5748 41.2129 96.0233 41.418 95.44 41.5547C94.8658 41.7005 94.2733 41.7734 93.6627 41.7734C92.6327 41.7734 91.662 41.582 90.7505 41.1992C89.8482 40.8164 89.0552 40.2832 88.3716 39.5996C87.6972 38.916 87.164 38.1048 86.772 37.166C86.3801 36.2181 86.1841 35.179 86.1841 34.0488C86.1841 32.8913 86.3801 31.834 86.772 30.877C87.164 29.9199 87.6972 29.1042 88.3716 28.4297C89.0552 27.7552 89.8482 27.2311 90.7505 26.8574C91.662 26.4837 92.6327 26.2969 93.6627 26.2969C94.2733 26.2969 94.8703 26.3698 95.4537 26.5156C96.037 26.6615 96.5884 26.8711 97.108 27.1445C97.6366 27.418 98.1288 27.7552 98.5845 28.1562C99.0403 28.5482 99.4413 28.9902 99.7877 29.4824L92.7877 37.918ZM94.7017 30.2207C94.5285 30.1569 94.3554 30.1159 94.1822 30.0977C94.0181 30.0794 93.8449 30.0703 93.6627 30.0703C93.1522 30.0703 92.6692 30.166 92.2134 30.3574C91.7668 30.5397 91.3749 30.804 91.0377 31.1504C90.7095 31.4967 90.4498 31.916 90.2584 32.4082C90.067 32.8913 89.9713 33.4382 89.9713 34.0488C89.9713 34.1855 89.9758 34.3405 89.9849 34.5137C90.0032 34.6868 90.0259 34.8646 90.0533 35.0469C90.0897 35.2201 90.1308 35.3887 90.1763 35.5527C90.2219 35.7168 90.2811 35.8626 90.3541 35.9902L94.7017 30.2207ZM109.153 41.5H100.622V37.7812H109.153C109.409 37.7812 109.627 37.6901 109.81 37.5078C109.992 37.3255 110.083 37.1068 110.083 36.8516C110.083 36.5872 109.992 36.4141 109.81 36.332C109.627 36.25 109.409 36.209 109.153 36.209H105.271C104.623 36.209 104.017 36.0859 103.452 35.8398C102.887 35.5938 102.395 35.2611 101.976 34.8418C101.556 34.4134 101.224 33.9167 100.978 33.3516C100.741 32.7865 100.622 32.1803 100.622 31.5332C100.622 30.8861 100.741 30.2799 100.978 29.7148C101.224 29.1497 101.556 28.6576 101.976 28.2383C102.395 27.819 102.887 27.4909 103.452 27.2539C104.017 27.0078 104.623 26.8848 105.271 26.8848H112.831V30.6035H105.271C105.015 30.6035 104.797 30.6947 104.614 30.877C104.432 31.0592 104.341 31.278 104.341 31.5332C104.341 31.7975 104.432 32.0254 104.614 32.2168C104.797 32.3991 105.015 32.4902 105.271 32.4902H109.153C109.791 32.4902 110.393 32.5996 110.958 32.8184C111.523 33.028 112.015 33.3242 112.435 33.707C112.854 34.0898 113.187 34.5501 113.433 35.0879C113.679 35.6257 113.802 36.2135 113.802 36.8516C113.802 37.4987 113.679 38.1048 113.433 38.6699C113.187 39.2259 112.854 39.7181 112.435 40.1465C112.015 40.5658 111.523 40.8984 110.958 41.1445C110.393 41.3815 109.791 41.5 109.153 41.5ZM122.58 41.5C121.677 41.5 120.83 41.3314 120.037 40.9941C119.244 40.6478 118.547 40.1784 117.945 39.5859C117.353 38.9844 116.883 38.2871 116.537 37.4941C116.2 36.7012 116.031 35.8535 116.031 34.9512V30.6035H114.213V26.8848H116.031V21.0332H119.75V26.8848H125.41V30.6035H119.75V34.9512C119.75 35.3431 119.823 35.7122 119.968 36.0586C120.114 36.3958 120.315 36.6921 120.57 36.9473C120.825 37.2025 121.126 37.4076 121.472 37.5625C121.819 37.7083 122.188 37.7812 122.58 37.7812H125.41V41.5H122.58ZM141.133 41.5H140.231L138.781 39.4902C138.426 39.8092 138.048 40.11 137.647 40.3926C137.255 40.666 136.84 40.9076 136.403 41.1172C135.965 41.3177 135.514 41.4772 135.049 41.5957C134.593 41.7142 134.128 41.7734 133.655 41.7734C132.625 41.7734 131.654 41.6003 130.742 41.2539C129.84 40.9076 129.047 40.4062 128.364 39.75C127.689 39.0846 127.156 38.2734 126.764 37.3164C126.372 36.3594 126.176 35.2702 126.176 34.0488C126.176 32.9095 126.372 31.8659 126.764 30.918C127.156 29.9609 127.689 29.1406 128.364 28.457C129.047 27.7734 129.84 27.2448 130.742 26.8711C131.654 26.4883 132.625 26.2969 133.655 26.2969C134.128 26.2969 134.598 26.3561 135.063 26.4746C135.528 26.5931 135.979 26.7572 136.416 26.9668C136.854 27.1764 137.268 27.4225 137.66 27.7051C138.061 27.9876 138.435 28.293 138.781 28.6211L140.231 26.8848H141.133V41.5ZM137.373 34.0488C137.373 33.5384 137.273 33.0462 137.072 32.5723C136.881 32.0892 136.617 31.6654 136.28 31.3008C135.942 30.9271 135.546 30.6309 135.09 30.4121C134.643 30.1842 134.165 30.0703 133.655 30.0703C133.144 30.0703 132.661 30.1569 132.205 30.3301C131.759 30.5033 131.367 30.7585 131.03 31.0957C130.701 31.4329 130.442 31.8522 130.25 32.3535C130.059 32.8457 129.963 33.4108 129.963 34.0488C129.963 34.6868 130.059 35.2565 130.25 35.7578C130.442 36.25 130.701 36.6647 131.03 37.002C131.367 37.3392 131.759 37.5944 132.205 37.7676C132.661 37.9408 133.144 38.0273 133.655 38.0273C134.165 38.0273 134.643 37.918 135.09 37.6992C135.546 37.4714 135.942 37.1751 136.28 36.8105C136.617 36.4368 136.881 36.013 137.072 35.5391C137.273 35.056 137.373 34.5592 137.373 34.0488ZM154.19 39.791C153.889 40.0645 153.566 40.3242 153.22 40.5703C152.882 40.8073 152.527 41.0169 152.153 41.1992C151.779 41.3724 151.392 41.5091 150.991 41.6094C150.599 41.7188 150.198 41.7734 149.788 41.7734C148.886 41.7734 148.038 41.6139 147.245 41.2949C146.452 40.9759 145.755 40.5247 145.153 39.9414C144.561 39.349 144.091 38.6335 143.745 37.7949C143.408 36.9473 143.239 35.9993 143.239 34.9512V26.8574H146.958V34.9512C146.958 35.4434 147.031 35.8854 147.177 36.2773C147.332 36.6602 147.537 36.9837 147.792 37.248C148.047 37.5124 148.343 37.7129 148.68 37.8496C149.027 37.9863 149.396 38.0547 149.788 38.0547C150.171 38.0547 150.531 37.9681 150.868 37.7949C151.214 37.6126 151.515 37.3757 151.77 37.084C152.026 36.7923 152.226 36.4642 152.372 36.0996C152.518 35.7259 152.591 35.3431 152.591 34.9512V26.8574H156.323V41.5H155.421L154.19 39.791ZM162.353 41.5H158.62V26.8574H159.523L160.753 28.5938C161.355 28.0469 162.038 27.6276 162.804 27.3359C163.57 27.0352 164.363 26.8848 165.183 26.8848H168.478V30.6035H165.183C164.791 30.6035 164.422 30.6764 164.076 30.8223C163.729 30.9681 163.428 31.1686 163.173 31.4238C162.918 31.679 162.717 31.9798 162.572 32.3262C162.426 32.6725 162.353 33.0417 162.353 33.4336V41.5ZM183.559 41.5H182.656L181.207 39.4902C180.851 39.8092 180.473 40.11 180.072 40.3926C179.68 40.666 179.266 40.9076 178.828 41.1172C178.391 41.3177 177.939 41.4772 177.475 41.5957C177.019 41.7142 176.554 41.7734 176.08 41.7734C175.05 41.7734 174.079 41.6003 173.168 41.2539C172.266 40.9076 171.473 40.4062 170.789 39.75C170.115 39.0846 169.581 38.2734 169.189 37.3164C168.797 36.3594 168.601 35.2702 168.601 34.0488C168.601 32.9095 168.797 31.8659 169.189 30.918C169.581 29.9609 170.115 29.1406 170.789 28.457C171.473 27.7734 172.266 27.2448 173.168 26.8711C174.079 26.4883 175.05 26.2969 176.08 26.2969C176.554 26.2969 177.023 26.3561 177.488 26.4746C177.953 26.5931 178.404 26.7572 178.842 26.9668C179.279 27.1764 179.694 27.4225 180.086 27.7051C180.487 27.9876 180.861 28.293 181.207 28.6211L182.656 26.8848H183.559V41.5ZM179.799 34.0488C179.799 33.5384 179.698 33.0462 179.498 32.5723C179.307 32.0892 179.042 31.6654 178.705 31.3008C178.368 30.9271 177.971 30.6309 177.516 30.4121C177.069 30.1842 176.59 30.0703 176.08 30.0703C175.57 30.0703 175.087 30.1569 174.631 30.3301C174.184 30.5033 173.792 30.7585 173.455 31.0957C173.127 31.4329 172.867 31.8522 172.676 32.3535C172.484 32.8457 172.389 33.4108 172.389 34.0488C172.389 34.6868 172.484 35.2565 172.676 35.7578C172.867 36.25 173.127 36.6647 173.455 37.002C173.792 37.3392 174.184 37.5944 174.631 37.7676C175.087 37.9408 175.57 38.0273 176.08 38.0273C176.59 38.0273 177.069 37.918 177.516 37.6992C177.971 37.4714 178.368 37.1751 178.705 36.8105C179.042 36.4368 179.307 36.013 179.498 35.5391C179.698 35.056 179.799 34.5592 179.799 34.0488ZM189.588 41.5H185.856V26.8574H186.758L187.989 28.2793C188.59 27.7324 189.269 27.3132 190.026 27.0215C190.791 26.7207 191.589 26.5703 192.418 26.5703C193.312 26.5703 194.155 26.7435 194.948 27.0898C195.741 27.4271 196.433 27.8965 197.026 28.498C197.618 29.0905 198.083 29.7878 198.42 30.5898C198.767 31.3828 198.94 32.2305 198.94 33.1328V41.5H195.207V33.1328C195.207 32.75 195.135 32.39 194.989 32.0527C194.843 31.7064 194.642 31.4056 194.387 31.1504C194.132 30.8952 193.836 30.6947 193.499 30.5488C193.161 30.403 192.801 30.3301 192.418 30.3301C192.027 30.3301 191.657 30.403 191.311 30.5488C190.965 30.6947 190.664 30.8952 190.409 31.1504C190.153 31.4056 189.953 31.7064 189.807 32.0527C189.661 32.39 189.588 32.75 189.588 33.1328V41.5ZM208.196 41.5C207.294 41.5 206.446 41.3314 205.653 40.9941C204.86 40.6478 204.163 40.1784 203.562 39.5859C202.969 38.9844 202.5 38.2871 202.153 37.4941C201.816 36.7012 201.648 35.8535 201.648 34.9512V30.6035H199.829V26.8848H201.648V21.0332H205.366V26.8848H211.026V30.6035H205.366V34.9512C205.366 35.3431 205.439 35.7122 205.585 36.0586C205.731 36.3958 205.931 36.6921 206.187 36.9473C206.442 37.2025 206.743 37.4076 207.089 37.5625C207.435 37.7083 207.804 37.7812 208.196 37.7812H211.026V41.5H208.196ZM231.795 33.666V29.7422C231.795 29.2044 231.69 28.6986 231.481 28.2246C231.28 27.7415 231.002 27.3223 230.647 26.9668C230.291 26.6113 229.872 26.3333 229.389 26.1328C228.915 25.9232 228.409 25.8184 227.871 25.8184C227.333 25.8184 226.823 25.9232 226.34 26.1328C225.866 26.3333 225.451 26.6113 225.096 26.9668C224.74 27.3223 224.458 27.7415 224.248 28.2246C224.048 28.6986 223.947 29.2044 223.947 29.7422V33.666H231.795ZM235.719 41.5H231.795V37.5762H223.947V41.5H220.037V29.7422C220.037 28.6576 220.242 27.6413 220.652 26.6934C221.063 25.7363 221.619 24.9023 222.32 24.1914C223.031 23.4805 223.861 22.9199 224.809 22.5098C225.766 22.0996 226.787 21.8945 227.871 21.8945C228.956 21.8945 229.972 22.0996 230.92 22.5098C231.877 22.9199 232.711 23.4805 233.422 24.1914C234.133 24.9023 234.694 25.7363 235.104 26.6934C235.514 27.6413 235.719 28.6576 235.719 29.7422V41.5ZM241.926 47.0781H238.167V26.8574H239.069L240.559 28.6211C240.897 28.3021 241.266 28.0013 241.667 27.7188C242.068 27.4362 242.482 27.1947 242.911 26.9941C243.348 26.7845 243.8 26.6204 244.264 26.502C244.729 26.3835 245.199 26.3242 245.673 26.3242C246.703 26.3242 247.669 26.5111 248.571 26.8848C249.482 27.2493 250.275 27.7689 250.95 28.4434C251.634 29.1178 252.171 29.9336 252.563 30.8906C252.955 31.8385 253.151 32.8913 253.151 34.0488C253.151 35.252 252.955 36.3366 252.563 37.3027C252.171 38.2598 251.634 39.0755 250.95 39.75C250.275 40.4154 249.482 40.9258 248.571 41.2812C247.669 41.6367 246.703 41.8145 245.673 41.8145C245.344 41.8145 245.016 41.778 244.688 41.7051C244.369 41.6322 244.05 41.5365 243.731 41.418C243.421 41.2904 243.111 41.1491 242.801 40.9941C242.501 40.8392 242.209 40.6797 241.926 40.5156V47.0781ZM249.405 34.0488C249.405 33.429 249.305 32.873 249.104 32.3809C248.913 31.8887 248.648 31.474 248.311 31.1367C247.974 30.7904 247.578 30.526 247.122 30.3438C246.666 30.1615 246.183 30.0703 245.673 30.0703C245.162 30.0703 244.679 30.1615 244.223 30.3438C243.777 30.526 243.385 30.7904 243.048 31.1367C242.71 31.474 242.441 31.8887 242.241 32.3809C242.05 32.873 241.954 33.429 241.954 34.0488C241.954 34.6413 242.05 35.1836 242.241 35.6758C242.441 36.168 242.71 36.5872 243.048 36.9336C243.385 37.2799 243.777 37.5488 244.223 37.7402C244.679 37.9316 245.162 38.0273 245.673 38.0273C246.183 38.0273 246.666 37.9316 247.122 37.7402C247.578 37.5488 247.974 37.2799 248.311 36.9336C248.648 36.5872 248.913 36.168 249.104 35.6758C249.305 35.1836 249.405 34.6413 249.405 34.0488ZM258.429 47.0781H254.669V26.8574H255.572L257.062 28.6211C257.399 28.3021 257.768 28.0013 258.169 27.7188C258.57 27.4362 258.985 27.1947 259.413 26.9941C259.851 26.7845 260.302 26.6204 260.767 26.502C261.232 26.3835 261.701 26.3242 262.175 26.3242C263.205 26.3242 264.171 26.5111 265.074 26.8848C265.985 27.2493 266.778 27.7689 267.452 28.4434C268.136 29.1178 268.674 29.9336 269.066 30.8906C269.458 31.8385 269.654 32.8913 269.654 34.0488C269.654 35.252 269.458 36.3366 269.066 37.3027C268.674 38.2598 268.136 39.0755 267.452 39.75C266.778 40.4154 265.985 40.9258 265.074 41.2812C264.171 41.6367 263.205 41.8145 262.175 41.8145C261.847 41.8145 261.519 41.778 261.191 41.7051C260.872 41.6322 260.553 41.5365 260.234 41.418C259.924 41.2904 259.614 41.1491 259.304 40.9941C259.003 40.8392 258.712 40.6797 258.429 40.5156V47.0781ZM265.908 34.0488C265.908 33.429 265.807 32.873 265.607 32.3809C265.415 31.8887 265.151 31.474 264.814 31.1367C264.477 30.7904 264.08 30.526 263.624 30.3438C263.169 30.1615 262.685 30.0703 262.175 30.0703C261.665 30.0703 261.182 30.1615 260.726 30.3438C260.279 30.526 259.887 30.7904 259.55 31.1367C259.213 31.474 258.944 31.8887 258.743 32.3809C258.552 32.873 258.456 33.429 258.456 34.0488C258.456 34.6413 258.552 35.1836 258.743 35.6758C258.944 36.168 259.213 36.5872 259.55 36.9336C259.887 37.2799 260.279 37.5488 260.726 37.7402C261.182 37.9316 261.665 38.0273 262.175 38.0273C262.685 38.0273 263.169 37.9316 263.624 37.7402C264.08 37.5488 264.477 37.2799 264.814 36.9336C265.151 36.5872 265.415 36.168 265.607 35.6758C265.807 35.1836 265.908 34.6413 265.908 34.0488Z" fill="white"/>
<defs>
<clipPath id="clip0_2769_9871">
<rect width="62" height="62" fill="white"/>
</clipPath>
</defs>
</svg>
