<svg width="277" height="68" viewBox="0 0 277 68" fill="none" xmlns="http://www.w3.org/2000/svg">
<g clip-path="url(#clip0_2796_1892)">
<path d="M67.0245 48.544H60.8121C60.8121 37.3292 52.0133 27.9353 40.1988 25.4841V24.2457C40.1988 21.0971 37.4594 18.5441 34.0808 18.5441C30.7022 18.5441 27.9628 21.0971 27.9628 24.2457V25.4841C16.1483 27.9353 7.34953 37.3292 7.34953 48.544H1.13714C0.409553 48.544 -0.180542 49.0939 -0.180542 49.7719C-0.180542 50.4501 0.409553 51 1.13714 51H67.0245C67.752 51 68.3421 50.4501 68.3421 49.7719C68.3421 49.0939 67.752 48.544 67.0245 48.544Z" fill="#FC8019"/>
<path d="M39.2188 30.2988C39.1088 30.2988 39.0011 30.3286 38.9297 30.386C38.8211 30.4734 38.6561 30.6479 38.4326 30.9962C38.2592 31.1909 38.1204 31.3993 38.0074 31.6162C37.7777 32.0573 37.5964 32.5054 37.4471 32.9584C37.4471 32.9591 37.4463 32.9599 37.4463 32.9605C36.3159 35.6223 36.0051 44.6845 36.0051 44.6845H39.8847L39.6097 30.5619C39.6067 30.4158 39.4328 30.2988 39.2188 30.2988Z" fill="white"/>
<path d="M39.8528 46.0854H36.5099V50.9975H39.8528V46.0854Z" fill="white"/>
<path d="M33.2718 33.0493C33.2191 32.7841 33.0444 32.5492 32.7538 32.3595C32.5799 32.2467 32.3673 32.133 32.1132 32.185C31.8426 32.241 31.9169 32.4274 31.9089 32.5625C31.8442 33.6339 31.7987 34.7054 31.7275 35.7761C31.7111 36.0185 31.8665 36.4051 31.3342 36.4181C30.7598 36.4327 30.8617 36.022 30.8304 35.7727C30.6989 34.7192 30.6133 33.6629 30.4952 32.6082C30.4707 32.3893 30.5213 32.0922 30.007 32.0908C29.5366 32.0901 29.5587 32.3671 29.5343 32.5749C29.4064 33.6429 29.3039 34.713 29.1716 35.7809C29.1404 36.0352 29.2481 36.4341 28.6633 36.414C28.1378 36.3967 28.2746 36.0165 28.2613 35.772C28.2061 34.7297 28.1765 33.6865 28.1267 32.6442C28.1192 32.4946 28.1891 32.2881 27.8829 32.2376C27.5887 32.1891 27.3968 32.3436 27.2468 32.4897C27.0453 32.6856 26.9747 32.9129 26.9234 33.145C26.6595 34.3272 26.6998 35.5192 26.7941 36.703C26.8743 37.7141 27.3441 38.6478 28.8379 39.1852C29.095 39.278 29.2124 39.4241 29.1805 39.6187C29.1605 39.7808 29.1441 39.9436 29.1299 40.1057H29.1292L29.124 40.1791C29.1107 40.3419 29.0996 40.5047 29.0898 40.6674L28.8825 43.6263V50.995H31.549V43.6263L31.338 40.1763C31.3373 39.9485 31.335 39.7206 31.3403 39.4934C31.344 39.3403 31.4049 39.2517 31.5521 39.1624C32.571 38.6789 33.2317 38.0223 33.3453 37.2112C33.5408 35.8267 33.5483 34.4346 33.2718 33.0493Z" fill="white"/>
</g>
<path d="M79.7422 28.8184V36.666H83.666C84.2038 36.666 84.7096 36.5658 85.1836 36.3652C85.6576 36.1556 86.0723 35.873 86.4277 35.5176C86.7832 35.1621 87.0612 34.7474 87.2617 34.2734C87.4714 33.7904 87.5762 33.2799 87.5762 32.7422C87.5762 32.2044 87.4714 31.6986 87.2617 31.2246C87.0612 30.7415 86.7832 30.3223 86.4277 29.9668C86.0723 29.6113 85.6576 29.3333 85.1836 29.1328C84.7096 28.9232 84.2038 28.8184 83.666 28.8184H79.7422ZM79.7422 44.5H75.8184V24.8945H83.666C84.3861 24.8945 85.0788 24.9902 85.7441 25.1816C86.4095 25.3639 87.0293 25.6283 87.6035 25.9746C88.1868 26.3118 88.7155 26.722 89.1895 27.2051C89.6725 27.679 90.0827 28.2077 90.4199 28.791C90.7663 29.3743 91.0306 29.9987 91.2129 30.6641C91.4043 31.3294 91.5 32.0221 91.5 32.7422C91.5 33.4167 91.4134 34.0729 91.2402 34.7109C91.0762 35.349 90.8346 35.9551 90.5156 36.5293C90.2057 37.1035 89.8229 37.6322 89.3672 38.1152C88.9115 38.5983 88.401 39.0176 87.8359 39.373L90.0098 44.5H85.8398L84.1309 40.5488L79.7422 40.5762V44.5ZM98.7877 40.918C98.9335 40.9635 99.0793 40.9954 99.2252 41.0137C99.371 41.0228 99.5168 41.0273 99.6627 41.0273C100.027 41.0273 100.378 40.9772 100.715 40.877C101.053 40.7767 101.367 40.6354 101.659 40.4531C101.96 40.2617 102.224 40.0339 102.452 39.7695C102.689 39.4961 102.88 39.1953 103.026 38.8672L105.76 41.6152C105.414 42.1074 105.013 42.5495 104.557 42.9414C104.111 43.3333 103.623 43.666 103.094 43.9395C102.575 44.2129 102.023 44.418 101.44 44.5547C100.866 44.7005 100.273 44.7734 99.6627 44.7734C98.6327 44.7734 97.662 44.582 96.7505 44.1992C95.8482 43.8164 95.0552 43.2832 94.3716 42.5996C93.6972 41.916 93.164 41.1048 92.772 40.166C92.3801 39.2181 92.1841 38.179 92.1841 37.0488C92.1841 35.8913 92.3801 34.834 92.772 33.877C93.164 32.9199 93.6972 32.1042 94.3716 31.4297C95.0552 30.7552 95.8482 30.2311 96.7505 29.8574C97.662 29.4837 98.6327 29.2969 99.6627 29.2969C100.273 29.2969 100.87 29.3698 101.454 29.5156C102.037 29.6615 102.588 29.8711 103.108 30.1445C103.637 30.418 104.129 30.7552 104.585 31.1562C105.04 31.5482 105.441 31.9902 105.788 32.4824L98.7877 40.918ZM100.702 33.2207C100.529 33.1569 100.355 33.1159 100.182 33.0977C100.018 33.0794 99.8449 33.0703 99.6627 33.0703C99.1522 33.0703 98.6692 33.166 98.2134 33.3574C97.7668 33.5397 97.3749 33.804 97.0377 34.1504C96.7095 34.4967 96.4498 34.916 96.2584 35.4082C96.067 35.8913 95.9713 36.4382 95.9713 37.0488C95.9713 37.1855 95.9758 37.3405 95.9849 37.5137C96.0032 37.6868 96.0259 37.8646 96.0533 38.0469C96.0897 38.2201 96.1308 38.3887 96.1763 38.5527C96.2219 38.7168 96.2811 38.8626 96.3541 38.9902L100.702 33.2207ZM115.153 44.5H106.622V40.7812H115.153C115.409 40.7812 115.627 40.6901 115.81 40.5078C115.992 40.3255 116.083 40.1068 116.083 39.8516C116.083 39.5872 115.992 39.4141 115.81 39.332C115.627 39.25 115.409 39.209 115.153 39.209H111.271C110.623 39.209 110.017 39.0859 109.452 38.8398C108.887 38.5938 108.395 38.2611 107.976 37.8418C107.556 37.4134 107.224 36.9167 106.978 36.3516C106.741 35.7865 106.622 35.1803 106.622 34.5332C106.622 33.8861 106.741 33.2799 106.978 32.7148C107.224 32.1497 107.556 31.6576 107.976 31.2383C108.395 30.819 108.887 30.4909 109.452 30.2539C110.017 30.0078 110.623 29.8848 111.271 29.8848H118.831V33.6035H111.271C111.015 33.6035 110.797 33.6947 110.614 33.877C110.432 34.0592 110.341 34.278 110.341 34.5332C110.341 34.7975 110.432 35.0254 110.614 35.2168C110.797 35.3991 111.015 35.4902 111.271 35.4902H115.153C115.791 35.4902 116.393 35.5996 116.958 35.8184C117.523 36.028 118.015 36.3242 118.435 36.707C118.854 37.0898 119.187 37.5501 119.433 38.0879C119.679 38.6257 119.802 39.2135 119.802 39.8516C119.802 40.4987 119.679 41.1048 119.433 41.6699C119.187 42.2259 118.854 42.7181 118.435 43.1465C118.015 43.5658 117.523 43.8984 116.958 44.1445C116.393 44.3815 115.791 44.5 115.153 44.5ZM128.58 44.5C127.677 44.5 126.83 44.3314 126.037 43.9941C125.244 43.6478 124.547 43.1784 123.945 42.5859C123.353 41.9844 122.883 41.2871 122.537 40.4941C122.2 39.7012 122.031 38.8535 122.031 37.9512V33.6035H120.213V29.8848H122.031V24.0332H125.75V29.8848H131.41V33.6035H125.75V37.9512C125.75 38.3431 125.823 38.7122 125.968 39.0586C126.114 39.3958 126.315 39.6921 126.57 39.9473C126.825 40.2025 127.126 40.4076 127.472 40.5625C127.819 40.7083 128.188 40.7812 128.58 40.7812H131.41V44.5H128.58ZM147.133 44.5H146.231L144.781 42.4902C144.426 42.8092 144.048 43.11 143.647 43.3926C143.255 43.666 142.84 43.9076 142.403 44.1172C141.965 44.3177 141.514 44.4772 141.049 44.5957C140.593 44.7142 140.128 44.7734 139.655 44.7734C138.625 44.7734 137.654 44.6003 136.742 44.2539C135.84 43.9076 135.047 43.4062 134.364 42.75C133.689 42.0846 133.156 41.2734 132.764 40.3164C132.372 39.3594 132.176 38.2702 132.176 37.0488C132.176 35.9095 132.372 34.8659 132.764 33.918C133.156 32.9609 133.689 32.1406 134.364 31.457C135.047 30.7734 135.84 30.2448 136.742 29.8711C137.654 29.4883 138.625 29.2969 139.655 29.2969C140.128 29.2969 140.598 29.3561 141.063 29.4746C141.528 29.5931 141.979 29.7572 142.416 29.9668C142.854 30.1764 143.268 30.4225 143.66 30.7051C144.061 30.9876 144.435 31.293 144.781 31.6211L146.231 29.8848H147.133V44.5ZM143.373 37.0488C143.373 36.5384 143.273 36.0462 143.072 35.5723C142.881 35.0892 142.617 34.6654 142.28 34.3008C141.942 33.9271 141.546 33.6309 141.09 33.4121C140.643 33.1842 140.165 33.0703 139.655 33.0703C139.144 33.0703 138.661 33.1569 138.205 33.3301C137.759 33.5033 137.367 33.7585 137.03 34.0957C136.701 34.4329 136.442 34.8522 136.25 35.3535C136.059 35.8457 135.963 36.4108 135.963 37.0488C135.963 37.6868 136.059 38.2565 136.25 38.7578C136.442 39.25 136.701 39.6647 137.03 40.002C137.367 40.3392 137.759 40.5944 138.205 40.7676C138.661 40.9408 139.144 41.0273 139.655 41.0273C140.165 41.0273 140.643 40.918 141.09 40.6992C141.546 40.4714 141.942 40.1751 142.28 39.8105C142.617 39.4368 142.881 39.013 143.072 38.5391C143.273 38.056 143.373 37.5592 143.373 37.0488ZM160.19 42.791C159.889 43.0645 159.566 43.3242 159.22 43.5703C158.882 43.8073 158.527 44.0169 158.153 44.1992C157.779 44.3724 157.392 44.5091 156.991 44.6094C156.599 44.7188 156.198 44.7734 155.788 44.7734C154.886 44.7734 154.038 44.6139 153.245 44.2949C152.452 43.9759 151.755 43.5247 151.153 42.9414C150.561 42.349 150.091 41.6335 149.745 40.7949C149.408 39.9473 149.239 38.9993 149.239 37.9512V29.8574H152.958V37.9512C152.958 38.4434 153.031 38.8854 153.177 39.2773C153.332 39.6602 153.537 39.9837 153.792 40.248C154.047 40.5124 154.343 40.7129 154.68 40.8496C155.027 40.9863 155.396 41.0547 155.788 41.0547C156.171 41.0547 156.531 40.9681 156.868 40.7949C157.214 40.6126 157.515 40.3757 157.77 40.084C158.026 39.7923 158.226 39.4642 158.372 39.0996C158.518 38.7259 158.591 38.3431 158.591 37.9512V29.8574H162.323V44.5H161.421L160.19 42.791ZM168.353 44.5H164.62V29.8574H165.523L166.753 31.5938C167.355 31.0469 168.038 30.6276 168.804 30.3359C169.57 30.0352 170.363 29.8848 171.183 29.8848H174.478V33.6035H171.183C170.791 33.6035 170.422 33.6764 170.076 33.8223C169.729 33.9681 169.428 34.1686 169.173 34.4238C168.918 34.679 168.717 34.9798 168.572 35.3262C168.426 35.6725 168.353 36.0417 168.353 36.4336V44.5ZM189.559 44.5H188.656L187.207 42.4902C186.851 42.8092 186.473 43.11 186.072 43.3926C185.68 43.666 185.266 43.9076 184.828 44.1172C184.391 44.3177 183.939 44.4772 183.475 44.5957C183.019 44.7142 182.554 44.7734 182.08 44.7734C181.05 44.7734 180.079 44.6003 179.168 44.2539C178.266 43.9076 177.473 43.4062 176.789 42.75C176.115 42.0846 175.581 41.2734 175.189 40.3164C174.797 39.3594 174.601 38.2702 174.601 37.0488C174.601 35.9095 174.797 34.8659 175.189 33.918C175.581 32.9609 176.115 32.1406 176.789 31.457C177.473 30.7734 178.266 30.2448 179.168 29.8711C180.079 29.4883 181.05 29.2969 182.08 29.2969C182.554 29.2969 183.023 29.3561 183.488 29.4746C183.953 29.5931 184.404 29.7572 184.842 29.9668C185.279 30.1764 185.694 30.4225 186.086 30.7051C186.487 30.9876 186.861 31.293 187.207 31.6211L188.656 29.8848H189.559V44.5ZM185.799 37.0488C185.799 36.5384 185.698 36.0462 185.498 35.5723C185.307 35.0892 185.042 34.6654 184.705 34.3008C184.368 33.9271 183.971 33.6309 183.516 33.4121C183.069 33.1842 182.59 33.0703 182.08 33.0703C181.57 33.0703 181.087 33.1569 180.631 33.3301C180.184 33.5033 179.792 33.7585 179.455 34.0957C179.127 34.4329 178.867 34.8522 178.676 35.3535C178.484 35.8457 178.389 36.4108 178.389 37.0488C178.389 37.6868 178.484 38.2565 178.676 38.7578C178.867 39.25 179.127 39.6647 179.455 40.002C179.792 40.3392 180.184 40.5944 180.631 40.7676C181.087 40.9408 181.57 41.0273 182.08 41.0273C182.59 41.0273 183.069 40.918 183.516 40.6992C183.971 40.4714 184.368 40.1751 184.705 39.8105C185.042 39.4368 185.307 39.013 185.498 38.5391C185.698 38.056 185.799 37.5592 185.799 37.0488ZM195.588 44.5H191.856V29.8574H192.758L193.989 31.2793C194.59 30.7324 195.269 30.3132 196.026 30.0215C196.791 29.7207 197.589 29.5703 198.418 29.5703C199.312 29.5703 200.155 29.7435 200.948 30.0898C201.741 30.4271 202.433 30.8965 203.026 31.498C203.618 32.0905 204.083 32.7878 204.42 33.5898C204.767 34.3828 204.94 35.2305 204.94 36.1328V44.5H201.207V36.1328C201.207 35.75 201.135 35.39 200.989 35.0527C200.843 34.7064 200.642 34.4056 200.387 34.1504C200.132 33.8952 199.836 33.6947 199.499 33.5488C199.161 33.403 198.801 33.3301 198.418 33.3301C198.027 33.3301 197.657 33.403 197.311 33.5488C196.965 33.6947 196.664 33.8952 196.409 34.1504C196.153 34.4056 195.953 34.7064 195.807 35.0527C195.661 35.39 195.588 35.75 195.588 36.1328V44.5ZM214.196 44.5C213.294 44.5 212.446 44.3314 211.653 43.9941C210.86 43.6478 210.163 43.1784 209.562 42.5859C208.969 41.9844 208.5 41.2871 208.153 40.4941C207.816 39.7012 207.648 38.8535 207.648 37.9512V33.6035H205.829V29.8848H207.648V24.0332H211.366V29.8848H217.026V33.6035H211.366V37.9512C211.366 38.3431 211.439 38.7122 211.585 39.0586C211.731 39.3958 211.931 39.6921 212.187 39.9473C212.442 40.2025 212.743 40.4076 213.089 40.5625C213.435 40.7083 213.804 40.7812 214.196 40.7812H217.026V44.5H214.196ZM237.795 36.666V32.7422C237.795 32.2044 237.69 31.6986 237.481 31.2246C237.28 30.7415 237.002 30.3223 236.647 29.9668C236.291 29.6113 235.872 29.3333 235.389 29.1328C234.915 28.9232 234.409 28.8184 233.871 28.8184C233.333 28.8184 232.823 28.9232 232.34 29.1328C231.866 29.3333 231.451 29.6113 231.096 29.9668C230.74 30.3223 230.458 30.7415 230.248 31.2246C230.048 31.6986 229.947 32.2044 229.947 32.7422V36.666H237.795ZM241.719 44.5H237.795V40.5762H229.947V44.5H226.037V32.7422C226.037 31.6576 226.242 30.6413 226.652 29.6934C227.063 28.7363 227.619 27.9023 228.32 27.1914C229.031 26.4805 229.861 25.9199 230.809 25.5098C231.766 25.0996 232.787 24.8945 233.871 24.8945C234.956 24.8945 235.972 25.0996 236.92 25.5098C237.877 25.9199 238.711 26.4805 239.422 27.1914C240.133 27.9023 240.694 28.7363 241.104 29.6934C241.514 30.6413 241.719 31.6576 241.719 32.7422V44.5ZM247.926 50.0781H244.167V29.8574H245.069L246.559 31.6211C246.897 31.3021 247.266 31.0013 247.667 30.7188C248.068 30.4362 248.482 30.1947 248.911 29.9941C249.348 29.7845 249.8 29.6204 250.264 29.502C250.729 29.3835 251.199 29.3242 251.673 29.3242C252.703 29.3242 253.669 29.5111 254.571 29.8848C255.482 30.2493 256.275 30.7689 256.95 31.4434C257.634 32.1178 258.171 32.9336 258.563 33.8906C258.955 34.8385 259.151 35.8913 259.151 37.0488C259.151 38.252 258.955 39.3366 258.563 40.3027C258.171 41.2598 257.634 42.0755 256.95 42.75C256.275 43.4154 255.482 43.9258 254.571 44.2812C253.669 44.6367 252.703 44.8145 251.673 44.8145C251.344 44.8145 251.016 44.778 250.688 44.7051C250.369 44.6322 250.05 44.5365 249.731 44.418C249.421 44.2904 249.111 44.1491 248.801 43.9941C248.501 43.8392 248.209 43.6797 247.926 43.5156V50.0781ZM255.405 37.0488C255.405 36.429 255.305 35.873 255.104 35.3809C254.913 34.8887 254.648 34.474 254.311 34.1367C253.974 33.7904 253.578 33.526 253.122 33.3438C252.666 33.1615 252.183 33.0703 251.673 33.0703C251.162 33.0703 250.679 33.1615 250.223 33.3438C249.777 33.526 249.385 33.7904 249.048 34.1367C248.71 34.474 248.441 34.8887 248.241 35.3809C248.05 35.873 247.954 36.429 247.954 37.0488C247.954 37.6413 248.05 38.1836 248.241 38.6758C248.441 39.168 248.71 39.5872 249.048 39.9336C249.385 40.2799 249.777 40.5488 250.223 40.7402C250.679 40.9316 251.162 41.0273 251.673 41.0273C252.183 41.0273 252.666 40.9316 253.122 40.7402C253.578 40.5488 253.974 40.2799 254.311 39.9336C254.648 39.5872 254.913 39.168 255.104 38.6758C255.305 38.1836 255.405 37.6413 255.405 37.0488ZM264.429 50.0781H260.669V29.8574H261.572L263.062 31.6211C263.399 31.3021 263.768 31.0013 264.169 30.7188C264.57 30.4362 264.985 30.1947 265.413 29.9941C265.851 29.7845 266.302 29.6204 266.767 29.502C267.232 29.3835 267.701 29.3242 268.175 29.3242C269.205 29.3242 270.171 29.5111 271.074 29.8848C271.985 30.2493 272.778 30.7689 273.452 31.4434C274.136 32.1178 274.674 32.9336 275.066 33.8906C275.458 34.8385 275.654 35.8913 275.654 37.0488C275.654 38.252 275.458 39.3366 275.066 40.3027C274.674 41.2598 274.136 42.0755 273.452 42.75C272.778 43.4154 271.985 43.9258 271.074 44.2812C270.171 44.6367 269.205 44.8145 268.175 44.8145C267.847 44.8145 267.519 44.778 267.191 44.7051C266.872 44.6322 266.553 44.5365 266.234 44.418C265.924 44.2904 265.614 44.1491 265.304 43.9941C265.003 43.8392 264.712 43.6797 264.429 43.5156V50.0781ZM271.908 37.0488C271.908 36.429 271.807 35.873 271.607 35.3809C271.415 34.8887 271.151 34.474 270.814 34.1367C270.477 33.7904 270.08 33.526 269.624 33.3438C269.169 33.1615 268.685 33.0703 268.175 33.0703C267.665 33.0703 267.182 33.1615 266.726 33.3438C266.279 33.526 265.887 33.7904 265.55 34.1367C265.213 34.474 264.944 34.8887 264.743 35.3809C264.552 35.873 264.456 36.429 264.456 37.0488C264.456 37.6413 264.552 38.1836 264.743 38.6758C264.944 39.168 265.213 39.5872 265.55 39.9336C265.887 40.2799 266.279 40.5488 266.726 40.7402C267.182 40.9316 267.665 41.0273 268.175 41.0273C268.685 41.0273 269.169 40.9316 269.624 40.7402C270.08 40.5488 270.477 40.2799 270.814 39.9336C271.151 39.5872 271.415 39.168 271.607 38.6758C271.807 38.1836 271.908 37.6413 271.908 37.0488Z" fill="#1C1C1C"/>
<defs>
<clipPath id="clip0_2796_1892">
<rect width="68" height="68" fill="white"/>
</clipPath>
</defs>
</svg>
