<svg width="110" height="29" viewBox="0 0 110 29" fill="none" xmlns="http://www.w3.org/2000/svg">
<g clip-path="url(#clip0_1688_54475)">
<path d="M7.77501 27.8165C8.06158 27.1196 8.28171 26.4533 8.59736 25.844C10.0219 23.1045 11.4631 20.3737 12.9251 17.6516C13.3363 16.8802 14.0049 16.3454 14.7941 16.1175C15.8822 15.8062 16.5218 15.0479 16.9413 14.0222C17.5643 12.5012 18.1624 10.9714 18.7563 9.44167C18.8103 9.30579 18.7646 9.13046 18.7646 8.76664C18.017 10.1342 17.365 11.3265 16.7046 12.5144C16.5925 12.716 16.4679 12.9746 16.2893 13.0535C16.0899 13.1412 15.7826 13.128 15.5998 13.0141C15.4877 12.9439 15.4378 12.5538 15.5126 12.396C16.0442 11.3046 16.6215 10.2351 17.1656 9.15237C17.2528 8.98142 17.2528 8.75787 17.2944 8.56063C17.2362 8.53433 17.1822 8.50364 17.1241 8.47734C16.6672 9.20059 16.2103 9.92384 15.7576 10.6471C15.5334 11.0021 15.2759 11.3396 15.1097 11.721C14.9187 12.1549 14.5947 12.3741 14.2583 12.1286C14.1046 12.0147 14.0963 11.4361 14.2209 11.1731C14.6113 10.3534 15.1056 9.5907 15.5458 8.79732C15.8241 8.29324 16.0774 7.77601 16.3433 7.26316C16.2768 7.21933 16.2103 7.17988 16.1439 7.13605C15.6621 7.81985 15.1803 8.50803 14.6985 9.19182C13.9842 10.2088 13.2241 11.195 12.5762 12.2601C12.3312 12.6678 12.1858 13.2771 12.2606 13.7461C12.6053 15.8413 11.9117 17.5245 10.7861 19.2033C9.52354 21.0881 8.4603 23.1264 7.3223 25.1032C6.77822 26.05 6.26736 27.0144 5.73574 27.9699C5.64437 28.1321 5.56545 28.3513 5.4284 28.417C5.17089 28.5442 4.8594 28.6625 4.59774 28.6099C4.48975 28.588 4.33608 28.0445 4.4233 27.8647C5.04629 26.5892 5.72328 25.3399 6.39611 24.0951C6.7616 23.4201 7.18109 22.7801 7.54242 22.1051C7.8913 21.4432 7.61303 20.5139 7.00665 20.1983C6.52487 19.9485 5.74405 20.3517 5.42424 20.9479C4.34854 22.9642 3.25207 24.963 2.15975 26.9705C1.91471 27.422 1.63229 27.8472 1.40801 28.3075C1.16712 28.8028 0.85562 29.1534 0.290772 28.9562C-0.0705647 28.8291 -0.112098 28.0751 0.195246 27.5316C0.996832 26.1114 1.82749 24.7087 2.6 23.2754C3.76708 21.11 4.90093 18.9228 6.04308 16.7399C6.67854 15.5257 7.25169 14.2721 7.96191 13.1105C8.21941 12.6941 8.76349 12.3347 9.23281 12.2251C10.9066 11.835 11.9615 10.6953 12.6884 9.17867C13.3778 7.74095 13.2989 5.27752 11.9532 4.50168C11.2845 4.11595 9.95549 4.12033 9.24527 4.67263C7.86223 5.74654 7.0025 7.19303 6.69515 8.97704C6.63285 9.32332 6.62454 9.73535 6.74084 10.0553C7.22262 11.3966 6.99419 12.5977 6.29643 13.7943C5.10444 15.8369 3.97059 17.9146 2.80351 19.9704C2.64154 20.2509 2.46294 20.5841 2.20544 20.7243C1.98532 20.8427 1.60321 20.8076 1.37063 20.6849C1.12143 20.5534 1.01345 20.2685 1.22526 19.9046C1.73612 19.0411 2.10991 18.0768 2.69553 17.2747C3.33929 16.3892 3.19808 15.6046 2.84089 14.6929C2.1556 12.9396 1.7818 11.1731 2.19713 9.22251C2.59585 7.32891 3.20638 5.61942 4.40253 4.12033C5.45747 2.79657 6.72838 1.79717 8.17788 1.06516C9.68968 0.302464 11.3012 -0.131484 12.9957 0.0438487C16.2477 0.37698 18.8145 1.99442 20.563 4.90494C21.7799 6.93442 22.1786 9.23127 21.9045 11.6026C21.5473 14.7104 20.3553 17.3755 17.8509 19.2252C16.5925 20.1545 15.2592 20.904 13.7018 21.1495C13.004 21.2591 12.4392 21.6273 12.0737 22.3549C11.2305 24.0162 10.3168 25.6336 9.44048 27.273C9.021 28.0883 8.87978 28.1584 7.77501 27.8165Z" fill="#F25900"/>
<path d="M12.053 8.39397C11.9823 7.38142 11.92 6.64064 11.8827 5.89986C11.8785 5.80343 12.0073 5.69823 12.0696 5.59741C12.1443 5.66316 12.2731 5.72014 12.2855 5.79904C12.3894 6.45216 12.5057 7.10527 12.5472 7.76277C12.5555 7.91618 12.3021 8.08713 12.053 8.39397Z" fill="#F25900"/>
</g>
<path d="M27.2642 21.5V6.95455H36.8949V9.49006H30.3395V12.956H36.2557V15.4915H30.3395V21.5H27.2642ZM43.4948 21.7131C42.3916 21.7131 41.4375 21.4787 40.6326 21.0099C39.8324 20.5365 39.2145 19.8783 38.7789 19.0355C38.3433 18.188 38.1255 17.2055 38.1255 16.0881C38.1255 14.9612 38.3433 13.9763 38.7789 13.1335C39.2145 12.286 39.8324 11.6278 40.6326 11.1591C41.4375 10.6856 42.3916 10.4489 43.4948 10.4489C44.598 10.4489 45.5497 10.6856 46.3499 11.1591C47.1548 11.6278 47.7751 12.286 48.2107 13.1335C48.6463 13.9763 48.8641 14.9612 48.8641 16.0881C48.8641 17.2055 48.6463 18.188 48.2107 19.0355C47.7751 19.8783 47.1548 20.5365 46.3499 21.0099C45.5497 21.4787 44.598 21.7131 43.4948 21.7131ZM43.509 19.3693C44.0109 19.3693 44.4299 19.2273 44.7661 18.9432C45.1023 18.6544 45.3556 18.2614 45.5261 17.7642C45.7012 17.267 45.7888 16.7012 45.7888 16.0668C45.7888 15.4323 45.7012 14.8665 45.5261 14.3693C45.3556 13.8722 45.1023 13.4792 44.7661 13.1903C44.4299 12.9015 44.0109 12.7571 43.509 12.7571C43.0024 12.7571 42.5762 12.9015 42.2306 13.1903C41.8897 13.4792 41.6316 13.8722 41.4564 14.3693C41.286 14.8665 41.2008 15.4323 41.2008 16.0668C41.2008 16.7012 41.286 17.267 41.4564 17.7642C41.6316 18.2614 41.8897 18.6544 42.2306 18.9432C42.5762 19.2273 43.0024 19.3693 43.509 19.3693ZM56.2204 21.7131C55.1172 21.7131 54.1631 21.4787 53.3582 21.0099C52.558 20.5365 51.9401 19.8783 51.5045 19.0355C51.0689 18.188 50.8511 17.2055 50.8511 16.0881C50.8511 14.9612 51.0689 13.9763 51.5045 13.1335C51.9401 12.286 52.558 11.6278 53.3582 11.1591C54.1631 10.6856 55.1172 10.4489 56.2204 10.4489C57.3236 10.4489 58.2754 10.6856 59.0755 11.1591C59.8805 11.6278 60.5007 12.286 60.9363 13.1335C61.3719 13.9763 61.5897 14.9612 61.5897 16.0881C61.5897 17.2055 61.3719 18.188 60.9363 19.0355C60.5007 19.8783 59.8805 20.5365 59.0755 21.0099C58.2754 21.4787 57.3236 21.7131 56.2204 21.7131ZM56.2346 19.3693C56.7365 19.3693 57.1556 19.2273 57.4917 18.9432C57.8279 18.6544 58.0812 18.2614 58.2517 17.7642C58.4269 17.267 58.5145 16.7012 58.5145 16.0668C58.5145 15.4323 58.4269 14.8665 58.2517 14.3693C58.0812 13.8722 57.8279 13.4792 57.4917 13.1903C57.1556 12.9015 56.7365 12.7571 56.2346 12.7571C55.728 12.7571 55.3019 12.9015 54.9562 13.1903C54.6153 13.4792 54.3573 13.8722 54.1821 14.3693C54.0116 14.8665 53.9264 15.4323 53.9264 16.0668C53.9264 16.7012 54.0116 17.267 54.1821 17.7642C54.3573 18.2614 54.6153 18.6544 54.9562 18.9432C55.3019 19.2273 55.728 19.3693 56.2346 19.3693ZM68.037 21.6776C67.2084 21.6776 66.4579 21.4645 65.7855 21.0384C65.1179 20.6075 64.5876 19.9754 64.1946 19.142C63.8064 18.304 63.6122 17.2765 63.6122 16.0597C63.6122 14.8097 63.8135 13.7704 64.2159 12.9418C64.6184 12.1084 65.1534 11.4858 65.8211 11.0739C66.4934 10.6572 67.2297 10.4489 68.0299 10.4489C68.6407 10.4489 69.1497 10.553 69.5568 10.7614C69.9688 10.965 70.3002 11.2206 70.5512 11.5284C70.8068 11.8314 71.001 12.1297 71.1336 12.4233H71.2259V6.95455H74.2443V21.5H71.2614V19.7528H71.1336C70.9915 20.0559 70.7903 20.3565 70.5299 20.6548C70.2742 20.9484 69.9404 21.1922 69.5284 21.3864C69.1212 21.5805 68.6241 21.6776 68.037 21.6776ZM68.9958 19.2699C69.4835 19.2699 69.8954 19.1373 70.2316 18.8722C70.5725 18.6023 70.8329 18.2259 71.0128 17.7429C71.1975 17.2599 71.2898 16.6941 71.2898 16.0455C71.2898 15.3968 71.1998 14.8333 71.0199 14.3551C70.84 13.8769 70.5796 13.5076 70.2387 13.2472C69.8978 12.9867 69.4835 12.8565 68.9958 12.8565C68.4986 12.8565 68.0796 12.9915 67.7387 13.2614C67.3978 13.5312 67.1397 13.9053 66.9645 14.3835C66.7893 14.8617 66.7017 15.4157 66.7017 16.0455C66.7017 16.6799 66.7893 17.241 66.9645 17.7287C67.1444 18.2116 67.4025 18.5904 67.7387 18.8651C68.0796 19.1349 68.4986 19.2699 68.9958 19.2699Z" fill="black"/>
<path d="M77.2487 21.5V6.95455H82.9874C84.0906 6.95455 85.0305 7.16525 85.807 7.58665C86.5835 8.00331 87.1753 8.58333 87.5825 9.3267C87.9945 10.0653 88.2004 10.9176 88.2004 11.8835C88.2004 12.8494 87.9921 13.7017 87.5754 14.4403C87.1588 15.179 86.5551 15.7543 85.7644 16.1662C84.9784 16.5781 84.0267 16.7841 82.9092 16.7841H79.2516V14.3196H82.4121C83.0039 14.3196 83.4916 14.2178 83.8752 14.0142C84.2634 13.8059 84.5522 13.5194 84.7416 13.1548C84.9358 12.7855 85.0328 12.3617 85.0328 11.8835C85.0328 11.4006 84.9358 10.9792 84.7416 10.6193C84.5522 10.2547 84.2634 9.97301 83.8752 9.77415C83.4869 9.57055 82.9945 9.46875 82.3979 9.46875H80.324V21.5H77.2487ZM90.6011 21.5V10.5909H93.5344V12.4943H93.648C93.8469 11.8172 94.1807 11.3059 94.6494 10.9602C95.1182 10.6098 95.658 10.4347 96.2687 10.4347C96.4203 10.4347 96.5836 10.4441 96.7588 10.4631C96.934 10.482 97.0879 10.508 97.2205 10.5412V13.2259C97.0784 13.1832 96.8819 13.1454 96.631 13.1122C96.38 13.0791 96.1504 13.0625 95.942 13.0625C95.497 13.0625 95.0992 13.1596 94.7489 13.3537C94.4032 13.5431 94.1286 13.8082 93.925 14.1491C93.7261 14.4901 93.6267 14.883 93.6267 15.3281V21.5H90.6011ZM103.666 21.7131C102.563 21.7131 101.609 21.4787 100.804 21.0099C100.003 20.5365 99.3856 19.8783 98.95 19.0355C98.5144 18.188 98.2966 17.2055 98.2966 16.0881C98.2966 14.9612 98.5144 13.9763 98.95 13.1335C99.3856 12.286 100.003 11.6278 100.804 11.1591C101.609 10.6856 102.563 10.4489 103.666 10.4489C104.769 10.4489 105.721 10.6856 106.521 11.1591C107.326 11.6278 107.946 12.286 108.382 13.1335C108.817 13.9763 109.035 14.9612 109.035 16.0881C109.035 17.2055 108.817 18.188 108.382 19.0355C107.946 19.8783 107.326 20.5365 106.521 21.0099C105.721 21.4787 104.769 21.7131 103.666 21.7131ZM103.68 19.3693C104.182 19.3693 104.601 19.2273 104.937 18.9432C105.273 18.6544 105.527 18.2614 105.697 17.7642C105.872 17.267 105.96 16.7012 105.96 16.0668C105.96 15.4323 105.872 14.8665 105.697 14.3693C105.527 13.8722 105.273 13.4792 104.937 13.1903C104.601 12.9015 104.182 12.7571 103.68 12.7571C103.173 12.7571 102.747 12.9015 102.402 13.1903C102.061 13.4792 101.803 13.8722 101.628 14.3693C101.457 14.8665 101.372 15.4323 101.372 16.0668C101.372 16.7012 101.457 17.267 101.628 17.7642C101.803 18.2614 102.061 18.6544 102.402 18.9432C102.747 19.2273 103.173 19.3693 103.68 19.3693Z" fill="#F25900"/>
<defs>
<clipPath id="clip0_1688_54475">
<rect width="22" height="29" fill="white"/>
</clipPath>
</defs>
</svg>
