<svg width="17" height="16" viewBox="0 0 17 16" fill="none" xmlns="http://www.w3.org/2000/svg">
<path d="M9.87422 8.00011L15.7149 2.15911C16.095 1.77918 16.095 1.16488 15.7149 0.78495C15.335 0.405017 14.7207 0.405017 14.3408 0.78495L8.49991 6.62595L2.65921 0.78495C2.27911 0.405017 1.665 0.405017 1.28508 0.78495C0.904974 1.16488 0.904974 1.77918 1.28508 2.15911L7.12578 8.00011L1.28508 13.8411C0.904974 14.221 0.904974 14.8353 1.28508 15.2153C1.47442 15.4048 1.72337 15.5 1.97214 15.5C2.22092 15.5 2.46969 15.4048 2.65921 15.2153L8.49991 9.37428L14.3408 15.2153C14.5303 15.4048 14.7791 15.5 15.0279 15.5C15.2766 15.5 15.5254 15.4048 15.7149 15.2153C16.095 14.8353 16.095 14.221 15.7149 13.8411L9.87422 8.00011Z" fill="#171717" stroke="#171717" stroke-width="0.5"/>
</svg>
