<svg width="151" height="108" viewBox="0 0 151 108" fill="none" xmlns="http://www.w3.org/2000/svg">
<path fill-rule="evenodd" clip-rule="evenodd" d="M98.75 4.28571H52.25C51.2223 4.28571 50.2367 4.68457 49.51 5.39452C48.7833 6.10448 48.375 7.06739 48.375 8.07143V45.9286C48.375 46.9326 48.7833 47.8955 49.51 48.6055C50.2367 49.3154 51.2223 49.7143 52.25 49.7143H98.75C99.7777 49.7143 100.763 49.3154 101.49 48.6055C102.217 47.8955 102.625 46.9326 102.625 45.9286V8.07143C102.625 7.06739 102.217 6.10448 101.49 5.39452C100.763 4.68457 99.7777 4.28571 98.75 4.28571V4.28571ZM52.25 0.5C50.1946 0.5 48.2233 1.2977 46.7699 2.71762C45.3165 4.13754 44.5 6.06336 44.5 8.07143V45.9286C44.5 47.9366 45.3165 49.8625 46.7699 51.2824C48.2233 52.7023 50.1946 53.5 52.25 53.5H98.75C99.7677 53.5 100.776 53.3042 101.716 52.9237C102.656 52.5432 103.51 51.9855 104.23 51.2824C104.95 50.5793 105.521 49.7446 105.91 48.826C106.3 47.9074 106.5 46.9229 106.5 45.9286V8.07143C106.5 6.06336 105.683 4.13754 104.23 2.71762C102.777 1.2977 100.805 0.5 98.75 0.5H52.25V0.5Z" fill="#D9D9D9"/>
<path d="M85.7532 25.66C86.041 25.3796 86.4118 25.1947 86.8131 25.1315C87.2143 25.0684 87.6257 25.1301 87.9891 25.3079L102.625 32.6787V49.7144H48.375V42.143L58.6282 33.2314C58.945 32.9231 59.3611 32.7313 59.806 32.6885C60.251 32.6457 60.6973 32.7546 61.0695 32.9967L71.377 39.7087L85.7532 25.6637V25.66Z" fill="#D9D9D9"/>
<path fill-rule="evenodd" clip-rule="evenodd" d="M61.9375 23.2146C62.7008 23.2146 63.4566 23.0677 64.1618 22.7823C64.8671 22.4969 65.5078 22.0787 66.0476 21.5514C66.5873 21.024 67.0154 20.398 67.3075 19.7091C67.5997 19.0201 67.75 18.2817 67.75 17.536C67.75 16.7903 67.5997 16.0519 67.3075 15.3629C67.0154 14.6739 66.5873 14.0479 66.0476 13.5206C65.5078 12.9933 64.8671 12.5751 64.1618 12.2897C63.4566 12.0043 62.7008 11.8574 61.9375 11.8574C60.3959 11.8574 58.9175 12.4557 57.8274 13.5206C56.7374 14.5856 56.125 16.0299 56.125 17.536C56.125 19.042 56.7374 20.4864 57.8274 21.5514C58.9175 22.6163 60.3959 23.2146 61.9375 23.2146Z" fill="#D9D9D9"/>
<path d="M7.75706 79.5V69.63H11.0891C12.1624 69.63 13.0677 69.8213 13.8051 70.204C14.5517 70.5773 15.1164 71.1327 15.4991 71.87C15.8911 72.598 16.0871 73.494 16.0871 74.558C16.0871 75.622 15.8911 76.5227 15.4991 77.26C15.1164 77.9973 14.5517 78.5573 13.8051 78.94C13.0677 79.3133 12.1624 79.5 11.0891 79.5H7.75706ZM8.90506 78.52H11.0051C12.3024 78.52 13.2684 78.1887 13.9031 77.526C14.5471 76.8633 14.8691 75.874 14.8691 74.558C14.8691 73.242 14.5471 72.2573 13.9031 71.604C13.2591 70.9413 12.2931 70.61 11.0051 70.61H8.90506V78.52ZM17.9937 79.5V72.696H19.0997V74.306H18.9597C19.1184 73.7553 19.3937 73.34 19.7857 73.06C20.1777 72.7707 20.6957 72.6027 21.3397 72.556L21.7457 72.514L21.8297 73.494L21.1157 73.578C20.481 73.634 19.991 73.8393 19.6457 74.194C19.3097 74.5393 19.1417 75.0153 19.1417 75.622V79.5H17.9937ZM25.0849 79.626C24.6182 79.626 24.1982 79.5373 23.8249 79.36C23.4609 79.1733 23.1716 78.9213 22.9569 78.604C22.7422 78.2867 22.6349 77.932 22.6349 77.54C22.6349 77.036 22.7609 76.6393 23.0129 76.35C23.2742 76.0607 23.6989 75.8553 24.2869 75.734C24.8842 75.6127 25.6962 75.552 26.7229 75.552H27.3529V76.294H26.7369C26.1676 76.294 25.6916 76.3127 25.3089 76.35C24.9262 76.3873 24.6229 76.4527 24.3989 76.546C24.1749 76.6393 24.0162 76.7607 23.9229 76.91C23.8296 77.0593 23.7829 77.246 23.7829 77.47C23.7829 77.8527 23.9136 78.1653 24.1749 78.408C24.4456 78.6507 24.8096 78.772 25.2669 78.772C25.6402 78.772 25.9669 78.6833 26.2469 78.506C26.5362 78.3287 26.7602 78.086 26.9189 77.778C27.0869 77.47 27.1709 77.1153 27.1709 76.714V75.118C27.1709 74.5393 27.0542 74.124 26.8209 73.872C26.5876 73.6107 26.2049 73.48 25.6729 73.48C25.2622 73.48 24.8656 73.5407 24.4829 73.662C24.1002 73.774 23.7082 73.9607 23.3069 74.222L22.9149 73.396C23.1576 73.228 23.4329 73.0833 23.7409 72.962C24.0489 72.8313 24.3709 72.7333 24.7069 72.668C25.0429 72.6027 25.3649 72.57 25.6729 72.57C26.2609 72.57 26.7462 72.668 27.1289 72.864C27.5116 73.0507 27.7962 73.34 27.9829 73.732C28.1696 74.1147 28.2629 74.6093 28.2629 75.216V79.5H27.1989V77.918H27.3249C27.2502 78.2727 27.1056 78.576 26.8909 78.828C26.6856 79.08 26.4289 79.276 26.1209 79.416C25.8129 79.556 25.4676 79.626 25.0849 79.626ZM33.3767 82.146C32.7887 82.146 32.2334 82.0667 31.7107 81.908C31.1974 81.7587 30.7401 81.53 30.3387 81.222L30.7167 80.396C30.9967 80.592 31.2721 80.7507 31.5427 80.872C31.8227 81.0027 32.1074 81.096 32.3967 81.152C32.6954 81.208 33.0034 81.236 33.3207 81.236C33.9834 81.236 34.4827 81.0587 34.8187 80.704C35.1641 80.3493 35.3367 79.836 35.3367 79.164V77.582H35.4767C35.3367 78.1233 35.0381 78.5527 34.5807 78.87C34.1327 79.1873 33.6054 79.346 32.9987 79.346C32.3734 79.346 31.8321 79.206 31.3747 78.926C30.9174 78.6367 30.5627 78.2353 30.3107 77.722C30.0681 77.2087 29.9467 76.616 29.9467 75.944C29.9467 75.272 30.0681 74.684 30.3107 74.18C30.5627 73.6667 30.9174 73.27 31.3747 72.99C31.8321 72.71 32.3734 72.57 32.9987 72.57C33.6147 72.57 34.1467 72.7287 34.5947 73.046C35.0427 73.354 35.3321 73.774 35.4627 74.306H35.3367V72.696H36.4427V79.01C36.4427 79.7007 36.3261 80.2793 36.0927 80.746C35.8687 81.2127 35.5281 81.5627 35.0707 81.796C34.6134 82.0293 34.0487 82.146 33.3767 82.146ZM33.2087 78.422C33.8621 78.422 34.3801 78.198 34.7627 77.75C35.1454 77.302 35.3367 76.7 35.3367 75.944C35.3367 75.188 35.1454 74.5907 34.7627 74.152C34.3801 73.704 33.8621 73.48 33.2087 73.48C32.5647 73.48 32.0514 73.704 31.6687 74.152C31.2861 74.5907 31.0947 75.188 31.0947 75.944C31.0947 76.7 31.2861 77.302 31.6687 77.75C32.0514 78.198 32.5647 78.422 33.2087 78.422ZM45.1196 79.626C44.4662 79.626 43.9016 79.5233 43.4256 79.318C42.9496 79.1033 42.5856 78.8093 42.3336 78.436C42.0909 78.0627 41.9696 77.6287 41.9696 77.134C41.9696 76.714 42.0442 76.336 42.1936 76C42.3522 75.6547 42.5856 75.3327 42.8936 75.034C43.2016 74.726 43.5842 74.4227 44.0416 74.124L44.4896 73.83L44.3356 74.068C43.8876 73.5827 43.5702 73.1627 43.3836 72.808C43.2062 72.444 43.1176 72.0707 43.1176 71.688C43.1176 71.2587 43.2156 70.8807 43.4116 70.554C43.6076 70.218 43.8876 69.9613 44.2516 69.784C44.6249 69.5973 45.0542 69.504 45.5396 69.504C45.9782 69.504 46.3609 69.588 46.6876 69.756C47.0142 69.9147 47.2709 70.1433 47.4576 70.442C47.6536 70.7407 47.7516 71.0953 47.7516 71.506C47.7516 71.842 47.6862 72.1593 47.5556 72.458C47.4249 72.7473 47.2056 73.0413 46.8976 73.34C46.5896 73.6293 46.1602 73.9373 45.6096 74.264L45.6376 73.97L48.2556 76.91H48.0036C48.2276 76.5273 48.4049 76.056 48.5356 75.496C48.6756 74.9267 48.7549 74.334 48.7736 73.718H49.7536C49.7349 74.4927 49.6276 75.216 49.4316 75.888C49.2449 76.5507 48.9882 77.1387 48.6616 77.652L48.6476 77.316L50.6776 79.5H49.2916L48.0316 78.086H48.3256C47.9336 78.5713 47.4622 78.9493 46.9116 79.22C46.3609 79.4907 45.7636 79.626 45.1196 79.626ZM45.1756 78.688C45.7076 78.688 46.1789 78.576 46.5896 78.352C47.0096 78.128 47.3736 77.8013 47.6816 77.372L47.6676 77.722L44.6996 74.474L45.1476 74.516L44.7136 74.796C44.3122 75.0573 43.9902 75.3047 43.7476 75.538C43.5142 75.762 43.3462 75.9953 43.2436 76.238C43.1409 76.4807 43.0896 76.7513 43.0896 77.05C43.0896 77.5633 43.2669 77.9647 43.6216 78.254C43.9762 78.5433 44.4942 78.688 45.1756 78.688ZM45.5396 70.386C45.1382 70.386 44.8116 70.5027 44.5596 70.736C44.3076 70.9693 44.1816 71.2773 44.1816 71.66C44.1816 71.8653 44.2096 72.0567 44.2656 72.234C44.3309 72.402 44.4429 72.5933 44.6016 72.808C44.7602 73.0133 44.9796 73.2793 45.2596 73.606L44.9656 73.62C45.4136 73.3307 45.7682 73.0787 46.0296 72.864C46.2909 72.64 46.4776 72.4253 46.5896 72.22C46.7016 72.0147 46.7576 71.7953 46.7576 71.562C46.7576 71.198 46.6456 70.9133 46.4216 70.708C46.1976 70.4933 45.9036 70.386 45.5396 70.386ZM58.0583 79.626C57.4516 79.626 56.9196 79.4813 56.4623 79.192C56.0143 78.9027 55.6643 78.4967 55.4123 77.974C55.1696 77.442 55.0483 76.8167 55.0483 76.098C55.0483 75.37 55.1696 74.7447 55.4123 74.222C55.6643 73.69 56.0143 73.284 56.4623 73.004C56.9196 72.7147 57.4516 72.57 58.0583 72.57C58.6743 72.57 59.2016 72.724 59.6403 73.032C60.079 73.34 60.373 73.7553 60.5223 74.278H60.3683V69.63H61.5023V79.5H60.3963V77.876H60.5363C60.387 78.408 60.0883 78.8327 59.6403 79.15C59.2016 79.4673 58.6743 79.626 58.0583 79.626ZM58.2963 78.716C58.9403 78.716 59.449 78.492 59.8223 78.044C60.205 77.5867 60.3963 76.938 60.3963 76.098C60.3963 75.2487 60.205 74.6 59.8223 74.152C59.449 73.704 58.9403 73.48 58.2963 73.48C57.6616 73.48 57.153 73.704 56.7703 74.152C56.3876 74.6 56.1963 75.2487 56.1963 76.098C56.1963 76.938 56.3876 77.5867 56.7703 78.044C57.153 78.492 57.6616 78.716 58.2963 78.716ZM63.6304 79.5V72.696H64.7364V74.306H64.5964C64.7551 73.7553 65.0304 73.34 65.4224 73.06C65.8144 72.7707 66.3324 72.6027 66.9764 72.556L67.3824 72.514L67.4664 73.494L66.7524 73.578C66.1177 73.634 65.6277 73.8393 65.2824 74.194C64.9464 74.5393 64.7784 75.0153 64.7784 75.622V79.5H63.6304ZM71.394 79.626C70.7313 79.626 70.1573 79.4813 69.672 79.192C69.1866 78.9027 68.8086 78.4967 68.538 77.974C68.2766 77.442 68.146 76.8167 68.146 76.098C68.146 75.3793 68.2766 74.7587 68.538 74.236C68.8086 73.704 69.1866 73.2933 69.672 73.004C70.1573 72.7147 70.7313 72.57 71.394 72.57C72.0566 72.57 72.6306 72.7147 73.116 73.004C73.6013 73.2933 73.9746 73.704 74.236 74.236C74.5066 74.7587 74.642 75.3793 74.642 76.098C74.642 76.8167 74.5066 77.442 74.236 77.974C73.9746 78.4967 73.6013 78.9027 73.116 79.192C72.6306 79.4813 72.0566 79.626 71.394 79.626ZM71.394 78.716C72.038 78.716 72.5466 78.492 72.92 78.044C73.3026 77.5867 73.494 76.9333 73.494 76.084C73.494 75.244 73.3026 74.6 72.92 74.152C72.5466 73.704 72.038 73.48 71.394 73.48C70.7593 73.48 70.2506 73.704 69.868 74.152C69.4853 74.6 69.294 75.244 69.294 76.084C69.294 76.9333 69.4853 77.5867 69.868 78.044C70.2506 78.492 70.7593 78.716 71.394 78.716ZM76.3453 82.02V72.696H77.4513V74.306H77.3113C77.4606 73.774 77.7546 73.354 78.1933 73.046C78.6413 72.7287 79.1733 72.57 79.7893 72.57C80.3959 72.57 80.9233 72.7147 81.3713 73.004C81.8286 73.284 82.1786 73.69 82.4213 74.222C82.6733 74.7447 82.7993 75.37 82.7993 76.098C82.7993 76.8167 82.6733 77.442 82.4213 77.974C82.1786 78.4967 81.8333 78.9027 81.3853 79.192C80.9373 79.4813 80.4053 79.626 79.7893 79.626C79.1733 79.626 78.6459 79.472 78.2073 79.164C77.7686 78.8467 77.4699 78.4267 77.3113 77.904H77.4793V82.02H76.3453ZM79.5513 78.716C80.1953 78.716 80.7039 78.492 81.0773 78.044C81.4599 77.5867 81.6513 76.938 81.6513 76.098C81.6513 75.2487 81.4599 74.6 81.0773 74.152C80.7039 73.704 80.1953 73.48 79.5513 73.48C78.9166 73.48 78.4079 73.704 78.0253 74.152C77.6426 74.6 77.4513 75.2487 77.4513 76.098C77.4513 76.938 77.6426 77.5867 78.0253 78.044C78.4079 78.492 78.9166 78.716 79.5513 78.716ZM88.8871 82.02L90.1611 79.15V79.64L87.1791 72.696H88.4111L90.8471 78.66H90.4691L92.9331 72.696H94.1231L90.0771 82.02H88.8871ZM98.0268 79.626C97.3641 79.626 96.7901 79.4813 96.3048 79.192C95.8194 78.9027 95.4414 78.4967 95.1708 77.974C94.9094 77.442 94.7788 76.8167 94.7788 76.098C94.7788 75.3793 94.9094 74.7587 95.1708 74.236C95.4414 73.704 95.8194 73.2933 96.3048 73.004C96.7901 72.7147 97.3641 72.57 98.0268 72.57C98.6894 72.57 99.2634 72.7147 99.7488 73.004C100.234 73.2933 100.607 73.704 100.869 74.236C101.139 74.7587 101.275 75.3793 101.275 76.098C101.275 76.8167 101.139 77.442 100.869 77.974C100.607 78.4967 100.234 78.9027 99.7488 79.192C99.2634 79.4813 98.6894 79.626 98.0268 79.626ZM98.0268 78.716C98.6708 78.716 99.1794 78.492 99.5528 78.044C99.9354 77.5867 100.127 76.9333 100.127 76.084C100.127 75.244 99.9354 74.6 99.5528 74.152C99.1794 73.704 98.6708 73.48 98.0268 73.48C97.3921 73.48 96.8834 73.704 96.5008 74.152C96.1181 74.6 95.9268 75.244 95.9268 76.084C95.9268 76.9333 96.1181 77.5867 96.5008 78.044C96.8834 78.492 97.3921 78.716 98.0268 78.716ZM105.386 79.626C104.835 79.626 104.378 79.528 104.014 79.332C103.659 79.1267 103.389 78.8233 103.202 78.422C103.025 78.0207 102.936 77.5213 102.936 76.924V72.696H104.07V76.91C104.07 77.3113 104.121 77.6473 104.224 77.918C104.336 78.1793 104.509 78.3753 104.742 78.506C104.975 78.6273 105.265 78.688 105.61 78.688C106.002 78.688 106.343 78.5993 106.632 78.422C106.921 78.2447 107.15 77.9973 107.318 77.68C107.486 77.3627 107.57 76.9893 107.57 76.56V72.696H108.704V79.5H107.598V77.932H107.78C107.593 78.4827 107.285 78.9027 106.856 79.192C106.436 79.4813 105.946 79.626 105.386 79.626ZM110.826 79.5V72.696H111.932V74.306H111.792C111.95 73.7553 112.226 73.34 112.618 73.06C113.01 72.7707 113.528 72.6027 114.172 72.556L114.578 72.514L114.662 73.494L113.948 73.578C113.313 73.634 112.823 73.8393 112.478 74.194C112.142 74.5393 111.974 75.0153 111.974 75.622V79.5H110.826ZM119.803 79.5V73.578H118.459V72.696H120.111L119.803 72.99V72.458C119.803 71.5527 120.027 70.8667 120.475 70.4C120.932 69.9333 121.632 69.672 122.575 69.616L123.093 69.588L123.163 70.47L122.575 70.498C122.192 70.5167 121.88 70.6007 121.637 70.75C121.394 70.89 121.217 71.0907 121.105 71.352C120.993 71.6133 120.937 71.9353 120.937 72.318V72.85V72.696H125.137V79.5H124.003V73.578H120.937V79.5H119.803ZM123.877 71.002V69.728H125.263V71.002H123.877ZM129.345 79.626C128.655 79.626 128.132 79.4207 127.777 79.01C127.432 78.5993 127.259 78.0113 127.259 77.246V69.63H128.393V77.162C128.393 77.4887 128.435 77.764 128.519 77.988C128.613 78.212 128.748 78.38 128.925 78.492C129.103 78.604 129.322 78.66 129.583 78.66C129.695 78.66 129.803 78.6553 129.905 78.646C130.017 78.6273 130.12 78.604 130.213 78.576L130.185 79.528C130.036 79.556 129.891 79.5793 129.751 79.598C129.621 79.6167 129.485 79.626 129.345 79.626ZM134.4 79.626C133.681 79.626 133.06 79.486 132.538 79.206C132.024 78.9167 131.623 78.5107 131.334 77.988C131.054 77.4653 130.914 76.84 130.914 76.112C130.914 75.4027 131.054 74.7867 131.334 74.264C131.614 73.732 131.996 73.3167 132.482 73.018C132.976 72.7193 133.546 72.57 134.19 72.57C134.806 72.57 135.333 72.7053 135.772 72.976C136.21 73.2467 136.546 73.6293 136.78 74.124C137.022 74.6187 137.144 75.2113 137.144 75.902V76.336H131.782V75.594H136.388L136.164 75.776C136.164 75.0293 135.996 74.4507 135.66 74.04C135.333 73.62 134.852 73.41 134.218 73.41C133.742 73.41 133.336 73.522 133 73.746C132.673 73.9607 132.426 74.264 132.258 74.656C132.09 75.0387 132.006 75.4867 132.006 76V76.084C132.006 76.6533 132.094 77.134 132.272 77.526C132.458 77.918 132.734 78.2167 133.098 78.422C133.462 78.618 133.896 78.716 134.4 78.716C134.801 78.716 135.188 78.6553 135.562 78.534C135.944 78.4033 136.304 78.1933 136.64 77.904L137.032 78.702C136.724 78.982 136.332 79.206 135.856 79.374C135.38 79.542 134.894 79.626 134.4 79.626ZM141.081 79.626C140.726 79.626 140.381 79.5887 140.045 79.514C139.718 79.4487 139.41 79.3553 139.121 79.234C138.841 79.1033 138.598 78.9493 138.393 78.772L138.757 77.974C138.981 78.1513 139.223 78.3007 139.485 78.422C139.746 78.534 140.012 78.618 140.283 78.674C140.553 78.73 140.829 78.758 141.109 78.758C141.641 78.758 142.042 78.66 142.313 78.464C142.583 78.268 142.719 78.002 142.719 77.666C142.719 77.4047 142.63 77.1993 142.453 77.05C142.275 76.8913 141.995 76.77 141.613 76.686L140.339 76.406C139.751 76.2847 139.312 76.0747 139.023 75.776C138.743 75.4773 138.603 75.09 138.603 74.614C138.603 74.194 138.71 73.8347 138.925 73.536C139.149 73.228 139.461 72.99 139.863 72.822C140.264 72.654 140.731 72.57 141.263 72.57C141.58 72.57 141.883 72.6027 142.173 72.668C142.462 72.7333 142.733 72.8313 142.985 72.962C143.246 73.0833 143.47 73.2373 143.657 73.424L143.279 74.222C143.101 74.054 142.901 73.914 142.677 73.802C142.453 73.6807 142.219 73.592 141.977 73.536C141.743 73.4707 141.505 73.438 141.263 73.438C140.74 73.438 140.343 73.5407 140.073 73.746C139.802 73.9513 139.667 74.222 139.667 74.558C139.667 74.8193 139.751 75.034 139.919 75.202C140.087 75.37 140.348 75.4913 140.703 75.566L141.977 75.832C142.583 75.9627 143.036 76.1727 143.335 76.462C143.643 76.742 143.797 77.1247 143.797 77.61C143.797 78.0207 143.685 78.38 143.461 78.688C143.237 78.9867 142.919 79.22 142.509 79.388C142.107 79.5467 141.631 79.626 141.081 79.626ZM47.2426 101.626C46.5799 101.626 46.0059 101.481 45.5206 101.192C45.0353 100.903 44.6573 100.497 44.3866 99.974C44.1253 99.442 43.9946 98.8167 43.9946 98.098C43.9946 97.3793 44.1253 96.7587 44.3866 96.236C44.6573 95.704 45.0353 95.2933 45.5206 95.004C46.0059 94.7147 46.5799 94.57 47.2426 94.57C47.9053 94.57 48.4793 94.7147 48.9646 95.004C49.4499 95.2933 49.8233 95.704 50.0846 96.236C50.3553 96.7587 50.4906 97.3793 50.4906 98.098C50.4906 98.8167 50.3553 99.442 50.0846 99.974C49.8233 100.497 49.4499 100.903 48.9646 101.192C48.4793 101.481 47.9053 101.626 47.2426 101.626ZM47.2426 100.716C47.8866 100.716 48.3953 100.492 48.7686 100.044C49.1513 99.5867 49.3426 98.9333 49.3426 98.084C49.3426 97.244 49.1513 96.6 48.7686 96.152C48.3953 95.704 47.8866 95.48 47.2426 95.48C46.6079 95.48 46.0993 95.704 45.7166 96.152C45.3339 96.6 45.1426 97.244 45.1426 98.084C45.1426 98.9333 45.3339 99.5867 45.7166 100.044C46.0993 100.492 46.6079 100.716 47.2426 100.716ZM52.1939 101.5V94.696H53.2999V96.306H53.1599C53.3185 95.7553 53.5939 95.34 53.9859 95.06C54.3779 94.7707 54.8959 94.6027 55.5399 94.556L55.9459 94.514L56.0299 95.494L55.3159 95.578C54.6812 95.634 54.1912 95.8393 53.8459 96.194C53.5099 96.5393 53.3419 97.0153 53.3419 97.622V101.5H52.1939Z" fill="#464C54"/>
<path d="M60.9612 101.5V91.63H64.9092C65.9172 91.63 66.7012 91.854 67.2612 92.302C67.8212 92.75 68.1012 93.3847 68.1012 94.206C68.1012 94.822 67.9192 95.3353 67.5552 95.746C67.2005 96.1567 66.7152 96.4273 66.0992 96.558V96.362C66.5658 96.418 66.9672 96.5533 67.3032 96.768C67.6392 96.9733 67.8958 97.2487 68.0732 97.594C68.2505 97.93 68.3392 98.3267 68.3392 98.784C68.3392 99.372 68.2085 99.8713 67.9472 100.282C67.6952 100.683 67.3265 100.987 66.8412 101.192C66.3558 101.397 65.7678 101.5 65.0772 101.5H60.9612ZM62.0812 100.576H64.9652C65.2638 100.576 65.5298 100.553 65.7632 100.506C66.0058 100.459 66.2158 100.389 66.3932 100.296C66.5705 100.193 66.7198 100.072 66.8412 99.932C66.9625 99.792 67.0512 99.624 67.1072 99.428C67.1725 99.232 67.2052 99.0127 67.2052 98.77C67.2052 98.518 67.1725 98.2987 67.1072 98.112C67.0512 97.916 66.9625 97.748 66.8412 97.608C66.7198 97.4587 66.5705 97.3373 66.3932 97.244C66.2158 97.1507 66.0058 97.0807 65.7632 97.034C65.5298 96.9873 65.2638 96.964 64.9652 96.964H62.0812V100.576ZM62.0812 96.04H64.7412C65.4692 96.04 66.0198 95.8907 66.3932 95.592C66.7758 95.2933 66.9672 94.864 66.9672 94.304C66.9672 93.7253 66.7758 93.2913 66.3932 93.002C66.0198 92.7033 65.4692 92.554 64.7412 92.554H62.0812V96.04ZM70.2681 101.5V94.696H71.3741V96.306H71.2341C71.3928 95.7553 71.6681 95.34 72.0601 95.06C72.4521 94.7707 72.9701 94.6027 73.6141 94.556L74.0201 94.514L74.1041 95.494L73.3901 95.578C72.7554 95.634 72.2654 95.8393 71.9201 96.194C71.5841 96.5393 71.4161 97.0153 71.4161 97.622V101.5H70.2681ZM78.0316 101.626C77.369 101.626 76.795 101.481 76.3096 101.192C75.8243 100.903 75.4463 100.497 75.1756 99.974C74.9143 99.442 74.7836 98.8167 74.7836 98.098C74.7836 97.3793 74.9143 96.7587 75.1756 96.236C75.4463 95.704 75.8243 95.2933 76.3096 95.004C76.795 94.7147 77.369 94.57 78.0316 94.57C78.6943 94.57 79.2683 94.7147 79.7536 95.004C80.239 95.2933 80.6123 95.704 80.8736 96.236C81.1443 96.7587 81.2796 97.3793 81.2796 98.098C81.2796 98.8167 81.1443 99.442 80.8736 99.974C80.6123 100.497 80.239 100.903 79.7536 101.192C79.2683 101.481 78.6943 101.626 78.0316 101.626ZM78.0316 100.716C78.6756 100.716 79.1843 100.492 79.5576 100.044C79.9403 99.5867 80.1316 98.9333 80.1316 98.084C80.1316 97.244 79.9403 96.6 79.5576 96.152C79.1843 95.704 78.6756 95.48 78.0316 95.48C77.397 95.48 76.8883 95.704 76.5056 96.152C76.123 96.6 75.9316 97.244 75.9316 98.084C75.9316 98.9333 76.123 99.5867 76.5056 100.044C76.8883 100.492 77.397 100.716 78.0316 100.716ZM84.6932 101.5L82.1592 94.696H83.3492L85.4352 100.66H85.0992L87.2552 94.696H88.2212L90.3352 100.66H90.0132L92.1272 94.696H93.2612L90.7132 101.5H89.6352L87.4092 95.382H88.0112L85.7852 101.5H84.6932ZM96.818 101.626C96.4633 101.626 96.118 101.589 95.782 101.514C95.4553 101.449 95.1473 101.355 94.858 101.234C94.578 101.103 94.3353 100.949 94.13 100.772L94.494 99.974C94.718 100.151 94.9607 100.301 95.222 100.422C95.4833 100.534 95.7493 100.618 96.02 100.674C96.2907 100.73 96.566 100.758 96.846 100.758C97.378 100.758 97.7793 100.66 98.05 100.464C98.3207 100.268 98.456 100.002 98.456 99.666C98.456 99.4047 98.3673 99.1993 98.19 99.05C98.0127 98.8913 97.7327 98.77 97.35 98.686L96.076 98.406C95.488 98.2847 95.0493 98.0747 94.76 97.776C94.48 97.4773 94.34 97.09 94.34 96.614C94.34 96.194 94.4473 95.8347 94.662 95.536C94.886 95.228 95.1987 94.99 95.6 94.822C96.0013 94.654 96.468 94.57 97 94.57C97.3173 94.57 97.6207 94.6027 97.91 94.668C98.1993 94.7333 98.47 94.8313 98.722 94.962C98.9833 95.0833 99.2073 95.2373 99.394 95.424L99.016 96.222C98.8387 96.054 98.638 95.914 98.414 95.802C98.19 95.6807 97.9567 95.592 97.714 95.536C97.4807 95.4707 97.2427 95.438 97 95.438C96.4773 95.438 96.0807 95.5407 95.81 95.746C95.5393 95.9513 95.404 96.222 95.404 96.558C95.404 96.8193 95.488 97.034 95.656 97.202C95.824 97.37 96.0853 97.4913 96.44 97.566L97.714 97.832C98.3207 97.9627 98.7733 98.1727 99.072 98.462C99.38 98.742 99.534 99.1247 99.534 99.61C99.534 100.021 99.422 100.38 99.198 100.688C98.974 100.987 98.6567 101.22 98.246 101.388C97.8447 101.547 97.3687 101.626 96.818 101.626ZM104.328 101.626C103.61 101.626 102.989 101.486 102.466 101.206C101.953 100.917 101.552 100.511 101.262 99.988C100.982 99.4653 100.842 98.84 100.842 98.112C100.842 97.4027 100.982 96.7867 101.262 96.264C101.542 95.732 101.925 95.3167 102.41 95.018C102.905 94.7193 103.474 94.57 104.118 94.57C104.734 94.57 105.262 94.7053 105.7 94.976C106.139 95.2467 106.475 95.6293 106.708 96.124C106.951 96.6187 107.072 97.2113 107.072 97.902V98.336H101.71V97.594H106.316L106.092 97.776C106.092 97.0293 105.924 96.4507 105.588 96.04C105.262 95.62 104.781 95.41 104.146 95.41C103.67 95.41 103.264 95.522 102.928 95.746C102.602 95.9607 102.354 96.264 102.186 96.656C102.018 97.0387 101.934 97.4867 101.934 98V98.084C101.934 98.6533 102.023 99.134 102.2 99.526C102.387 99.918 102.662 100.217 103.026 100.422C103.39 100.618 103.824 100.716 104.328 100.716C104.73 100.716 105.117 100.655 105.49 100.534C105.873 100.403 106.232 100.193 106.568 99.904L106.96 100.702C106.652 100.982 106.26 101.206 105.784 101.374C105.308 101.542 104.823 101.626 104.328 101.626Z" fill="#2F5A76"/>
</svg>
