<svg width="22" height="22" viewBox="0 0 22 22" fill="none" xmlns="http://www.w3.org/2000/svg">
<path d="M1.83398 5.5L8.17092 9.09056C10.5071 10.4143 11.4942 10.4143 13.8304 9.09056L20.1673 5.5" stroke="#475467" stroke-width="1.5" stroke-linejoin="round"/>
<path d="M1.84844 12.3526C1.90836 15.1627 1.93833 16.5677 2.9752 17.6085C4.01206 18.6493 5.45512 18.6855 8.34125 18.758C10.12 18.8028 11.8813 18.8028 13.6601 18.758C16.5462 18.6855 17.9892 18.6493 19.0262 17.6085C20.063 16.5677 20.093 15.1627 20.1528 12.3526C20.1722 11.449 20.1722 10.5508 20.1528 9.64729C20.093 6.83721 20.063 5.43217 19.0262 4.39136C17.9892 3.35055 16.5462 3.31429 13.6601 3.24178C11.8813 3.19708 10.12 3.19708 8.34124 3.24177C5.45512 3.31427 4.01206 3.35053 2.97519 4.39135C1.93832 5.43216 1.90836 6.8372 1.84843 9.64729C1.82916 10.5508 1.82917 11.449 1.84844 12.3526Z" stroke="#475467" stroke-width="1.5" stroke-linejoin="round"/>
</svg>
