<svg width="20" height="20" viewBox="0 0 20 20" fill="none" xmlns="http://www.w3.org/2000/svg">
<path d="M17.6962 8.44836C16.6021 6.61586 14.1461 3.54175 10.0003 3.54175C5.85447 3.54175 3.39854 6.61586 2.30437 8.44836C1.73188 9.40503 1.73188 10.5943 2.30437 11.5518C3.39854 13.3843 5.85447 16.4584 10.0003 16.4584C14.1461 16.4584 16.6021 13.3843 17.6962 11.5518C18.2687 10.5943 18.2687 9.40586 17.6962 8.44836ZM16.6236 10.9101C15.6653 12.5151 13.5295 15.2084 10.0003 15.2084C6.47114 15.2084 4.33531 12.5159 3.37697 10.9101C3.04197 10.3484 3.04197 9.6509 3.37697 9.08923C4.33531 7.48423 6.47114 4.79093 10.0003 4.79093C13.5295 4.79093 15.6653 7.4834 16.6236 9.08923C16.9595 9.65173 16.9595 10.3484 16.6236 10.9101ZM10.0003 6.45841C8.04697 6.45841 6.45863 8.04758 6.45863 10.0001C6.45863 11.9526 8.04697 13.5417 10.0003 13.5417C11.9536 13.5417 13.542 11.9526 13.542 10.0001C13.542 8.04758 11.9536 6.45841 10.0003 6.45841ZM10.0003 12.2917C8.73614 12.2917 7.70863 11.2642 7.70863 10.0001C7.70863 8.73592 8.73614 7.70842 10.0003 7.70842C11.2645 7.70842 12.292 8.73592 12.292 10.0001C12.292 11.2642 11.2645 12.2917 10.0003 12.2917Z" fill="#4A4A52"/>
</svg>
