<svg width="94" height="96" viewBox="0 0 94 96" fill="none" xmlns="http://www.w3.org/2000/svg">
<g opacity="0.72">
<path d="M25.397 63.49L2.96 83.9409C0.447051 86.1794 0.33467 90.0709 2.71447 92.4507C5.09427 94.8305 8.98568 94.7181 11.2242 92.205L30.511 68.6038L25.397 63.49Z" stroke="#979797" stroke-width="2" stroke-miterlimit="10" stroke-linejoin="round"/>
<path d="M29.381 55.0867L23.187 61.2806L32.7198 70.8134L38.9138 64.6194" stroke="#979797" stroke-width="2" stroke-miterlimit="10" stroke-linejoin="round"/>
<path d="M79.495 63.2651C80.6641 62.3592 81.7748 61.3802 82.8204 60.3341C96.3939 46.7605 96.3939 24.7536 82.8204 11.1802C69.2468 -2.39336 47.2397 -2.39336 33.6663 11.1802C20.0926 24.7536 20.0926 46.7605 33.6663 60.3341C44.3549 71.0229 60.2736 73.2943 73.1852 67.1491" stroke="#979797" stroke-width="2" stroke-miterlimit="10" stroke-linecap="round" stroke-linejoin="round"/>
<path d="M9.23602 78.8694L16.2163 85.8496" stroke="#979797" stroke-width="2" stroke-miterlimit="10" stroke-linejoin="round"/>
<path d="M30.5647 28.6722C33.716 16.3237 44.9135 7.19297 58.2434 7.19297C74.0192 7.19297 86.8078 19.9816 86.8078 35.7572C86.8078 51.5328 74.0192 64.3214 58.2434 64.3214C42.4677 64.3214 29.6792 51.5328 29.6792 35.7572" stroke="#979797" stroke-width="2" stroke-miterlimit="10" stroke-linecap="round" stroke-linejoin="round"/>
<path d="M38.4873 45.3936H78" stroke="#979797" stroke-width="2" stroke-miterlimit="10" stroke-linecap="round" stroke-linejoin="round"/>
<path d="M42.6342 45.0374C42.6342 36.4166 49.623 29.4281 58.2438 29.4281C66.8644 29.4281 73.8532 36.4166 73.8532 45.0374" stroke="#979797" stroke-width="2" stroke-miterlimit="10" stroke-linecap="round" stroke-linejoin="round"/>
<path d="M62.0911 25.5804C62.0911 27.7055 60.3682 29.4283 58.2431 29.4283C56.118 29.4283 54.3951 27.7055 54.3951 25.5804C54.3951 23.4552 56.118 21.7324 58.2431 21.7324C60.3682 21.7324 62.0911 23.4552 62.0911 25.5804Z" stroke="#979797" stroke-width="2" stroke-miterlimit="10" stroke-linecap="round" stroke-linejoin="round"/>
</g>
</svg>
