<svg width="32" height="32" viewBox="0 0 32 32" fill="none" xmlns="http://www.w3.org/2000/svg">
<path d="M27.488 23L26.975 25.225C26.9241 25.4454 26.8 25.6421 26.6229 25.7828C26.4458 25.9236 26.2263 26.0001 26 26H6.00005C5.77383 26.0001 5.55425 25.9236 5.37716 25.7828C5.20007 25.6421 5.07594 25.4454 5.02505 25.225L4.51205 23H27.488ZM29.975 12.225L27.95 21H4.05005L2.02505 12.225C1.98175 12.0356 1.99452 11.8377 2.06178 11.6554C2.12905 11.4731 2.24791 11.3143 2.40387 11.1985C2.55982 11.0826 2.74613 11.0146 2.94007 11.0028C3.13401 10.991 3.32719 11.0359 3.49605 11.132L9.68505 14.669L15.167 6.44599C15.346 6.17799 15.642 6.01199 15.963 5.99999C16.1216 5.99343 16.2794 6.02507 16.4231 6.09225C16.5669 6.15942 16.6924 6.26017 16.789 6.38599L23.218 14.652L28.445 11.168C28.6119 11.0577 28.8079 10.9998 29.0079 11.0018C29.2079 11.0038 29.4027 11.0657 29.5673 11.1794C29.7319 11.293 29.8586 11.4534 29.9313 11.6397C30.004 11.8261 30.0192 12.0299 29.975 12.225Z" fill="white"/>
</svg>
