<svg width="68" height="68" viewBox="0 0 68 68" fill="none" xmlns="http://www.w3.org/2000/svg">
<g clip-path="url(#clip0_3840_692)">
<path d="M66.8891 33.7781C66.8891 15.614 52.1643 0.88916 34.0002 0.88916C15.8362 0.88916 1.11133 15.614 1.11133 33.7781C1.11133 51.9421 15.8362 66.667 34.0002 66.667C52.1643 66.667 66.8891 51.9421 66.8891 33.7781Z" stroke="#2F5A76" stroke-opacity="0.1" stroke-width="1.77778"/>
<path d="M66 33.7778C66 16.1047 51.6731 1.77783 34 1.77783C16.3269 1.77783 2 16.1047 2 33.7778C2 51.4509 16.3269 65.7778 34 65.7778C51.6731 65.7778 66 51.4509 66 33.7778Z" fill="#2F5A76"/>
<path d="M34 15.7778C34.2713 25.6044 42.1735 33.5065 52 33.7778C42.1735 34.0492 34.2713 41.9513 34 51.7778C33.7287 41.9513 25.8265 34.0492 16 33.7778C25.8265 33.5065 33.7287 25.6044 34 15.7778Z" fill="white"/>
</g>
<defs>
<clipPath id="clip0_3840_692">
<rect width="68" height="68" fill="white"/>
</clipPath>
</defs>
</svg>
