<svg width="134" height="134" viewBox="0 0 134 134" fill="none" xmlns="http://www.w3.org/2000/svg">
<path d="M84.5359 62.211C90.1735 67.0527 88.9231 107.326 88.9231 107.326C74.5009 108.677 60.1463 108.746 45.8619 107.496C45.8619 107.496 44.2544 68.4104 48.3473 63.4358C52.534 58.3465 80.4237 58.6798 84.5359 62.211Z" fill="#00ECB3"/>
<path d="M99.1252 75.5469C99.1252 75.5469 113.183 97.6982 111.373 103.894C108.981 112.082 85.878 111.973 85.878 111.973L83.2393 101.611L95.884 98.2668L86.5265 83.6437L99.1252 75.5469Z" fill="#FFC8C8"/>
<path d="M85.9074 112.157C85.8897 112.157 85.8795 112.157 85.8773 112.157C85.7937 112.156 85.7208 112.099 85.7005 112.018L83.0623 101.657C83.0376 101.559 83.096 101.46 83.1931 101.434L95.5945 98.1541L86.3726 83.7427C86.3179 83.6575 86.3426 83.5438 86.4278 83.4892L99.026 75.3923C99.0672 75.3661 99.1171 75.357 99.1648 75.3677C99.2125 75.3784 99.2543 75.4073 99.2806 75.4486C99.8562 76.3561 113.362 97.7414 111.55 103.945C110.536 107.415 105.896 109.85 97.7583 111.185C91.962 112.136 86.3667 112.157 85.9074 112.157ZM83.4627 101.743L86.021 111.789C87.9608 111.778 108.968 111.474 111.197 103.842C112.885 98.0662 100.318 77.7942 99.0689 75.8013L86.7805 83.6993L96.0394 98.1686C96.071 98.2179 96.0769 98.2795 96.0555 98.3342C96.034 98.3889 95.9879 98.4302 95.9316 98.4452L83.4627 101.743Z" fill="black"/>
<path d="M79.7927 60.5322C79.7927 60.5322 86.7328 61.1561 91.8275 65.502C96.9216 69.8479 101.057 77.3926 101.057 77.3926C96.9549 81.3708 92.2916 84.4555 87.004 86.5432C87.004 86.5432 80.3126 75.5456 79.6565 70.9531C79.0005 66.3618 79.7927 60.5322 79.7927 60.5322Z" fill="#00ECB3"/>
<path d="M87.0036 86.7273C86.9415 86.7273 86.8809 86.6951 86.8466 86.6389C86.7951 86.5542 81.6608 78.0886 79.9692 72.9505C79.9375 72.854 79.9901 72.7506 80.086 72.7184C80.182 72.6862 80.2859 72.7393 80.3181 72.8352C81.8805 77.5815 86.4205 85.2168 87.0803 86.3146C92.1696 84.2826 96.8274 81.237 100.928 77.2599C101.001 77.1897 101.117 77.1913 101.188 77.2637C101.259 77.3366 101.256 77.4529 101.184 77.5231C97.0097 81.571 92.2618 84.6632 87.0706 86.7128C87.0492 86.723 87.0261 86.7273 87.0036 86.7273Z" fill="black"/>
<path d="M36.2945 76.7412C36.2945 76.7412 22.1361 97.9958 25.1559 104.89C28.6233 112.806 49.6232 111.946 49.6232 111.946L52.262 101.585L39.6172 98.2402L48.0619 82.8602L36.2945 76.7412Z" fill="#FFC8C8"/>
<path d="M47.8644 112.156C45.8405 112.156 42.3275 112.067 38.664 111.568C31.0538 110.531 26.4518 108.309 24.9863 104.964C21.9611 98.0575 35.56 77.511 36.1405 76.6395C36.1925 76.5617 36.2943 76.5349 36.3779 76.5784L48.1453 82.6973C48.1892 82.7204 48.2219 82.7595 48.2364 82.8072C48.2509 82.8544 48.2455 82.9053 48.2219 82.9487L39.8903 98.1229L52.3079 101.407C52.4054 101.433 52.4638 101.532 52.4386 101.63L49.8004 111.992C49.7806 112.071 49.7109 112.127 49.63 112.13C49.6118 112.13 48.9536 112.156 47.8644 112.156ZM36.356 76.9804C35.151 78.8188 22.503 98.3786 25.3229 104.816C28.5556 112.197 47.6656 111.82 49.4783 111.767L52.0377 101.716L39.5687 98.4177C39.5141 98.4032 39.469 98.3646 39.4471 98.3126C39.4251 98.2606 39.4278 98.2011 39.4546 98.1518L47.8087 82.9364L36.356 76.9804Z" fill="black"/>
<path d="M55.7094 60.5049C55.7094 60.5049 48.7693 61.1288 43.6746 65.4747C38.5805 69.8206 33.8154 79.691 33.8154 79.691C37.9174 83.6692 42.5903 85.5045 47.8779 87.5922C47.8779 87.5922 55.189 75.5182 55.845 70.9263C56.5011 66.3344 55.7094 60.5049 55.7094 60.5049Z" fill="#00ECB3"/>
<path d="M47.8782 87.7764C47.8557 87.7764 47.8326 87.7722 47.8107 87.7636L47.7431 87.7368C42.4072 85.6298 37.7987 83.81 33.6876 79.8233C33.6147 79.7525 33.6131 79.6362 33.6838 79.5639C33.7546 79.491 33.8709 79.4893 33.9433 79.5601C37.982 83.4766 42.5343 85.2856 47.8005 87.3648C48.3515 86.4429 51.6157 80.9371 53.5952 76.6909C53.6381 76.5992 53.7474 76.5596 53.8391 76.6019C53.9307 76.6448 53.9709 76.7541 53.928 76.8458C51.7637 81.4892 48.0722 87.6258 48.0352 87.6875C48.0015 87.7443 47.9409 87.7764 47.8782 87.7764ZM44.4408 110.589C43.2327 110.589 42.2861 111.628 42.3987 112.831C42.5295 114.228 43.8244 115.302 45.3783 115.302H89.5431C91.0969 115.302 92.3925 114.228 92.5227 112.831C92.6353 111.628 91.6887 110.589 90.4805 110.589H44.4408Z" fill="black"/>
<path d="M89.5434 115.486H45.3786C43.7165 115.486 42.3567 114.352 42.2157 112.849C42.1573 112.224 42.3663 111.6 42.7887 111.136C43.2111 110.673 43.813 110.406 44.4406 110.406H90.4804C91.1075 110.406 91.7099 110.672 92.1323 111.136C92.5547 111.599 92.7637 112.224 92.7053 112.848C92.5654 114.352 91.2056 115.486 89.5434 115.486ZM44.4406 110.773C43.9164 110.773 43.4131 110.996 43.0604 111.383C42.7072 111.771 42.533 112.292 42.5818 112.814C42.7024 114.107 43.9314 115.119 45.3786 115.119H89.5434C90.9912 115.119 92.2197 114.107 92.3403 112.814C92.3891 112.292 92.2148 111.771 91.8616 111.383C91.5084 110.996 91.0056 110.773 90.4814 110.773H44.4406Z" fill="black"/>
<path d="M87.3817 115.302H47.5387C46.1365 115.302 44.9686 114.228 44.8507 112.832L42.8809 89.4684C42.7479 87.8947 43.9898 86.5439 45.5689 86.5439H89.3515C90.9306 86.5439 92.1725 87.8947 92.0396 89.4684L90.0698 112.832C89.9524 114.228 88.7839 115.302 87.3817 115.302Z" fill="white"/>
<path d="M87.3822 115.486H47.5392C46.0539 115.486 44.7927 114.326 44.6684 112.846L42.6986 89.4832C42.631 88.6819 42.9044 87.8832 43.4484 87.2909C43.9925 86.6992 44.7654 86.3594 45.5694 86.3594H89.352C90.156 86.3594 90.9295 86.6992 91.4735 87.2909C92.0175 87.8827 92.2909 88.6819 92.2228 89.4826L90.253 112.846C90.1287 114.327 88.8675 115.486 87.3822 115.486ZM45.5694 86.7276C44.8576 86.7276 44.2005 87.0165 43.7186 87.5402C43.2367 88.0644 43.0046 88.7435 43.0641 89.4526L45.0339 112.816C45.1427 114.107 46.2431 115.118 47.5392 115.118H87.3822C88.6783 115.118 89.7787 114.107 89.8875 112.816L91.8573 89.4526C91.9173 88.7435 91.6847 88.0644 91.2034 87.5402C90.7215 87.016 90.0644 86.7276 89.352 86.7276H45.5694Z" fill="black"/>
<path d="M95.8849 98.4505C95.797 98.4505 95.7192 98.3872 95.7037 98.2972C95.6871 98.1969 95.7541 98.1026 95.8543 98.0854L99.095 97.5403C99.1963 97.5248 99.2895 97.5913 99.3067 97.691C99.3233 97.7912 99.2563 97.8855 99.1561 97.9027L95.9154 98.4478C95.9052 98.4494 95.8951 98.4505 95.8849 98.4505Z" fill="black"/>
<path d="M39.617 98.424C39.6026 98.424 39.5876 98.4224 39.5726 98.4186L37.4784 97.9009C37.3798 97.8767 37.3197 97.777 37.3444 97.6784C37.3685 97.5798 37.4677 97.5203 37.5668 97.5444L39.661 98.0622C39.7596 98.0863 39.8197 98.186 39.795 98.2846C39.7746 98.3683 39.6996 98.424 39.617 98.424Z" fill="black"/>
<path d="M72.6623 59.5829C72.6623 59.5829 64.1329 58.0955 61.1592 59.3519C59.7211 59.9597 56.6139 66.2035 58.7343 68.0967C61.4631 70.5334 67.5285 65.3508 67.5285 65.3508C67.5285 65.3508 73.2712 70.0992 76.3334 67.453C78.3621 65.6997 75.3771 61.3393 72.6623 59.5829Z" fill="#FEB6B6"/>
<path d="M60.5942 68.9348C59.855 68.9348 59.1711 68.7338 58.6115 68.2337C57.9201 67.6162 57.6821 66.5206 57.9238 65.0654C58.3419 62.5467 60.0608 59.6164 61.0873 59.1823C64.0766 57.9195 72.3433 59.3409 72.6933 59.4015C72.7174 59.4058 72.741 59.4149 72.7614 59.4283C74.7751 60.7313 77.0301 63.5501 77.1769 65.67C77.2332 66.481 76.9893 67.1274 76.4528 67.5916C73.5198 70.1258 68.3994 66.2773 67.53 65.588C66.8305 66.1663 63.3347 68.9342 60.5942 68.9348ZM64.8913 59.0316C63.4259 59.0316 62.0859 59.1592 61.2304 59.5205C60.4146 59.8651 58.701 62.6271 58.2862 65.1254C58.1329 66.049 58.1071 67.2909 58.8559 67.9593C61.4335 70.2619 67.3494 65.2616 67.4089 65.2107C67.4764 65.1528 67.5761 65.1517 67.6452 65.209C67.7015 65.2551 73.3038 69.8283 76.2132 67.3139C76.6581 66.9296 76.8591 66.3856 76.8114 65.6957C76.6726 63.6965 74.5253 61.0207 72.5941 59.7574C72.1691 59.6856 68.2091 59.0316 64.8913 59.0316Z" fill="black"/>
<path d="M72.0064 61.6478C72.0064 66.5838 62.1864 66.5838 62.1864 61.6478L61.4697 51.3389H72.7225L72.0064 61.6478Z" fill="#FFC8C8"/>
<path d="M67.0967 65.5336C65.7743 65.5336 64.5394 65.1937 63.6191 64.5768C62.5621 63.8682 62.0036 62.8557 62.0036 61.6476L61.2875 51.351C61.2843 51.3001 61.3019 51.2502 61.3363 51.2127C61.3711 51.1757 61.4199 51.1543 61.4708 51.1543H72.7236C72.7745 51.1543 72.8233 51.1752 72.8581 51.2127C72.893 51.2502 72.9106 51.3001 72.9069 51.351L72.1908 61.654C72.186 64.3195 69.5478 65.5336 67.0967 65.5336ZM61.667 51.522L62.3697 61.6347C62.3702 64.0649 64.8203 65.1659 67.0961 65.1659C69.3725 65.1659 71.8226 64.0649 71.8226 61.647C71.8226 61.6427 71.8226 61.6385 71.8231 61.6342L72.5258 51.5215H61.667V51.522Z" fill="black"/>
<path d="M67.2911 61.273C67.1678 61.2789 67.0434 61.2821 66.9191 61.2821C61.4353 61.2821 56.9902 55.4536 56.9902 49.2055C56.9902 42.9573 61.4358 38.6543 66.9191 38.6543C72.4024 38.6543 76.848 42.9568 76.848 49.2055C76.848 53.5042 74.7442 57.604 71.6455 59.7443" fill="#FFC8C8"/>
<path d="M66.9194 61.4656C64.2479 61.4656 61.7035 60.1289 59.7552 57.7018C57.8813 55.3681 56.8066 52.2711 56.8066 49.2052C56.8066 43.0851 61.1541 38.4707 66.9194 38.4707C72.6846 38.4707 77.0321 43.0857 77.0321 49.2052C77.0321 53.483 74.9588 57.6788 71.7503 59.8946C71.6667 59.9514 71.5525 59.9316 71.4946 59.848C71.4373 59.7644 71.4582 59.6502 71.5413 59.5923C74.6533 57.443 76.6644 53.3656 76.6644 49.2052C76.6644 43.2947 72.475 38.8379 66.9188 38.8379C61.3632 38.8379 57.1733 43.2952 57.1733 49.2052C57.1733 55.5407 61.7271 61.0985 66.9188 61.0985C67.0405 61.0985 67.1616 61.0953 67.2822 61.0899C67.3814 61.0851 67.4698 61.1633 67.4746 61.2646C67.4795 61.3659 67.4012 61.4522 67.2999 61.4571C67.174 61.4624 67.0469 61.4656 66.9194 61.4656Z" fill="black"/>
<path d="M57.6501 47.8659C57.4153 47.1166 56.8675 46.5307 56.2983 46.4214C55.4396 46.2558 54.6892 47.1927 54.5852 48.343C54.4813 49.4932 54.931 50.7421 55.5983 51.5938C56.2656 52.4455 57.1211 52.9445 57.9728 53.2366" fill="#FFC8C8"/>
<path d="M57.9726 53.4201C57.9527 53.4201 57.9324 53.4169 57.9131 53.41C56.892 53.0594 56.0644 52.4859 55.4539 51.7065C54.7035 50.7487 54.3005 49.4532 54.4023 48.326C54.472 47.5547 54.8091 46.8718 55.3044 46.4993C55.6206 46.2613 55.9754 46.1713 56.333 46.2404C56.9697 46.3632 57.5695 46.994 57.8257 47.8104C57.8563 47.9068 57.8021 48.0103 57.7057 48.0403C57.6081 48.0703 57.5057 48.0167 57.4757 47.9202C57.2624 47.2401 56.7644 46.6976 56.2638 46.6011C56.0135 46.5534 55.7573 46.6188 55.5257 46.793C55.1184 47.0996 54.8279 47.6999 54.7684 48.3592C54.6762 49.3814 55.0584 50.6067 55.7428 51.4804C56.3088 52.2029 57.0796 52.7351 58.0326 53.0626C58.1286 53.0953 58.1795 53.1998 58.1463 53.2958C58.12 53.3719 58.0487 53.4201 57.9726 53.4201Z" fill="black"/>
<path d="M76.0961 47.3747C76.3309 46.6254 76.8787 46.0395 77.4479 45.9302C78.3066 45.7646 79.057 46.7015 79.161 47.8517C79.2649 49.002 78.8152 50.2509 78.1479 51.1026C77.4806 51.9543 76.6251 52.4533 75.7734 52.7454" fill="#FFC8C8"/>
<path d="M75.7737 52.9289C75.6976 52.9289 75.6263 52.8812 75.6 52.8051C75.5668 52.7092 75.6177 52.6046 75.7136 52.5719C76.6667 52.2445 77.4374 51.7122 78.0034 50.9891C78.6879 50.1155 79.0706 48.8902 78.9779 47.868C78.9184 47.2087 78.6284 46.6084 78.2211 46.3018C77.99 46.1276 77.7349 46.0612 77.4824 46.1099C76.9824 46.2064 76.4839 46.7488 76.2711 47.429C76.2405 47.5255 76.1376 47.5796 76.0411 47.5491C75.9441 47.5185 75.8905 47.4156 75.9211 47.3191C76.1767 46.5028 76.7765 45.8719 77.4133 45.7492C77.7697 45.6801 78.1256 45.7701 78.4419 46.0081C78.9371 46.3806 79.2743 47.0635 79.344 47.8342C79.4458 48.9614 79.0427 50.257 78.2923 51.2148C77.6818 51.9941 76.8543 52.5677 75.8326 52.9182C75.8133 52.9257 75.7935 52.9289 75.7737 52.9289Z" fill="black"/>
<path d="M58.6394 47.4807C58.492 47.8125 58.1956 48.1593 57.8386 48.0923C57.5492 48.0376 57.382 47.7363 57.2839 47.4587C56.9189 46.4258 56.9708 45.2525 57.4248 44.2561C57.4951 44.1023 57.5776 43.9484 57.7078 43.8412C57.8381 43.734 58.0268 43.682 58.1801 43.7539C58.306 43.8128 58.3843 43.9399 58.4475 44.0637C58.9482 45.0435 59.0913 46.465 58.6394 47.4807Z" fill="black"/>
<path d="M76.9572 46.2709C76.4373 46.3153 76.1045 47.7191 75.5829 47.7143C75.2447 47.7111 75.0175 47.3777 74.8513 47.0824C74.0961 45.7381 73.3408 44.3943 72.5862 43.05C72.5031 42.9016 72.2506 42.2471 72.0812 42.2241C72.018 42.2155 71.6289 42.536 71.5474 42.5757C70.8463 42.9187 70.0707 43.1594 69.3412 43.4365C66.479 44.5235 62.3148 42.6352 59.3829 43.518C58.2492 43.8594 58.3227 47.0631 57.1601 46.8406C55.8013 46.5807 54.6629 45.5735 54.0052 44.3563C52.8506 42.2203 53.0913 39.5028 54.2646 37.377C55.4379 35.2512 57.4377 33.6727 59.6214 32.6114C61.3146 31.7887 63.1895 31.2398 65.0666 31.3872C66.9437 31.5346 68.8175 32.4571 69.8086 34.0581C71.2735 33.3693 73.2363 33.4578 74.7553 34.0158C76.2744 34.5737 77.5527 35.7588 78.2233 37.2323C78.9244 38.7722 78.9587 40.5491 78.6333 42.2096C78.308 43.8701 77.6165 44.7127 76.9572 46.2709Z" fill="black"/>
<path d="M70.7298 50.3938C71.204 50.3938 71.5884 49.9168 71.5884 49.3283C71.5884 48.7398 71.204 48.2627 70.7298 48.2627C70.2555 48.2627 69.8711 48.7398 69.8711 49.3283C69.8711 49.9168 70.2555 50.3938 70.7298 50.3938Z" fill="black"/>
<path d="M63.1516 50.3938C63.6259 50.3938 64.0103 49.9168 64.0103 49.3283C64.0103 48.7398 63.6259 48.2627 63.1516 48.2627C62.6774 48.2627 62.293 48.7398 62.293 49.3283C62.293 49.9168 62.6774 50.3938 63.1516 50.3938Z" fill="black"/>
<path d="M67.5272 54.9159C67.063 54.9159 66.6712 54.5461 66.511 54.1511C66.34 53.7292 66.3636 53.2715 66.385 52.8673L66.5721 49.2793C66.5774 49.178 66.6664 49.1009 66.765 49.1057C66.8663 49.111 66.944 49.1973 66.9387 49.2986L66.7516 52.8866C66.7323 53.2522 66.7109 53.667 66.8513 54.0133C66.9682 54.3022 67.2689 54.5863 67.5915 54.545C67.6923 54.5348 67.784 54.6034 67.7968 54.7042C67.8097 54.805 67.7384 54.8966 67.6376 54.9095C67.6006 54.9132 67.5637 54.9159 67.5272 54.9159Z" fill="black"/>
<path d="M68.4178 57.3892C68.0586 57.3892 67.6995 57.3275 67.3586 57.2042C67.2632 57.1694 67.2139 57.0643 67.2482 56.9689C67.283 56.8735 67.3881 56.8242 67.4835 56.8585C68.0736 57.0718 68.7249 57.0761 69.3177 56.8708C69.9105 56.6656 70.4192 56.2587 70.7504 55.7254C70.804 55.6391 70.9171 55.6129 71.0034 55.6665C71.0897 55.7201 71.116 55.8331 71.0624 55.9194C70.6867 56.5241 70.1099 56.985 69.4378 57.2182C69.1087 57.3318 68.7629 57.3892 68.4178 57.3892Z" fill="black"/>
<path d="M11.9996 38.2283C11.9996 41.671 14.7906 44.4599 18.2296 44.4599H35.5692L38.4996 44.5C38.9996 44.5 39.4996 44.5 39.9996 44.5L41.0294 44.4593H41.7401C43.4607 44.4593 45.0178 43.7614 46.1466 42.6364C47.2738 41.507 47.9717 39.9505 47.9717 38.2278C47.9717 34.7888 45.1807 32 41.7401 32H18.229C16.5085 32 14.9498 32.6979 13.8242 33.8229C12.6991 34.9528 11.9996 36.5115 11.9996 38.2283Z" fill="#9DFDC4"/>
<path d="M17.4866 41.026H22.5577C22.8268 41.026 23.0449 40.8079 23.0449 40.5388V35.4677C23.0449 35.1986 22.8268 34.9805 22.5577 34.9805H17.4866C17.2175 34.9805 16.9994 35.1986 16.9994 35.4677V40.5388C16.9994 40.8079 17.2175 41.026 17.4866 41.026Z" fill="white"/>
<path d="M19.4527 39.2658C19.4077 39.2658 19.3627 39.2491 19.3273 39.2159L18.0297 37.9992C17.9557 37.93 17.9519 37.8137 18.0216 37.7398C18.0908 37.6663 18.2071 37.662 18.281 37.7317L19.4484 38.8273L23.2219 35.0539C23.2937 34.982 23.41 34.982 23.4813 35.0539C23.5531 35.1257 23.5531 35.242 23.4813 35.3133L19.5824 39.2127C19.5465 39.2475 19.4999 39.2658 19.4527 39.2658Z" fill="black"/>
<path d="M25.1845 36.3677H39.7605C39.8618 36.3677 39.9443 36.2857 39.9443 36.1838C39.9443 36.0825 39.8623 36 39.7605 36H25.184C25.0827 36 25.0001 36.082 25.0001 36.1838C25.0007 36.2852 25.0827 36.3677 25.1845 36.3677Z" fill="black"/>
<path d="M25.1839 38.8716H32.3132C32.4145 38.8716 32.4971 38.7896 32.4971 38.6878C32.4971 38.5859 32.4151 38.5039 32.3132 38.5039H25.1834C25.082 38.5039 24.9995 38.5859 24.9995 38.6878C24.9995 38.7896 25.082 38.8716 25.1839 38.8716Z" fill="black"/>
<path d="M84 51.7479C84 53.4689 84.6984 55.026 85.8245 56.1554C86.9539 57.2815 88.511 57.9799 90.2321 57.9799H90.9417L92 58C92.5 58 93 58 93.5 58L96.4036 57.9799H113.743C117.182 57.9799 119.972 55.19 119.972 51.7484C119.972 50.0305 119.273 48.4729 118.147 47.3441C117.021 46.2179 115.463 45.5195 113.743 45.5195H90.2321C86.7899 45.519 84 48.3089 84 51.7479Z" fill="#91B6F4"/>
<path d="M94.3142 54.733H89.2431C88.974 54.733 88.7559 54.5149 88.7559 54.2458V49.1747C88.7559 48.9057 88.974 48.6875 89.2431 48.6875H94.3142C94.5833 48.6875 94.8014 48.9057 94.8014 49.1747V54.2458C94.8014 54.5149 94.5833 54.733 94.3142 54.733Z" fill="white"/>
<path d="M92.4494 52.7228C92.4043 52.7228 92.3593 52.7062 92.3234 52.6729L91.0258 51.4562C90.9518 51.3871 90.948 51.2708 91.0177 51.1968C91.0869 51.1234 91.2032 51.1191 91.2771 51.1888L92.4445 52.2843L96.218 48.5109C96.2898 48.4391 96.4061 48.4391 96.4774 48.5109C96.5492 48.5827 96.5492 48.699 96.4774 48.7703L92.5785 52.6692C92.5437 52.7051 92.4965 52.7228 92.4494 52.7228Z" fill="black"/>
<path d="M113.598 50.5122H99.0217C98.9204 50.5122 98.8379 50.4302 98.8379 50.3284C98.8379 50.2271 98.9199 50.1445 99.0217 50.1445H113.598C113.7 50.1445 113.782 50.2265 113.782 50.3284C113.782 50.4302 113.7 50.5122 113.598 50.5122Z" fill="black"/>
<path d="M106.152 53.0161H99.0217C98.9204 53.0161 98.8379 52.9341 98.8379 52.8323C98.8379 52.731 98.9199 52.6484 99.0217 52.6484H106.152C106.253 52.6484 106.335 52.7304 106.335 52.8323C106.335 52.9341 106.253 53.0161 106.152 53.0161Z" fill="black"/>
<path d="M23.3116 77.6565L22.335 74.9358L24.8681 74.0938L26.4252 76.8633L23.3116 77.6565Z" fill="#FF9652"/>
<path d="M105.636 76.9837L104.659 74.263L107.193 73.4209L108.75 76.1904L105.636 76.9837Z" fill="#F52729"/>
<path d="M77.7675 26.8016L77 24.6629L78.9918 24.001L80.2155 26.1782L77.7675 26.8016Z" fill="#B999F9"/>
<circle cx="67" cy="101" r="3" fill="#2F5A76"/>
</svg>
