<svg width="87" height="77" viewBox="0 0 87 77" fill="none" xmlns="http://www.w3.org/2000/svg">
<path d="M86.6924 51.4901C86.8818 58.5898 79.7821 65.4506 71.8757 70.1009C69.1077 71.7342 66.25 73.0884 63.5611 74.0939C54.9083 77.3298 47.6292 77.0814 42.2519 76.912C42.1723 76.902 42.1027 76.902 42.023 76.902C41.8537 76.892 41.6743 76.892 41.505 76.882C32.6026 76.5137 23.5911 74.5919 15.6652 70.4396C15.4563 70.3298 15.2469 70.2206 15.038 70.1009C8.20734 66.4466 1.38618 61.2286 0.748906 52.914C0.430269 48.8213 1.72486 44.6589 4.18428 41.3834C6.84311 37.8483 10.7264 35.8669 14.2314 33.3078C16.7008 31.5057 17.796 28.8964 18.9513 26.188C19.7579 24.3062 20.6342 22.444 21.6397 20.6514C22.1973 19.6755 22.775 18.7296 23.4122 17.8037C27.8631 11.3212 35.2319 6.57175 43.0385 5.45652C51.1738 4.30172 58.9408 8.0953 64.268 14.1995C67.4844 17.8739 69.6949 22.4145 70.6508 27.204C71.4373 31.1174 70.6307 36.0162 73.6778 39.0833C77.2129 42.6384 82.2911 41.5828 85.1688 46.0137C86.6027 48.2141 86.6628 50.5142 86.6924 51.4901Z" fill="#FC8019" fill-opacity="0.08"/>
<path d="M58.0461 37.2901C65.2729 31.0989 67.4211 19.7936 62.478 12.5187C59.6282 8.32473 55.2364 6.66824 53.0793 6.03149C52.1824 4.72582 49.9092 1.82221 46.0597 0.764479C39.3467 -1.07982 33.5205 4.2505 32.697 5.00383C24.9833 12.0613 22.0802 29.2978 32.6116 37.7185C39.4538 43.1891 50.6061 43.6645 58.0461 37.2901Z" fill="#002D53"/>
<path d="M48.784 27.0156H40.4994V37.2321H48.784V27.0156Z" fill="#FFB3AE"/>
<path d="M48.784 27.0156V31.9345C44.4127 32.2531 41.9132 31.6855 40.4994 30.8192V27.0156H48.784Z" fill="#FF7A72"/>
<path d="M56.9673 20.8806C56.1775 22.9839 54.2557 24.2078 52.6752 23.6138C51.0946 23.0203 50.4537 20.8341 51.2439 18.7308C52.0337 16.6275 53.9555 15.4036 55.536 15.9976C57.1166 16.5911 57.757 18.7772 56.9673 20.8806Z" fill="#FFB3AE"/>
<path d="M33.6466 20.8806C34.4363 22.9839 36.3582 24.2078 37.9387 23.6138C39.5192 23.0203 40.1602 20.8341 39.3699 18.7308C38.5802 16.6275 36.6584 15.4036 35.0778 15.9976C33.4973 16.5911 32.8569 18.7772 33.6466 20.8806Z" fill="#FFB3AE"/>
<path d="M53.0154 18.9295C54.348 22.5949 50.1424 29.913 44.762 29.913C40.2035 29.913 36.5085 24.9958 36.5085 18.9295C36.5085 12.3215 43.1393 7.14046 44.762 7.94602C45.4146 8.26994 44.8786 9.36828 45.4657 11.2537C46.8669 15.7511 51.8796 15.8059 53.0154 18.9295Z" fill="#FFB3AE"/>
<path d="M67.8975 65.9504H20.6242V56.7421C20.6242 43.688 31.2067 33.1055 44.2609 33.1055C57.315 33.1055 67.8975 43.688 67.8975 56.7421V65.9504Z" fill="#FC8019"/>
<path d="M84.4344 66.082H5.08899V70.1072H84.4344V66.082Z" fill="#D18C7E"/>
<path d="M18.7076 56.9496C18.4348 49.919 18.533 41.0536 20.8637 40.5524C20.9439 40.535 21.2224 40.4796 21.5025 40.6236C23.389 41.5959 21.2108 49.5117 18.7076 56.9496Z" fill="#72CB7C"/>
<path d="M18.7076 56.9457C15.2696 50.9185 13.612 49.8233 12.749 50.0913C12.4229 50.1926 12.1892 50.4954 12.1027 50.7771C11.5066 52.7233 17.1819 56.0716 18.7076 56.9457Z" fill="#72CB7C"/>
<path d="M18.7076 56.9525C18.7076 56.9525 21.9151 47.721 24.1323 48.2696C26.3496 48.8183 18.7076 56.9525 18.7076 56.9525Z" fill="#72CB7C"/>
<path d="M13.6743 65.9531H22.4516L23.2286 55.207H12.8972L13.6743 65.9531Z" fill="#4FC05F"/>
<path d="M62.3097 64.0928C62.3097 65.188 61.4134 66.0843 60.3182 66.0843H28.2039C27.1087 66.0843 26.2124 65.188 26.2124 64.0928V44.054C26.2124 42.9588 27.1087 42.0625 28.2039 42.0625H60.3182C61.4134 42.0625 62.3097 42.9588 62.3097 44.054V64.0928Z" fill="white"/>
<path d="M44.2608 57.5964C45.7998 57.5964 47.0473 56.3489 47.0473 54.8099C47.0473 53.271 45.7998 52.0234 44.2608 52.0234C42.7219 52.0234 41.4743 53.271 41.4743 54.8099C41.4743 56.3489 42.7219 57.5964 44.2608 57.5964Z" fill="#DFEAF7"/>
<path d="M71.8757 70.1016C69.1077 71.7348 66.25 73.0891 63.5611 74.0946C54.9083 77.3305 47.6292 77.082 42.2519 76.9127C42.1723 76.9027 42.1027 76.9027 42.023 76.9027C41.8537 76.8927 41.6743 76.8927 41.5049 76.8826C32.6026 76.5144 23.5911 74.5926 15.6652 70.4402C15.4563 70.3305 15.2469 70.2213 15.038 70.1016H71.8757Z" fill="#BC7F72"/>
</svg>
