<svg width="30" height="30" viewBox="0 0 30 30" fill="none" xmlns="http://www.w3.org/2000/svg">
<path d="M7.75308 7.6958C7.75308 8.25797 7.75308 8.78886 7.75308 9.31899C7.74948 9.452 7.75586 9.58509 7.77218 9.71715C7.78779 9.86056 7.85773 9.99257 7.96767 10.0862C8.07761 10.1798 8.21924 10.2278 8.36354 10.2206C8.67373 10.2206 8.92663 10.0253 8.94344 9.70953C8.9717 9.16872 8.96101 8.62562 8.96636 8.08329C8.96636 7.96963 8.96636 7.85446 8.96636 7.71945H15.3842C15.3842 7.96659 15.3842 8.21907 15.3842 8.47231C15.3842 8.872 15.3781 9.27246 15.3911 9.67139C15.3929 9.80591 15.4437 9.93518 15.5339 10.0351C15.6242 10.135 15.7477 10.1988 15.8816 10.2145C16.1971 10.2572 16.4599 10.1054 16.5486 9.81021C16.5802 9.69131 16.5951 9.5686 16.5929 9.4456C16.5974 8.87581 16.5929 8.30602 16.5929 7.70953C16.6991 7.70496 16.7907 7.69656 16.8824 7.69656C17.9398 7.69656 18.9978 7.69656 20.0562 7.69656C20.6048 7.69656 20.8905 7.97802 20.9386 8.52265C21.08 10.1138 21.232 11.7034 21.3787 13.293C21.4185 13.7263 21.4513 14.1595 21.4895 14.6149C18.5472 14.4319 16.1047 15.4136 14.3398 17.7743C12.5749 20.1351 12.338 22.7324 13.3465 25.5073H3.61359C2.55312 25.5073 1.91516 24.83 2.00913 23.785C2.21236 21.5127 2.42629 19.2411 2.63334 16.9696C2.81314 15.0011 2.99141 13.0322 3.16816 11.0627C3.24456 10.2236 3.32096 9.37772 3.39737 8.53562C3.45543 7.93913 3.72819 7.69656 4.32795 7.69656H7.75155L7.75308 7.6958Z" fill="#0B82EA"/>
<path d="M27.2029 22.4761C27.2031 23.7659 26.8202 25.0267 26.1028 26.0993C25.3854 27.1719 24.3657 28.0082 23.1724 28.5023C21.9791 28.9965 20.6659 29.1264 19.3986 28.8756C18.1314 28.6249 16.9671 28.0047 16.0528 27.0935C15.1385 26.1824 14.5153 25.021 14.2619 23.7563C14.0085 22.4916 14.1364 21.1803 14.6292 19.9881C15.1221 18.7959 15.9579 17.7763 17.031 17.0582C18.1041 16.3401 19.3664 15.9557 20.6583 15.9536C21.5174 15.9514 22.3685 16.1185 23.1627 16.4454C23.957 16.7723 24.6789 17.2524 25.2869 17.8584C25.8949 18.4644 26.3771 19.1842 26.7059 19.9766C27.0347 20.769 27.2036 21.6184 27.2029 22.4761ZM19.882 23.2191C19.4022 22.7797 18.9392 22.3564 18.477 21.9307C18.2783 21.7484 18.059 21.6256 17.7794 21.7019C17.6615 21.7259 17.5529 21.7827 17.466 21.8657C17.379 21.9487 17.3174 22.0545 17.2881 22.171C17.2513 22.3002 17.2529 22.4373 17.2927 22.5657C17.3324 22.6941 17.4086 22.8081 17.512 22.8941C18.1179 23.4448 18.7199 24.0001 19.3243 24.5531C19.7376 24.9345 20.057 24.9284 20.4665 24.5379C21.1561 23.8814 21.8455 23.2244 22.5347 22.5669C22.9755 22.1458 23.4202 21.7278 23.8526 21.2992C24.0956 21.0581 24.1346 20.7652 23.9917 20.4899C23.9295 20.3595 23.8245 20.2543 23.6941 20.1918C23.5637 20.1294 23.4158 20.1134 23.275 20.1466C23.1041 20.1994 22.9482 20.2923 22.8204 20.4174C21.844 21.3373 20.8768 22.2648 19.882 23.2191Z" fill="#0B82EA"/>
<path d="M16.5936 7.57749H15.359C15.359 6.92684 15.3727 6.29146 15.3536 5.65759C15.3551 5.28795 15.3139 4.91937 15.2306 4.55919C14.8073 2.99093 13.3045 2.04204 11.658 2.27087C10.1789 2.47606 9.00456 3.83532 8.98393 5.3746C8.97553 6.01151 8.98393 6.6492 8.98393 7.28611C8.98393 7.37917 8.97629 7.47146 8.97171 7.57978H7.78976C7.77448 7.56223 7.7508 7.54851 7.7508 7.53478C7.7699 6.45393 7.62626 5.36697 7.8929 4.29756C8.35132 2.47453 10.1514 0.874991 12.4962 1.00771C14.3917 1.1145 16.1459 2.63547 16.5188 4.59275C16.5648 4.84444 16.5886 5.09968 16.5898 5.35553C16.5997 6.08703 16.5936 6.81853 16.5936 7.57749Z" fill="#0B82EA"/>
</svg>
