<svg width="30" height="30" viewBox="0 0 30 30" fill="none" xmlns="http://www.w3.org/2000/svg">
<path d="M16.0654 28.7066C15.4544 28.4687 15.2566 27.9898 15.2032 27.3692C15.1085 26.2621 14.9812 25.1577 14.8213 24.0562C14.7607 23.6965 14.6283 23.3527 14.4318 23.0452C13.7918 22.0174 13.1136 21.0139 12.4461 20.0014C12.4121 19.9584 12.3759 19.9172 12.3376 19.8778C12.1085 20.8233 11.8756 21.7307 11.674 22.6456C11.4655 23.6195 11.1294 24.5616 10.6742 25.4477C10.2771 26.2102 9.91051 26.9948 9.52865 27.7687C9.19261 28.455 8.72062 28.6395 7.97599 28.506C6.95717 28.3246 6.74028 27.7009 7.15574 26.8728C7.57121 26.0448 7.88663 25.1542 8.30134 24.3208C8.80234 23.3227 8.98258 22.2713 8.99251 21.1741C9.02866 17.3256 9.06532 13.4779 9.10249 9.6309C9.10018 9.46216 9.1145 9.29361 9.14525 9.12767C9.23308 8.72203 9.48664 8.4849 9.89982 8.45135C10.4772 8.40332 11.0569 8.37892 11.6358 8.35071C12.411 8.31411 13.1869 8.28361 13.9621 8.24853C14.6433 8.21804 15.0405 8.54514 15.1428 9.21383C15.3582 10.6193 15.5764 12.0246 15.7973 13.4296C15.863 13.8489 15.989 13.9542 16.416 13.9633C17.4157 13.9793 18.4154 13.993 19.4144 14.0136C20.1017 14.0281 20.5844 14.6442 20.395 15.2595C20.3442 15.4363 20.2377 15.592 20.0914 15.7036C19.945 15.8152 19.7665 15.8769 19.5824 15.8794C18.2268 15.9358 16.8719 15.9854 15.5163 16.0372C15.4201 16.0411 15.3231 16.0372 15.1497 16.0372C15.1925 16.4856 15.1497 16.9324 15.2872 17.3144C15.8294 18.8279 16.4251 20.3224 17.0056 21.8222C17.3172 22.6281 17.4241 23.4722 17.5027 24.3239C17.5959 25.3341 17.7021 26.3429 17.8029 27.3524C17.8082 27.4058 17.8159 27.4584 17.8197 27.5118C17.8663 28.1934 17.7372 28.4176 17.1323 28.7089L16.0654 28.7066Z" fill="#13C900"/>
<path d="M20.0215 6.94629C20.8952 6.94629 21.7697 6.94629 22.6434 6.94629C23.3178 6.94629 23.6805 7.29093 23.7264 7.96038C23.8157 9.2566 23.9097 10.5528 23.996 11.849C24.041 12.5314 23.7118 12.8944 23.0314 12.8982C21.2656 12.9104 19.4996 12.9167 17.7334 12.9173C17.0727 12.9173 16.6978 12.5909 16.642 11.926C16.5442 10.7648 16.4732 9.60124 16.3907 8.43846C16.38 8.28596 16.3709 8.13347 16.3571 7.98631C16.2991 7.37633 16.6802 6.95086 17.2919 6.94934C18.2023 6.94553 19.1119 6.94934 20.0215 6.94934V6.94629Z" fill="#13C900"/>
<path d="M14.4387 3.99242C14.3233 4.51853 14.2745 5.021 14.1011 5.4762C13.6177 6.74268 12.2628 7.47008 10.8789 7.26345C9.61114 7.07359 8.54879 5.97639 8.40521 4.69771C8.27079 3.50367 8.69543 2.53304 9.68446 1.86282C10.6911 1.1804 11.7641 1.15524 12.8455 1.73091C12.9359 1.78426 13.0391 1.81219 13.1441 1.81173C13.9522 1.74159 14.7594 1.65924 15.5667 1.58299C15.6194 1.57765 15.6721 1.56698 15.7256 1.56316C16.419 1.50598 16.6733 1.83232 16.4389 2.47814C16.3579 2.70383 16.2752 2.92902 16.1907 3.15369C16.0165 3.61881 15.6759 3.85822 15.1841 3.90245C14.9107 3.92685 14.6388 3.96802 14.4387 3.99242Z" fill="#13C900"/>
</svg>
