<svg width="30" height="30" viewBox="0 0 30 30" fill="none" xmlns="http://www.w3.org/2000/svg">
<path d="M24.0088 16.4729C22.7009 16.4729 21.4275 16.4729 20.1594 16.4769C19.9288 16.4757 19.6989 16.5017 19.4744 16.5542C18.694 16.7473 18.3327 17.3312 18.1791 18.0553C17.9964 18.8804 18.0071 19.7365 18.2102 20.5569C18.4571 21.5302 19.0819 22.0156 20.084 22.0196C21.2899 22.0248 22.4958 22.0196 23.701 22.0196H23.9896C23.9962 22.0916 24.0081 22.1518 24.0081 22.2179C24.0081 22.9519 24.0121 23.6866 24.0081 24.4213C24.0057 24.9387 23.7988 25.4342 23.4325 25.8C23.0663 26.1658 22.5702 26.3724 22.0523 26.3746C16.3546 26.3777 10.6564 26.3777 4.95778 26.3746C4.43967 26.3729 3.94329 26.1664 3.57699 25.8003C3.21069 25.4342 3.00422 24.9382 3.00265 24.4206C2.99912 20.9715 2.99912 17.5221 3.00265 14.0725C3.00404 13.5549 3.21048 13.0589 3.57684 12.6928C3.94319 12.3268 4.43968 12.1206 4.95778 12.1192C10.656 12.1165 16.3541 12.1165 22.0523 12.1192C22.5703 12.1209 23.0665 12.3272 23.4329 12.6929C23.7993 13.0587 24.006 13.5544 24.0081 14.0719C24.0128 14.8627 24.0088 15.6536 24.0088 16.4729Z" fill="#FA7401"/>
<path d="M6.42969 11.3223L8.177 9.79148C9.88372 8.29703 11.5913 6.80302 13.2998 5.30946C13.8498 4.83004 14.5752 4.8717 14.9981 5.43311C15.1555 5.65103 15.2511 5.90736 15.2748 6.17505C15.3165 6.70009 15.294 7.23306 15.2808 7.7581C15.2757 7.80594 15.2601 7.85206 15.2351 7.89312C15.21 7.93418 15.1761 7.96916 15.1358 7.9955C12.9583 9.08922 10.7779 10.1777 8.59464 11.2608C8.53793 11.2938 8.47466 11.3138 8.40932 11.3196C7.77525 11.3236 7.14185 11.3223 6.42969 11.3223Z" fill="#FA7401"/>
<path d="M22.3933 21.2265H20.1642C19.3991 21.2265 19.0986 21.0004 18.9444 20.2525C18.8009 19.5642 18.8059 18.8532 18.9589 18.1669C19.1032 17.5142 19.4222 17.2676 20.0907 17.2676C21.6421 17.2676 23.1937 17.2676 24.7456 17.2676C25.4895 17.2676 25.9872 17.7642 25.9892 18.5048C25.9892 19.016 25.9892 19.5278 25.9892 20.0389C25.9909 20.1956 25.9612 20.351 25.9018 20.4961C25.8425 20.6411 25.7547 20.7728 25.6436 20.8834C25.5325 20.994 25.4004 21.0813 25.255 21.1401C25.1097 21.1989 24.954 21.2281 24.7972 21.2259C23.995 21.2292 23.1942 21.2265 22.3933 21.2265ZM21.247 17.6624C20.9332 17.6594 20.6256 17.7493 20.363 17.9208C20.1003 18.0923 19.8944 18.3377 19.7711 18.6259C19.6479 18.9142 19.6129 19.2325 19.6705 19.5407C19.7281 19.8488 19.8757 20.133 20.0948 20.3574C20.3139 20.5818 20.5946 20.7364 20.9015 20.8016C21.2084 20.8668 21.5277 20.8398 21.8193 20.7239C22.1108 20.608 22.3614 20.4084 22.5396 20.1503C22.7177 19.8923 22.8154 19.5873 22.8202 19.2738C22.8226 18.8526 22.6588 18.4473 22.3644 18.1457C22.07 17.8442 21.6686 17.6705 21.247 17.6624Z" fill="#FA7401"/>
<path d="M22.8253 10.5407L21.2368 9.35042C22.4679 8.63758 23.0093 7.60337 22.8253 6.17637C22.5347 6.17637 22.2554 6.19026 21.9788 6.1691C21.8715 6.16117 21.7233 6.09702 21.6803 6.0137C21.6372 5.93038 21.6677 5.76573 21.7286 5.68307C22.3146 4.87634 22.9082 4.07555 23.5097 3.28072C23.7843 2.91504 24.2159 2.90314 24.4919 3.26551C25.1052 4.07224 25.7092 4.88626 26.304 5.70754C26.3338 5.75284 26.3528 5.8043 26.3597 5.85803C26.3665 5.91176 26.3611 5.96636 26.3437 6.01767C26.304 6.09636 26.1683 6.16315 26.0697 6.17043C25.7917 6.19092 25.5118 6.1777 25.2186 6.1777C25.1438 8.03253 24.3608 9.48267 22.8253 10.5407Z" fill="#FA7401"/>
<path d="M18.8512 11.3131H10.2788C10.3893 11.2469 10.4476 11.2126 10.5098 11.1808C12.6853 10.0983 14.8629 9.02378 17.0285 7.92609C17.8426 7.51214 18.6699 7.96312 18.8267 8.65348C18.8391 8.69259 18.8471 8.73295 18.8506 8.77382C18.8519 9.61494 18.8512 10.4541 18.8512 11.3131Z" fill="#FA7401"/>
<path d="M20.4434 19.226C20.4471 19.0684 20.4978 18.9155 20.5888 18.7867C20.6799 18.658 20.8073 18.5592 20.9548 18.5031C21.1022 18.447 21.2631 18.4361 21.4168 18.4717C21.5705 18.5073 21.7102 18.5878 21.8179 18.7031C21.9256 18.8183 21.9965 18.9629 22.0216 19.1186C22.0467 19.2743 22.0248 19.4338 21.9587 19.577C21.8926 19.7202 21.7853 19.8404 21.6505 19.9224C21.5157 20.0044 21.3596 20.0445 21.2019 20.0374C21.0987 20.0342 20.9971 20.0107 20.903 19.9682C20.8089 19.9256 20.7241 19.8649 20.6536 19.7895C20.5831 19.714 20.5283 19.6254 20.4922 19.5287C20.4561 19.432 20.4395 19.3292 20.4434 19.226Z" fill="#FA7401"/>
</svg>
