<svg width="27" height="27" viewBox="0 0 27 27" fill="none" xmlns="http://www.w3.org/2000/svg">
<path d="M5.0254 13.483C5.02344 12.3723 5.24078 11.2722 5.66501 10.2455C6.08923 9.21872 6.71201 8.28554 7.49773 7.49928C8.28346 6.71302 9.21672 6.0891 10.2441 5.66319C11.2716 5.23728 12.373 5.01774 13.4855 5.01713C14.603 5.01381 15.7101 5.23121 16.743 5.65684C17.776 6.08246 18.7144 6.70788 19.5043 7.4971C20.2941 8.28631 20.9198 9.22373 21.3453 10.2554C21.7707 11.287 21.9876 12.3925 21.9833 13.5081C21.9833 18.1701 18.1819 21.9457 13.4902 21.9441C12.3778 21.9438 11.2764 21.7247 10.2489 21.2992C9.22135 20.8738 8.28787 20.2504 7.50176 19.4646C6.71566 18.6788 6.09235 17.7461 5.66744 16.7198C5.24254 15.6934 5.02437 14.5935 5.0254 13.483ZM14.448 12.5408C14.448 11.6199 14.448 10.7351 14.448 9.84163C14.448 9.22061 14.0548 8.78409 13.5091 8.78095C12.9633 8.77781 12.5654 9.21276 12.5654 9.83221C12.5654 11.0078 12.5654 12.1831 12.5654 13.3581C12.5654 14.031 12.9523 14.4212 13.6192 14.4235C14.5906 14.4267 15.5621 14.4267 16.5336 14.4235C17.158 14.4235 17.5803 14.038 17.5787 13.4814C17.5771 12.9248 17.154 12.5456 16.5273 12.5432C15.847 12.5369 15.17 12.5385 14.448 12.5385V12.5408Z" fill="#02C696"/>
<path d="M21.8512 21.5249C21.4202 21.5249 21.0601 21.5249 20.6999 21.5249C20.1014 21.5202 19.6776 21.1324 19.6673 20.5899C19.6571 20.0474 20.0605 19.6375 20.6684 19.632C21.8166 19.621 22.9647 19.621 24.1129 19.632C24.742 19.6391 25.1037 20.0246 25.1045 20.6574C25.1045 21.7838 25.1045 22.9104 25.1045 24.0373C25.1045 24.641 24.7239 25.0579 24.1734 25.0579C23.6096 25.0579 23.2242 24.6442 23.2227 24.0255C23.2227 23.6581 23.2227 23.2906 23.2227 22.8706C22.9215 23.147 22.6722 23.3872 22.4072 23.6173C20.3381 25.4301 17.9357 26.5638 15.2037 26.8511C10.2085 27.3764 6.05478 25.7041 2.88559 21.7934C0.973852 19.4381 0.0545513 16.6847 0.000289745 13.6479C-0.0115062 12.9916 0.337655 12.555 0.904649 12.5409C1.49445 12.526 1.87349 12.9468 1.89787 13.6047C2.06852 18.178 4.15248 21.6074 8.1867 23.7688C12.5819 26.1241 18.1284 25.2456 21.664 21.7322C21.7128 21.6851 21.7521 21.6333 21.8512 21.5249Z" fill="#02C696"/>
<path d="M5.16066 5.43548C5.59003 5.43548 5.94706 5.43548 6.31116 5.43548C6.90725 5.44019 7.33348 5.82804 7.3382 6.37369C7.34291 6.91934 6.94499 7.3221 6.33396 7.32838C5.19578 7.33833 4.05734 7.33833 2.91863 7.32838C2.26749 7.32289 1.90496 6.94132 1.90417 6.29675C1.90417 5.16985 1.90417 4.04322 1.90417 2.91685C1.90417 2.3131 2.28479 1.90249 2.8392 1.90092C3.39362 1.89935 3.78288 2.30996 3.78288 2.90743C3.78288 3.27015 3.78288 3.63287 3.78839 3.9948C3.78839 4.00972 3.80726 4.02385 3.81355 4.03328C4.29404 3.62266 4.75723 3.19085 5.25974 2.80536C7.24362 1.26363 9.62516 0.315894 12.1274 0.0723925C15.4088 -0.268804 18.7016 0.603893 21.3815 2.52504C24.0614 4.44618 25.9421 7.28223 26.6671 10.4955C26.8786 11.4227 26.9203 12.3916 26.9997 13.3447C27.0524 13.9688 26.6514 14.4062 26.0977 14.4195C25.5103 14.4328 25.121 14.0105 25.1108 13.351C25.0683 10.5756 24.1616 8.11271 22.3671 5.99841C20.4648 3.7577 18.0419 2.40024 15.122 2.0124C11.3567 1.51385 8.09628 2.61772 5.34625 5.23135C5.29906 5.27532 5.2566 5.32871 5.16066 5.43548Z" fill="#02C696"/>
</svg>
