<svg width="30" height="30" viewBox="0 0 30 30" fill="none" xmlns="http://www.w3.org/2000/svg">
<path d="M5.35834 14.9994C8.28617 15.769 10.9262 15.2268 13.0891 13.0692C15.252 10.9116 15.7907 8.29384 15.0172 5.33404C16.7126 4.98625 18.4632 5.00872 20.1491 5.39989C23.0349 6.06865 25.3905 7.57804 27.1954 9.91698C30.7733 14.5538 30.5438 21.0156 26.6617 25.5087C22.957 29.7975 16.5403 30.9349 11.5189 28.1786C6.15582 25.2393 4.37069 19.4095 5.35834 14.9994ZM18.4402 16.3608V15.9717C18.4402 14.4153 18.4402 12.858 18.4402 11.3015C18.4402 10.679 17.9862 10.2154 17.4123 10.2171C16.8384 10.2189 16.3921 10.6789 16.3904 11.3058C16.3852 13.3104 16.3852 15.3152 16.3904 17.3203C16.3904 17.9694 16.8281 18.4073 17.4774 18.409C19.4852 18.4152 21.4933 18.4152 23.5018 18.409C24.1288 18.409 24.5913 17.9668 24.5956 17.3913C24.5999 16.8158 24.1279 16.3651 23.4821 16.3651C22.0721 16.3651 20.6622 16.3651 19.2522 16.3651L18.4402 16.3608Z" fill="#EB7100"/>
<path d="M14.3337 7.6713C14.3337 11.3212 11.3493 14.3101 7.69853 14.3118C4.00063 14.3118 1 11.3537 1 7.70379C1 3.94097 3.9578 0.999145 7.73193 1C11.3716 1.00086 14.332 3.99571 14.3337 7.6713ZM8.69302 6.12598C8.69302 5.78391 8.70245 5.44184 8.69302 5.10489C8.69138 4.83582 8.58534 4.57784 8.39717 4.3852C8.209 4.19255 7.95335 4.08022 7.68396 4.07182C7.54746 4.07057 7.41208 4.09647 7.28572 4.14802C7.15935 4.19956 7.04453 4.27573 6.94796 4.37205C6.8514 4.46838 6.77502 4.58295 6.72329 4.70907C6.67155 4.83518 6.64549 4.97032 6.64663 5.10659C6.63207 5.7762 6.63378 6.44667 6.64663 7.11714C6.65691 7.71577 7.11176 8.16816 7.67454 8.16731C8.23732 8.16645 8.68103 7.71234 8.70245 7.11542C8.70073 6.78618 8.69302 6.45608 8.69302 6.12598ZM7.65484 11.24C7.8584 11.243 8.05829 11.1857 8.22915 11.0751C8.40001 10.9646 8.53415 10.8059 8.61456 10.6192C8.69497 10.4325 8.71803 10.2261 8.68081 10.0263C8.6436 9.82646 8.54778 9.64217 8.40551 9.49678C8.26325 9.35139 8.08095 9.25144 7.88172 9.20962C7.68249 9.1678 7.47531 9.18598 7.28645 9.26187C7.09758 9.33775 6.93555 9.46792 6.82088 9.63586C6.70621 9.80381 6.64407 10.002 6.64235 10.2052C6.64591 10.4744 6.75299 10.732 6.94145 10.9246C7.12991 11.1172 7.38532 11.2301 7.65484 11.24Z" fill="#EB7100"/>
</svg>
