<svg width="30" height="30" viewBox="0 0 30 30" fill="none" xmlns="http://www.w3.org/2000/svg">
<path d="M1.00378 20.1256C1.21305 19.6572 1.57115 19.4973 2.08337 19.498C7.70878 19.5101 13.3342 19.5126 18.9596 19.5056H19.3547C18.6476 20.5419 18.2215 21.6469 18.1127 22.8914H3.71297C2.30398 22.8914 1.39814 22.1877 1.04155 20.8203C1.03099 20.7934 1.01702 20.7681 1 20.7448L1.00378 20.1256Z" fill="#4226F0"/>
<path d="M25.8595 16.6698C25.1441 16.7082 24.4482 16.7128 23.76 16.792C22.8798 16.893 22.0752 17.2347 21.3167 17.6888C21.2081 17.758 21.0835 17.798 20.9548 17.8049C14.923 17.811 8.89138 17.8125 2.86002 17.8094C2.82225 17.8094 2.78448 17.8057 2.70893 17.8011C2.55254 13.8262 3.91772 10.5037 7.01524 7.97471C8.7901 6.52412 10.9589 5.63644 13.2429 5.42569C15.5269 5.21495 17.8218 5.69077 19.8329 6.79203C24.1612 9.1702 25.8988 13.529 25.8595 16.6698Z" fill="#4226F0"/>
<path d="M29.9527 23.4647C29.9511 24.47 29.6507 25.4522 29.0896 26.287C28.5285 27.1217 27.732 27.7715 26.8008 28.1541C25.8696 28.5366 24.8457 28.6348 23.8587 28.436C22.8716 28.2373 21.9658 27.7507 21.2559 27.0377C20.546 26.3248 20.0639 25.4176 19.8708 24.4309C19.6776 23.4443 19.782 22.4227 20.1707 21.4953C20.5594 20.568 21.215 19.7766 22.0544 19.2214C22.8939 18.6662 23.8795 18.3722 24.8864 18.3765C25.554 18.3774 26.2149 18.5098 26.8311 18.7662C27.4474 19.0226 28.0069 19.3979 28.4776 19.8706C28.9482 20.3433 29.3208 20.9041 29.574 21.5209C29.8271 22.1376 29.9558 22.7982 29.9527 23.4647ZM24.0153 22.6094C23.7252 22.6094 23.463 22.6034 23.2016 22.6094C22.7045 22.6222 22.3215 22.9926 22.32 23.4534C22.3185 23.9143 22.6977 24.2921 23.1979 24.3004C23.7443 24.31 24.2906 24.31 24.8365 24.3004C25.3465 24.2906 25.7023 23.9331 25.7114 23.4225C25.7215 22.8769 25.7215 22.3316 25.7114 21.7865C25.7134 21.5581 25.6247 21.3382 25.4647 21.1749C25.3047 21.0117 25.0865 20.9183 24.8577 20.9153C24.3953 20.9206 24.0266 21.303 24.0176 21.8008C24.01 22.0558 24.0153 22.31 24.0153 22.6094Z" fill="#4226F0"/>
<path d="M12.0808 3.88792C12.1979 2.77011 13.2692 1.95099 14.4697 2.00228C15.4518 2.04678 16.4619 2.96848 16.4816 3.87736C15.0242 3.63724 13.537 3.64081 12.0808 3.88792Z" fill="#4226F0"/>
</svg>
