<svg width="14" height="17" viewBox="0 0 14 17" fill="none" xmlns="http://www.w3.org/2000/svg">
<path fill-rule="evenodd" clip-rule="evenodd" d="M2.05051 2.04999C3.36333 0.73717 5.14389 -0.000366211 7.0005 -0.000366211C8.85711 -0.000366211 10.6377 0.73717 11.9505 2.04999C13.2633 3.36281 14.0009 5.14338 14.0009 6.99999C14.0009 8.8566 13.2633 10.6372 11.9505 11.95L7.0005 16.9L2.05051 11.95C1.40042 11.3 0.884739 10.5283 0.532912 9.67894C0.181084 8.82961 0 7.9193 0 6.99999C0 6.08068 0.181084 5.17037 0.532912 4.32104C0.884739 3.47172 1.40042 2.70001 2.05051 2.04999ZM7.0005 8.99999C7.53094 8.99999 8.03965 8.78928 8.41472 8.4142C8.78979 8.03913 9.00051 7.53042 9.00051 6.99999C9.00051 6.46956 8.78979 5.96085 8.41472 5.58578C8.03965 5.2107 7.53094 4.99999 7.0005 4.99999C6.47007 4.99999 5.96136 5.2107 5.58629 5.58578C5.21122 5.96085 5.0005 6.46956 5.0005 6.99999C5.0005 7.53042 5.21122 8.03913 5.58629 8.4142C5.96136 8.78928 6.47007 8.99999 7.0005 8.99999Z" fill="#525252"/>
</svg>
