<svg width="20" height="20" viewBox="0 0 20 20" fill="none" xmlns="http://www.w3.org/2000/svg">
<path d="M15 5.20833H14.7917V4.16667C14.7917 4.00083 14.7259 3.84164 14.6084 3.72498L12.9417 2.05831C12.8242 1.94081 12.6658 1.875 12.5 1.875H6.66667C5.8625 1.875 5.20833 2.52917 5.20833 3.33333V5.20833H5C2.985 5.20833 1.875 6.31833 1.875 8.33333V12.9167C1.875 13.9508 2.71667 14.7917 3.75 14.7917H5.20833V16.6667C5.20833 17.4708 5.8625 18.125 6.66667 18.125H13.3333C14.1375 18.125 14.7917 17.4708 14.7917 16.6667V14.7917H16.25C17.2833 14.7917 18.125 13.9508 18.125 12.9167V8.33333C18.125 6.31833 17.015 5.20833 15 5.20833ZM6.45833 3.33333C6.45833 3.21833 6.55167 3.125 6.66667 3.125H12.2408L13.5417 4.42586V5.20833H6.45833V3.33333ZM13.5417 16.6667C13.5417 16.7817 13.4483 16.875 13.3333 16.875H6.66667C6.55167 16.875 6.45833 16.7817 6.45833 16.6667V13.125H13.5417V16.6667ZM16.875 12.9167C16.875 13.2617 16.5942 13.5417 16.25 13.5417H14.7917V12.5C14.7917 12.155 14.5117 11.875 14.1667 11.875H5.83333C5.48833 11.875 5.20833 12.155 5.20833 12.5V13.5417H3.75C3.40583 13.5417 3.125 13.2617 3.125 12.9167V8.33333C3.125 7.01917 3.68583 6.45833 5 6.45833H15C16.3142 6.45833 16.875 7.01917 16.875 8.33333V12.9167ZM15 9.16667C15 9.62667 14.6267 10 14.1667 10C13.7067 10 13.3333 9.62667 13.3333 9.16667C13.3333 8.70667 13.7067 8.33333 14.1667 8.33333C14.6267 8.33333 15 8.70667 15 9.16667Z" fill="white"/>
</svg>
