<?xml version="1.0" encoding="UTF-8"?>
<svg xmlns="http://www.w3.org/2000/svg" version="1.1" width="300" height="300" viewBox="0 0 300 300"><rect x="0" y="0" width="300" height="300" fill="#ffffff"/><g transform="scale(10.345)"><g transform="translate(0,0)"><path fill-rule="evenodd" d="M8 0L8 1L10 1L10 0ZM14 0L14 1L13 1L13 2L11 2L11 4L10 4L10 3L9 3L9 2L8 2L8 5L9 5L9 6L8 6L8 7L9 7L9 8L8 8L8 9L7 9L7 8L6 8L6 9L4 9L4 8L0 8L0 10L1 10L1 11L0 11L0 12L1 12L1 13L2 13L2 12L3 12L3 13L4 13L4 14L5 14L5 15L7 15L7 16L6 16L6 17L3 17L3 16L4 16L4 15L3 15L3 14L1 14L1 16L0 16L0 17L1 17L1 16L2 16L2 17L3 17L3 18L4 18L4 19L3 19L3 20L1 20L1 21L4 21L4 20L5 20L5 21L7 21L7 20L5 20L5 18L6 18L6 19L8 19L8 20L10 20L10 21L12 21L12 22L11 22L11 23L14 23L14 22L15 22L15 21L16 21L16 23L15 23L15 24L14 24L14 26L13 26L13 24L12 24L12 25L11 25L11 26L10 26L10 22L9 22L9 21L8 21L8 22L9 22L9 25L8 25L8 29L9 29L9 26L10 26L10 27L11 27L11 28L10 28L10 29L11 29L11 28L12 28L12 29L13 29L13 28L12 28L12 26L13 26L13 27L14 27L14 29L16 29L16 28L17 28L17 27L18 27L18 28L20 28L20 29L22 29L22 26L19 26L19 25L18 25L18 24L20 24L20 25L24 25L24 26L25 26L25 25L26 25L26 26L27 26L27 24L29 24L29 23L28 23L28 22L29 22L29 21L27 21L27 18L28 18L28 15L29 15L29 13L27 13L27 12L26 12L26 11L28 11L28 12L29 12L29 11L28 11L28 10L29 10L29 8L28 8L28 10L26 10L26 11L25 11L25 13L27 13L27 14L24 14L24 12L23 12L23 13L22 13L22 12L20 12L20 11L24 11L24 10L25 10L25 9L27 9L27 8L24 8L24 10L23 10L23 9L22 9L22 8L21 8L21 6L20 6L20 5L21 5L21 4L20 4L20 3L21 3L21 2L20 2L20 3L19 3L19 2L18 2L18 3L17 3L17 6L16 6L16 7L15 7L15 5L16 5L16 4L13 4L13 5L12 5L12 3L14 3L14 2L15 2L15 3L16 3L16 2L17 2L17 1L16 1L16 2L15 2L15 0ZM19 0L19 1L21 1L21 0ZM18 3L18 6L17 6L17 7L16 7L16 8L15 8L15 9L13 9L13 7L14 7L14 5L13 5L13 7L12 7L12 5L10 5L10 6L9 6L9 7L10 7L10 8L9 8L9 9L10 9L10 10L9 10L9 11L8 11L8 12L7 12L7 11L6 11L6 10L7 10L7 9L6 9L6 10L3 10L3 9L1 9L1 10L3 10L3 11L4 11L4 12L5 12L5 14L7 14L7 13L8 13L8 14L9 14L9 15L8 15L8 17L6 17L6 18L8 18L8 19L10 19L10 20L12 20L12 19L10 19L10 16L9 16L9 15L10 15L10 13L11 13L11 11L14 11L14 10L15 10L15 12L12 12L12 14L11 14L11 16L12 16L12 17L11 17L11 18L12 18L12 17L14 17L14 18L13 18L13 20L14 20L14 21L15 21L15 17L16 17L16 18L17 18L17 19L19 19L19 21L17 21L17 22L18 22L18 23L17 23L17 24L16 24L16 25L17 25L17 24L18 24L18 23L19 23L19 21L20 21L20 19L21 19L21 20L22 20L22 18L24 18L24 19L23 19L23 20L26 20L26 19L25 19L25 18L26 18L26 17L27 17L27 15L24 15L24 14L23 14L23 15L22 15L22 14L20 14L20 15L19 15L19 16L18 16L18 15L17 15L17 16L15 16L15 15L16 15L16 14L15 14L15 12L16 12L16 13L17 13L17 14L19 14L19 13L20 13L20 12L18 12L18 11L20 11L20 10L21 10L21 9L20 9L20 10L18 10L18 9L17 9L17 7L18 7L18 6L19 6L19 8L20 8L20 6L19 6L19 3ZM10 6L10 7L11 7L11 8L12 8L12 7L11 7L11 6ZM16 9L16 11L18 11L18 10L17 10L17 9ZM1 11L1 12L2 12L2 11ZM5 11L5 12L6 12L6 13L7 13L7 12L6 12L6 11ZM9 12L9 13L10 13L10 12ZM17 12L17 13L18 13L18 12ZM13 13L13 14L12 14L12 16L14 16L14 15L15 15L15 14L14 14L14 13ZM13 14L13 15L14 15L14 14ZM2 15L2 16L3 16L3 15ZM21 15L21 16L22 16L22 15ZM23 15L23 17L25 17L25 16L24 16L24 15ZM8 17L8 18L9 18L9 17ZM17 17L17 18L18 18L18 17ZM0 18L0 19L1 19L1 18ZM21 21L21 24L24 24L24 21ZM22 22L22 23L23 23L23 22ZM26 22L26 24L27 24L27 22ZM28 25L28 27L27 27L27 29L28 29L28 27L29 27L29 25ZM14 26L14 27L17 27L17 26ZM18 26L18 27L19 27L19 26ZM23 28L23 29L24 29L24 28ZM25 28L25 29L26 29L26 28ZM0 0L0 7L7 7L7 0ZM1 1L1 6L6 6L6 1ZM2 2L2 5L5 5L5 2ZM22 0L22 7L29 7L29 0ZM23 1L23 6L28 6L28 1ZM24 2L24 5L27 5L27 2ZM0 22L0 29L7 29L7 22ZM1 23L1 28L6 28L6 23ZM2 24L2 27L5 27L5 24Z" fill="#000000"/></g></g></svg>
