<svg width="115" height="37" viewBox="0 0 115 37" fill="none" xmlns="http://www.w3.org/2000/svg">
<path d="M15.0051 16.169C16.854 13.8091 19.657 12.3955 22.643 12.3955C24.2151 12.3955 25.7674 12.7916 27.1662 13.547L22.7221 9.24908L22.7217 9.24873V3.56329H18.7862V5.44415L15.0051 1.78418L2.83398 13.5571C4.23317 12.7913 5.79049 12.3951 7.36726 12.3951C10.3482 12.3951 13.1513 13.8091 15.0051 16.169ZM15.0152 11.7219L13.9078 10.5756L15.0152 9.42922L16.1175 10.5756L15.0152 11.7219ZM17.571 9.06405L16.4636 10.2156L15.3613 9.06405L16.4636 7.91735L17.571 9.06405ZM14.9951 6.38528L16.0974 7.53163L14.9951 8.68322L13.8877 7.53163L14.9951 6.38528ZM13.542 7.89679L14.6443 9.0435L13.542 10.1951L12.4346 9.0435L13.542 7.89679Z" fill="#07AA83"/>
<path d="M26.6229 14.8243C26.514 14.7522 26.4054 14.6804 26.2918 14.6138C25.1399 13.9246 23.8794 13.5957 22.6384 13.5957C21.2195 13.5957 19.8256 14.0225 18.6292 14.8246C17.6749 15.4672 16.8443 16.3463 16.2365 17.4466C15.5494 18.6961 15.1835 21.138 15.0005 23.8164C14.8126 21.138 14.4467 18.6958 13.7598 17.4466C13.1517 16.3463 12.3261 15.4672 11.3672 14.8246C10.1758 14.0225 8.77692 13.5957 7.36299 13.5957C6.11726 13.5957 4.85646 13.9246 3.70454 14.6138C3.59096 14.6807 3.48207 14.7525 3.37351 14.8243C0.101043 17.0146 -0.981841 21.5181 0.975875 25.0704C2.19212 27.276 7.02694 30.4788 10.685 32.674C12.0098 31.3886 13.2904 30.1394 14.3187 29.1164C13.5032 28.3196 12.9001 27.7331 12.6428 27.4868C11.5552 26.4429 8.38624 26.6847 7.53588 25.8108C6.69054 24.9317 3.76888 21.1892 3.76888 21.1892L4.1495 20.7623L7.29364 24.0781C7.39248 24.1808 7.55062 24.1808 7.64444 24.0833C7.7483 23.9857 7.74831 23.8209 7.64947 23.7181L4.49058 20.3815L4.83669 19.9909C4.83669 19.9909 7.7138 22.6951 8.14903 23.0909C8.56919 23.4714 8.78194 23.2502 8.79668 23.2296C8.81143 23.2143 9.00911 22.9777 8.61375 22.5718C8.19862 22.1502 5.37579 19.379 5.37579 19.379L5.7219 18.9933L9.17262 22.0063C9.27648 22.0986 9.43463 22.0833 9.52342 21.97C9.61254 21.862 9.59779 21.6975 9.49393 21.6049L6.05796 18.6076L6.43858 18.1811C6.43858 18.1811 10.2599 20.9111 11.1695 21.7181C12.0792 22.5303 12.0939 25.831 13.1815 26.8798C13.4385 27.1317 14.0664 27.7279 14.9218 28.53C15.6928 27.769 16.2613 27.2035 16.4989 26.9617C17.1365 26.3192 17.3787 24.8645 17.6605 23.6355C17.6706 23.5739 17.6853 23.5174 17.695 23.4505C17.8284 22.8693 18.0857 22.2679 18.4713 21.6871C18.7136 21.317 19.0004 20.9571 19.3365 20.6177C20.0729 19.8773 20.9085 19.3686 21.7143 19.1216C22.1496 18.9829 22.5748 18.9212 22.9751 18.947C23.1976 18.9574 23.4151 18.9933 23.608 19.0602C23.791 19.1216 23.9542 19.2041 24.1123 19.3069C24.2209 19.3891 24.3251 19.4766 24.4189 19.5742C24.5127 19.677 24.5918 19.7846 24.6662 19.9034C24.76 20.0679 24.834 20.2425 24.8886 20.4379C24.9429 20.6386 24.9727 20.8648 24.9778 21.0961C24.9878 21.5125 24.9134 21.9547 24.7653 22.4021C24.4983 23.2296 23.9793 24.0833 23.2425 24.8234C22.9065 25.1624 22.5553 25.4505 22.1894 25.6819C21.6209 26.062 21.0278 26.3143 20.4689 26.4324C20.4046 26.4429 20.3453 26.453 20.291 26.4634C19.0996 26.7154 17.6957 26.9157 17.0531 27.5534C16.8158 27.7899 16.2721 28.345 15.5306 29.1008C16.6182 30.1238 17.9627 31.3785 19.3468 32.6534C23.0003 30.4583 27.8053 27.2708 29.0215 25.0704C30.9832 21.5181 29.9004 17.0146 26.6229 14.8243Z" fill="#07AA83"/>
<path d="M11.7568 33.2559C13.5169 34.2943 14.8665 35.0246 15.158 35.1786C15.158 35.1991 15.158 35.2148 15.158 35.2148C15.158 35.2148 15.1727 35.2096 15.1925 35.1991C15.2123 35.2093 15.2223 35.2148 15.2223 35.2148C15.2223 35.2148 15.2223 35.1991 15.2223 35.1786C15.5138 35.0246 16.8684 34.2894 18.6382 33.2507C17.3727 31.9859 16.1367 30.7674 15.1235 29.7754C14.1592 30.7625 12.9778 31.981 11.7568 33.2559Z" fill="#07AA83"/>
<path d="M40.048 27.297C39.076 27.297 38.203 27.108 37.429 26.73C36.655 26.352 36.052 25.839 35.62 25.191C35.188 24.543 34.972 23.814 34.972 23.004C34.972 22.032 35.224 21.267 35.728 20.709C36.232 20.133 37.051 19.728 38.185 19.494C39.319 19.242 40.822 19.116 42.694 19.116H44.125V21.222H42.721C42.019 21.222 41.425 21.249 40.939 21.303C40.471 21.357 40.084 21.456 39.778 21.6C39.472 21.726 39.247 21.888 39.103 22.086C38.977 22.284 38.914 22.536 38.914 22.842C38.914 23.346 39.085 23.76 39.427 24.084C39.787 24.408 40.3 24.57 40.966 24.57C41.488 24.57 41.947 24.453 42.343 24.219C42.757 23.967 43.081 23.634 43.315 23.22C43.549 22.788 43.666 22.302 43.666 21.762V18.657C43.666 17.865 43.486 17.307 43.126 16.983C42.766 16.641 42.154 16.47 41.29 16.47C40.57 16.47 39.805 16.587 38.995 16.821C38.203 17.037 37.411 17.37 36.619 17.82L35.512 15.093C35.98 14.769 36.547 14.49 37.213 14.256C37.897 14.004 38.608 13.815 39.346 13.689C40.084 13.545 40.786 13.473 41.452 13.473C42.838 13.473 43.972 13.68 44.854 14.094C45.754 14.49 46.429 15.111 46.879 15.957C47.329 16.785 47.554 17.856 47.554 19.17V27H43.747V24.327H43.936C43.828 24.939 43.594 25.47 43.234 25.92C42.892 26.352 42.451 26.694 41.911 26.946C41.371 27.18 40.75 27.297 40.048 27.297ZM51.4063 27V7.965H64.2583V11.232H55.5913V15.876H63.6643V19.143H55.5913V27H51.4063ZM72.8375 27.297C71.4155 27.297 70.1735 27.018 69.1115 26.46C68.0675 25.902 67.2575 25.101 66.6815 24.057C66.1055 23.013 65.8175 21.78 65.8175 20.358C65.8175 18.936 66.1055 17.712 66.6815 16.686C67.2575 15.66 68.0675 14.868 69.1115 14.31C70.1735 13.752 71.4155 13.473 72.8375 13.473C74.2595 13.473 75.4925 13.752 76.5365 14.31C77.5985 14.868 78.4175 15.669 78.9935 16.713C79.5875 17.739 79.8845 18.954 79.8845 20.358C79.8845 21.78 79.5875 23.013 78.9935 24.057C78.4175 25.101 77.5985 25.902 76.5365 26.46C75.4925 27.018 74.2595 27.297 72.8375 27.297ZM72.8375 24.246C73.7195 24.246 74.4305 23.931 74.9705 23.301C75.5105 22.653 75.7805 21.672 75.7805 20.358C75.7805 19.044 75.5105 18.081 74.9705 17.469C74.4305 16.839 73.7195 16.524 72.8375 16.524C71.9735 16.524 71.2715 16.839 70.7315 17.469C70.1915 18.081 69.9215 19.044 69.9215 20.358C69.9215 21.672 70.1915 22.653 70.7315 23.301C71.2715 23.931 71.9735 24.246 72.8375 24.246ZM89.1969 27.297C87.7749 27.297 86.5329 27.018 85.4709 26.46C84.4269 25.902 83.6169 25.101 83.0409 24.057C82.4649 23.013 82.1769 21.78 82.1769 20.358C82.1769 18.936 82.4649 17.712 83.0409 16.686C83.6169 15.66 84.4269 14.868 85.4709 14.31C86.5329 13.752 87.7749 13.473 89.1969 13.473C90.6189 13.473 91.8519 13.752 92.8959 14.31C93.9579 14.868 94.7769 15.669 95.3529 16.713C95.9469 17.739 96.2439 18.954 96.2439 20.358C96.2439 21.78 95.9469 23.013 95.3529 24.057C94.7769 25.101 93.9579 25.902 92.8959 26.46C91.8519 27.018 90.6189 27.297 89.1969 27.297ZM89.1969 24.246C90.0789 24.246 90.7899 23.931 91.3299 23.301C91.8699 22.653 92.1399 21.672 92.1399 20.358C92.1399 19.044 91.8699 18.081 91.3299 17.469C90.7899 16.839 90.0789 16.524 89.1969 16.524C88.3329 16.524 87.6309 16.839 87.0909 17.469C86.5509 18.081 86.2809 19.044 86.2809 20.358C86.2809 21.672 86.5509 22.653 87.0909 23.301C87.6309 23.931 88.3329 24.246 89.1969 24.246ZM104.341 27.297C103.189 27.297 102.172 27.018 101.29 26.46C100.426 25.902 99.7513 25.101 99.2653 24.057C98.7793 23.013 98.5363 21.78 98.5363 20.358C98.5363 18.936 98.7793 17.712 99.2653 16.686C99.7513 15.66 100.426 14.868 101.29 14.31C102.172 13.752 103.189 13.473 104.341 13.473C105.385 13.473 106.303 13.725 107.095 14.229C107.905 14.733 108.454 15.39 108.742 16.2H108.445V7.965H112.522V27H108.526V24.381H108.769C108.517 25.263 107.977 25.974 107.149 26.514C106.339 27.036 105.403 27.297 104.341 27.297ZM105.556 24.246C106.438 24.246 107.149 23.931 107.689 23.301C108.229 22.653 108.499 21.672 108.499 20.358C108.499 19.044 108.229 18.081 107.689 17.469C107.149 16.839 106.438 16.524 105.556 16.524C104.692 16.524 103.99 16.839 103.45 17.469C102.91 18.081 102.64 19.044 102.64 20.358C102.64 21.672 102.91 22.653 103.45 23.301C103.99 23.931 104.692 24.246 105.556 24.246Z" fill="#182A3C"/>
</svg>
