<svg width="24" height="24" viewBox="0 0 24 24" fill="none" xmlns="http://www.w3.org/2000/svg">
<path d="M11.6041 6.87958C12.3319 6.87997 13.0526 7.02457 13.7247 7.30508C14.3969 7.58559 15.0073 7.99652 15.5212 8.51434C16.0351 9.03216 16.4422 9.6467 16.7194 10.3228C16.9965 10.9989 17.1382 11.7232 17.1363 12.4544L11.6041 6.87958ZM11.6041 6.87958C8.54997 6.87539 6.06589 9.3618 6.06351 12.4226C6.06474 13.896 6.64584 15.3091 7.68007 16.3538C8.7143 17.3984 10.1178 17.9899 11.5844 17.9993L11.6041 6.87958ZM5.44961 12.4315V12.4316L5.4496 12.4328L5.44962 12.4343C5.46577 14.0618 6.12066 15.6172 7.27218 16.7625C8.42372 17.9078 9.97885 18.5504 11.5996 18.5504C13.2204 18.5504 14.7755 17.9078 15.927 16.7625C17.0786 15.6172 17.7335 14.0618 17.7496 12.4343L17.7496 12.4328C17.749 9.02999 14.9863 6.25039 11.6011 6.25039C8.21593 6.25039 5.45266 9.02812 5.44961 12.4315ZM16.9863 12.454V12.4541C16.9799 15.4232 14.5369 17.8632 11.5851 17.8493C10.1584 17.8401 8.79298 17.2647 7.78667 16.2482C6.78031 15.2317 6.21474 13.8566 6.21351 12.4226C6.2159 9.44434 8.63307 7.0255 11.6039 7.02958L11.604 7.02958C12.312 7.02996 13.013 7.17062 13.6669 7.44351C14.3208 7.7164 14.9148 8.11618 15.4147 8.62C15.9147 9.12381 16.3109 9.72178 16.5806 10.3797C16.8503 11.0376 16.9881 11.7425 16.9863 12.454Z" fill="#007DE9" stroke="#007DE9" stroke-width="0.3"/>
<path d="M1.50076 11.0712L1.49943 11.0799L1.49964 11.0887C1.51652 11.7953 2.04322 12.3529 2.80004 12.4798C3.48579 12.5968 4.20096 12.205 4.43906 11.541L4.43911 11.5408C4.84634 10.3999 5.24521 9.25618 5.63571 8.10975L5.63573 8.10976L5.63628 8.10803C5.74924 7.75559 5.70995 7.37599 5.52752 7.05083C5.34527 6.72598 5.03536 6.48228 4.66561 6.36943C4.29595 6.2566 3.89372 6.28278 3.54407 6.44277C3.19429 6.60282 2.92326 6.88496 2.79109 7.23101L2.79108 7.23101L2.79057 7.2324C2.45746 8.14505 2.14129 9.0627 1.82534 9.97968C1.7469 10.2073 1.66848 10.435 1.58981 10.6624L1.58965 10.6624L1.58806 10.668C1.55073 10.8007 1.52158 10.9353 1.50076 11.0712ZM4.36624 6.97979L4.36788 6.98011C4.72041 7.04609 4.972 7.333 4.97344 7.73342C4.96633 7.79071 4.95416 7.8474 4.93706 7.90293C4.91897 7.95519 4.90088 8.00745 4.8828 8.0597C4.50803 9.14256 4.13362 10.2244 3.75121 11.3045L3.75114 11.3044L3.75004 11.308C3.70569 11.4497 3.61206 11.5753 3.48202 11.6644C3.35188 11.7536 3.19302 11.8008 3.03002 11.7977L3.02751 11.7978C2.68372 11.8001 2.40164 11.628 2.31004 11.3467L2.31007 11.3467L2.30919 11.3442C2.2556 11.1932 2.24848 11.0316 2.28849 10.8772C2.67142 9.73285 3.07334 8.59142 3.47949 7.45518L3.4795 7.45519L3.48002 7.45366C3.53603 7.2886 3.65687 7.14714 3.821 7.05865C3.98527 6.97008 4.17989 6.94169 4.36624 6.97979Z" fill="#007DE9" stroke="#007DE9" stroke-width="0.2"/>
<path d="M21.6996 11.0365H21.7L21.6992 11.0274C21.6913 10.9414 21.6754 10.8561 21.6516 10.7727L21.6517 10.7727L21.6505 10.769C21.5178 10.3645 21.3791 9.96141 21.2384 9.5594C21.1777 9.38551 21.1172 9.21136 21.0566 9.0371C20.8508 8.44492 20.6446 7.85145 20.4271 7.26235L20.4271 7.2623C20.1509 6.51518 19.3368 6.13954 18.5601 6.36597C18.1843 6.47277 17.8669 6.71332 17.679 7.03784C17.4909 7.36268 17.4486 7.74417 17.5622 8.09854C17.6429 8.35412 17.7345 8.60743 17.8253 8.85844C17.8687 8.97843 17.9118 9.0979 17.9536 9.21683L17.9536 9.21686C18.0426 9.47021 18.1306 9.72414 18.2188 9.97825C18.3992 10.4982 18.5798 11.0189 18.7688 11.5367L18.7688 11.5368C19.0105 12.1961 19.7189 12.5945 20.404 12.4812L20.404 12.4812C21.1661 12.3549 21.6996 11.801 21.6996 11.0365ZM19.0217 7.00208L19.0217 7.00218L19.0263 7.00216C19.1859 7.00116 19.3408 7.04788 19.4682 7.13438C19.5955 7.22081 19.6878 7.34193 19.7333 7.47876L19.7333 7.47877L19.734 7.48096C20.1399 8.61403 20.5429 9.74854 20.9315 10.8867C20.9866 11.0617 20.966 11.2498 20.8732 11.4117C20.7799 11.5743 20.6204 11.6988 20.4268 11.7562C20.2331 11.8136 20.0227 11.7985 19.8413 11.7146C19.6602 11.6308 19.524 11.486 19.459 11.3132C19.0532 10.1873 18.6574 9.05889 18.2716 7.92797L18.2716 7.92796L18.2705 7.92503C18.2304 7.81859 18.2192 7.705 18.2375 7.59394C18.2559 7.48286 18.3034 7.37696 18.3766 7.28562C18.4499 7.19423 18.5469 7.12013 18.6594 7.07044C18.7721 7.02074 18.8965 6.99717 19.0217 7.00208Z" fill="#007DE9" stroke="#007DE9" stroke-width="0.2"/>
<path d="M9.69968 20.035L9.69953 20.035C9.67757 20.6035 9.41052 21.0537 8.87997 21.3219C8.35128 21.5891 7.79364 21.5584 7.29607 21.2156C6.76315 20.8488 6.23639 20.4755 5.71028 20.1027C5.48899 19.9459 5.26782 19.7891 5.04636 19.633L9.69968 20.035ZM9.69968 20.035L9.6996 20.0296M9.69968 20.035L9.6996 20.0296M9.6996 20.0296C9.69235 19.561 9.52837 19.1509 9.14028 18.8708L9.14027 18.8707C8.05369 18.0866 6.95281 17.3173 5.85252 16.5511M9.6996 20.0296L9.08175 18.9518C7.99583 18.1682 6.89547 17.3992 5.79511 16.633M5.79511 16.633L5.85279 16.5513C5.8527 16.5512 5.85261 16.5511 5.85252 16.5511M5.79511 16.633L5.85226 16.5509C5.85235 16.551 5.85244 16.551 5.85252 16.5511M5.79511 16.633C5.65918 16.537 5.50473 16.4685 5.34097 16.4317L5.85252 16.5511M5.85252 16.5511C5.7058 16.4475 5.53928 16.3738 5.3629 16.3342C5.1866 16.2945 5.00392 16.2897 4.82569 16.32C4.50301 16.3713 4.22572 16.4852 4.00761 16.6697C3.78876 16.8548 3.63525 17.1062 3.5533 17.4222C3.47134 17.7383 3.48357 18.0349 3.58761 18.3038C3.69143 18.5721 3.88387 18.8057 4.15083 19.0011L4.15084 19.0012C4.35179 19.1482 4.55726 19.2914 4.76175 19.4339C4.857 19.5003 4.95205 19.5666 5.04633 19.633L5.85252 16.5511ZM4.28165 17.5388L4.28196 17.538C4.39121 17.2354 4.66841 17.036 5.03809 16.9959C5.08858 17.0163 5.14218 17.0355 5.19348 17.054C5.22705 17.0661 5.25962 17.0778 5.28969 17.0892C5.37787 17.1227 5.45632 17.1577 5.52289 17.2037C6.56188 17.9253 7.59513 18.6532 8.62266 19.3876L8.62282 19.3877C9.00187 19.6575 9.06927 20.1157 8.81374 20.4595C8.55746 20.8043 8.08191 20.8831 7.69819 20.6153C6.65495 19.8853 5.61538 19.1512 4.57947 18.4132L4.57941 18.4131C4.26036 18.1861 4.16113 17.8634 4.28165 17.5388Z" fill="#007DE9" stroke="#007DE9" stroke-width="0.2"/>
<path d="M14.0724 18.8592L14.0726 18.859C15.1478 18.0878 16.227 17.3187 17.3202 16.569C18.0046 16.0991 18.9066 16.2662 19.3986 16.9099C19.6363 17.2177 19.7397 17.6047 19.6855 17.9868C19.6313 18.3689 19.4241 18.714 19.11 18.9476L14.0724 18.8592ZM14.0724 18.8592C13.6846 19.139 13.5073 19.5381 13.4999 19.9987M14.0724 18.8592L16.8862 20.5256C16.7873 20.5953 16.6884 20.6665 16.589 20.7379C16.3502 20.9096 16.109 21.0831 15.8606 21.2431L15.8605 21.2431C15.3618 21.5635 14.8288 21.5814 14.2992 21.3151L14.2986 21.3148C14.0534 21.1895 13.8485 21.0002 13.7073 20.7677C13.5661 20.5352 13.4942 20.2689 13.4999 19.9987M13.4999 19.9987C13.4999 19.9986 13.4999 19.9985 13.4999 19.9984L13.5999 20.0006L13.4999 19.999C13.4999 19.9989 13.4999 19.9988 13.4999 19.9987ZM18.5504 17.1206L18.5504 17.1207L18.5536 17.1224C18.823 17.2649 18.9431 17.4955 18.9631 17.7694C18.9487 18.041 18.8568 18.241 18.6579 18.3803L18.6573 18.3807C18.5826 18.4338 18.5079 18.4869 18.4332 18.54C17.4425 19.2441 16.453 19.9474 15.4539 20.6386C15.3698 20.6963 15.2747 20.7374 15.174 20.7595C15.0732 20.7817 14.9688 20.7843 14.867 20.7673C14.7651 20.7503 14.6678 20.714 14.5806 20.6606C14.4934 20.6072 14.4182 20.5378 14.359 20.4565C14.2997 20.3751 14.2577 20.2834 14.2352 20.1866C14.2126 20.0898 14.2099 19.9897 14.2272 19.8919C14.2445 19.7941 14.2815 19.7005 14.3363 19.6163C14.391 19.5321 14.4624 19.459 14.5465 19.4013L14.5465 19.4013L14.5479 19.4003C15.6 18.6522 16.6545 17.9088 17.7112 17.1701L17.7112 17.1701L17.7136 17.1683C17.8319 17.0804 17.9749 17.0286 18.1243 17.0201C18.2737 17.0116 18.4221 17.0467 18.5504 17.1206Z" fill="#007DE9" stroke="#007DE9" stroke-width="0.2"/>
<path d="M9.85358 5.49659L9.85404 5.4966C10.2412 5.50195 10.6288 5.50016 11.0155 5.49838C11.2083 5.49749 11.4009 5.49661 11.5931 5.49661C11.7913 5.49661 11.9899 5.49755 12.1888 5.49849C12.5694 5.5003 12.9508 5.50211 13.3314 5.49733L13.3319 5.49732C14.1194 5.48378 14.6996 4.76547 14.6996 3.89972V3.89965C14.699 3.02085 14.1019 2.30065 13.3075 2.30065H13.3008H13.2941H13.2874H13.2807H13.274H13.2673H13.2606H13.2539H13.2472H13.2405H13.2338H13.2272H13.2205H13.2138H13.2071H13.2004H13.1937H13.187H13.1803H13.1736H13.1669H13.1602H13.1535H13.1468H13.1401H13.1334H13.1267H13.12H13.1133H13.1066H13.0999H13.0932H13.0865H13.0798H13.0731H13.0664H13.0597H13.053H13.0463H13.0396H13.0329H13.0262H13.0195H13.0128H13.0062H12.9995H12.9928H12.9861H12.9794H12.9727H12.966H12.9593H12.9526H12.9459H12.9392H12.9325H12.9258H12.9191H12.9124H12.9057H12.899H12.8923H12.8856H12.8789H12.8722H12.8655H12.8588H12.8521H12.8454H12.8387H12.832H12.8253H12.8186H12.8119H12.8052H12.7985H12.7918H12.7851H12.7785H12.7718H12.7651H12.7584H12.7517H12.745H12.7383H12.7316H12.7249H12.7182H12.7115H12.7048H12.6981H12.6914H12.6847H12.678H12.6713H12.6646H12.6579H12.6512H12.6445H12.6378H12.6311H12.6244H12.6177H12.611H12.6043H12.5976H12.5909H12.5842H12.5775H12.5708H12.5641H12.5575H12.5508H12.5441H12.5374H12.5307H12.524H12.5173H12.5106H12.5039H12.4972H12.4905H12.4838H12.4771H12.4704H12.4637H12.457H12.4503H12.4436H12.4369H12.4302H12.4235H12.4168H12.4101H12.4034H12.3967H12.39H12.3833H12.3766H12.3699H12.3632H12.3565H12.3498H12.3431H12.3364H12.3298H12.3231H12.3164H12.3097H12.303H12.2963H12.2896H12.2829H12.2762H12.2695H12.2628H12.2561H12.2494H12.2427H12.236H12.2293H12.2226H12.2159H12.2092H12.2025H12.1958H12.1891H12.1824H12.1757H12.169H12.1623H12.1556H12.1489H12.1422H12.1355H12.1288H12.1221H12.1154H12.1088H12.1021H12.0954H12.0887H12.082H12.0753H12.0686H12.0619H12.0552H12.0485H12.0418H12.0351H12.0284H12.0217H12.015H12.0083H12.0016H11.9949H11.9882H11.9815H11.9748H11.9681H11.9614H11.9547H11.948H11.9413H11.9346H11.9279H11.9212H11.9145H11.9078H11.9011H11.8944H11.8878H11.8811H11.8744H11.8677H11.861H11.8543H11.8476H11.8409H11.8342H11.8275H11.8208H11.8141H11.8074H11.8007H11.794H11.7873H11.7806H11.7739H11.7672H11.7605H11.7538H11.7471H11.7404H11.7337H11.727H11.7203H11.7136H11.7069H11.7002H11.6935H11.6868H11.6801H11.6734H11.6667H11.6601H11.6534H11.6467H11.64H11.6333H11.6266H11.6199H11.6132H11.6065H11.5998H11.5931H11.5864H11.5797H11.573H11.5663H11.5596H11.5529H11.5462H11.5395H11.5328H11.5261H11.5194H11.5127H11.506H11.4993H11.4926H11.4859H11.4792H11.4725H11.4658H11.4591H11.4524H11.4457H11.4391H11.4324H11.4257H11.419H11.4123H11.4056H11.3989H11.3922H11.3855H11.3788H11.3721H11.3654H11.3587H11.352H11.3453H11.3386H11.3319H11.3252H11.3185H11.3118H11.3051H11.2984H11.2917H11.285H11.2783H11.2716H11.2649H11.2582H11.2515H11.2448H11.2381H11.2314H11.2247H11.218H11.2114H11.2047H11.198H11.1913H11.1846H11.1779H11.1712H11.1645H11.1578H11.1511H11.1444H11.1377H11.131H11.1243H11.1176H11.1109H11.1042H11.0975H11.0908H11.0841H11.0774H11.0707H11.064H11.0573H11.0506H11.0439H11.0372H11.0305H11.0238H11.0171H11.0104H11.0037H10.997H10.9904H10.9837H10.977H10.9703H10.9636H10.9569H10.9502H10.9435H10.9368H10.9301H10.9234H10.9167H10.91H10.9033H10.8966H10.8899H10.8832H10.8765H10.8698H10.8631H10.8564H10.8497H10.843H10.8363H10.8296H10.8229H10.8162H10.8095H10.8028H10.7961H10.7894H10.7827H10.776H10.7693H10.7627H10.756H10.7493H10.7426H10.7359H10.7292H10.7225H10.7158H10.7091H10.7024H10.6957H10.689H10.6823H10.6756H10.6689H10.6622H10.6555H10.6488H10.6421H10.6354H10.6287H10.622H10.6153H10.6086H10.6019H10.5952H10.5885H10.5818H10.5751H10.5684H10.5617H10.555H10.5483H10.5417H10.535H10.5283H10.5216H10.5149H10.5082H10.5015H10.4948H10.4881H10.4814H10.4747H10.468H10.4613H10.4546H10.4479H10.4412H10.4345H10.4278H10.4211H10.4144H10.4077H10.401H10.3943H10.3876H10.3809H10.3742H10.3675H10.3608H10.3541H10.3474H10.3407H10.334H10.3273H10.3206H10.314H10.3073H10.3006H10.2939H10.2872H10.2805H10.2738H10.2671H10.2604H10.2537H10.247H10.2403H10.2336H10.2269H10.2202H10.2135H10.2068H10.2001H10.1934H10.1867H10.18H10.1733H10.1666H10.1599H10.1532H10.1465H10.1398H10.1331H10.1264H10.1197H10.113H10.1063H10.0996H10.093H10.0863H10.0796H10.0729H10.0662H10.0595H10.0528H10.0461H10.0394H10.0327H10.026H10.0193H10.0126H10.0059H9.99919H9.9925H9.9858H9.9791H9.97241H9.96571H9.95901H9.95231H9.94562H9.93892H9.93222H9.92553H9.91883H9.91213H9.90543H9.89874H9.89204H9.88534H9.87973C9.77208 2.29837 9.66466 2.31094 9.55967 2.33803L9.55966 2.33799L9.55688 2.33879C8.88177 2.53401 8.43555 3.27555 8.50717 4.02997L8.50718 4.03C8.58745 4.87268 9.11547 5.48301 9.85358 5.49659ZM13.2678 3.05371L13.2679 3.05371C13.4546 3.05469 13.6053 3.10836 13.722 3.20314C13.8392 3.29841 13.9289 3.44089 13.9826 3.63062C14.0778 3.97099 13.9998 4.34246 13.7728 4.52315C13.6113 4.64709 13.4273 4.71809 13.2389 4.73138C12.8533 4.75296 12.467 4.74887 12.076 4.74472C11.9511 4.7434 11.8258 4.74207 11.6998 4.74157V4.73919H11.5998C11.4081 4.73919 11.217 4.74024 11.0263 4.74129C10.646 4.7434 10.267 4.74549 9.88702 4.7392L9.88703 4.73915L9.88373 4.7392C9.72355 4.74183 9.56473 4.67717 9.43582 4.55139C9.30658 4.42528 9.21641 4.2461 9.18477 4.04403C9.15616 3.85087 9.18514 3.65247 9.2655 3.48361C9.34577 3.31492 9.47083 3.18892 9.61569 3.12287C9.71755 3.07823 9.82452 3.05498 9.93207 3.0537C11.044 3.0474 12.1559 3.0474 13.2678 3.05371Z" fill="#007DE9" stroke="#007DE9" stroke-width="0.2"/>
</svg>
