<svg width="20" height="20" viewBox="0 0 20 20" fill="none" xmlns="http://www.w3.org/2000/svg">
<g clip-path="url(#clip0_1870_15128)">
<path d="M10.0001 18.3333C5.39771 18.3333 1.66675 14.6023 1.66675 9.99999C1.66675 7.67287 2.62062 5.56855 4.15872 4.05667M10.0001 18.3333C9.19758 17.7387 9.32566 17.0462 9.72825 16.3539C10.3472 15.2895 10.3472 15.2895 10.3472 13.8703C10.3472 12.4512 11.1906 11.7857 14.1667 12.3809C15.504 12.6484 16.4785 10.8007 18.2145 11.4108M10.0001 18.3333C14.1216 18.3333 17.5442 15.3413 18.2145 11.4108M4.15872 4.05667C4.86646 4.13136 5.26272 4.51052 5.92088 5.20596C7.17041 6.52626 8.41991 6.63642 9.253 6.19632C10.5025 5.53618 9.4525 4.46691 10.919 3.88581C11.8181 3.52958 11.9894 2.59665 11.5639 1.81315M4.15872 4.05667C5.66254 2.5785 7.72482 1.66666 10.0001 1.66666C10.5346 1.66666 11.0573 1.71698 11.5639 1.81315M18.2145 11.4108C18.2927 10.9522 18.3334 10.4809 18.3334 9.99999C18.3334 5.93213 15.4187 2.54503 11.5639 1.81315" stroke="#F25900" stroke-width="1.5" stroke-linejoin="round"/>
</g>
<defs>
<clipPath id="clip0_1870_15128">
<rect width="20" height="20" fill="white"/>
</clipPath>
</defs>
</svg>
