<svg width="21" height="26" viewBox="0 0 21 26" fill="none" xmlns="http://www.w3.org/2000/svg">
<path fill-rule="evenodd" clip-rule="evenodd" d="M9.52344 3.84046V1.4853C9.52344 1.05947 9.86932 0.713867 10.2955 0.713867C10.7217 0.713867 11.0676 1.05947 11.0676 1.4853V3.84077C14.6787 4.22752 17.5001 7.29042 17.5001 10.9995V13.8673C17.5001 15.9029 18.3926 17.8241 19.948 19.1387C20.3587 19.4884 20.5883 19.9872 20.5883 20.5139C20.5883 21.5065 19.7802 22.3139 18.7867 22.3139H14.0768C13.7183 24.0725 12.1586 25.3996 10.2941 25.3996C8.42959 25.3996 6.8699 24.0725 6.51132 22.3139H1.80141C0.80806 22.3139 0 21.5065 0 20.5139C0 19.9872 0.229582 19.4884 0.629937 19.1458C2.19573 17.8241 3.08823 15.9029 3.08823 13.8673V10.9995C3.08823 7.28945 5.91104 4.22591 9.52344 3.84046ZM13.3823 20.771L13.3848 20.771H18.7867C18.9267 20.771 19.0442 20.6537 19.0442 20.5139C19.0442 20.4111 18.9874 20.3473 18.9535 20.3184C17.0481 18.7087 15.9559 16.3573 15.9559 13.8673V10.9995C15.9559 7.8799 13.4164 5.34244 10.2941 5.34244C7.17189 5.34244 4.63235 7.8799 4.63235 10.9995V13.8673C4.63235 16.3573 3.54024 18.7087 1.63686 20.3164C1.60066 20.3473 1.54412 20.4111 1.54412 20.5139C1.54412 20.6537 1.66155 20.771 1.80141 20.771H7.20339L7.20584 20.771L7.2083 20.771H13.3799L13.3823 20.771ZM10.2941 23.8567C11.3011 23.8567 12.1596 23.212 12.4781 22.3139H8.11011C8.42866 23.212 9.28724 23.8567 10.2941 23.8567Z" fill="#171717"/>
</svg>
