<svg width="24" height="24" viewBox="0 0 24 24" fill="none" xmlns="http://www.w3.org/2000/svg">
<path d="M11.6046 6.87919C12.3324 6.87958 13.053 7.02417 13.7252 7.30468C14.3973 7.58519 15.0078 7.99612 15.5217 8.51394C16.0355 9.03176 16.4427 9.6463 16.7198 10.3224C16.997 10.9985 17.1387 11.7228 17.1368 12.454L11.6046 6.87919ZM11.6046 6.87919C8.55045 6.87499 6.06638 9.36141 6.064 12.4223L11.6046 6.87919ZM5.4501 12.4311V12.4312L5.45009 12.4324L5.45011 12.4339C5.46626 14.0614 6.12115 15.6168 7.27267 16.7621C8.42421 17.9074 9.97934 18.55 11.6001 18.55C13.2209 18.55 14.776 17.9074 15.9275 16.7621C17.079 15.6168 17.7339 14.0614 17.7501 12.4339L17.7501 12.4324C17.7495 9.02959 14.9868 6.24999 11.6016 6.24999C8.21641 6.24999 5.45315 9.02772 5.4501 12.4311ZM16.9868 12.4536V12.4537C16.9804 15.4228 14.5374 17.8628 11.5856 17.8489C10.1589 17.8397 8.79346 17.2643 7.78716 16.2478C6.78079 15.2313 6.21522 13.8562 6.214 12.4222C6.21638 9.44394 8.63356 7.02511 11.6044 7.02919L11.6045 7.02919C12.3125 7.02957 13.0135 7.17022 13.6674 7.44311C14.3213 7.716 14.9152 8.11578 15.4152 8.6196C15.9152 9.12342 16.3114 9.72138 16.5811 10.3793C16.8507 11.0372 16.9886 11.7421 16.9868 12.4536Z" fill="#171717" stroke="#171717" stroke-width="0.3"/>
<path d="M1.50125 11.0708L1.49992 11.0795L1.50013 11.0883C1.51701 11.7949 2.04378 12.3526 2.80069 12.4794C3.4864 12.5964 4.20147 12.2046 4.43955 11.5406L4.4396 11.5404C4.84683 10.3995 5.24569 9.25578 5.6362 8.10935L5.63622 8.10936L5.63677 8.10763C5.74973 7.75519 5.71043 7.37559 5.52801 7.05043C5.34576 6.72558 5.03585 6.48188 4.6661 6.36903C4.29644 6.2562 3.89421 6.28238 3.54456 6.44237C3.19477 6.60242 2.92375 6.88456 2.79158 7.23061L2.79157 7.23061L2.79106 7.23201C2.45795 8.14465 2.14177 9.06231 1.82583 9.97928C1.74739 10.2069 1.66897 10.4346 1.5903 10.662L1.59014 10.662L1.58855 10.6676C1.55122 10.8003 1.52207 10.9349 1.50125 11.0708ZM4.36673 6.9794L4.36836 6.97972C4.7209 7.04569 4.97249 7.3326 4.97393 7.73302C4.96682 7.79032 4.95465 7.84701 4.93755 7.90253C4.91944 7.95484 4.90134 8.00714 4.88324 8.05945C4.50849 9.14225 4.13409 10.224 3.7517 11.3041L3.75163 11.304L3.75052 11.3076C3.70618 11.4493 3.61255 11.5749 3.48251 11.664C3.35237 11.7532 3.19351 11.8004 3.03051 11.7974L3.028 11.7974C2.68421 11.7997 2.40213 11.6276 2.31053 11.3463L2.31056 11.3463L2.30968 11.3438C2.25609 11.1928 2.24897 11.0312 2.28898 10.8768C2.67191 9.73246 3.07383 8.59102 3.47997 7.45478L3.47999 7.45479L3.48051 7.45326C3.53651 7.28821 3.65736 7.14675 3.82149 7.05825C3.98576 6.96968 4.18038 6.94129 4.36673 6.9794Z" fill="#171717" stroke="#171717" stroke-width="0.2"/>
<path d="M21.7001 11.0361H21.7005L21.6997 11.027C21.6918 10.941 21.6759 10.8557 21.6521 10.7723L21.6522 10.7723L21.651 10.7686C21.5183 10.3641 21.3795 9.96101 21.2389 9.559C21.1782 9.3851 21.1176 9.21094 21.0571 9.03667C20.8513 8.4445 20.6451 7.85104 20.4276 7.26195L20.4276 7.2619C20.1514 6.51478 19.3373 6.13914 18.5605 6.36557C18.1848 6.47238 17.8674 6.71292 17.6795 7.03744C17.4914 7.36229 17.4491 7.74377 17.5627 8.09814C17.6434 8.35372 17.735 8.60704 17.8258 8.85804C17.8691 8.97803 17.9123 9.0975 17.9541 9.21643L17.9541 9.21646C18.043 9.46981 18.1311 9.72374 18.2193 9.97785C18.3996 10.4978 18.5803 11.0185 18.7692 11.5363L18.7693 11.5364C19.011 12.1957 19.7194 12.5941 20.4044 12.4808L20.4045 12.4808C21.1666 12.3545 21.7001 11.8006 21.7001 11.0361ZM19.0222 7.00168L19.0222 7.00179L19.0268 7.00176C19.1863 7.00077 19.3413 7.04748 19.4687 7.13398C19.5959 7.22042 19.6883 7.34154 19.7338 7.47837L19.7337 7.47838L19.7345 7.48057C20.1404 8.61364 20.5433 9.74814 20.932 10.8863C20.9871 11.0613 20.9665 11.2494 20.8737 11.4113C20.7804 11.5739 20.6209 11.6984 20.4273 11.7558C20.2335 11.8132 20.0232 11.7981 19.8418 11.7142C19.6607 11.6304 19.5245 11.4856 19.4595 11.3128C19.0537 10.1869 18.6579 9.05849 18.2721 7.92758L18.2721 7.92756L18.271 7.92463C18.2309 7.81819 18.2197 7.7046 18.238 7.59355C18.2563 7.48247 18.3039 7.37657 18.3771 7.28523C18.4504 7.19383 18.5474 7.11974 18.6599 7.07004C18.7725 7.02034 18.897 6.99677 19.0222 7.00168Z" fill="#171717" stroke="#171717" stroke-width="0.2"/>
<path d="M9.70002 20.0346L9.70017 20.0346L9.70009 20.0292C9.69284 19.5606 9.52885 19.1505 9.14077 18.8704L9.14076 18.8703C8.05418 18.0862 6.9533 17.3169 5.85301 16.5507C5.70629 16.4471 5.53977 16.3734 5.36339 16.3338C5.18709 16.2941 5.00441 16.2893 4.82618 16.3196C4.50349 16.3709 4.22621 16.4848 4.0081 16.6693C3.78925 16.8544 3.63574 17.1058 3.55379 17.4218C3.47182 17.7379 3.48406 18.0345 3.5881 18.3034C3.69192 18.5717 3.88436 18.8053 4.15132 19.0007L4.15133 19.0008C4.35228 19.1478 4.55775 19.291 4.76224 19.4335C4.8575 19.4999 4.95254 19.5662 5.04682 19.6326C5.26828 19.7887 5.48945 19.9454 5.71074 20.1023C6.23687 20.4751 6.76366 20.8484 7.2966 21.2152C7.79416 21.558 8.35179 21.5887 8.88045 21.3215C9.41101 21.0533 9.67806 20.6031 9.70002 20.0346ZM4.28214 17.5384L4.28245 17.5376C4.3917 17.235 4.6689 17.0356 5.03857 16.9955C5.08906 17.0159 5.14267 17.0351 5.19397 17.0536C5.22754 17.0657 5.26011 17.0774 5.29018 17.0888C5.37836 17.1223 5.45681 17.1573 5.52338 17.2034C6.56236 17.9249 7.59562 18.6528 8.62315 19.3872L8.62331 19.3873C9.00236 19.6571 9.06976 20.1153 8.81423 20.4591C8.55796 20.8039 8.08243 20.8827 7.69871 20.6149C6.65546 19.8849 5.61588 19.1508 4.57996 18.4128L4.5799 18.4127C4.26084 18.1857 4.16162 17.863 4.28214 17.5384Z" fill="#171717" stroke="#171717" stroke-width="0.2"/>
<path d="M14.0729 18.8588L14.0731 18.8586C15.1483 18.0874 16.2275 17.3184 17.3206 16.5686L14.0729 18.8588ZM14.0729 18.8588C13.6851 19.1386 13.5078 19.5377 13.5004 19.9983M14.0729 18.8588L15.8611 21.2427M15.8611 21.2427L15.861 21.2427C15.3623 21.5631 14.8293 21.581 14.2997 21.3147L14.2991 21.3144C14.0539 21.1891 13.849 20.9998 13.7078 20.7673C13.5666 20.5348 13.4947 20.2685 13.5004 19.9983M15.8611 21.2427C16.1094 21.0827 16.3507 20.9092 16.5895 20.7375C16.6889 20.6661 16.7878 20.5949 16.8867 20.5252C17.0995 20.3751 17.3137 20.2257 17.5281 20.0761C18.059 19.7057 18.5915 19.3342 19.1104 18.9473C19.4246 18.7137 19.6318 18.3685 19.686 17.9864C19.7402 17.6043 19.6368 17.2173 19.3991 16.9095M15.8611 21.2427L19.3991 16.9095M13.5004 19.9983C13.5004 19.9982 13.5004 19.9981 13.5004 19.998L13.6004 20.0002L13.5004 19.9986C13.5004 19.9985 13.5004 19.9984 13.5004 19.9983ZM19.3991 16.9095C18.9071 16.2658 18.0051 16.0987 17.3206 16.5686L19.3991 16.9095ZM18.5509 17.1202L18.5509 17.1203L18.5541 17.122C18.8235 17.2645 18.9436 17.4951 18.9636 17.769C18.9492 18.0406 18.8573 18.2406 18.6584 18.3799L18.6578 18.3803C18.583 18.4334 18.5083 18.4865 18.4336 18.5396C17.443 19.2437 16.4535 19.947 15.4544 20.6382C15.3703 20.6959 15.2752 20.737 15.1745 20.7591C15.0737 20.7813 14.9693 20.7839 14.8675 20.7669C14.7656 20.7499 14.6683 20.7136 14.5811 20.6602C14.4939 20.6068 14.4187 20.5374 14.3594 20.4561C14.3002 20.3747 14.2582 20.283 14.2357 20.1862C14.2131 20.0894 14.2104 19.9893 14.2277 19.8915C14.245 19.7937 14.282 19.7001 14.3368 19.6159C14.3915 19.5317 14.4629 19.4586 14.547 19.4009L14.547 19.4009L14.5484 19.3999C15.6005 18.6518 16.655 17.9084 17.7117 17.1697L17.7117 17.1697L17.7141 17.168C17.8324 17.08 17.9754 17.0282 18.1248 17.0197C18.2742 17.0112 18.4226 17.0463 18.5509 17.1202Z" fill="#171717" stroke="#171717" stroke-width="0.2"/>
<path d="M9.85407 5.49619L9.85453 5.4962C10.2417 5.50155 10.6293 5.49976 11.016 5.49798C11.2088 5.4971 11.4014 5.49621 11.5936 5.49621C11.7918 5.49621 11.9904 5.49715 12.1893 5.4981C12.5699 5.4999 12.9513 5.50172 13.3319 5.49693L13.3323 5.49692C14.1199 5.48338 14.7001 4.76507 14.7001 3.89932V3.89925C14.6995 3.02046 14.1024 2.30026 13.308 2.30026H13.3013H13.2946H13.2879H13.2812H13.2745H13.2678H13.2611H13.2544H13.2477H13.241H13.2343H13.2276H13.2209H13.2142H13.2075H13.2009H13.1942H13.1875H13.1808H13.1741H13.1674H13.1607H13.154H13.1473H13.1406H13.1339H13.1272H13.1205H13.1138H13.1071H13.1004H13.0937H13.087H13.0803H13.0736H13.0669H13.0602H13.0535H13.0468H13.0401H13.0334H13.0267H13.02H13.0133H13.0066H12.9999H12.9932H12.9865H12.9799H12.9732H12.9665H12.9598H12.9531H12.9464H12.9397H12.933H12.9263H12.9196H12.9129H12.9062H12.8995H12.8928H12.8861H12.8794H12.8727H12.866H12.8593H12.8526H12.8459H12.8392H12.8325H12.8258H12.8191H12.8124H12.8057H12.799H12.7923H12.7856H12.7789H12.7722H12.7655H12.7588H12.7522H12.7455H12.7388H12.7321H12.7254H12.7187H12.712H12.7053H12.6986H12.6919H12.6852H12.6785H12.6718H12.6651H12.6584H12.6517H12.645H12.6383H12.6316H12.6249H12.6182H12.6115H12.6048H12.5981H12.5914H12.5847H12.578H12.5713H12.5646H12.5579H12.5512H12.5445H12.5378H12.5312H12.5245H12.5178H12.5111H12.5044H12.4977H12.491H12.4843H12.4776H12.4709H12.4642H12.4575H12.4508H12.4441H12.4374H12.4307H12.424H12.4173H12.4106H12.4039H12.3972H12.3905H12.3838H12.3771H12.3704H12.3637H12.357H12.3503H12.3436H12.3369H12.3302H12.3235H12.3168H12.3101H12.3035H12.2968H12.2901H12.2834H12.2767H12.27H12.2633H12.2566H12.2499H12.2432H12.2365H12.2298H12.2231H12.2164H12.2097H12.203H12.1963H12.1896H12.1829H12.1762H12.1695H12.1628H12.1561H12.1494H12.1427H12.136H12.1293H12.1226H12.1159H12.1092H12.1025H12.0958H12.0891H12.0825H12.0758H12.0691H12.0624H12.0557H12.049H12.0423H12.0356H12.0289H12.0222H12.0155H12.0088H12.0021H11.9954H11.9887H11.982H11.9753H11.9686H11.9619H11.9552H11.9485H11.9418H11.9351H11.9284H11.9217H11.915H11.9083H11.9016H11.8949H11.8882H11.8815H11.8748H11.8681H11.8615H11.8548H11.8481H11.8414H11.8347H11.828H11.8213H11.8146H11.8079H11.8012H11.7945H11.7878H11.7811H11.7744H11.7677H11.761H11.7543H11.7476H11.7409H11.7342H11.7275H11.7208H11.7141H11.7074H11.7007H11.694H11.6873H11.6806H11.6739H11.6672H11.6605H11.6538H11.6471H11.6404H11.6338H11.6271H11.6204H11.6137H11.607H11.6003H11.5936H11.5869H11.5802H11.5735H11.5668H11.5601H11.5534H11.5467H11.54H11.5333H11.5266H11.5199H11.5132H11.5065H11.4998H11.4931H11.4864H11.4797H11.473H11.4663H11.4596H11.4529H11.4462H11.4395H11.4328H11.4261H11.4194H11.4128H11.4061H11.3994H11.3927H11.386H11.3793H11.3726H11.3659H11.3592H11.3525H11.3458H11.3391H11.3324H11.3257H11.319H11.3123H11.3056H11.2989H11.2922H11.2855H11.2788H11.2721H11.2654H11.2587H11.252H11.2453H11.2386H11.2319H11.2252H11.2185H11.2118H11.2051H11.1984H11.1917H11.1851H11.1784H11.1717H11.165H11.1583H11.1516H11.1449H11.1382H11.1315H11.1248H11.1181H11.1114H11.1047H11.098H11.0913H11.0846H11.0779H11.0712H11.0645H11.0578H11.0511H11.0444H11.0377H11.031H11.0243H11.0176H11.0109H11.0042H10.9975H10.9908H10.9841H10.9774H10.9707H10.9641H10.9574H10.9507H10.944H10.9373H10.9306H10.9239H10.9172H10.9105H10.9038H10.8971H10.8904H10.8837H10.877H10.8703H10.8636H10.8569H10.8502H10.8435H10.8368H10.8301H10.8234H10.8167H10.81H10.8033H10.7966H10.7899H10.7832H10.7765H10.7698H10.7631H10.7564H10.7497H10.743H10.7364H10.7297H10.723H10.7163H10.7096H10.7029H10.6962H10.6895H10.6828H10.6761H10.6694H10.6627H10.656H10.6493H10.6426H10.6359H10.6292H10.6225H10.6158H10.6091H10.6024H10.5957H10.589H10.5823H10.5756H10.5689H10.5622H10.5555H10.5488H10.5421H10.5354H10.5287H10.522H10.5154H10.5087H10.502H10.4953H10.4886H10.4819H10.4752H10.4685H10.4618H10.4551H10.4484H10.4417H10.435H10.4283H10.4216H10.4149H10.4082H10.4015H10.3948H10.3881H10.3814H10.3747H10.368H10.3613H10.3546H10.3479H10.3412H10.3345H10.3278H10.3211H10.3144H10.3077H10.301H10.2944H10.2877H10.281H10.2743H10.2676H10.2609H10.2542H10.2475H10.2408H10.2341H10.2274H10.2207H10.214H10.2073H10.2006H10.1939H10.1872H10.1805H10.1738H10.1671H10.1604H10.1537H10.147H10.1403H10.1336H10.1269H10.1202H10.1135H10.1068H10.1001H10.0934H10.0867H10.08H10.0733H10.0667H10.06H10.0533H10.0466H10.0399H10.0332H10.0265H10.0198H10.0131H10.0064H9.99968H9.99298H9.98629H9.97959H9.97289H9.9662H9.9595H9.9528H9.94611H9.93941H9.93271H9.92601H9.91932H9.91262H9.90592H9.89923H9.89253H9.88583H9.88022C9.77257 2.29798 9.66514 2.31054 9.56016 2.33763L9.56015 2.33759L9.55737 2.33839C8.88225 2.53361 8.43604 3.27516 8.50766 4.02957L8.50766 4.02961C8.58793 4.87229 9.11596 5.48261 9.85407 5.49619ZM13.2683 3.05331L13.2684 3.05331C13.4551 3.0543 13.6058 3.10796 13.7224 3.20275C13.8397 3.29801 13.9294 3.44049 13.9831 3.63021C14.0783 3.97058 14.0003 4.34205 13.7733 4.52274C13.6118 4.64669 13.4278 4.71769 13.2394 4.73098C12.8538 4.75256 12.4674 4.74847 12.0765 4.74433C11.9516 4.743 11.8262 4.74167 11.7003 4.74118V4.73879H11.6003C11.4086 4.73879 11.2175 4.73984 11.0267 4.7409C10.6465 4.743 10.2674 4.74509 9.88751 4.7388L9.88751 4.73875L9.88421 4.7388C9.72403 4.74144 9.56522 4.67678 9.43631 4.55099C9.30707 4.42488 9.2169 4.2457 9.18526 4.04363C9.15665 3.85047 9.18563 3.65207 9.26598 3.48321C9.34626 3.31452 9.47132 3.18852 9.61618 3.12247C9.71804 3.07783 9.82501 3.05458 9.93256 3.05331C11.0445 3.047 12.1564 3.047 13.2683 3.05331Z" fill="#171717" stroke="#171717" stroke-width="0.2"/>
</svg>
