<svg width="30" height="28" viewBox="0 0 30 28" fill="none" xmlns="http://www.w3.org/2000/svg">
<path d="M18.264 22.862C18.189 20.921 16.914 19.286 15.039 18.764C14.952 18.74 14.868 18.719 14.781 18.698C14.052 19.154 13.191 19.421 12.267 19.421C11.331 19.421 10.461 19.148 9.726 18.68C7.8 19.103 6.342 20.879 6.297 22.79C6.273 23.798 6.252 24.803 6.249 25.811C6.249 26.75 6.18 26.777 6.66 26.903C6.663 26.906 12.828 28.343 17.877 26.918C18.144 26.807 18.294 26.672 18.288 26.345C18.267 25.184 18.309 24.02 18.264 22.862ZM7.671 18.737C8.055 18.452 8.496 18.269 8.94 18.053C8.118 17.243 7.59 16.133 7.536 14.9C7.509 14.897 7.479 14.897 7.449 14.897C6.531 14.9 5.61 14.876 4.692 14.906C3.594 14.942 2.658 15.239 1.893 15.815C1.539 16.1 0.048 17.513 0 21.269V23.12C1.542 23.615 3.117 23.939 4.725 24.146C5.253 24.212 5.454 24.11 5.436 23.522C5.382 21.566 6.063 19.931 7.671 18.737ZM21.894 15.56C20.361 14.624 18.654 14.939 16.998 14.915C16.938 16.142 16.413 17.246 15.591 18.056C16.359 18.377 17.034 18.782 17.589 19.364C18.729 20.561 19.185 21.998 19.089 23.624C19.062 24.032 19.158 24.212 19.623 24.179C21.003 24.074 22.344 23.804 23.64 23.309C23.964 23.183 24.123 23.015 24.111 22.637C24.078 21.458 24.12 20.273 24.063 19.094C23.988 17.537 23.208 16.364 21.894 15.56ZM12.294 18.326C14.223 18.299 15.783 16.721 15.783 14.798C15.786 12.848 14.247 11.288 12.309 11.279C10.344 11.267 8.742 12.836 8.733 14.783C8.724 16.706 10.377 18.353 12.294 18.326ZM6.192 14.69C6.267 14.684 6.444 14.681 6.615 14.648C6.954 14.579 7.275 14.501 7.542 14.354C7.644 12.863 8.436 11.564 9.6 10.769C9.591 10.679 9.579 10.589 9.558 10.496C9.21 8.726 7.488 7.427 5.778 7.637C3.882 7.868 2.463 9.455 2.556 11.243C2.658 13.187 4.176 14.666 6.192 14.69ZM28.107 12.272C27.342 11.693 26.406 11.396 25.308 11.36C24.39 11.33 23.469 11.354 22.551 11.351C22.521 11.351 22.491 11.351 22.464 11.354C22.41 12.587 21.882 13.697 21.06 14.507C21.504 14.726 21.945 14.909 22.329 15.191C23.937 16.385 24.618 18.02 24.564 19.976C24.546 20.564 24.747 20.669 25.275 20.6C26.883 20.396 28.458 20.069 30 19.574V17.726C29.952 13.97 28.461 12.554 28.107 12.272ZM22.458 10.808C22.725 10.958 23.046 11.033 23.385 11.102C23.556 11.138 23.733 11.138 23.808 11.144C25.824 11.123 27.342 9.644 27.444 7.697C27.537 5.909 26.118 4.322 24.222 4.091C22.512 3.881 20.79 5.18 20.442 6.95C20.421 7.043 20.409 7.136 20.4 7.223C21.564 8.018 22.356 9.32 22.458 10.808ZM14.646 10.409C14.631 10.463 14.622 10.517 14.616 10.568C15.993 11.357 16.935 12.815 17.001 14.501C17.052 14.522 17.109 14.54 17.169 14.555C19.407 15.173 21.633 13.466 21.615 11.132C21.6 9.287 20.25 7.835 18.363 7.631C16.701 7.454 15.027 8.705 14.646 10.409ZM13.995 10.271C14.106 9.665 14.37 9.101 14.7 8.489C12.924 8.345 11.25 8.348 9.432 8.492C9.888 9.155 10.119 9.767 10.209 10.415C10.83 10.115 11.529 9.947 12.267 9.947C12.876 9.947 13.461 10.061 13.995 10.271ZM12.066 8.15H12.084C13.332 8.153 14.559 7.526 15.279 6.443C15.579 5.996 15.771 5.501 15.858 4.991C15.897 4.766 15.921 4.532 15.921 4.295C15.921 2.423 14.586 0.863002 12.816 0.512002L12.762 0.494002H12.705C12.495 0.458002 12.282 0.440002 12.066 0.440002C9.936 0.440002 8.211 2.165 8.211 4.295C8.211 6.425 9.936 8.15 12.066 8.15Z" fill="white"/>
</svg>
