<svg width="30" height="25" viewBox="0 0 30 25" fill="none" xmlns="http://www.w3.org/2000/svg">
<path d="M15.502 16.3156C15.8568 16.4686 16.1934 16.5836 16.5008 16.7525C17.4394 17.2679 17.498 18.4248 16.6006 19.0045C16.2901 19.2043 15.9043 19.2884 15.502 19.4454V16.3156Z" fill="white"/>
<path d="M29.5715 8.48742V22.3642C29.5473 22.4135 29.5272 22.4647 29.5113 22.5173C29.3722 23.1519 29.0305 23.7239 28.5379 24.1468C27.9169 24.6836 27.1913 24.874 26.3787 24.8732C18.6502 24.8658 10.9222 24.8642 3.19481 24.8684C3.0364 24.8684 2.8867 24.8613 2.73304 24.8533C1.28434 24.774 0.011485 23.4791 0.00831673 22.0312C-0.00277224 17.6181 -0.00277224 13.204 0.00831673 8.78875C0.0162024 8.19616 0.22104 7.62308 0.590486 7.16001C1.23048 6.31709 2.09542 5.94599 3.14332 5.94678C10.9003 5.94678 18.6573 5.94678 26.4143 5.94678C26.5007 5.94678 26.5878 5.94678 26.6741 5.95074C27.0929 5.96949 27.5032 6.07493 27.8792 6.26041C28.2552 6.44588 28.5887 6.70738 28.8586 7.02838C29.2277 7.46133 29.4139 7.96328 29.5715 8.48742ZM10.2688 19.3153C11.4185 20.3337 12.854 20.9723 14.3796 21.1439V22.3484H15.4315C15.4315 22.0439 15.4473 21.764 15.4267 21.4856C15.4077 21.239 15.483 21.1613 15.7436 21.1455C16.643 21.0979 17.5024 20.7576 18.191 20.1765C19.696 18.9299 19.6817 16.2117 17.8806 15.1951C17.5727 15.0178 17.2508 14.8661 16.9182 14.7415C16.4525 14.5718 15.9717 14.4441 15.4996 14.2998V11.1962C16.3843 11.304 17.1479 11.672 17.8806 12.1477C18.2457 11.6252 18.5934 11.1216 18.953 10.6102C17.9256 9.89192 16.7251 9.46156 15.4758 9.36365V8.53104H14.3963V9.31607C14.1349 9.35017 13.9068 9.36999 13.6834 9.40964C12.2719 9.6618 10.8201 10.7125 10.7749 12.5759C10.7504 13.5957 11.0315 14.4679 11.9369 15.0642C12.622 15.5162 13.3784 15.7779 14.1547 15.9888C14.3535 16.042 14.4113 16.1252 14.4089 16.3243C14.3994 17.2298 14.4089 18.1354 14.4042 19.0409C14.4042 19.125 14.3923 19.2083 14.3844 19.3129C13.2517 19.1472 12.3686 18.5437 11.502 17.8531L10.2688 19.3153Z" fill="white"/>
<path d="M6.04224 4.09688C6.59193 3.94622 7.14164 3.79397 7.69292 3.64648C12.0493 2.48003 16.3993 1.30724 20.7621 0.15745C21.262 0.0248217 21.7803 -0.0244725 22.2963 0.0115457C23.2325 0.085291 23.9382 0.618161 24.2883 1.47139C24.6384 2.32461 24.8428 3.2159 25.1279 4.12939H6.05095L6.04224 4.09688Z" fill="white"/>
<path d="M14.3891 11.1265V14.0216C13.7729 13.7742 13.102 13.6544 12.8462 12.9574C12.5483 12.1486 13.1836 11.27 14.1254 11.1503C14.2014 11.1399 14.2782 11.136 14.3891 11.1265Z" fill="white"/>
</svg>
