<svg width="25" height="28" viewBox="0 0 25 28" fill="none" xmlns="http://www.w3.org/2000/svg">
<path d="M6.04193 5.40798H6.4491C11.7287 5.40798 17.0089 5.40798 22.2896 5.40798C23.8946 5.40798 25.1803 6.81943 24.9792 8.37634C24.8719 9.21188 24.7106 10.0398 24.5771 10.8711C24.2342 13.0132 23.8751 15.1528 23.5558 17.2983C23.4394 18.1308 23.0263 18.8931 22.3925 19.4445C21.7588 19.996 20.9473 20.2994 20.1076 20.2988C16.25 20.2949 12.3924 20.2878 8.53475 20.2777C7.17135 20.2777 6.08502 19.432 5.8071 18.1415C5.70404 17.6687 5.65673 17.1842 5.58746 16.7038C5.32278 14.8597 5.05754 13.0163 4.79173 11.1739L4.00359 5.6693C3.91404 5.04349 3.83971 4.41599 3.73411 3.79272C3.59304 2.95803 2.92739 2.39649 2.08097 2.37197C1.93314 2.36689 1.78531 2.37197 1.63833 2.37197C1.3943 2.35302 1.16548 2.24589 0.994519 2.07053C0.823558 1.89518 0.722118 1.66357 0.709116 1.41888C0.689687 0.891175 1.05377 0.409133 1.55385 0.360083C3.66147 0.15289 5.18621 1.40112 5.62886 3.02399C5.79358 3.62951 5.84934 4.26546 5.95408 4.88873C5.98618 5.04518 6.01068 5.21094 6.04193 5.40798ZM13.2568 13.2297C13.0786 13.0369 12.924 12.8644 12.7635 12.6978C12.603 12.5312 12.4256 12.3519 12.2491 12.1836C11.8056 11.7608 11.1788 11.7405 10.7801 12.1413C10.3813 12.5422 10.3999 13.1756 10.8307 13.6103C11.3708 14.1577 11.914 14.7024 12.4602 15.2442C13.0026 15.7862 13.5584 15.7854 14.1058 15.2374C15.0299 14.3139 15.9529 13.389 16.8748 12.4627C17.1198 12.2166 17.3749 11.9781 17.6064 11.7202C17.728 11.5909 17.8132 11.4316 17.8531 11.2586C17.893 11.0855 17.8863 10.905 17.8336 10.7354C17.7809 10.5658 17.6842 10.4133 17.5533 10.2934C17.4223 10.1736 17.262 10.0907 17.0885 10.0533C16.6932 9.95862 16.3705 10.11 16.0926 10.3916C15.1642 11.3219 14.2325 12.2521 13.2568 13.2297Z" fill="white"/>
<path d="M10.5198 25.6809C10.5163 26.0155 10.4137 26.3416 10.225 26.6178C10.0363 26.894 9.76995 27.108 9.45972 27.2327C9.14949 27.3573 8.8093 27.387 8.4822 27.318C8.1551 27.2491 7.85579 27.0845 7.62216 26.8451C7.38852 26.6058 7.23106 26.3024 7.1697 25.9735C7.10834 25.6445 7.14584 25.3047 7.27745 24.9971C7.40906 24.6894 7.62888 24.4278 7.90907 24.2453C8.18926 24.0628 8.51723 23.9676 8.85149 23.9717C9.29898 23.9773 9.72599 24.1604 10.0388 24.4809C10.3516 24.8013 10.5246 25.2329 10.5198 25.6809Z" fill="white"/>
<path d="M21.3249 25.6867C21.3214 26.0214 21.2191 26.3476 21.0309 26.6242C20.8427 26.9009 20.5771 27.1157 20.2673 27.2416C19.9575 27.3675 19.6174 27.3988 19.2899 27.3318C18.9623 27.2647 18.6619 27.1022 18.4263 26.8646C18.1908 26.627 18.0307 26.3251 17.9661 25.9967C17.9016 25.6682 17.9354 25.328 18.0635 25.0189C18.1915 24.7097 18.408 24.4453 18.6858 24.2589C18.9635 24.0726 19.2901 23.9726 19.6244 23.9716C20.0763 23.9758 20.5083 24.1583 20.8266 24.4794C21.145 24.8005 21.324 25.2343 21.3249 25.6867Z" fill="white"/>
</svg>
