<svg width="30" height="30" viewBox="0 0 30 30" fill="none" xmlns="http://www.w3.org/2000/svg">
<g clip-path="url(#clip0_416_23711)">
<path d="M30.2387 12.295L19.2135 18.6133L16.3379 15.0018L27.9318 8.63647C28.6199 9.72271 29.2928 10.7867 29.9674 11.8498C30.0509 11.982 30.1464 12.107 30.2371 12.236L30.2387 12.295Z" fill="white"/>
<path d="M3.70184 7.74533L9.10387 5.08389C10.9955 4.15215 12.8855 3.21721 14.7819 2.29662C14.9192 2.23801 15.0741 2.23572 15.2131 2.29025C18.8404 3.99287 22.4648 5.70266 26.0863 7.41962C26.1309 7.44032 26.173 7.4666 26.2565 7.51359C26.1499 7.57889 26.0664 7.63623 25.9789 7.68401C22.4025 9.64837 18.8269 11.6127 15.252 13.5771C15.0436 13.6926 14.8957 13.6838 14.6904 13.5771C11.1299 11.6871 7.56676 9.80234 4.00094 7.92292C3.91503 7.87355 3.8331 7.8194 3.70184 7.74533Z" fill="white"/>
<path d="M14.0739 28C13.6762 27.7906 13.2991 27.5955 12.9261 27.3988C9.58086 25.6308 6.23513 23.8645 2.88886 22.0998C2.66931 21.9843 2.60726 21.8553 2.60886 21.622C2.61761 19.8644 2.61362 18.1068 2.61362 16.3492V16.01C2.74567 16.0785 2.84033 16.1239 2.93181 16.1756L10.2772 20.3876C11.0082 20.8073 11.3327 20.742 11.8506 20.089C12.5469 19.2098 13.2453 18.3338 13.9459 17.461C13.9753 17.4243 14.0095 17.3909 14.0739 17.3208V28Z" fill="white"/>
<path d="M27.3344 16.0172C27.3423 16.1462 27.3519 16.2226 27.3519 16.2991C27.3519 18.0081 27.3519 19.7163 27.3519 21.4245C27.3607 21.5018 27.3447 21.5799 27.3062 21.6474C27.2678 21.715 27.2088 21.7686 27.1379 21.8004C23.4549 23.8178 19.7735 25.839 16.0936 27.8639C16.0348 27.8957 15.9751 27.9252 15.8892 27.9698V17.3121C15.9998 17.4435 16.0801 17.5358 16.1557 17.6306C16.8366 18.4843 17.5143 19.3404 18.1968 20.1925C18.6081 20.707 18.9979 20.7802 19.5722 20.4513L27.0313 16.1812C27.1156 16.1319 27.2031 16.0873 27.3344 16.0172Z" fill="white"/>
<path d="M2.02502 8.88348L13.6213 15.0155L10.7577 18.615C7.08499 16.5095 3.42664 14.4126 -0.255585 12.3031L2.02502 8.88348Z" fill="white"/>
</g>
<defs>
<clipPath id="clip0_416_23711">
<rect width="30" height="30" fill="white"/>
</clipPath>
</defs>
</svg>
