<svg width="50" height="50" viewBox="0 0 50 50" fill="none" xmlns="http://www.w3.org/2000/svg">
<rect width="50" height="50" rx="12" fill="#9425EB"/>
<path d="M18.8523 32H14.4162V18.9091H18.9418C20.2415 18.9091 21.358 19.1712 22.2912 19.6953C23.2287 20.2152 23.9489 20.9631 24.4517 21.9389C24.9545 22.9148 25.206 24.0824 25.206 25.4418C25.206 26.8054 24.9524 27.9773 24.4453 28.9574C23.9425 29.9375 23.2159 30.6896 22.2656 31.2138C21.3196 31.7379 20.1818 32 18.8523 32ZM16.7876 29.9482H18.7372C19.6491 29.9482 20.4098 29.782 21.0192 29.4496C21.6286 29.1129 22.0866 28.6122 22.3935 27.9474C22.7003 27.2784 22.8537 26.4432 22.8537 25.4418C22.8537 24.4403 22.7003 23.6094 22.3935 22.9489C22.0866 22.2841 21.6328 21.7876 21.032 21.4595C20.4354 21.1271 19.6939 20.9609 18.8075 20.9609H16.7876V29.9482ZM27.4592 32V18.9091H32.3683C33.3739 18.9091 34.2177 19.0838 34.8995 19.4332C35.5856 19.7827 36.1033 20.2727 36.4528 20.9034C36.8065 21.5298 36.9833 22.2607 36.9833 23.0959C36.9833 23.9354 36.8043 24.6641 36.4464 25.282C36.0927 25.8956 35.5707 26.3707 34.8803 26.7074C34.19 27.0398 33.342 27.206 32.3363 27.206H28.8398V25.2372H32.0167C32.6048 25.2372 33.0863 25.1562 33.4613 24.9943C33.8363 24.8281 34.1133 24.5874 34.2923 24.272C34.4755 23.9524 34.5671 23.5604 34.5671 23.0959C34.5671 22.6314 34.4755 22.2351 34.2923 21.907C34.109 21.5746 33.8299 21.3232 33.4549 21.1527C33.0799 20.978 32.5962 20.8906 32.0039 20.8906H29.8306V32H27.4592ZM34.2219 26.0682L37.4627 32H34.8164L31.6332 26.0682H34.2219Z" fill="white"/>
</svg>
