<svg width="498" height="48" viewBox="0 0 498 48" fill="none" xmlns="http://www.w3.org/2000/svg">
<line y1="23.5" x2="452" y2="23.5" stroke="#E5E4E9"/>
<path d="M470 24H460C459.47 24 458.961 23.7893 458.586 23.4142C458.211 23.0391 458 22.5304 458 22V15C458 14.4696 458.211 13.9609 458.586 13.5858C458.961 13.2107 459.47 13 460 13H468C468.53 13 469.039 13.2107 469.414 13.5858C469.789 13.9609 470 14.4696 470 15V24ZM470 24C470 29 468 32 462 35M490 24H480C479.47 24 478.961 23.7893 478.586 23.4142C478.211 23.0391 478 22.5304 478 22V15C478 14.4696 478.211 13.9609 478.586 13.5858C478.961 13.2107 479.47 13 480 13H488C488.53 13 489.039 13.2107 489.414 13.5858C489.789 13.9609 490 14.4696 490 15V24ZM490 24C490 29 488 32 482 35" stroke="#676872" stroke-width="2" stroke-linecap="round"/>
</svg>
