<svg width="48" height="48" viewBox="0 0 48 48" fill="none" xmlns="http://www.w3.org/2000/svg">
<g filter="url(#filter0_i_3173_182)">
<rect width="48" height="48" rx="24" fill="#00CC82"/>
<path fill-rule="evenodd" clip-rule="evenodd" d="M19.9927 23.7738C20.4366 23.002 21.2784 22.4585 22.2824 22.1472C23.5294 23.2304 25.3844 23.2304 26.6315 22.1472C27.6354 22.4586 28.4772 23.002 28.9212 23.7756C26.7917 26.9476 22.1221 26.9476 19.9927 23.7738ZM24.4578 17.1036C25.8596 17.1036 26.9943 18.2402 26.9943 19.642C26.9943 21.0439 25.8596 22.1804 24.4578 22.1804C23.056 22.1804 21.9194 21.0438 21.9194 19.642C21.9194 18.2403 23.056 17.1036 24.4578 17.1036ZM22.9326 11.723C23.8463 11.0819 25.0694 11.0819 25.983 11.723C26.4932 12.0822 27.0459 12.2295 27.6666 12.1743C28.7793 12.0767 29.8384 12.6883 30.31 13.6995C30.5734 14.2669 30.9768 14.6703 31.5423 14.9337C32.5554 15.4053 33.167 16.4626 33.0676 17.5752C33.0142 18.1978 33.1615 18.7486 33.5189 19.2607C34.16 20.1744 34.16 21.3975 33.5189 22.3112C33.1615 22.8214 33.0142 23.374 33.0676 23.9967C33.1671 25.1074 32.5555 26.1666 31.5423 26.6382C30.9768 26.9016 30.5734 27.305 30.31 27.8705C29.8384 28.8837 28.7792 29.4953 27.6666 29.3976C27.0459 29.3423 26.4932 29.4897 25.983 29.8489C25.0693 30.49 23.8462 30.49 22.9326 29.8489C22.4205 29.4897 21.8697 29.3423 21.2471 29.3976C20.1344 29.4952 19.0753 28.8836 18.6056 27.8705C18.3421 27.305 17.9369 26.9016 17.3714 26.6382C16.3601 26.1666 15.7486 25.1074 15.8462 23.9967C15.9014 23.374 15.7541 22.8214 15.3949 22.3112C14.7538 21.3975 14.7538 20.1744 15.3949 19.2607C15.754 18.7486 15.9014 18.1978 15.8462 17.5752C15.7486 16.4626 16.3601 15.4053 17.3714 14.9337C17.9369 14.6703 18.3421 14.2669 18.6056 13.6995C19.0753 12.6883 20.1344 12.0767 21.2471 12.1743C21.8697 12.2296 22.4205 12.0822 22.9326 11.723ZM24.4578 14.6335C27.8546 14.6335 30.6085 17.3892 30.6085 20.7859C30.6085 24.1827 27.8546 26.9366 24.4578 26.9366C21.0611 26.9366 18.3054 24.1827 18.3054 20.7859C18.3054 17.3892 21.0592 14.6335 24.4578 14.6335ZM17.7509 27.9386L15.8794 34.9237L19.4769 33.0374L21.6505 36.4711L23.1555 30.8528C22.9189 30.7562 22.6939 30.6333 22.485 30.4862C22.1257 30.2338 21.7518 30.1344 21.3153 30.173C19.8766 30.3001 18.5061 29.5081 17.8982 28.2002C17.854 28.1062 17.8062 28.0178 17.7509 27.9386ZM31.163 27.9386L33.0345 34.9237L29.437 33.0374L27.2634 36.4711L25.7584 30.8528C25.9942 30.757 26.2189 30.6336 26.4307 30.4862C26.79 30.2338 27.162 30.1344 27.5986 30.173C29.0373 30.3001 30.4078 29.5081 31.0156 28.2002C31.058 28.1094 31.1072 28.0219 31.163 27.9386Z" fill="white"/>
</g>
<defs>
<filter id="filter0_i_3173_182" x="0" y="0" width="48" height="48" filterUnits="userSpaceOnUse" color-interpolation-filters="sRGB">
<feFlood flood-opacity="0" result="BackgroundImageFix"/>
<feBlend mode="normal" in="SourceGraphic" in2="BackgroundImageFix" result="shape"/>
<feColorMatrix in="SourceAlpha" type="matrix" values="0 0 0 0 0 0 0 0 0 0 0 0 0 0 0 0 0 0 127 0" result="hardAlpha"/>
<feOffset/>
<feGaussianBlur stdDeviation="6"/>
<feComposite in2="hardAlpha" operator="arithmetic" k2="-1" k3="1"/>
<feColorMatrix type="matrix" values="0 0 0 0 0.0144965 0 0 0 0 0.695833 0 0 0 0 0.448682 0 0 0 1 0"/>
<feBlend mode="normal" in2="shape" result="effect1_innerShadow_3173_182"/>
</filter>
</defs>
</svg>
