<svg width="48" height="48" viewBox="0 0 48 48" fill="none" xmlns="http://www.w3.org/2000/svg">
<g filter="url(#filter0_i_3173_188)">
<rect width="48" height="48" rx="24" fill="#A906FF"/>
<path d="M33.0452 18.2691C33.0449 19.1252 32.7701 19.9585 32.2612 20.6469C31.7523 21.3352 31.036 21.8422 30.2177 22.0933C30.4051 21.4826 30.5 20.8472 30.4994 20.2083C30.4994 19.083 30.2068 17.977 29.6503 16.9989C29.0938 16.0208 28.2926 15.2042 27.3252 14.6293C27.8615 14.3803 28.4455 14.2509 29.0369 14.25C30.1012 14.2519 31.1213 14.6762 31.8729 15.4299C32.6245 16.1835 33.0462 17.2048 33.0452 18.2691ZM32.2327 23.2417C31.7776 23.1142 31.2905 23.1727 30.8785 23.4042C30.4153 23.6611 29.9012 23.8127 29.3727 23.8483C29.1539 24.1817 28.8996 24.4905 28.6144 24.7692C29.6378 25.106 30.5489 25.7176 31.2482 26.5373C31.9475 27.357 32.408 28.3531 32.5794 29.4168H33.3269C33.5669 29.4201 33.8035 29.3585 34.0113 29.2383C34.2192 29.1182 34.3907 28.9441 34.5077 28.7344C34.7228 28.331 34.8345 27.8805 34.8327 27.4233V26.6541C34.8327 25.0399 33.7602 23.6424 32.2327 23.2417ZM20.6735 14.6293C20.1372 14.3803 19.5532 14.2509 18.9619 14.25C18.002 14.2507 17.0743 14.5955 16.347 15.2219C15.6198 15.8483 15.1413 16.7147 14.9984 17.6639C14.8555 18.613 15.0577 19.5819 15.5683 20.3946C16.0789 21.2074 16.864 21.8101 17.7811 22.0933C17.5937 21.4826 17.4987 20.8472 17.4994 20.2083C17.4993 19.083 17.7919 17.977 18.3484 16.9989C18.9049 16.0208 19.7061 15.2042 20.6735 14.6293ZM19.3844 24.7691C19.0991 24.4904 18.8448 24.1816 18.626 23.8482C18.0975 23.8126 17.5834 23.661 17.1202 23.4041C16.7082 23.1726 16.2211 23.1141 15.766 23.2416C14.2385 23.6423 13.166 25.0398 13.166 26.6541V27.4232C13.1643 27.8804 13.276 28.3309 13.491 28.7343C13.6067 28.9427 13.7765 29.116 13.9824 29.2361C14.1883 29.3562 14.4227 29.4186 14.6611 29.4167H15.4194C15.5907 28.353 16.0512 27.3569 16.7505 26.5372C17.4498 25.7175 18.3609 25.1059 19.3844 24.7691ZM27.8777 26.2426C27.6898 26.1953 27.4972 26.1699 27.3035 26.1667C26.9278 26.1675 26.5586 26.2644 26.231 26.4484C25.5475 26.825 24.7798 27.0226 23.9994 27.0226C23.2189 27.0226 22.4512 26.825 21.7677 26.4484C21.4401 26.2644 21.0709 26.1675 20.6952 26.1667C20.5015 26.1699 20.3089 26.1953 20.121 26.2426C19.2105 26.4894 18.407 27.0299 17.8351 27.78C17.2631 28.5301 16.9547 29.4481 16.9577 30.3914V31.334C16.958 31.8863 17.0958 32.4298 17.3585 32.9156C17.6294 33.4356 18.171 33.7498 18.7777 33.7498H29.221C29.8277 33.7498 30.3694 33.4356 30.6402 32.9156C30.9029 32.4298 31.0407 31.8863 31.041 31.334V30.3916C31.0441 29.4482 30.7357 28.5303 30.1637 27.7801C29.5917 27.0299 28.7882 26.4894 27.8777 26.2426ZM28.8744 20.2083C28.8744 19.2441 28.5884 18.3016 28.0528 17.4999C27.5171 16.6982 26.7557 16.0734 25.8649 15.7044C24.9741 15.3354 23.9939 15.2389 23.0483 15.427C22.1026 15.6151 21.234 16.0794 20.5522 16.7612C19.8704 17.443 19.4061 18.3116 19.218 19.2573C19.0299 20.2029 19.1265 21.1831 19.4954 22.0739C19.8644 22.9647 20.4893 23.7261 21.2909 24.2617C22.0926 24.7974 23.0352 25.0833 23.9994 25.0833C25.2923 25.0833 26.5323 24.5697 27.4465 23.6555C28.3607 22.7412 28.8744 21.5012 28.8744 20.2083Z" fill="white"/>
</g>
<defs>
<filter id="filter0_i_3173_188" x="0" y="0" width="48" height="48" filterUnits="userSpaceOnUse" color-interpolation-filters="sRGB">
<feFlood flood-opacity="0" result="BackgroundImageFix"/>
<feBlend mode="normal" in="SourceGraphic" in2="BackgroundImageFix" result="shape"/>
<feColorMatrix in="SourceAlpha" type="matrix" values="0 0 0 0 0 0 0 0 0 0 0 0 0 0 0 0 0 0 127 0" result="hardAlpha"/>
<feOffset/>
<feGaussianBlur stdDeviation="6"/>
<feComposite in2="hardAlpha" operator="arithmetic" k2="-1" k3="1"/>
<feColorMatrix type="matrix" values="0 0 0 0 0.537664 0 0 0 0 0 0 0 0 0 0.820833 0 0 0 1 0"/>
<feBlend mode="normal" in2="shape" result="effect1_innerShadow_3173_188"/>
</filter>
</defs>
</svg>
