<svg width="48" height="48" viewBox="0 0 48 48" fill="none" xmlns="http://www.w3.org/2000/svg">
<g filter="url(#filter0_i_3173_169)">
<rect width="48" height="48" rx="24" fill="#00BCE7"/>
<path d="M29.2812 31.7188V29.0107L27.6493 26.8438H21.9688V31.7188H29.2812Z" fill="white"/>
<path d="M13.0312 23.452V34.1566H13.8438V28.0629C13.8438 27.9551 13.8866 27.8518 13.9627 27.7756C14.0389 27.6994 14.1423 27.6566 14.25 27.6566H19.9375C20.0452 27.6566 20.1486 27.6994 20.2248 27.7756C20.3009 27.8518 20.3438 27.9551 20.3438 28.0629V34.1566H30.9062V27.9321L30.0938 29.0111V32.1254C30.0938 32.2331 30.0509 32.3365 29.9748 32.4127C29.8986 32.4888 29.7952 32.5316 29.6875 32.5316H21.5625C21.4548 32.5316 21.3514 32.4888 21.2752 32.4127C21.1991 32.3365 21.1562 32.2331 21.1562 32.1254V26.4379C21.1562 26.3301 21.1991 26.2268 21.2752 26.1506C21.3514 26.0744 21.4548 26.0316 21.5625 26.0316H27.0375L24.1621 22.2129C23.9633 22.626 23.6521 22.9748 23.2642 23.2191C22.8762 23.4634 22.4272 23.5934 21.9688 23.5941C21.5663 23.5939 21.1701 23.494 20.8156 23.3033C20.4612 23.1126 20.1595 22.8371 19.9375 22.5013C19.5004 23.1595 18.7537 23.5941 17.9062 23.5941C17.0588 23.5941 16.3121 23.159 15.875 22.5013C15.653 22.8371 15.3513 23.1126 14.9969 23.3033C14.6424 23.494 14.2462 23.5939 13.8438 23.5941C13.5668 23.5934 13.292 23.5453 13.0312 23.452ZM14.25 24.4066H19.9375C20.0452 24.4066 20.1486 24.4494 20.2248 24.5256C20.3009 24.6018 20.3438 24.7051 20.3438 24.8129V26.4379C20.3438 26.5456 20.3009 26.649 20.2248 26.7252C20.1486 26.8013 20.0452 26.8441 19.9375 26.8441H14.25C14.1423 26.8441 14.0389 26.8013 13.9627 26.7252C13.8866 26.649 13.8438 26.5456 13.8438 26.4379V24.8129C13.8438 24.7051 13.8866 24.6018 13.9627 24.5256C14.0389 24.4494 14.1423 24.4066 14.25 24.4066Z" fill="white"/>
<path d="M14.6562 25.2188H19.5312V26.0312H14.6562V25.2188ZM14.6562 28.4688H19.5312V34.1562H14.6562V28.4688ZM21.9688 22.7812C22.8133 22.7812 23.5015 22.1313 23.5787 21.3066C23.1437 20.5069 22.8791 19.6258 22.8016 18.7188H20.3438V21.1562C20.3438 22.0524 21.0726 22.7812 21.9688 22.7812ZM17.9062 22.7812C18.8024 22.7812 19.5312 22.0524 19.5312 21.1562V18.7188H16.2812V21.1562C16.2812 22.0524 17.0101 22.7812 17.9062 22.7812ZM13.8438 22.7812C14.7399 22.7812 15.4688 22.0524 15.4688 21.1562V18.7188H12.2188V21.1562C12.2188 22.0524 12.9476 22.7812 13.8438 22.7812ZM29.6875 13.8438C27.2236 13.8438 25.2188 15.8486 25.2188 18.3125C25.2188 20.0447 26.2116 21.5467 27.6562 22.2881V19.5312C27.2082 19.5312 26.8438 19.1668 26.8438 18.7188V16.2812H27.6562V18.7188H28.4688V16.2812H29.2812V18.7188C29.2812 19.1668 28.9168 19.5312 28.4688 19.5312V22.6082C28.8567 22.7183 29.2646 22.7812 29.6875 22.7812C30.1104 22.7812 30.5183 22.7183 30.9062 22.6082V19.435C30.4293 19.2156 30.0938 18.6257 30.0938 17.9062C30.0938 16.995 30.6288 16.2812 31.3125 16.2812C31.9962 16.2812 32.5312 16.995 32.5312 17.9062C32.5312 18.6257 32.1957 19.2156 31.7188 19.435V22.2881C33.1634 21.5467 34.1562 20.0452 34.1562 18.3125C34.1562 15.8486 32.1514 13.8438 29.6875 13.8438ZM12.2188 34.9688H31.7188V35.7812H12.2188V34.9688Z" fill="white"/>
<path d="M35.1198 15.4915C34.0636 13.4424 32.0328 12.2188 29.6883 12.2188C27.3438 12.2188 25.313 13.4424 24.2567 15.4915C23.2338 17.4752 23.3991 19.7482 24.6975 21.5723L28.0552 26.0312H28.0633V26.0418L29.6883 28.1998L34.6856 21.5637C35.9774 19.7482 36.1428 17.4752 35.1198 15.4915ZM29.6883 23.5938C26.7763 23.5938 24.407 21.2245 24.407 18.3125C24.407 15.4005 26.7763 13.0312 29.6883 13.0312C32.6003 13.0312 34.9695 15.4005 34.9695 18.3125C34.9695 21.2245 32.6003 23.5938 29.6883 23.5938Z" fill="white"/>
<path d="M31.3125 18.7188C31.5369 18.7188 31.7188 18.355 31.7188 17.9062C31.7188 17.4575 31.5369 17.0938 31.3125 17.0938C31.0881 17.0938 30.9062 17.4575 30.9062 17.9062C30.9062 18.355 31.0881 18.7188 31.3125 18.7188Z" fill="white"/>
</g>
<defs>
<filter id="filter0_i_3173_169" x="0" y="0" width="48" height="48" filterUnits="userSpaceOnUse" color-interpolation-filters="sRGB">
<feFlood flood-opacity="0" result="BackgroundImageFix"/>
<feBlend mode="normal" in="SourceGraphic" in2="BackgroundImageFix" result="shape"/>
<feColorMatrix in="SourceAlpha" type="matrix" values="0 0 0 0 0 0 0 0 0 0 0 0 0 0 0 0 0 0 127 0" result="hardAlpha"/>
<feOffset/>
<feGaussianBlur stdDeviation="4"/>
<feComposite in2="hardAlpha" operator="arithmetic" k2="-1" k3="1"/>
<feColorMatrix type="matrix" values="0 0 0 0 0.0179167 0 0 0 0 0.440781 0 0 0 0 0.5375 0 0 0 0.3 0"/>
<feBlend mode="normal" in2="shape" result="effect1_innerShadow_3173_169"/>
</filter>
</defs>
</svg>
