<svg width="138" height="48" viewBox="0 0 138 48" fill="none" xmlns="http://www.w3.org/2000/svg">
<path d="M15.0051 21.669C16.854 19.3091 19.657 17.8955 22.643 17.8955C24.2151 17.8955 25.7674 18.2916 27.1662 19.047L22.7221 14.7491L22.7217 14.7487V9.06329H18.7862V10.9442L15.0051 7.28418L2.83398 19.0571C4.23317 18.2913 5.79049 17.8951 7.36726 17.8951C10.3482 17.8951 13.1513 19.3091 15.0051 21.669ZM15.0152 17.2219L13.9078 16.0756L15.0152 14.9292L16.1175 16.0756L15.0152 17.2219ZM17.571 14.5641L16.4636 15.7156L15.3613 14.5641L16.4636 13.4174L17.571 14.5641ZM14.9951 11.8853L16.0974 13.0316L14.9951 14.1832L13.8877 13.0316L14.9951 11.8853ZM13.542 13.3968L14.6443 14.5435L13.542 15.6951L12.4346 14.5435L13.542 13.3968Z" fill="#07AA83"/>
<path d="M26.6229 20.3243C26.514 20.2522 26.4054 20.1804 26.2918 20.1138C25.1399 19.4246 23.8794 19.0957 22.6384 19.0957C21.2195 19.0957 19.8256 19.5225 18.6292 20.3246C17.6749 20.9672 16.8443 21.8463 16.2365 22.9466C15.5494 24.1961 15.1835 26.638 15.0005 29.3164C14.8126 26.638 14.4467 24.1958 13.7598 22.9466C13.1517 21.8463 12.3261 20.9672 11.3672 20.3246C10.1758 19.5225 8.77692 19.0957 7.36299 19.0957C6.11726 19.0957 4.85646 19.4246 3.70454 20.1138C3.59096 20.1807 3.48207 20.2525 3.37351 20.3243C0.101043 22.5146 -0.981841 27.0181 0.975875 30.5704C2.19212 32.776 7.02694 35.9788 10.685 38.174C12.0098 36.8886 13.2904 35.6394 14.3187 34.6164C13.5032 33.8196 12.9001 33.2331 12.6428 32.9868C11.5552 31.9429 8.38624 32.1847 7.53588 31.3108C6.69054 30.4317 3.76888 26.6892 3.76888 26.6892L4.1495 26.2623L7.29364 29.5781C7.39248 29.6808 7.55062 29.6808 7.64444 29.5833C7.7483 29.4857 7.74831 29.3209 7.64947 29.2181L4.49058 25.8815L4.83669 25.4909C4.83669 25.4909 7.7138 28.1951 8.14903 28.5909C8.56919 28.9714 8.78194 28.7502 8.79668 28.7296C8.81143 28.7143 9.00911 28.4777 8.61375 28.0718C8.19862 27.6502 5.37579 24.879 5.37579 24.879L5.7219 24.4933L9.17262 27.5063C9.27648 27.5986 9.43463 27.5833 9.52342 27.47C9.61254 27.362 9.59779 27.1975 9.49393 27.1049L6.05796 24.1076L6.43858 23.6811C6.43858 23.6811 10.2599 26.4111 11.1695 27.2181C12.0792 28.0303 12.0939 31.331 13.1815 32.3798C13.4385 32.6317 14.0664 33.2279 14.9218 34.03C15.6928 33.269 16.2613 32.7035 16.4989 32.4617C17.1365 31.8192 17.3787 30.3645 17.6605 29.1355C17.6706 29.0739 17.6853 29.0174 17.695 28.9505C17.8284 28.3693 18.0857 27.7679 18.4713 27.1871C18.7136 26.817 19.0004 26.4571 19.3365 26.1177C20.0729 25.3773 20.9085 24.8686 21.7143 24.6216C22.1496 24.4829 22.5748 24.4212 22.9751 24.447C23.1976 24.4574 23.4151 24.4933 23.608 24.5602C23.791 24.6216 23.9542 24.7041 24.1123 24.8069C24.2209 24.8891 24.3251 24.9766 24.4189 25.0742C24.5127 25.177 24.5918 25.2846 24.6662 25.4034C24.76 25.5679 24.834 25.7425 24.8886 25.9379C24.9429 26.1386 24.9727 26.3648 24.9778 26.5961C24.9878 27.0125 24.9134 27.4547 24.7653 27.9021C24.4983 28.7296 23.9793 29.5833 23.2425 30.3234C22.9065 30.6624 22.5553 30.9505 22.1894 31.1819C21.6209 31.562 21.0278 31.8143 20.4689 31.9324C20.4046 31.9429 20.3453 31.953 20.291 31.9634C19.0996 32.2154 17.6957 32.4157 17.0531 33.0534C16.8158 33.2899 16.2721 33.845 15.5306 34.6008C16.6182 35.6238 17.9627 36.8785 19.3468 38.1534C23.0003 35.9583 27.8053 32.7708 29.0215 30.5704C30.9832 27.0181 29.9004 22.5146 26.6229 20.3243Z" fill="#07AA83"/>
<path d="M11.7568 38.7559C13.5169 39.7943 14.8665 40.5246 15.158 40.6786C15.158 40.6991 15.158 40.7148 15.158 40.7148C15.158 40.7148 15.1727 40.7096 15.1925 40.6991C15.2123 40.7093 15.2223 40.7148 15.2223 40.7148C15.2223 40.7148 15.2223 40.6991 15.2223 40.6786C15.5138 40.5246 16.8684 39.7894 18.6382 38.7507C17.3727 37.4859 16.1367 36.2674 15.1235 35.2754C14.1592 36.2625 12.9778 37.481 11.7568 38.7559Z" fill="#07AA83"/>
<path d="M41.84 36.385C40.58 36.385 39.4483 36.14 38.445 35.65C37.4417 35.16 36.66 34.495 36.1 33.655C35.54 32.815 35.26 31.87 35.26 30.82C35.26 29.56 35.5867 28.5683 36.24 27.845C36.8933 27.0983 37.955 26.5733 39.425 26.27C40.895 25.9433 42.8433 25.78 45.27 25.78H47.125V28.51H45.305C44.395 28.51 43.625 28.545 42.995 28.615C42.3883 28.685 41.8867 28.8133 41.49 29C41.0933 29.1633 40.8017 29.3733 40.615 29.63C40.4517 29.8867 40.37 30.2133 40.37 30.61C40.37 31.2633 40.5917 31.8 41.035 32.22C41.5017 32.64 42.1667 32.85 43.03 32.85C43.7067 32.85 44.3017 32.6983 44.815 32.395C45.3517 32.0683 45.7717 31.6367 46.075 31.1C46.3783 30.54 46.53 29.91 46.53 29.21V25.185C46.53 24.1583 46.2967 23.435 45.83 23.015C45.3633 22.5717 44.57 22.35 43.45 22.35C42.5167 22.35 41.525 22.5017 40.475 22.805C39.4483 23.085 38.4217 23.5167 37.395 24.1L35.96 20.565C36.5667 20.145 37.3017 19.7833 38.165 19.48C39.0517 19.1533 39.9733 18.9083 40.93 18.745C41.8867 18.5583 42.7967 18.465 43.66 18.465C45.4567 18.465 46.9267 18.7333 48.07 19.27C49.2367 19.7833 50.1117 20.5883 50.695 21.685C51.2783 22.7583 51.57 24.1467 51.57 25.85V36H46.635V32.535H46.88C46.74 33.3283 46.4367 34.0167 45.97 34.6C45.5267 35.16 44.955 35.6033 44.255 35.93C43.555 36.2333 42.75 36.385 41.84 36.385ZM56.4274 36V11.325H73.0874V15.56H61.8524V21.58H72.3174V25.815H61.8524V36H56.4274ZM84.0723 36.385C82.229 36.385 80.619 36.0233 79.2423 35.3C77.889 34.5767 76.839 33.5383 76.0923 32.185C75.3456 30.8317 74.9723 29.2333 74.9723 27.39C74.9723 25.5467 75.3456 23.96 76.0923 22.63C76.839 21.3 77.889 20.2733 79.2423 19.55C80.619 18.8267 82.229 18.465 84.0723 18.465C85.9156 18.465 87.514 18.8267 88.8673 19.55C90.244 20.2733 91.3056 21.3117 92.0523 22.665C92.8223 23.995 93.2073 25.57 93.2073 27.39C93.2073 29.2333 92.8223 30.8317 92.0523 32.185C91.3056 33.5383 90.244 34.5767 88.8673 35.3C87.514 36.0233 85.9156 36.385 84.0723 36.385ZM84.0723 32.43C85.2156 32.43 86.1373 32.0217 86.8373 31.205C87.5373 30.365 87.8873 29.0933 87.8873 27.39C87.8873 25.6867 87.5373 24.4383 86.8373 23.645C86.1373 22.8283 85.2156 22.42 84.0723 22.42C82.9523 22.42 82.0423 22.8283 81.3423 23.645C80.6423 24.4383 80.2923 25.6867 80.2923 27.39C80.2923 29.0933 80.6423 30.365 81.3423 31.205C82.0423 32.0217 82.9523 32.43 84.0723 32.43ZM105.143 36.385C103.299 36.385 101.689 36.0233 100.313 35.3C98.9593 34.5767 97.9093 33.5383 97.1627 32.185C96.416 30.8317 96.0427 29.2333 96.0427 27.39C96.0427 25.5467 96.416 23.96 97.1627 22.63C97.9093 21.3 98.9593 20.2733 100.313 19.55C101.689 18.8267 103.299 18.465 105.143 18.465C106.986 18.465 108.584 18.8267 109.938 19.55C111.314 20.2733 112.376 21.3117 113.123 22.665C113.893 23.995 114.278 25.57 114.278 27.39C114.278 29.2333 113.893 30.8317 113.123 32.185C112.376 33.5383 111.314 34.5767 109.938 35.3C108.584 36.0233 106.986 36.385 105.143 36.385ZM105.143 32.43C106.286 32.43 107.208 32.0217 107.908 31.205C108.608 30.365 108.958 29.0933 108.958 27.39C108.958 25.6867 108.608 24.4383 107.908 23.645C107.208 22.8283 106.286 22.42 105.143 22.42C104.023 22.42 103.113 22.8283 102.413 23.645C101.713 24.4383 101.363 25.6867 101.363 27.39C101.363 29.0933 101.713 30.365 102.413 31.205C103.113 32.0217 104.023 32.43 105.143 32.43ZM124.638 36.385C123.145 36.385 121.826 36.0233 120.683 35.3C119.563 34.5767 118.688 33.5383 118.058 32.185C117.428 30.8317 117.113 29.2333 117.113 27.39C117.113 25.5467 117.428 23.96 118.058 22.63C118.688 21.3 119.563 20.2733 120.683 19.55C121.826 18.8267 123.145 18.465 124.638 18.465C125.991 18.465 127.181 18.7917 128.208 19.445C129.258 20.0983 129.97 20.95 130.343 22H129.958V11.325H135.243V36H130.063V32.605H130.378C130.051 33.7483 129.351 34.67 128.278 35.37C127.228 36.0467 126.015 36.385 124.638 36.385ZM126.213 32.43C127.356 32.43 128.278 32.0217 128.978 31.205C129.678 30.365 130.028 29.0933 130.028 27.39C130.028 25.6867 129.678 24.4383 128.978 23.645C128.278 22.8283 127.356 22.42 126.213 22.42C125.093 22.42 124.183 22.8283 123.483 23.645C122.783 24.4383 122.433 25.6867 122.433 27.39C122.433 29.0933 122.783 30.365 123.483 31.205C124.183 32.0217 125.093 32.43 126.213 32.43Z" fill="#182A3C"/>
</svg>
