<svg width="15" height="15" viewBox="0 0 15 15" fill="none" xmlns="http://www.w3.org/2000/svg">
<path d="M7.24805 0.900391C10.7459 0.900586 13.5947 3.68324 13.5947 7.10938C13.5947 8.6907 12.9859 10.1344 11.9883 11.2314L13.9287 13.125C14.128 13.32 14.1533 13.621 14.0039 13.8428L13.9297 13.9326C13.8161 14.0452 13.6662 14.0996 13.5186 14.0996C13.3715 14.0996 13.2232 14.0449 13.1094 13.9346L11.1367 12.0117C10.0616 12.8299 8.71232 13.3193 7.24805 13.3193C3.75006 13.3193 0.900461 10.5356 0.900391 7.10938C0.900391 3.68311 3.75003 0.900391 7.24805 0.900391ZM7.24805 2.04102C4.38676 2.04102 2.0625 4.31661 2.0625 7.10938C2.06257 9.9021 4.38682 12.1777 7.24805 12.1777C10.1085 12.1775 12.4325 9.90199 12.4326 7.10938C12.4326 4.31672 10.1085 2.04121 7.24805 2.04102Z" fill="white" stroke="white" stroke-width="0.2"/>
</svg>
