<?xml version="1.0" encoding="utf-8"?>
<!-- Generator: Adobe Illustrator 27.0.0, SVG Export Plug-In . SVG Version: 6.00 Build 0)  -->
<svg version="1.1" id="Layer_1" xmlns="http://www.w3.org/2000/svg" xmlns:xlink="http://www.w3.org/1999/xlink" x="0px" y="0px"
	 viewBox="0 0 567.9 200" style="enable-background:new 0 0 567.9 200;" xml:space="preserve">
<style type="text/css">
	.st0{fill:#F5802B;}
	.st1{fill:#FFFFFF;}
</style>
<g>
	<path class="st0" d="M26.4,130.9l11.4-19.3c0,0,1.3-3.8,0-6.5s-7.3-16.3-6.3-28c1-11.8,4.7-40.6,41-55.7s79,12.4,79.2,52
		s-22.5,55.2-41.9,62.5l-11.1,2.5c0,0-3.9,1.2-6.4,5.6S74,176.1,74,176.1s-2.5,3.6-6.4,0.7c0,0-1.7-2.5,0.5-6c2.2-3.5,30-54,30-54
		s4.4-5.7,10.9-7.4c6.5-1.8,9.5-4.8,12.5-11.8c2.7-6.2,10.7-25.4,12.5-29.7c0.2-0.5,0-1-0.5-1.3l0,0c-0.5-0.2-1-0.1-1.3,0.4
		l-13.7,24c-0.9,1.6-2.9,2.1-4.5,1.1l0,0c-1.3-0.9-1.8-2.7-1-4.1l13-24.7c0.3-0.5,0.1-1.2-0.4-1.4l0,0c-0.5-0.3-1.1-0.1-1.4,0.4
		l-14.9,23.6c-0.9,1.4-2.7,1.8-4.1,1l0,0c-1.4-0.8-1.9-2.7-1-4.1l14.1-24.1c0.3-0.5,0.1-1-0.3-1.3l0,0c-0.4-0.3-1-0.2-1.3,0.2
		l-22.5,30c0,0-2.1,3.5-2,6.7c0.1,3.2,3.3,14.5-0.6,20.6s-16.7,25.1-22.3,35.2c-4.3,7.8-13.3,23.1-17.3,29.8
		c-1.1,1.8-3.4,2.4-5.2,1.2l0,0c-1.7-1.1-2.2-3.3-1.2-5l19.6-33.3c2.1-3.5,0.8-8-2.7-10l0,0c-3.5-1.9-7.8-0.8-9.8,2.7l-26.6,45.6
		c-1.2,2-3.7,2.6-5.7,1.3l0,0c-1.8-1.2-2.3-3.5-1.2-5.4l30.6-51.6c0,0,15.9-31.5,18.4-34.2s11.8-4.9,14-6.2S95.3,77,98,63.9
		c2.7-13.1-2.8-22.8-12-23.7c-8.5-0.9-22.6,7.9-26.2,25.9c-0.6,2.8-0.5,5.7,0,8.5c1.5,7.8,2.6,9.5,0.9,13.7
		c-2,4.7-16.3,25.7-19,31.1c-1.9,3.9-6.4,11.6-8.8,15.7c-0.9,1.5-2.8,2-4.3,1.1l-1.3-0.8C25.8,134.5,25.3,132.4,26.4,130.9
		L26.4,130.9L26.4,130.9z"/>
	<path class="st0" d="M92.7,64.3L92.7,64.3c-0.7-0.2-1.1-0.8-1-1.5c0.4-2,0.5-4,0.3-6c-0.2-2.2-0.7-4.4-1.5-6.5
		c-0.2-0.6,0-1.3,0.7-1.6h0c0.7-0.3,1.4,0,1.7,0.7c0.9,2.3,1.5,4.7,1.7,7.2c0.2,2.2,0.1,4.5-0.4,6.6C94.1,64,93.4,64.5,92.7,64.3
		L92.7,64.3z"/>
	<path class="st0" d="M92,66.9c-0.6-0.6-1.3-0.4-1.9,0c-0.3,0.8-0.7,1.6-1.1,2.3c-0.3,0.7-0.2,1.5,0.4,1.9l0,0
		c0.6,0.4,1.4,0.1,1.8-0.6c0.4-0.8,0.8-1.6,1.1-2.4C92.3,67.6,92.3,67.2,92,66.9z"/>
</g>
<path class="st1" d="M171.4,70.4h43V84h-27.6v16.7h23.6v13.6h-23.6v28h-15.4L171.4,70.4L171.4,70.4z"/>
<path class="st1" d="M220,115c0-18.2,12.1-28.7,25.3-28.7c13.1,0,25.3,10.5,25.3,28.7s-12.1,28.7-25.3,28.7S220,133.2,220,115
	L220,115z M254.8,115c0-9.5-3.2-15.6-9.5-15.6s-9.5,6.2-9.5,15.6s3.2,15.6,9.5,15.6S254.8,124.5,254.8,115z"/>
<path class="st1" d="M278.1,115c0-18.2,12.1-28.7,25.3-28.7s25.3,10.5,25.3,28.7s-12.1,28.7-25.3,28.7S278.1,133.2,278.1,115z
	 M312.8,115c0-9.5-3.2-15.6-9.5-15.6s-9.5,6.2-9.5,15.6s3.2,15.6,9.5,15.6S312.8,124.5,312.8,115z"/>
<path class="st1" d="M336.4,115c0-17.9,10.6-28.7,21.5-28.7c5.7,0,9.2,2.2,12.7,5.7l-0.5-8.3V65h15.4v77.3h-12.5l-1.1-5.4h-0.4
	c-3.7,3.9-8.8,6.8-13.8,6.8C344.8,143.7,336.4,132.9,336.4,115L336.4,115z M370.1,125.5V103c-2.7-2.6-5.8-3.5-8.6-3.5
	c-5,0-9.3,4.9-9.3,15.3s3.5,15.6,9.5,15.6C364.9,130.4,367.6,129.1,370.1,125.5L370.1,125.5z"/>
<path class="st0" d="M400.3,70.4h23.4c15,0,27.1,5.7,27.1,23.2s-12.2,24.4-26.7,24.4h-8.4v24.4h-15.4L400.3,70.4L400.3,70.4z
	 M423.2,105c8.5,0,12.5-4,12.5-11.5s-4.6-10.2-12.9-10.2h-7.1V105L423.2,105L423.2,105z"/>
<path class="st0" d="M461.3,87.6h12.5l1.1,9.6h0.4c3.8-7.3,9.5-10.9,14.7-10.9c3,0,4.7,0.4,6.2,1.1l-2.6,14
	c-1.9-0.5-3.4-0.9-5.6-0.9c-3.9,0-8.7,2.7-11.4,10.1v31.7h-15.4V87.6L461.3,87.6z"/>
<path class="st0" d="M498.9,115c0-18.2,12.1-28.7,25.3-28.7c13.1,0,25.3,10.5,25.3,28.7s-12.1,28.7-25.3,28.7
	C511,143.7,498.9,133.2,498.9,115z M533.6,115c0-9.5-3.2-15.6-9.5-15.6s-9.5,6.2-9.5,15.6s3.2,15.6,9.5,15.6S533.6,124.5,533.6,115z
	"/>
</svg>
