<?xml version="1.0" encoding="UTF-8"?>
<svg id="Layer_1" data-name="Layer 1" xmlns="http://www.w3.org/2000/svg" viewBox="0 0 200 200">
  <defs>
    <style>
      .cls-1 {
        fill: #f5802b;
      }
    </style>
  </defs>
  <path class="cls-1" d="M39.72,139.82l11.74-19.79s1.38-3.91,0-6.67-7.51-16.72-6.45-28.78,4.87-41.69,42.11-57.14,81.05,12.7,81.26,53.33c.21,40.63-23.07,56.71-42.96,64.12l-11.43,2.54s-4.02,1.27-6.56,5.71c-2.54,4.44-18.83,33.01-18.83,33.01,0,0-2.61,3.74-6.56,.71,0,0-1.76-2.54,.49-6.14s30.82-55.41,30.82-55.41c0,0,4.55-5.82,11.22-7.62,6.67-1.8,9.73-4.94,12.8-12.1,2.72-6.34,10.99-26.1,12.83-30.51,.21-.5,0-1.06-.49-1.3h0c-.48-.24-1.07-.06-1.33,.41l-14.05,24.6c-.93,1.62-3.03,2.12-4.59,1.08h0c-1.37-.92-1.83-2.72-1.06-4.18l13.38-25.4c.28-.53,.08-1.18-.44-1.46h0c-.5-.27-1.12-.11-1.43,.37l-15.35,24.27c-.89,1.41-2.74,1.84-4.17,.99h0c-1.43-.86-1.91-2.72-1.07-4.16l14.43-24.77c.28-.47,.13-1.08-.33-1.38h0c-.45-.3-1.06-.19-1.38,.24l-23.05,30.76s-2.19,3.6-2.05,6.84c.14,3.24,3.39,14.88-.63,21.16s-17.14,25.75-22.85,36.12c-4.38,7.95-13.68,23.68-17.78,30.59-1.1,1.85-3.51,2.42-5.32,1.26l-.05-.03c-1.72-1.1-2.27-3.37-1.23-5.13l20.1-34.19c2.12-3.6,.86-8.23-2.78-10.27h0c-3.54-1.99-8.03-.77-10.08,2.74l-27.34,46.76c-1.19,2.03-3.84,2.65-5.81,1.35h0c-1.83-1.21-2.38-3.64-1.26-5.52l31.44-52.93s16.29-32.38,18.83-35.13,12.06-5.08,14.39-6.35,13.65-7.94,16.4-21.37c2.75-13.44-2.86-23.38-12.27-24.34-8.71-.88-23.21,8.11-26.93,26.54-.58,2.88-.53,5.86,.01,8.75,1.51,8.03,2.64,9.78,.89,14.02-2.01,4.87-16.72,26.35-19.47,31.95-1.97,4.01-6.59,11.92-9.06,16.1-.9,1.52-2.85,2.02-4.37,1.14l-1.33-.77c-1.62-.95-2.09-3.08-1.01-4.61h0Z"/>
  <path class="cls-1" d="M107.74,71.47h-.03c-.67-.17-1.08-.83-.95-1.51,.38-2.01,.5-4.06,.34-6.11-.18-2.29-.69-4.53-1.52-6.67-.25-.65,.03-1.38,.67-1.67h.02c.68-.32,1.48,.02,1.75,.71,.93,2.38,1.5,4.87,1.69,7.42,.18,2.28,.05,4.57-.38,6.82-.14,.72-.87,1.18-1.58,1Z"/>
  <path class="cls-1" d="M107.04,74.08c-.57-.64-1.3-.45-1.96-.02-.32,.81-.68,1.6-1.07,2.37-.36,.7-.19,1.55,.4,1.93l.03,.02c.63,.41,1.49,.14,1.87-.61,.41-.8,.78-1.62,1.12-2.45-.02-.47-.11-.92-.4-1.24Z"/>
</svg>