<?xml version="1.0" encoding="UTF-8"?>
<svg id="Layer_1" data-name="Layer 1" xmlns="http://www.w3.org/2000/svg" viewBox="0 0 567.88 200">
  <defs>
    <style>
      .cls-1 {
        fill: #f5802b;
      }
    </style>
  </defs>
  <g>
    <path class="cls-1" d="M22.08,125.48l11.44-19.27s1.34-3.81,0-6.49-7.32-16.28-6.29-28.03c1.03-11.75,4.74-40.61,41.02-55.66,36.28-15.05,78.95,12.37,79.16,51.95,.21,39.58-22.47,55.24-41.85,62.46l-11.13,2.47s-3.92,1.24-6.39,5.57c-2.47,4.33-18.35,32.16-18.35,32.16,0,0-2.54,3.64-6.39,.69,0,0-1.72-2.47,.48-5.98s30.03-53.97,30.03-53.97c0,0,4.43-5.67,10.93-7.42,6.49-1.75,9.48-4.82,12.47-11.79,2.65-6.18,10.7-25.42,12.5-29.72,.2-.48,0-1.04-.48-1.27h0c-.47-.23-1.04-.06-1.3,.4l-13.69,23.96c-.9,1.58-2.95,2.06-4.47,1.05h0c-1.34-.89-1.79-2.65-1.04-4.07l13.04-24.74c.27-.51,.08-1.15-.43-1.42h0c-.49-.26-1.1-.1-1.39,.36l-14.95,23.64c-.87,1.37-2.67,1.8-4.06,.96h0c-1.4-.84-1.86-2.65-1.04-4.06l14.05-24.12c.27-.46,.13-1.05-.32-1.34h0c-.44-.29-1.03-.18-1.35,.24l-22.46,29.96s-2.13,3.5-1.99,6.67c.14,3.16,3.3,14.5-.62,20.61s-16.7,25.08-22.26,35.18c-4.27,7.75-13.33,23.07-17.32,29.79-1.07,1.8-3.42,2.36-5.18,1.23l-.05-.03c-1.68-1.07-2.21-3.28-1.2-5l19.58-33.31c2.06-3.51,.84-8.02-2.71-10.01h0c-3.45-1.94-7.82-.75-9.82,2.67l-26.63,45.55c-1.16,1.98-3.74,2.58-5.66,1.32h0c-1.78-1.18-2.32-3.54-1.23-5.38l30.62-51.56s15.87-31.54,18.35-34.22,11.75-4.95,14.02-6.18,13.3-7.73,15.98-20.82c2.68-13.09-2.78-22.78-11.96-23.71-8.49-.86-22.61,7.9-26.24,25.86-.57,2.81-.51,5.71,.01,8.52,1.47,7.82,2.57,9.53,.87,13.65-1.96,4.74-16.28,25.66-18.96,31.13-1.92,3.91-6.42,11.61-8.83,15.68-.87,1.48-2.77,1.97-4.26,1.11l-1.29-.75c-1.58-.92-2.04-3-.98-4.49h0Z"/>
    <path class="cls-1" d="M88.33,58.89h-.03c-.65-.17-1.05-.81-.93-1.47,.37-1.96,.48-3.96,.33-5.95-.17-2.23-.67-4.41-1.48-6.5-.25-.63,.03-1.34,.65-1.62h.02c.66-.31,1.44,.02,1.71,.7,.9,2.32,1.46,4.74,1.65,7.23,.17,2.22,.05,4.45-.37,6.64-.13,.71-.84,1.15-1.54,.98Z"/>
    <path class="cls-1" d="M87.65,61.44c-.56-.62-1.27-.44-1.9-.02-.32,.78-.66,1.56-1.05,2.31-.35,.68-.18,1.51,.39,1.88l.03,.02c.62,.4,1.45,.13,1.83-.6,.4-.78,.76-1.58,1.09-2.39-.02-.46-.11-.89-.39-1.2Z"/>
  </g>
  <g>
    <path d="M167.1,64.98h43.01v13.64h-27.6v16.68h23.58v13.64h-23.58v27.99h-15.41V64.98Z"/>
    <path d="M215.71,109.57c0-18.21,12.14-28.73,25.27-28.73s25.27,10.52,25.27,28.73-12.14,28.7-25.27,28.7-25.27-10.52-25.27-28.7Zm34.78,0c0-9.48-3.16-15.63-9.52-15.63s-9.52,6.16-9.52,15.63,3.16,15.6,9.52,15.6,9.52-6.12,9.52-15.6Z"/>
    <path d="M273.73,109.57c0-18.21,12.14-28.73,25.27-28.73s25.27,10.52,25.27,28.73-12.14,28.7-25.27,28.7-25.27-10.52-25.27-28.7Zm34.78,0c0-9.48-3.16-15.63-9.52-15.63s-9.52,6.16-9.52,15.63,3.16,15.6,9.52,15.6,9.52-6.12,9.52-15.6Z"/>
    <path d="M332.1,109.57c0-17.91,10.59-28.73,21.51-28.73,5.72,0,9.21,2.25,12.72,5.71l-.55-8.3v-18.66h15.37v77.35h-12.54l-1.11-5.43h-.38c-3.67,3.87-8.79,6.75-13.8,6.75-12.89,0-21.22-10.81-21.22-28.7Zm33.68,10.51v-22.49c-2.72-2.57-5.77-3.47-8.58-3.47-4.98,0-9.34,4.86-9.34,15.27s3.52,15.6,9.47,15.6c3.27,0,5.91-1.31,8.46-4.91Z"/>
    <path class="cls-1" d="M395.95,64.98h23.41c14.99,0,27.09,5.66,27.09,23.15s-12.23,24.4-26.67,24.4h-8.42v24.42h-15.41V64.98Zm22.92,34.63c8.47,0,12.48-3.99,12.48-11.48s-4.56-10.23-12.9-10.23h-7.09v21.71h7.51Z"/>
    <path class="cls-1" d="M456.98,82.16h12.54l1.11,9.57h.38c3.78-7.31,9.45-10.9,14.74-10.9,2.96,0,4.69,.4,6.19,1.1l-2.56,14.01c-1.85-.48-3.37-.88-5.6-.88-3.91,0-8.66,2.66-11.43,10.13v31.74h-15.37v-54.78Z"/>
    <path class="cls-1" d="M494.53,109.57c0-18.21,12.14-28.73,25.27-28.73s25.27,10.52,25.27,28.73-12.14,28.7-25.27,28.7-25.27-10.52-25.27-28.7Zm34.78,0c0-9.48-3.16-15.63-9.52-15.63s-9.52,6.16-9.52,15.63,3.16,15.6,9.52,15.6,9.52-6.12,9.52-15.6Z"/>
  </g>
</svg>