<svg width="24" height="24" viewBox="0 0 24 24" fill="none" xmlns="http://www.w3.org/2000/svg">
<g clip-path="url(#clip0_1841_7102)">
<path d="M23.6276 11.6127C23.4326 11.4102 22.9948 11.1035 22.2504 11.3251C21.8038 11.4578 20.3826 12.4655 19.2067 13.3351C19.2926 13.6144 19.3257 13.9073 19.3042 14.1987C20.6767 13.1761 22.1372 12.1411 22.4644 12.044C22.5664 12.0007 22.6783 11.9861 22.788 12.0018C22.8976 12.0174 23.001 12.0626 23.0869 12.1327C23.1708 12.2404 23.2252 12.3681 23.2448 12.5032C23.2644 12.6383 23.2485 12.7762 23.1986 12.9033C22.9322 13.6863 17.9537 17.8098 15.9015 18.9472C14.1112 19.9394 12.9324 19.3775 12.0722 18.9674C10.6106 18.296 9.07631 17.796 7.49981 17.4773V17.6238C7.49918 17.8264 7.47105 18.028 7.41618 18.223C8.90896 18.534 10.3623 19.0107 11.7493 19.6443C12.4349 20.0175 13.1985 20.2249 13.9787 20.2499C14.7838 20.2351 15.5715 20.0122 16.2651 19.603C18.0619 18.6072 23.505 14.3307 23.9085 13.1448C24.0046 12.8879 24.0292 12.6098 23.9797 12.34C23.9303 12.0703 23.8086 11.8188 23.6276 11.6127Z" fill="#FF66A5"/>
<path d="M10.9836 12.0129C11.7021 12.0844 12.4017 12.2856 13.0483 12.6069C13.3589 12.7594 13.6845 12.8794 14.0198 12.9651C14.4907 13.0457 14.9678 13.0845 15.4455 13.0811C16.3312 13.1049 17.3355 13.1321 17.6599 13.5506C17.7333 13.6533 17.782 13.7715 17.8021 13.8961C17.8222 14.0207 17.8132 14.1482 17.7757 14.2687C17.6861 14.5537 17.4336 14.7681 17.0451 14.889C16.0479 15.1997 13.3198 15.4864 12.1912 15.3319C12.1423 15.3248 12.0924 15.3275 12.0445 15.3398C11.9965 15.3521 11.9515 15.3738 11.912 15.4035C11.8725 15.4333 11.8393 15.4706 11.8142 15.5133C11.7892 15.556 11.7729 15.6032 11.7662 15.6522C11.7595 15.7012 11.7625 15.7511 11.7752 15.7989C11.7878 15.8468 11.8098 15.8916 11.8399 15.9309C11.87 15.9702 11.9075 16.0032 11.9504 16.0279C11.9932 16.0526 12.0406 16.0686 12.0896 16.0749C12.3868 16.1105 12.6859 16.1266 12.9851 16.1231C14.3833 16.1231 16.3973 15.8764 17.2682 15.6051C17.8926 15.4104 18.3268 15.0159 18.4911 14.4939C18.564 14.2578 18.5803 14.0078 18.5389 13.7642C18.4975 13.5205 18.3994 13.29 18.2526 13.0912C17.7107 12.3919 16.5694 12.3611 15.4656 12.3313C15.035 12.3345 14.605 12.3015 14.1801 12.2325C13.8952 12.1568 13.6186 12.0529 13.3543 11.9224C12.6324 11.5671 11.8524 11.3448 11.0516 11.2661C9.91613 11.1619 8.316 11.5781 7.32656 11.8854C7.42332 12.1192 7.47968 12.3676 7.49325 12.6202C8.42212 12.3291 9.95794 11.9188 10.9836 12.0129ZM5.25 11.2496H0.375C0.275544 11.2496 0.180161 11.2891 0.109835 11.3595C0.0395088 11.4298 0 11.5252 0 11.6246C0 11.7241 0.0395088 11.8195 0.109835 11.8898C0.180161 11.9601 0.275544 11.9996 0.375 11.9996L1 12.0129V18.3743H0.375C0.275544 18.3743 0.180161 18.4138 0.109835 18.4841C0.0395088 18.5544 0 18.6498 0 18.7493C0 18.8487 0.0395088 18.9441 0.109835 19.0144C0.180161 19.0847 0.275544 19.1243 0.375 19.1243H5.25C5.64766 19.1238 6.02888 18.9656 6.31005 18.6844C6.59121 18.4031 6.74937 18.0219 6.74981 17.6243V12.7496C6.74937 12.3519 6.59119 11.9707 6.30998 11.6895C6.02877 11.4082 5.64769 11.2501 5.25 11.2496ZM17.8119 3C17.0703 3.00004 16.3453 3.21999 15.7287 3.63203C15.1121 4.04408 14.6315 4.62973 14.3477 5.31491C14.0639 6.00009 13.9897 6.75404 14.1344 7.48141C14.2791 8.20879 14.6362 8.87692 15.1606 9.40133C15.685 9.92574 16.3532 10.2829 17.0805 10.4276C17.8079 10.5723 18.5618 10.498 19.247 10.2142C19.9322 9.93043 20.5179 9.44984 20.9299 8.83321C21.342 8.21659 21.5619 7.49163 21.5619 6.75C21.5608 5.75577 21.1654 4.80258 20.4624 4.09956C19.7594 3.39653 18.8062 3.00109 17.8119 3ZM18.6863 8.07337C18.5914 8.18081 18.4731 8.26504 18.3405 8.31956V8.62481C18.3405 8.72427 18.301 8.81965 18.2307 8.88998C18.1603 8.9603 18.065 8.99981 17.9655 8.99981C17.866 8.99981 17.7707 8.9603 17.7003 8.88998C17.63 8.81965 17.5905 8.72427 17.5905 8.62481V8.39794H17.2196C17.1202 8.39794 17.0248 8.35843 16.9545 8.2881C16.8841 8.21777 16.8446 8.12239 16.8446 8.02294C16.8446 7.92348 16.8841 7.8281 16.9545 7.75777C17.0248 7.68745 17.1202 7.64794 17.2196 7.64794H17.9394C17.9734 7.65059 18.0075 7.64567 18.0394 7.63355C18.0712 7.62142 18.1 7.60238 18.1236 7.57781C18.1661 7.52579 18.1885 7.46028 18.1869 7.39313C18.1901 7.36019 18.1858 7.32697 18.1744 7.29592C18.163 7.26487 18.1447 7.23681 18.1209 7.21381C18.0971 7.19082 18.0684 7.17349 18.037 7.16311C18.0056 7.15273 17.9722 7.14957 17.9394 7.15387H17.6826C17.5505 7.15612 17.4194 7.13162 17.297 7.08188C17.1747 7.03213 17.0637 6.95814 16.9707 6.86438C16.8777 6.77062 16.8046 6.65902 16.7558 6.53628C16.7071 6.41354 16.6836 6.28221 16.6869 6.15019C16.6793 5.90044 16.7694 5.65756 16.9383 5.47336C17.1071 5.28915 17.3412 5.17819 17.5907 5.16412V4.875C17.5907 4.77554 17.6302 4.68016 17.7005 4.60983C17.7708 4.53951 17.8662 4.5 17.9657 4.5C18.0651 4.5 18.1605 4.53951 18.2309 4.60983C18.3012 4.68016 18.3407 4.77554 18.3407 4.875V5.15981H18.4022C18.5016 5.15981 18.597 5.19932 18.6674 5.26965C18.7377 5.33997 18.7772 5.43536 18.7772 5.53481C18.7772 5.63427 18.7377 5.72965 18.6674 5.79998C18.597 5.8703 18.5016 5.90981 18.4022 5.90981H17.6826C17.6484 5.90671 17.614 5.91107 17.5817 5.9226C17.5493 5.93412 17.5199 5.95254 17.4954 5.97656C17.4557 6.02553 17.435 6.08716 17.4369 6.15019C17.4339 6.18359 17.438 6.21726 17.4492 6.24891C17.4603 6.28055 17.4781 6.30941 17.5015 6.33352C17.5248 6.35763 17.553 6.37641 17.5843 6.38859C17.6156 6.40076 17.6491 6.40604 17.6826 6.40406H17.9394C18.0711 6.39907 18.2023 6.42118 18.325 6.46901C18.4477 6.51684 18.5593 6.58937 18.6528 6.68211C18.7464 6.77484 18.8198 6.88581 18.8687 7.00812C18.9176 7.13043 18.9408 7.26147 18.9369 7.39313C18.939 7.64283 18.8498 7.88469 18.6863 8.07337Z" fill="#FF66A5"/>
<path d="M9.00619 10.6843C9.55474 10.5711 10.1127 10.5092 10.6727 10.4994C10.8287 10.4994 10.9793 10.5058 11.1201 10.5188C11.4142 10.5456 11.7063 10.5912 11.9946 10.6553C11.997 10.6556 11.9994 10.6551 12.0019 10.6556C11.9356 10.626 11.8792 10.5779 11.8396 10.517C11.8001 10.4561 11.7789 10.3851 11.7788 10.3125V10.0856H11.4075C11.308 10.0856 11.2127 10.0461 11.1423 9.9758C11.072 9.90547 11.0325 9.81009 11.0325 9.71063C11.0325 9.61118 11.072 9.51579 11.1423 9.44547C11.2127 9.37514 11.308 9.33563 11.4075 9.33563H12.1275C12.1615 9.33807 12.1956 9.33294 12.2274 9.32062C12.2591 9.3083 12.2878 9.2891 12.3113 9.26438C12.3535 9.21258 12.3761 9.14749 12.375 9.08063C12.3783 9.04765 12.3741 9.01436 12.3627 8.98323C12.3513 8.95211 12.333 8.92396 12.3092 8.90088C12.2854 8.87781 12.2567 8.86041 12.2252 8.84998C12.1938 8.83954 12.1604 8.83635 12.1275 8.84063H11.8706C11.7386 8.84287 11.6075 8.8184 11.4852 8.76868C11.3629 8.71897 11.252 8.64504 11.159 8.55134C11.0659 8.45764 10.9929 8.3461 10.9441 8.22343C10.8953 8.10076 10.8718 7.96949 10.875 7.83751C10.8672 7.5877 10.9573 7.34473 11.1262 7.16046C11.295 6.97619 11.5292 6.86523 11.7788 6.85126V6.56251C11.7788 6.46305 11.8183 6.36767 11.8886 6.29734C11.9589 6.22702 12.0543 6.18751 12.1538 6.18751C12.2532 6.18751 12.3486 6.22702 12.4189 6.29734C12.4892 6.36767 12.5288 6.46305 12.5288 6.56251V6.84751H12.5906C12.6901 6.84751 12.7855 6.88702 12.8558 6.95734C12.9261 7.02767 12.9656 7.12305 12.9656 7.22251C12.9656 7.32196 12.9261 7.41735 12.8558 7.48767C12.7855 7.558 12.6901 7.59751 12.5906 7.59751H11.8706C11.8365 7.59429 11.8021 7.59849 11.7697 7.60982C11.7373 7.62114 11.7078 7.63933 11.6831 7.66313C11.6435 7.71243 11.6229 7.7743 11.625 7.83751C11.6218 7.87089 11.626 7.90457 11.6371 7.9362C11.6482 7.96784 11.666 7.99669 11.6894 8.02075C11.7128 8.04482 11.7411 8.06353 11.7723 8.07559C11.8036 8.08766 11.8372 8.09279 11.8706 8.09063H12.1275C12.2592 8.08583 12.3904 8.1081 12.5131 8.15605C12.6358 8.20401 12.7473 8.27663 12.8408 8.36943C12.9343 8.46223 13.0078 8.57323 13.0567 8.69556C13.1056 8.81789 13.1288 8.94895 13.125 9.08063C13.1266 9.33047 13.0373 9.57236 12.8738 9.76126C12.7786 9.86794 12.6607 9.95188 12.5288 10.0069V10.3125C12.5285 10.4119 12.4889 10.5071 12.4186 10.5773C12.3483 10.6476 12.2531 10.6872 12.1538 10.6875H12.1388C12.1635 10.6935 12.1879 10.7006 12.2123 10.7072C12.7096 10.8404 13.1941 11.0178 13.6599 11.2373C13.8662 11.3293 14.0492 11.4107 14.2069 11.4619C14.5989 11.1744 14.9319 10.8141 15.1875 10.4006C14.3692 9.81428 13.7717 8.96999 13.4908 8.00329C13.21 7.03658 13.2621 6.00355 13.6388 5.07001C13.1291 4.81843 12.5684 4.68755 12 4.68751C11.3036 4.68606 10.6207 4.87894 10.028 5.24446C9.43525 5.60998 8.95628 6.13363 8.64494 6.75651C8.33359 7.3794 8.20222 8.0768 8.26562 8.77027C8.32901 9.46374 8.58464 10.1258 9.00375 10.6819L9.00619 10.6843Z" fill="#FF66A5"/>
</g>
<defs>
<clipPath id="clip0_1841_7102">
<rect width="24" height="24" fill="white"/>
</clipPath>
</defs>
</svg>
