<svg width="24" height="24" viewBox="0 0 24 24" fill="none" xmlns="http://www.w3.org/2000/svg">
<g clip-path="url(#clip0_2005_2145)">
<path d="M15.3998 5.43C15.4403 5.41268 15.4809 5.39629 15.5219 5.38085C16.0386 5.18595 16.4998 4.75228 16.4998 4.2V3C16.4998 1.35 15.1498 0 13.4998 0H3.49985C1.84985 0 0.499847 1.35 0.499847 3V21C0.499847 22.65 1.84985 24 3.49985 24H13.4998C15.1498 24 16.4998 22.65 16.4998 21L16.5 20.1825C16.5 19.9719 16.3029 19.8365 16.1 19.78V19.78C16.0393 19.7631 15.95 19.72 15.95 19.72C15.89 19.7 15.8421 19.6815 15.77 19.67C15.7121 19.6608 15.6778 19.6707 15.62 19.66C15.4827 19.6346 15.4252 19.5621 15.3 19.5V19.5C14.9309 19.3168 14.5 19.5879 14.4999 20L14.4998 21C14.4998 21.55 14.0498 22 13.4998 22H3.49985C2.94985 22 2.49985 21.55 2.49985 21V3C2.49985 2.45 2.94985 2 3.49985 2H3.99985C4.54985 2 4.99985 2.45 4.99985 3C4.99985 3.55 5.44985 4 5.99985 4H10.9998C11.5498 4 11.9998 3.55 11.9998 3C11.9998 2.45 12.4498 2 12.9998 2H13.4998C14.0498 2 14.4998 2.45 14.4998 3V4.83913C14.4998 5.30255 14.9746 5.61426 15.3998 5.43V5.43Z" fill="#06A6FF"/>
<path d="M13.7963 18.001V11.8377L7.79987 8.91895V12.2457V14.7576L13.7963 18.001Z" fill="#FFCC80"/>
<path d="M19.8015 8.91602V12.1084C19.6215 12.0364 19.4235 12.0004 19.2194 12.0004C18.8234 12.0004 18.4393 12.1444 18.1327 12.4084L16.1651 14.1246C15.805 14.4426 15.601 14.8927 15.601 15.3667C15.601 15.8468 15.805 16.3028 16.1651 16.6149L16.2431 16.6803L13.8068 18.001V11.8383L19.8015 8.91602Z" fill="#06A6FF"/>
<path d="M19.8012 8.91633L13.8065 11.8387L11.4723 10.7045L10.5002 10.2305L7.79987 8.91633L13.7945 6L16.3508 7.24214L17.3709 7.73419L19.8012 8.91633Z" fill="#7ACFFF"/>
<path d="M17.2393 7.6776L11.3095 10.6323V13.6171L10.3692 13.1382V10.1739L16.2198 7.18555L17.2393 7.6776Z" fill="white"/>
<path d="M7.79987 8.91895V12.2457V14.7576L13.7963 18.001V11.8377L11.3145 10.6297L11.3097 10.6321V13.6169L10.3694 13.138V10.1737L10.3736 10.1719L7.79987 8.91895Z" fill="#7ACFFF"/>
<path d="M18.4469 14.9234L19.5156 13.9903C19.7034 13.8271 19.7226 13.5427 19.5588 13.3554C19.3956 13.1676 19.1112 13.149 18.9233 13.3122L16.9545 15.0308L16.9455 15.0428L16.8675 15.1478L16.8393 15.1892C16.8153 15.2444 16.8009 15.3051 16.8009 15.3699C16.8009 15.4341 16.8153 15.4947 16.8399 15.5505L16.8681 15.5919L16.9461 15.6969L16.9551 15.7089L18.9239 17.4269C19.0097 17.5013 19.1148 17.5379 19.2198 17.5379C19.3452 17.5379 19.47 17.4857 19.5588 17.3837C19.722 17.1965 19.7028 16.912 19.5156 16.7488L18.4607 15.8283C20.0341 15.8757 21.3008 17.1893 21.3008 18.8058V19.9514C21.3008 20.1998 21.5024 20.4014 21.7509 20.4014C21.9993 20.4014 22.2009 20.1998 22.2009 19.9514V18.8058C22.2015 16.6876 20.5237 14.9624 18.4469 14.9234Z" fill="#06A6FF"/>
</g>
<defs>
<clipPath id="clip0_2005_2145">
<rect width="24" height="24" fill="white"/>
</clipPath>
</defs>
</svg>
