<svg width="26" height="26" viewBox="0 0 26 26" fill="none" xmlns="http://www.w3.org/2000/svg">
<path d="M5.8798 2.00488H18.0119C18.0029 2.03186 17.9908 2.05772 17.9759 2.08196C17.2973 2.89121 17.024 3.82671 17.032 4.8725C17.048 6.94547 17.032 9.01845 17.032 11.0914V11.324C13.7483 11.5366 11.3406 13.0275 10.1927 16.1078C9.02747 19.2345 9.90205 21.9546 12.2965 24.2296C11.9912 24.6601 11.5539 24.7079 11.1712 24.3372C10.9046 24.0714 10.63 23.8057 10.326 23.5067C10.0594 23.7844 9.82472 24.0449 9.57541 24.2947C9.18879 24.684 8.83415 24.684 8.45019 24.2947C8.20222 24.0462 7.96225 23.7884 7.68894 23.4974C7.4583 23.7406 7.25431 23.9412 7.06633 24.1618C6.57972 24.7133 6.16643 24.7265 5.66915 24.1618C5.4625 23.9279 5.22787 23.718 5.05855 23.5492C4.75858 23.815 4.47862 24.0581 4.21331 24.312C3.94801 24.5658 3.69737 24.6455 3.41339 24.5219C3.12942 24.3983 3.00009 24.1551 3.00009 23.8336C3.00009 17.6536 3.00009 11.4728 3.00009 5.29108C3.00097 4.57307 3.23719 3.875 3.67279 3.30313C4.1084 2.73127 4.71954 2.31692 5.41319 2.12315C5.57184 2.08594 5.72649 2.04608 5.8798 2.00488ZM11.0153 8.69554C11.03 8.6864 11.0456 8.67883 11.0619 8.67295C11.4619 8.67295 11.8738 8.67295 12.2791 8.66498C12.6844 8.65701 12.9804 8.38194 12.9777 8.00056C12.9751 7.61919 12.6871 7.34944 12.2698 7.34412C11.9605 7.34412 11.6512 7.34412 11.3366 7.34412H11.0113C11.0113 6.89631 11.0113 6.48437 11.0113 6.07376C11.0209 5.98088 11.0109 5.88702 10.9817 5.79829C10.9525 5.70956 10.9049 5.62795 10.842 5.55879C10.779 5.48963 10.7022 5.43447 10.6164 5.39691C10.5306 5.35934 10.4379 5.34022 10.3442 5.34078C10.2505 5.34134 10.158 5.36158 10.0727 5.40018C9.9874 5.43877 9.91121 5.49485 9.84912 5.56476C9.78702 5.63468 9.74041 5.71685 9.71231 5.80593C9.68422 5.895 9.67527 5.98898 9.68606 6.08173C9.68606 6.49766 9.68606 6.91358 9.68606 7.32153C9.66352 7.32999 9.64034 7.33666 9.61674 7.34146C9.22611 7.34146 8.83549 7.34146 8.44353 7.34146C8.01291 7.34146 7.72094 7.61786 7.72227 8.00588C7.7236 8.3939 8.0169 8.66099 8.45152 8.67029C8.7315 8.67029 9.01281 8.67029 9.29278 8.67029H9.69274C9.69274 9.10349 9.69274 9.49948 9.69274 9.8968C9.69274 10.33 9.95937 10.6237 10.35 10.6263C10.7406 10.629 11.0166 10.3353 11.0166 9.88883C11.0166 9.48885 11.0153 9.09286 11.0153 8.69554ZM8.59018 13.2986C9.31144 13.2986 10.034 13.2986 10.7553 13.2986C11.1979 13.2986 11.5085 13.0209 11.5072 12.6342C11.5059 12.2475 11.1926 11.9764 10.75 11.9764H6.45707C6.01845 11.9764 5.70382 12.2581 5.70648 12.6408C5.70915 13.0235 6.01979 13.2973 6.46374 13.2986C7.169 13.2999 7.87559 13.2986 8.59018 13.2986ZM7.67962 15.9456H8.96215C9.38877 15.9456 9.69274 15.6653 9.69407 15.2812C9.6954 14.8972 9.38744 14.6168 8.96215 14.6168C8.12135 14.6168 7.28099 14.6168 6.44107 14.6168C6.01578 14.6168 5.70915 14.8998 5.70915 15.2812C5.70915 15.6626 6.01445 15.939 6.44107 15.9456H7.67962ZM7.50229 17.2665C7.141 17.2665 6.7797 17.2665 6.4184 17.2665C6.32528 17.2563 6.23103 17.2657 6.14182 17.2943C6.05261 17.3228 5.97045 17.3698 5.90067 17.4321C5.83089 17.4944 5.77508 17.5707 5.73687 17.6559C5.69865 17.7412 5.6789 17.8335 5.6789 17.9269C5.6789 18.0203 5.69865 18.1126 5.73687 18.1979C5.77508 18.2832 5.83089 18.3594 5.90067 18.4218C5.97045 18.4841 6.05261 18.531 6.14182 18.5596C6.23103 18.5881 6.32528 18.5976 6.4184 18.5874C7.12944 18.5927 7.83737 18.5927 8.54219 18.5874C8.63532 18.5976 8.72956 18.5881 8.81877 18.5596C8.90798 18.531 8.99015 18.4841 9.05992 18.4218C9.1297 18.3594 9.18553 18.2832 9.22374 18.1979C9.26195 18.1126 9.2817 18.0203 9.2817 17.9269C9.2817 17.8335 9.26195 17.7412 9.22374 17.6559C9.18553 17.5707 9.1297 17.4944 9.05992 17.4321C8.99015 17.3698 8.90798 17.3228 8.81877 17.2943C8.72956 17.2657 8.63532 17.2563 8.54219 17.2665C8.19023 17.2625 7.84227 17.2625 7.49563 17.2625L7.50229 17.2665Z" fill="#C52127"/>
<path d="M21.0157 2.00532C21.2471 2.07056 21.4738 2.15136 21.6943 2.24716C22.5288 2.68036 22.9941 3.37268 23.0008 4.31349C23.0181 6.4157 23.0074 8.51791 23.0008 10.6188C23.0008 11.0068 22.7675 11.3085 22.4075 11.3111C21.0517 11.3257 19.6958 11.3111 18.3279 11.3111C18.3187 11.261 18.3125 11.2104 18.3093 11.1596C18.3093 8.88201 18.3013 6.60307 18.3093 4.32412C18.3056 3.78273 18.4934 3.25735 18.8395 2.84014C19.1857 2.42294 19.6682 2.14055 20.2024 2.04252C20.2362 2.03166 20.2688 2.01742 20.2997 2L21.0157 2.00532Z" fill="#C52127"/>
<path d="M22.9886 18.6447C22.9871 19.4325 22.8288 20.2121 22.5229 20.9385C22.217 21.6649 21.7695 22.3235 21.2065 22.8763C20.6434 23.4291 19.9759 23.8651 19.2426 24.159C18.5093 24.453 17.7248 24.599 16.9345 24.5886C13.6856 24.574 11.0072 21.8592 11.0285 18.6089C11.0498 15.3001 13.7509 12.6703 17.1105 12.6876C20.3289 12.6982 22.9953 15.4024 22.9886 18.6447ZM18.5077 16.7312C18.4984 16.3445 18.1851 16.1638 17.8491 16.011C17.7951 15.9946 17.7466 15.9638 17.709 15.9218C17.6714 15.8799 17.6461 15.8285 17.6358 15.7731C17.599 15.6295 17.514 15.5028 17.3949 15.4141C17.2758 15.3253 17.1298 15.2799 16.9812 15.2854C16.836 15.2903 16.6967 15.344 16.586 15.4379C16.4754 15.5317 16.3999 15.6602 16.3719 15.8024C16.3646 15.8622 16.3415 15.9191 16.305 15.9672C16.2684 16.0153 16.2198 16.0528 16.164 16.0761C15.9716 16.1822 15.8046 16.3287 15.6745 16.5053C15.5444 16.682 15.4543 16.8846 15.4103 17.0993C15.3664 17.314 15.3696 17.5357 15.4198 17.749C15.4701 17.9624 15.5661 18.1623 15.7013 18.3351C15.9405 18.6067 16.2438 18.8145 16.5839 18.9397C16.8238 19.0307 17.056 19.1405 17.2785 19.2679C17.3332 19.3045 17.3785 19.3534 17.4107 19.4106C17.4429 19.4679 17.4611 19.5319 17.4638 19.5975C17.4208 19.7395 17.3256 19.86 17.1972 19.935C17.0777 19.9924 16.942 20.0065 16.8132 19.9749C16.6074 19.9236 16.407 19.8529 16.2146 19.7636C16.065 19.6899 15.8932 19.6749 15.733 19.7214C15.5728 19.7679 15.4359 19.8726 15.3494 20.0148C15.305 20.0871 15.2754 20.1675 15.2623 20.2513C15.2492 20.3351 15.2529 20.4206 15.2731 20.503C15.2932 20.5854 15.3296 20.6629 15.38 20.7313C15.4304 20.7996 15.4938 20.8573 15.5667 20.9011C15.7501 21.0089 15.9439 21.0979 16.1453 21.1668C16.2786 21.2134 16.3506 21.2532 16.3773 21.4074C16.4133 21.5502 16.497 21.6766 16.6147 21.7658C16.7323 21.8549 16.8769 21.9014 17.0247 21.8977C17.1724 21.894 17.3145 21.8402 17.4275 21.7453C17.5405 21.6504 17.6178 21.52 17.6465 21.3755C17.6499 21.3121 17.672 21.2511 17.7099 21.2C17.7478 21.149 17.7999 21.1102 17.8598 21.0884C18.1305 20.9588 18.3612 20.759 18.5277 20.5099C18.6943 20.2608 18.7906 19.9717 18.8066 19.6728C18.8225 19.3739 18.7575 19.0762 18.6184 18.8109C18.4793 18.5457 18.2711 18.3226 18.0158 18.165C17.8076 18.0409 17.5911 17.9312 17.3678 17.8368C17.1975 17.769 17.0306 17.6927 16.8679 17.6082C16.7946 17.5644 16.6959 17.4275 16.7172 17.385C16.7599 17.296 16.8772 17.183 16.9599 17.187C17.1386 17.1938 17.3137 17.2391 17.4732 17.3199C17.5755 17.3851 17.6932 17.4226 17.8145 17.4287C17.9359 17.4347 18.0567 17.4091 18.1651 17.3544C18.2773 17.2956 18.3697 17.2051 18.4306 17.0943C18.4916 16.9834 18.5184 16.8572 18.5077 16.7312Z" fill="#C52127"/>
</svg>
