<svg width="26" height="26" viewBox="0 0 26 26" fill="none" xmlns="http://www.w3.org/2000/svg">
<path d="M18.0468 16.0422L13.7758 17.5403C13.7832 17.5622 13.7893 17.5849 13.7941 17.6082C13.8408 17.8388 13.8653 18.078 13.8653 18.3232C13.8653 18.7516 13.6049 19.1565 13.186 19.2878L10.1107 20.2517C9.34883 20.4906 8.53325 20.4065 7.82823 20.0198L5.28244 18.3874L5.85714 17.473L8.35486 19.076C8.8053 19.318 9.31605 19.3666 9.79311 19.217L12.719 18.2999V18.1553C12.6409 17.0928 11.8279 16.2414 10.8178 16.2414H9.5559C9.15455 16.2414 8.75835 16.139 8.39856 15.9416L5.92716 14.5859C5.65009 14.4339 5.34405 14.3545 5.03338 14.3545H2.4375V22.0161L9.96108 24.5473C10.5173 24.7345 11.114 24.6541 11.6212 24.3223L21.3958 17.9814C20.6211 15.8977 18.9045 15.7393 18.0468 16.0422Z" fill="#18A538"/>
<path fill-rule="evenodd" clip-rule="evenodd" d="M9.04985 14.7543L8.04902 14.2053C7.23912 12.9142 6.77083 11.3869 6.77083 9.75033C6.77083 5.11343 10.5298 1.35449 15.1667 1.35449C19.8035 1.35449 23.5625 5.11343 23.5625 9.75033C23.5625 11.9697 22.7014 13.9881 21.295 15.4894C20.9777 15.2225 20.6325 15.0156 20.2705 14.8657C19.3113 14.4685 18.3224 14.5092 17.5973 14.7648L13.4059 16.2349C12.8298 15.4366 11.9199 14.8873 10.8178 14.8873H9.55589C9.38697 14.8873 9.21422 14.8445 9.04985 14.7543ZM13.1471 5.24294C13.4922 4.98418 13.9054 4.79741 14.3542 4.69505V3.79199H15.9792V4.69604C16.8336 4.89174 17.5876 5.39561 17.945 6.15395L16.4751 6.84669C16.348 6.57721 15.8908 6.22949 15.1667 6.22949C14.7272 6.22949 14.3606 6.36412 14.1221 6.54294C13.8839 6.72157 13.8125 6.90634 13.8125 7.04199C13.8125 7.17765 13.8839 7.3624 14.1221 7.54104C14.3606 7.71986 14.7272 7.85449 15.1667 7.85449C15.9238 7.85449 16.6404 8.08363 17.1862 8.49294C17.7322 8.90244 18.1458 9.53018 18.1458 10.292C18.1458 11.0538 17.7322 11.6816 17.1862 12.0911C16.8412 12.3498 16.4279 12.5365 15.9792 12.6389V13.542H14.3542V12.6379C13.4997 12.4423 12.7457 11.9384 12.3883 11.18L13.8582 10.4873C13.9853 10.7568 14.4426 11.1045 15.1667 11.1045C15.6062 11.1045 15.9728 10.9698 16.2112 10.791C16.4494 10.6124 16.5208 10.4276 16.5208 10.292C16.5208 10.1563 16.4494 9.97157 16.2112 9.79294C15.9728 9.61412 15.6062 9.47949 15.1667 9.47949C14.4095 9.47949 13.6929 9.25035 13.1471 8.84104C12.6011 8.43154 12.1875 7.8038 12.1875 7.04199C12.1875 6.28018 12.6011 5.65244 13.1471 5.24294Z" fill="#18A538"/>
</svg>
