<svg width="24" height="24" viewBox="0 0 24 24" fill="none" xmlns="http://www.w3.org/2000/svg">
<g clip-path="url(#clip0_2005_2131)">
<mask id="path-1-inside-1_2005_2131" fill="white">
<path d="M4.271 3.66113H10.0474C10.2507 3.66113 10.4541 3.74257 10.6168 3.90524L14.0337 7.32215V11.3899H6.22346C6.02007 11.3899 5.81668 11.3085 5.65401 11.1458L4.271 9.76283"/>
</mask>
<path d="M4.271 3.66113H10.0474C10.2507 3.66113 10.4541 3.74257 10.6168 3.90524L14.0337 7.32215V11.3899H6.22346C6.02007 11.3899 5.81668 11.3085 5.65401 11.1458L4.271 9.76283" fill="#94DADA"/>
<path d="M10.6168 3.90524L11.3239 3.19813L11.3239 3.19813L10.6168 3.90524ZM14.0337 7.32215H15.0337V6.90794L14.7408 6.61504L14.0337 7.32215ZM14.0337 11.3899V12.3899H15.0337V11.3899H14.0337ZM5.65401 11.1458L4.9469 11.8529L4.9469 11.8529L5.65401 11.1458ZM4.271 4.66113H10.0474V2.66113H4.271V4.66113ZM10.0474 4.66113C10.0149 4.66113 9.98464 4.6545 9.95915 4.64376C9.93344 4.63293 9.91736 4.62001 9.9097 4.61235L11.3239 3.19813C10.9798 2.85406 10.5245 2.66113 10.0474 2.66113V4.66113ZM9.9097 4.61235L13.3266 8.02926L14.7408 6.61504L11.3239 3.19813L9.9097 4.61235ZM13.0337 7.32215V11.3899H15.0337V7.32215H13.0337ZM14.0337 10.3899H6.22346V12.3899H14.0337V10.3899ZM6.22346 10.3899C6.25595 10.3899 6.28617 10.3966 6.31166 10.4073C6.33737 10.4181 6.35346 10.4311 6.36111 10.4387L4.9469 11.8529C5.29097 12.197 5.7463 12.3899 6.22346 12.3899V10.3899ZM6.36111 10.4387L4.9781 9.05572L3.56389 10.4699L4.9469 11.8529L6.36111 10.4387Z" fill="#008788" mask="url(#path-1-inside-1_2005_2131)"/>
<path d="M22.9825 24.0001H1.01644C0.568943 24.0001 0.202881 23.6341 0.202881 23.1866V20.7459C0.202881 20.2984 0.568943 19.9323 1.01644 19.9323H10.4538C10.6572 19.9323 10.8606 19.8509 11.0233 19.6882L12.5689 18.1425C12.7316 17.9799 12.935 17.8984 13.1384 17.8984H22.9825C23.43 17.8984 23.7961 18.2645 23.7961 18.712V23.1866C23.7961 23.6341 23.43 24.0001 22.9825 24.0001V24.0001Z" fill="#94DADA"/>
<path d="M0.202881 4.25488C0.202881 3.7026 0.650596 3.25488 1.20288 3.25488H3.27068C3.82296 3.25488 4.27068 3.7026 4.27068 4.25488V8.76335C4.27068 9.31564 3.82296 9.76336 3.27068 9.76336H1.20288C0.650597 9.76336 0.202881 9.31564 0.202881 8.76336V4.25488Z" fill="#008788"/>
<path d="M9.15194 7.57227H19.7282C20.0376 7.57227 20.2918 7.8264 20.2918 8.13583V14.6443C20.2918 14.9537 20.0376 15.2079 19.7282 15.2079H9.15194C8.84251 15.2079 8.58838 14.9537 8.58838 14.6443V8.13583C8.58838 7.8264 8.84251 7.57227 9.15194 7.57227Z" fill="#94DADA" stroke="#008788" stroke-width="0.5"/>
<path d="M1.4238 3.25488H2.23736V6.9159H1.4238V3.25488Z" fill="white"/>
<path d="M1.4238 7.72852H2.23736V8.54207H1.4238V7.72852Z" fill="white"/>
<path d="M8.6665 9.33301H19.9998V11.333H8.6665V9.33301Z" fill="#CCEBEF"/>
<path d="M11.6741 22.7796H0.202881V21.9661H11.6741C11.7961 21.9661 11.8775 21.9253 11.9588 21.8441L13.9114 19.8915C14.1553 19.6473 14.4402 19.5254 14.7655 19.5254H16.0673V20.3389H14.7655C14.6436 20.3389 14.5621 20.3797 14.4809 20.4609L12.5282 22.4136C12.2843 22.6577 11.9995 22.7796 11.6741 22.7796V22.7796Z" fill="#008788"/>
<path d="M8.51609 7.14565L8.44287 7.07243H8.33932H6.55542V5.94531H9.04932L11.6202 8.51616C11.8479 8.74387 11.8479 9.15523 11.6202 9.38294C11.3925 9.61066 10.9811 9.61066 10.7534 9.38294L8.51609 7.14565Z" fill="#94DADA" stroke="#008788" stroke-width="0.5"/>
</g>
<defs>
<clipPath id="clip0_2005_2131">
<rect width="24" height="24" fill="white"/>
</clipPath>
</defs>
</svg>
