<svg width="20" height="20" viewBox="0 0 20 20" fill="none" xmlns="http://www.w3.org/2000/svg">
<path d="M14.5833 4.16699C15.2737 4.16699 15.8333 4.72663 15.8333 5.41699C15.8333 6.10735 15.2737 6.66699 14.5833 6.66699C13.893 6.66699 13.3333 6.10735 13.3333 5.41699C13.3333 4.72663 13.893 4.16699 14.5833 4.16699Z" stroke="#34C759" stroke-width="1.25" stroke-linecap="round" stroke-linejoin="round"/>
<path d="M2.31185 9.28691C1.47589 10.2206 1.45791 11.6292 2.22513 12.6201C3.74758 14.5864 5.41394 16.2527 7.38027 17.7752C8.37116 18.5424 9.77974 18.5244 10.7134 17.6885C13.2482 15.4188 15.5696 13.0469 17.8099 10.4402C18.0314 10.1826 18.1699 9.86674 18.201 9.52833C18.3385 8.03198 18.621 3.72088 17.4502 2.55011C16.2794 1.37933 11.9683 1.6618 10.472 1.79929C10.1336 1.83039 9.81774 1.96893 9.55999 2.19042C6.95343 4.43071 4.5815 6.75208 2.31185 9.28691Z" stroke="#34C759" stroke-width="1.25"/>
<path d="M11.4903 10.3058C11.5081 9.97161 11.6018 9.36027 11.0938 8.89569M11.0938 8.89569C10.9365 8.75194 10.7217 8.62219 10.4291 8.51902C9.38193 8.14997 8.09571 9.38527 9.0056 10.516C9.49468 11.1238 9.87176 11.3108 9.83626 12.0009C9.81126 12.4865 9.33435 12.9938 8.70576 13.187C8.15968 13.3549 7.55731 13.1326 7.17631 12.7069C6.71111 12.1871 6.7581 11.697 6.75411 11.4834M11.0938 8.89569L11.6672 8.32227M7.21777 12.7717L6.67319 13.3163" stroke="#34C759" stroke-width="1.25" stroke-linecap="round" stroke-linejoin="round"/>
</svg>
