<svg width="20" height="20" viewBox="0 0 20 20" fill="none" xmlns="http://www.w3.org/2000/svg">
<path d="M14.5833 9.16634V6.08301C14.5833 4.19739 14.5833 3.25458 13.9373 2.66879C13.2912 2.08301 12.2513 2.08301 10.1716 2.08301H6.49511C4.41538 2.08301 3.37552 2.08301 2.72944 2.66879C2.08334 3.25458 2.08334 4.19739 2.08334 6.08301V11.4163C2.08334 13.3019 2.08334 14.2448 2.72944 14.8306C3.37552 15.4163 4.41538 15.4163 6.49511 15.4163H9.16668" stroke="#FF66A5" stroke-width="1.25" stroke-linecap="round"/>
<path d="M4.58334 5.41699H12.0833" stroke="#FF66A5" stroke-width="1.25" stroke-linecap="round" stroke-linejoin="round"/>
<path d="M4.58334 8.75H5.41668" stroke="#FF66A5" stroke-width="1.25" stroke-linecap="round" stroke-linejoin="round"/>
<path d="M7.91666 8.75H8.74999" stroke="#FF66A5" stroke-width="1.25" stroke-linecap="round" stroke-linejoin="round"/>
<path d="M11.25 8.75H12.0833" stroke="#FF66A5" stroke-width="1.25" stroke-linecap="round" stroke-linejoin="round"/>
<path d="M4.58334 12.083H5.41668" stroke="#FF66A5" stroke-width="1.25" stroke-linecap="round" stroke-linejoin="round"/>
<path d="M7.91666 12.083H8.74999" stroke="#FF66A5" stroke-width="1.25" stroke-linecap="round" stroke-linejoin="round"/>
<path d="M14.5833 17.9167C16.4243 17.9167 17.9167 16.4243 17.9167 14.5833C17.9167 12.7424 16.4243 11.25 14.5833 11.25C12.7424 11.25 11.25 12.7424 11.25 14.5833C11.25 16.4243 12.7424 17.9167 14.5833 17.9167Z" stroke="#FF66A5" stroke-width="1.25"/>
<path d="M15.4167 14.9997L14.5833 14.583V13.333" stroke="#FF66A5" stroke-width="1.25" stroke-linecap="round" stroke-linejoin="round"/>
</svg>
