<svg width="242" height="38" viewBox="0 0 242 38" fill="none" xmlns="http://www.w3.org/2000/svg">
<path d="M20.1921 5.8781H18.005C14.0005 5.8812 10.1415 7.38025 7.18505 10.0813C4.22856 12.7823 2.38781 16.4904 2.0238 20.4783C2.01617 20.5947 2.03253 20.7114 2.07186 20.8211C2.1112 20.9309 2.17267 21.0314 2.25247 21.1164C2.33227 21.2014 2.42868 21.2692 2.53574 21.3154C2.6428 21.3616 2.75821 21.3853 2.87481 21.385H35.3246C35.4412 21.3853 35.5566 21.3616 35.6636 21.3154C35.7707 21.2692 35.8671 21.2014 35.9469 21.1164C36.0267 21.0314 36.0882 20.9309 36.1275 20.8211C36.1669 20.7114 36.1832 20.5947 36.1756 20.4783C35.8115 16.49 33.9705 12.7816 31.0135 10.0805C28.0565 7.37941 24.197 5.88062 20.1921 5.8781ZM18.2703 4.96078H19.929C20.3129 4.95935 20.6806 4.80563 20.9513 4.53337C21.2219 4.2611 21.3735 3.89256 21.3727 3.50865V3.42278C21.3716 3.04022 21.2192 2.67362 20.9487 2.40311C20.6782 2.1326 20.3116 1.98018 19.929 1.97916H18.2703C17.8877 1.97997 17.5209 2.13231 17.2502 2.40284C16.9795 2.67337 16.827 3.04009 16.8259 3.42278V3.50865C16.8253 3.89263 16.9771 4.26117 17.2479 4.53341C17.5186 4.80565 17.8864 4.95935 18.2703 4.96078Z" fill="#FC8019"/>
<path d="M4.93072 24.8145L1.52135 25.4958C1.11834 25.5763 0.856909 25.9683 0.93744 26.3713L2.89219 36.1539C2.97273 36.5569 3.36472 36.8184 3.76774 36.7378L7.1771 36.0566C7.58012 35.976 7.84155 35.584 7.76101 35.181L5.80626 25.3984C5.72573 24.9954 5.33374 24.734 4.93072 24.8145Z" fill="#FC8019"/>
<path d="M36.7025 23.36C36.7006 23.36 36.6987 23.3593 36.6973 23.3579C36.6959 23.3565 36.6951 23.3546 36.6951 23.3526C36.5264 23.1217 36.2848 22.9542 36.0093 22.8773C35.7338 22.8004 35.4404 22.8185 35.1765 22.9286C34.4175 23.1443 33.6578 23.4349 32.9211 23.7173C32.2437 23.9707 31.5514 24.2309 30.8369 24.4547C29.2522 24.9617 27.6359 25.3646 25.9986 25.6606C24.5203 25.9073 23.0291 26.0687 21.5323 26.1439C21.3101 26.5584 20.9892 26.9118 20.598 27.1728C20.2067 27.4338 19.7571 27.5944 19.2891 27.6403C19.2648 27.6461 19.2399 27.6486 19.2149 27.6477H19.2075L13.4457 27.6106C13.2483 27.6087 13.0597 27.5283 12.9214 27.3873C12.7832 27.2463 12.7067 27.0562 12.7086 26.8587C12.7106 26.6613 12.7909 26.4727 12.9319 26.3344C13.0729 26.1962 13.2631 26.1197 13.4605 26.1216L19.1704 26.1594C19.441 26.1284 19.6957 26.0156 19.9005 25.836C20.1052 25.6564 20.2503 25.4186 20.3163 25.1544C20.353 24.9944 20.3479 24.8278 20.3015 24.6704C20.2699 24.516 20.2038 24.3709 20.108 24.2457C19.9956 24.1026 19.8537 23.9854 19.6919 23.902C19.5301 23.8186 19.3522 23.771 19.1704 23.7625L12.4933 23.3081C11.6718 23.254 10.8494 23.3995 10.0963 23.7321L7.80456 24.7553C7.64997 24.8237 7.52338 24.9429 7.44578 25.093C7.36818 25.2432 7.34423 25.4154 7.37788 25.581L9.11087 34.244C9.14457 34.4148 9.23733 34.5684 9.3729 34.6777C9.50847 34.787 9.6782 34.8451 9.85233 34.8419L20.8731 34.6396C22.2379 34.617 23.569 34.2121 24.7152 33.4708L36.7248 25.6923C36.99 25.5331 37.1823 25.2763 37.2603 24.977C37.3383 24.6777 37.2958 24.3597 37.142 24.0914L36.7025 23.36Z" fill="#FC8019"/>
<path d="M18.1542 13.0614C18.0333 12.6274 18.3623 11.1891 17.0792 10.0109C15.7977 8.83312 14.568 8.91828 13.9603 9.5251C13.3541 10.1325 13.2683 11.3616 14.4461 12.6443C15.6245 13.9268 17.0632 13.5975 17.4959 13.7197C17.9299 13.8407 18.553 14.4639 19.6447 15.6256C20.7371 16.7865 21.7766 18.3807 22.3313 19.0038C22.8856 19.6267 23.4431 19.0079 23.4431 19.0079C23.4431 19.0079 24.0618 18.4498 23.4393 17.8958C22.8162 17.3405 21.2223 16.3016 20.0605 15.2096C18.899 14.1179 18.2755 13.4944 18.1542 13.0614Z" fill="white"/>
<path d="M23.5952 12.2993L25.3578 10.536L25.1225 10.3007L23.4305 11.992C23.3388 12.084 23.2055 12.1004 23.1339 12.0284C23.0625 11.9568 23.0792 11.8238 23.171 11.7321L24.8626 10.0405L24.5244 9.70265L22.8331 11.3946C22.7411 11.4863 22.6078 11.5024 22.5365 11.4307C22.4652 11.3597 22.4812 11.2264 22.5733 11.1347L24.2642 9.44245L23.9274 9.10526L22.2354 10.7972C22.1437 10.8889 22.0104 10.9053 21.9388 10.833C21.8675 10.7614 21.8835 10.6287 21.9755 10.5367L23.6672 8.84537L23.4315 8.60938L21.6682 10.3726C20.3858 11.5514 20.3609 12.6355 20.2396 13.0689C20.118 13.5022 19.4949 14.1257 18.334 15.2184C17.1713 16.3088 15.5784 17.3493 14.9555 17.904C14.3324 18.4589 14.9514 19.0158 14.9514 19.0158C14.9514 19.0158 15.5086 19.6352 16.0636 19.0126C16.6185 18.3892 17.6568 16.7947 18.7498 15.6338C19.8405 14.4717 20.4643 13.8482 20.8977 13.7266C21.3304 13.6047 22.4164 13.5811 23.5952 12.2993Z" fill="white"/>
<path d="M54.978 23.772H49.214L48.29 26.5H44.352L49.94 11.056H54.296L59.884 26.5H55.902L54.978 23.772ZM54.01 20.868L52.096 15.214L50.204 20.868H54.01ZM60.3967 20.362C60.3967 19.086 60.6534 17.9713 61.1667 17.018C61.6947 16.0647 62.4207 15.3313 63.3447 14.818C64.2834 14.3047 65.354 14.048 66.5567 14.048C68.0967 14.048 69.38 14.4513 70.4067 15.258C71.448 16.0647 72.13 17.2013 72.4527 18.668H68.4487C68.1114 17.7293 67.4587 17.26 66.4907 17.26C65.8014 17.26 65.2514 17.5313 64.8407 18.074C64.43 18.602 64.2247 19.3647 64.2247 20.362C64.2247 21.3593 64.43 22.1293 64.8407 22.672C65.2514 23.2 65.8014 23.464 66.4907 23.464C67.4587 23.464 68.1114 22.9947 68.4487 22.056H72.4527C72.13 23.4933 71.448 24.6227 70.4067 25.444C69.3654 26.2653 68.082 26.676 66.5567 26.676C65.354 26.676 64.2834 26.4193 63.3447 25.906C62.4207 25.3927 61.6947 24.6593 61.1667 23.706C60.6534 22.7527 60.3967 21.638 60.3967 20.362ZM81.505 14.092C82.9423 14.092 84.0864 14.5613 84.937 15.5C85.8024 16.424 86.235 17.7 86.235 19.328V26.5H82.495V19.834C82.495 19.0127 82.2824 18.3747 81.857 17.92C81.4317 17.4653 80.8597 17.238 80.141 17.238C79.4223 17.238 78.8504 17.4653 78.425 17.92C77.9997 18.3747 77.787 19.0127 77.787 19.834V26.5H74.025V14.224H77.787V15.852C78.1683 15.3093 78.6817 14.884 79.327 14.576C79.9723 14.2533 80.6983 14.092 81.505 14.092ZM93.9972 26.676C92.7946 26.676 91.7092 26.4193 90.7412 25.906C89.7879 25.3927 89.0326 24.6593 88.4752 23.706C87.9326 22.7527 87.6612 21.638 87.6612 20.362C87.6612 19.1007 87.9399 17.9933 88.4972 17.04C89.0546 16.072 89.8172 15.3313 90.7852 14.818C91.7532 14.3047 92.8386 14.048 94.0412 14.048C95.2439 14.048 96.3292 14.3047 97.2972 14.818C98.2652 15.3313 99.0279 16.072 99.5852 17.04C100.143 17.9933 100.421 19.1007 100.421 20.362C100.421 21.6233 100.135 22.738 99.5632 23.706C99.0059 24.6593 98.2359 25.3927 97.2532 25.906C96.2852 26.4193 95.1999 26.676 93.9972 26.676ZM93.9972 23.42C94.7159 23.42 95.3246 23.156 95.8232 22.628C96.3366 22.1 96.5932 21.3447 96.5932 20.362C96.5932 19.3793 96.3439 18.624 95.8452 18.096C95.3612 17.568 94.7599 17.304 94.0412 17.304C93.3079 17.304 92.6992 17.568 92.2152 18.096C91.7312 18.6093 91.4892 19.3647 91.4892 20.362C91.4892 21.3447 91.7239 22.1 92.1932 22.628C92.6772 23.156 93.2786 23.42 93.9972 23.42ZM107.565 26.676C106.362 26.676 105.277 26.4193 104.309 25.906C103.356 25.3927 102.6 24.6593 102.043 23.706C101.5 22.7527 101.229 21.638 101.229 20.362C101.229 19.1007 101.508 17.9933 102.065 17.04C102.622 16.072 103.385 15.3313 104.353 14.818C105.321 14.3047 106.406 14.048 107.609 14.048C108.812 14.048 109.897 14.3047 110.865 14.818C111.833 15.3313 112.596 16.072 113.153 17.04C113.71 17.9933 113.989 19.1007 113.989 20.362C113.989 21.6233 113.703 22.738 113.131 23.706C112.574 24.6593 111.804 25.3927 110.821 25.906C109.853 26.4193 108.768 26.676 107.565 26.676ZM107.565 23.42C108.284 23.42 108.892 23.156 109.391 22.628C109.904 22.1 110.161 21.3447 110.161 20.362C110.161 19.3793 109.912 18.624 109.413 18.096C108.929 17.568 108.328 17.304 107.609 17.304C106.876 17.304 106.267 17.568 105.783 18.096C105.299 18.6093 105.057 19.3647 105.057 20.362C105.057 21.3447 105.292 22.1 105.761 22.628C106.245 23.156 106.846 23.42 107.565 23.42ZM127.643 26.5L124.431 20.67H123.529V26.5H119.767V11.056H126.081C127.298 11.056 128.332 11.2687 129.183 11.694C130.048 12.1193 130.694 12.706 131.119 13.454C131.544 14.1873 131.757 15.0087 131.757 15.918C131.757 16.9447 131.464 17.8613 130.877 18.668C130.305 19.4747 129.454 20.0467 128.325 20.384L131.889 26.5H127.643ZM123.529 18.008H125.861C126.55 18.008 127.064 17.8393 127.401 17.502C127.753 17.1647 127.929 16.688 127.929 16.072C127.929 15.4853 127.753 15.0233 127.401 14.686C127.064 14.3487 126.55 14.18 125.861 14.18H123.529V18.008ZM145.251 20.164C145.251 20.516 145.229 20.8827 145.185 21.264H136.671C136.729 22.0267 136.971 22.6133 137.397 23.024C137.837 23.42 138.372 23.618 139.003 23.618C139.941 23.618 140.594 23.222 140.961 22.43H144.965C144.759 23.2367 144.385 23.9627 143.843 24.608C143.315 25.2533 142.647 25.7593 141.841 26.126C141.034 26.4927 140.132 26.676 139.135 26.676C137.932 26.676 136.861 26.4193 135.923 25.906C134.984 25.3927 134.251 24.6593 133.723 23.706C133.195 22.7527 132.931 21.638 132.931 20.362C132.931 19.086 133.187 17.9713 133.701 17.018C134.229 16.0647 134.962 15.3313 135.901 14.818C136.839 14.3047 137.917 14.048 139.135 14.048C140.323 14.048 141.379 14.2973 142.303 14.796C143.227 15.2947 143.945 16.006 144.459 16.93C144.987 17.854 145.251 18.932 145.251 20.164ZM141.401 19.174C141.401 18.5287 141.181 18.0153 140.741 17.634C140.301 17.2527 139.751 17.062 139.091 17.062C138.46 17.062 137.925 17.2453 137.485 17.612C137.059 17.9787 136.795 18.4993 136.693 19.174H141.401ZM151.789 26.676C150.719 26.676 149.765 26.4927 148.929 26.126C148.093 25.7593 147.433 25.2607 146.949 24.63C146.465 23.9847 146.194 23.266 146.135 22.474H149.853C149.897 22.8993 150.095 23.244 150.447 23.508C150.799 23.772 151.232 23.904 151.745 23.904C152.215 23.904 152.574 23.816 152.823 23.64C153.087 23.4493 153.219 23.2073 153.219 22.914C153.219 22.562 153.036 22.3053 152.669 22.144C152.303 21.968 151.709 21.7773 150.887 21.572C150.007 21.3667 149.274 21.154 148.687 20.934C148.101 20.6993 147.595 20.34 147.169 19.856C146.744 19.3573 146.531 18.69 146.531 17.854C146.531 17.15 146.722 16.512 147.103 15.94C147.499 15.3533 148.071 14.8913 148.819 14.554C149.582 14.2167 150.484 14.048 151.525 14.048C153.065 14.048 154.275 14.4293 155.155 15.192C156.05 15.9547 156.563 16.9667 156.695 18.228H153.219C153.161 17.8027 152.97 17.4653 152.647 17.216C152.339 16.9667 151.929 16.842 151.415 16.842C150.975 16.842 150.638 16.93 150.403 17.106C150.169 17.2673 150.051 17.4947 150.051 17.788C150.051 18.14 150.235 18.404 150.601 18.58C150.983 18.756 151.569 18.932 152.361 19.108C153.271 19.3427 154.011 19.5773 154.583 19.812C155.155 20.032 155.654 20.3987 156.079 20.912C156.519 21.4107 156.747 22.0853 156.761 22.936C156.761 23.6547 156.556 24.3 156.145 24.872C155.749 25.4293 155.17 25.8693 154.407 26.192C153.659 26.5147 152.787 26.676 151.789 26.676ZM165.465 23.31V26.5H163.551C162.187 26.5 161.123 26.17 160.361 25.51C159.598 24.8353 159.217 23.7427 159.217 22.232V17.348H157.721V14.224H159.217V11.232H162.979V14.224H165.443V17.348H162.979V22.276C162.979 22.6427 163.067 22.9067 163.243 23.068C163.419 23.2293 163.712 23.31 164.123 23.31H165.465ZM166.372 20.34C166.372 19.0787 166.607 17.9713 167.076 17.018C167.56 16.0647 168.213 15.3313 169.034 14.818C169.856 14.3047 170.772 14.048 171.784 14.048C172.65 14.048 173.405 14.224 174.05 14.576C174.71 14.928 175.216 15.39 175.568 15.962V14.224H179.33V26.5H175.568V24.762C175.202 25.334 174.688 25.796 174.028 26.148C173.383 26.5 172.628 26.676 171.762 26.676C170.765 26.676 169.856 26.4193 169.034 25.906C168.213 25.378 167.56 24.6373 167.076 23.684C166.607 22.716 166.372 21.6013 166.372 20.34ZM175.568 20.362C175.568 19.4233 175.304 18.6827 174.776 18.14C174.263 17.5973 173.632 17.326 172.884 17.326C172.136 17.326 171.498 17.5973 170.97 18.14C170.457 18.668 170.2 19.4013 170.2 20.34C170.2 21.2787 170.457 22.0267 170.97 22.584C171.498 23.1267 172.136 23.398 172.884 23.398C173.632 23.398 174.263 23.1267 174.776 22.584C175.304 22.0413 175.568 21.3007 175.568 20.362ZM193.734 14.224V26.5H189.972V24.828C189.591 25.3707 189.07 25.8107 188.41 26.148C187.765 26.4707 187.046 26.632 186.254 26.632C185.315 26.632 184.487 26.4267 183.768 26.016C183.049 25.5907 182.492 24.982 182.096 24.19C181.7 23.398 181.502 22.4667 181.502 21.396V14.224H185.242V20.89C185.242 21.7113 185.455 22.3493 185.88 22.804C186.305 23.2587 186.877 23.486 187.596 23.486C188.329 23.486 188.909 23.2587 189.334 22.804C189.759 22.3493 189.972 21.7113 189.972 20.89V14.224H193.734ZM199.758 16.27C200.198 15.5953 200.748 15.0673 201.408 14.686C202.068 14.29 202.801 14.092 203.608 14.092V18.074H202.574C201.635 18.074 200.931 18.2793 200.462 18.69C199.993 19.086 199.758 19.79 199.758 20.802V26.5H195.996V14.224H199.758V16.27ZM204.218 20.34C204.218 19.0787 204.453 17.9713 204.922 17.018C205.406 16.0647 206.059 15.3313 206.88 14.818C207.702 14.3047 208.618 14.048 209.63 14.048C210.496 14.048 211.251 14.224 211.896 14.576C212.556 14.928 213.062 15.39 213.414 15.962V14.224H217.176V26.5H213.414V24.762C213.048 25.334 212.534 25.796 211.874 26.148C211.229 26.5 210.474 26.676 209.608 26.676C208.611 26.676 207.702 26.4193 206.88 25.906C206.059 25.378 205.406 24.6373 204.922 23.684C204.453 22.716 204.218 21.6013 204.218 20.34ZM213.414 20.362C213.414 19.4233 213.15 18.6827 212.622 18.14C212.109 17.5973 211.478 17.326 210.73 17.326C209.982 17.326 209.344 17.5973 208.816 18.14C208.303 18.668 208.046 19.4013 208.046 20.34C208.046 21.2787 208.303 22.0267 208.816 22.584C209.344 23.1267 209.982 23.398 210.73 23.398C211.478 23.398 212.109 23.1267 212.622 22.584C213.15 22.0413 213.414 21.3007 213.414 20.362ZM226.938 14.092C228.375 14.092 229.519 14.5613 230.37 15.5C231.235 16.424 231.668 17.7 231.668 19.328V26.5H227.928V19.834C227.928 19.0127 227.715 18.3747 227.29 17.92C226.865 17.4653 226.293 17.238 225.574 17.238C224.855 17.238 224.283 17.4653 223.858 17.92C223.433 18.3747 223.22 19.0127 223.22 19.834V26.5H219.458V14.224H223.22V15.852C223.601 15.3093 224.115 14.884 224.76 14.576C225.405 14.2533 226.131 14.092 226.938 14.092ZM240.684 23.31V26.5H238.77C237.406 26.5 236.343 26.17 235.58 25.51C234.817 24.8353 234.436 23.7427 234.436 22.232V17.348H232.94V14.224H234.436V11.232H238.198V14.224H240.662V17.348H238.198V22.276C238.198 22.6427 238.286 22.9067 238.462 23.068C238.638 23.2293 238.931 23.31 239.342 23.31H240.684Z" fill="white"/>
</svg>
