<svg width="38" height="38" viewBox="0 0 38 38" fill="none" xmlns="http://www.w3.org/2000/svg">
<path d="M20.1921 5.8781H18.005C14.0005 5.8812 10.1415 7.38025 7.18505 10.0813C4.22856 12.7823 2.38781 16.4904 2.0238 20.4783C2.01617 20.5947 2.03253 20.7114 2.07186 20.8211C2.1112 20.9309 2.17267 21.0314 2.25247 21.1164C2.33227 21.2014 2.42868 21.2692 2.53574 21.3154C2.6428 21.3616 2.75821 21.3853 2.87481 21.385H35.3246C35.4412 21.3853 35.5566 21.3616 35.6636 21.3154C35.7707 21.2692 35.8671 21.2014 35.9469 21.1164C36.0267 21.0314 36.0882 20.9309 36.1275 20.8211C36.1669 20.7114 36.1832 20.5947 36.1756 20.4783C35.8115 16.49 33.9705 12.7816 31.0135 10.0805C28.0565 7.37941 24.197 5.88062 20.1921 5.8781ZM18.2703 4.96078H19.929C20.3129 4.95935 20.6806 4.80563 20.9513 4.53337C21.2219 4.2611 21.3735 3.89256 21.3727 3.50865V3.42278C21.3716 3.04022 21.2192 2.67362 20.9487 2.40311C20.6782 2.1326 20.3116 1.98018 19.929 1.97916H18.2703C17.8877 1.97997 17.5209 2.13231 17.2502 2.40284C16.9795 2.67337 16.827 3.04009 16.8259 3.42278V3.50865C16.8253 3.89263 16.9771 4.26117 17.2479 4.53341C17.5186 4.80565 17.8864 4.95935 18.2703 4.96078Z" fill="#FC8019"/>
<path d="M4.93072 24.8145L1.52135 25.4958C1.11834 25.5763 0.856909 25.9683 0.93744 26.3713L2.89219 36.1539C2.97273 36.5569 3.36472 36.8184 3.76774 36.7378L7.1771 36.0566C7.58012 35.976 7.84155 35.584 7.76101 35.181L5.80626 25.3984C5.72573 24.9954 5.33374 24.734 4.93072 24.8145Z" fill="#FC8019"/>
<path d="M36.7025 23.36C36.7006 23.36 36.6987 23.3593 36.6973 23.3579C36.6959 23.3565 36.6951 23.3546 36.6951 23.3526C36.5264 23.1217 36.2848 22.9542 36.0093 22.8773C35.7338 22.8004 35.4404 22.8185 35.1765 22.9286C34.4175 23.1443 33.6578 23.4349 32.9211 23.7173C32.2437 23.9707 31.5514 24.2309 30.8369 24.4547C29.2522 24.9617 27.6359 25.3646 25.9986 25.6606C24.5203 25.9073 23.0291 26.0687 21.5323 26.1439C21.3101 26.5584 20.9892 26.9118 20.598 27.1728C20.2067 27.4338 19.7571 27.5944 19.2891 27.6403C19.2648 27.6461 19.2399 27.6486 19.2149 27.6477H19.2075L13.4457 27.6106C13.2483 27.6087 13.0597 27.5283 12.9214 27.3873C12.7832 27.2463 12.7067 27.0562 12.7086 26.8587C12.7106 26.6613 12.7909 26.4727 12.9319 26.3344C13.0729 26.1962 13.2631 26.1197 13.4605 26.1216L19.1704 26.1594C19.441 26.1284 19.6957 26.0156 19.9005 25.836C20.1052 25.6564 20.2503 25.4186 20.3163 25.1544C20.353 24.9944 20.3479 24.8278 20.3015 24.6704C20.2699 24.516 20.2038 24.3709 20.108 24.2457C19.9956 24.1026 19.8537 23.9854 19.6919 23.902C19.5301 23.8186 19.3522 23.771 19.1704 23.7625L12.4933 23.3081C11.6718 23.254 10.8494 23.3995 10.0963 23.7321L7.80456 24.7553C7.64997 24.8237 7.52338 24.9429 7.44578 25.093C7.36818 25.2432 7.34423 25.4154 7.37788 25.581L9.11087 34.244C9.14457 34.4148 9.23733 34.5684 9.3729 34.6777C9.50847 34.787 9.6782 34.8451 9.85233 34.8419L20.8731 34.6396C22.2379 34.617 23.569 34.2121 24.7152 33.4708L36.7248 25.6923C36.99 25.5331 37.1823 25.2763 37.2603 24.977C37.3383 24.6777 37.2958 24.3597 37.142 24.0914L36.7025 23.36Z" fill="#FC8019"/>
<path d="M18.1542 13.0614C18.0333 12.6274 18.3623 11.1891 17.0792 10.0109C15.7977 8.83312 14.568 8.91828 13.9603 9.5251C13.3541 10.1325 13.2683 11.3616 14.4461 12.6443C15.6245 13.9268 17.0632 13.5975 17.4959 13.7197C17.9299 13.8407 18.553 14.4639 19.6447 15.6256C20.7371 16.7865 21.7766 18.3807 22.3313 19.0038C22.8856 19.6267 23.4431 19.0079 23.4431 19.0079C23.4431 19.0079 24.0618 18.4498 23.4393 17.8958C22.8162 17.3405 21.2223 16.3016 20.0605 15.2096C18.899 14.1179 18.2755 13.4944 18.1542 13.0614Z" fill="white"/>
<path d="M23.5952 12.2993L25.3578 10.536L25.1225 10.3007L23.4305 11.992C23.3388 12.084 23.2055 12.1004 23.1339 12.0284C23.0625 11.9568 23.0792 11.8238 23.171 11.7321L24.8626 10.0405L24.5244 9.70265L22.8331 11.3946C22.7411 11.4863 22.6078 11.5024 22.5365 11.4307C22.4652 11.3597 22.4812 11.2264 22.5733 11.1347L24.2642 9.44245L23.9274 9.10526L22.2354 10.7972C22.1437 10.8889 22.0104 10.9053 21.9388 10.833C21.8675 10.7614 21.8835 10.6287 21.9755 10.5367L23.6672 8.84537L23.4315 8.60938L21.6682 10.3726C20.3858 11.5514 20.3609 12.6355 20.2396 13.0689C20.118 13.5022 19.4949 14.1257 18.334 15.2184C17.1713 16.3088 15.5784 17.3493 14.9555 17.904C14.3324 18.4589 14.9514 19.0158 14.9514 19.0158C14.9514 19.0158 15.5086 19.6352 16.0636 19.0126C16.6185 18.3892 17.6568 16.7947 18.7498 15.6338C19.8405 14.4717 20.4643 13.8482 20.8977 13.7266C21.3304 13.6047 22.4164 13.5811 23.5952 12.2993Z" fill="white"/>
</svg>
