<svg width="239" height="48" viewBox="0 0 239 48" fill="none" xmlns="http://www.w3.org/2000/svg">
<path d="M25.5064 7.42498H22.7438C17.6854 7.42889 12.811 9.32243 9.07647 12.7342C5.34196 16.146 3.0168 20.83 2.55699 25.8674C2.54735 26.0143 2.56802 26.1617 2.61771 26.3004C2.66739 26.439 2.74504 26.566 2.84584 26.6734C2.94664 26.7808 3.06843 26.8663 3.20366 26.9247C3.33889 26.9831 3.48467 27.013 3.63195 27.0127H44.6211C44.7684 27.013 44.9142 26.9831 45.0494 26.9247C45.1847 26.8663 45.3065 26.7808 45.4072 26.6734C45.508 26.566 45.5857 26.439 45.6354 26.3004C45.6851 26.1617 45.7057 26.0143 45.6961 25.8674C45.2362 20.8295 42.9107 16.1451 39.1755 12.7333C35.4404 9.32137 30.5653 7.42816 25.5064 7.42498ZM23.079 6.26627H25.1741C25.6591 6.26446 26.1235 6.07028 26.4654 5.72637C26.8073 5.38246 26.9987 4.91693 26.9977 4.432V4.32352C26.9964 3.84029 26.8038 3.37722 26.4621 3.03552C26.1204 2.69382 25.6574 2.50129 25.1741 2.5H23.079C22.5956 2.50103 22.1322 2.69345 21.7903 3.03518C21.4484 3.3769 21.2557 3.84012 21.2544 4.32352V4.432C21.2537 4.91702 21.4453 5.38255 21.7874 5.72643C22.1294 6.07031 22.5939 6.26446 23.079 6.26627Z" fill="#FC8019"/>
<path d="M6.22833 31.3439L1.92176 32.2045C1.41269 32.3062 1.08246 32.8014 1.18419 33.3104L3.65335 45.6674C3.75507 46.1765 4.25022 46.5067 4.7593 46.405L9.06586 45.5444C9.57494 45.4427 9.90516 44.9476 9.80344 44.4385L7.33427 32.0815C7.23255 31.5724 6.7374 31.2422 6.22833 31.3439Z" fill="#FC8019"/>
<path d="M46.3612 29.5069C46.3587 29.5069 46.3563 29.5059 46.3546 29.5042C46.3528 29.5024 46.3518 29.5 46.3518 29.4976C46.1387 29.2058 45.8336 28.9943 45.4856 28.8971C45.1376 28.8 44.767 28.8228 44.4335 28.962C43.4748 29.2345 42.5153 29.6014 41.5846 29.9582C40.729 30.2783 39.8545 30.607 38.952 30.8896C36.9502 31.5301 34.9087 32.0389 32.8404 32.4129C30.9732 32.7245 29.0895 32.9284 27.1988 33.0233C26.9182 33.547 26.5128 33.9934 26.0186 34.3231C25.5244 34.6527 24.9565 34.8555 24.3652 34.9135C24.3346 34.9208 24.3031 34.924 24.2716 34.9229H24.2622L16.9841 34.8761C16.7347 34.8736 16.4965 34.7721 16.3219 34.594C16.1473 34.4159 16.0506 34.1757 16.0531 33.9263C16.0556 33.6769 16.157 33.4387 16.3352 33.2641C16.5133 33.0895 16.7535 32.9928 17.0029 32.9952L24.2154 33.0429C24.5572 33.0038 24.8789 32.8613 25.1375 32.6344C25.3962 32.4076 25.5794 32.1072 25.6628 31.7734C25.7092 31.5714 25.7027 31.3609 25.6441 31.1621C25.6042 30.9671 25.5207 30.7837 25.3997 30.6257C25.2577 30.4449 25.0784 30.2968 24.8741 30.1914C24.6697 30.0861 24.445 30.026 24.2154 30.0152L15.7811 29.4414C14.7434 29.373 13.7046 29.5568 12.7534 29.9769L9.85849 31.2694C9.66322 31.3558 9.50332 31.5063 9.4053 31.696C9.30728 31.8857 9.27702 32.1031 9.31954 32.3124L11.5086 43.255C11.5511 43.4709 11.6683 43.6648 11.8396 43.8029C12.0108 43.941 12.2252 44.0144 12.4452 44.0103L26.3661 43.7548C28.0901 43.7262 29.7715 43.2147 31.2193 42.2784L46.3893 32.4529C46.7243 32.2519 46.9672 31.9275 47.0657 31.5494C47.1643 31.1713 47.1106 30.7697 46.9163 30.4307L46.3612 29.5069Z" fill="#FC8019"/>
<path d="M22.9326 16.4986C22.7798 15.9504 23.1954 14.1336 21.5747 12.6454C19.9559 11.1577 18.4026 11.2653 17.6349 12.0318C16.8692 12.7991 16.7609 14.3515 18.2486 15.9719C19.7372 17.5918 21.5544 17.1758 22.101 17.3302C22.6492 17.483 23.4363 18.2702 24.8153 19.7377C26.1951 21.204 27.5082 23.2177 28.2088 24.0049C28.9091 24.7916 29.6132 24.01 29.6132 24.01C29.6132 24.01 30.3948 23.3051 29.6085 22.6052C28.8213 21.9038 26.808 20.5915 25.3405 19.2121C23.8734 17.8331 23.0858 17.0456 22.9326 16.4986Z" fill="white"/>
<path d="M29.8055 15.536L32.032 13.3087L31.7347 13.0114L29.5975 15.1477C29.4816 15.264 29.3133 15.2847 29.2228 15.1938C29.1327 15.1033 29.1537 14.9354 29.2696 14.8195L31.4064 12.6827L30.9793 12.256L28.8429 14.3931C28.7266 14.509 28.5583 14.5293 28.4682 14.4388C28.3781 14.3491 28.3983 14.1808 28.5146 14.0649L30.6506 11.9273L30.2251 11.5014L28.0879 13.6385C27.972 13.7544 27.8037 13.7751 27.7132 13.6838C27.6231 13.5933 27.6433 13.4258 27.7596 13.3095L29.8964 11.1731L29.5987 10.875L27.3714 13.1023C25.7515 14.5912 25.7201 15.9607 25.5669 16.5081C25.4133 17.0555 24.6261 17.843 23.1598 19.2232C21.6911 20.6006 19.679 21.9149 18.8922 22.6155C18.1051 23.3165 18.887 24.0199 18.887 24.0199C18.887 24.0199 19.5908 24.8023 20.2918 24.0159C20.9928 23.2284 22.3044 21.2143 23.6849 19.748C25.0628 18.2801 25.8507 17.4925 26.3981 17.3389C26.9447 17.1849 28.3165 17.1551 29.8055 15.536Z" fill="white"/>
<path d="M70.296 32L66.6 25.472H65.016V32H61.656V15.248H67.944C69.24 15.248 70.344 15.48 71.256 15.944C72.168 16.392 72.848 17.008 73.296 17.792C73.76 18.56 73.992 19.424 73.992 20.384C73.992 21.488 73.672 22.488 73.032 23.384C72.392 24.264 71.44 24.872 70.176 25.208L74.184 32H70.296ZM65.016 22.952H67.824C68.736 22.952 69.416 22.736 69.864 22.304C70.312 21.856 70.536 21.24 70.536 20.456C70.536 19.688 70.312 19.096 69.864 18.68C69.416 18.248 68.736 18.032 67.824 18.032H65.016V22.952ZM88.431 25.064C88.431 25.544 88.399 25.976 88.335 26.36H78.615C78.695 27.32 79.031 28.072 79.623 28.616C80.215 29.16 80.943 29.432 81.807 29.432C83.055 29.432 83.943 28.896 84.471 27.824H88.095C87.711 29.104 86.975 30.16 85.887 30.992C84.799 31.808 83.463 32.216 81.879 32.216C80.599 32.216 79.447 31.936 78.423 31.376C77.415 30.8 76.623 29.992 76.047 28.952C75.487 27.912 75.207 26.712 75.207 25.352C75.207 23.976 75.487 22.768 76.047 21.728C76.607 20.688 77.391 19.888 78.399 19.328C79.407 18.768 80.567 18.488 81.879 18.488C83.143 18.488 84.271 18.76 85.263 19.304C86.271 19.848 87.047 20.624 87.591 21.632C88.151 22.624 88.431 23.768 88.431 25.064ZM84.951 24.104C84.935 23.24 84.623 22.552 84.015 22.04C83.407 21.512 82.663 21.248 81.783 21.248C80.951 21.248 80.247 21.504 79.671 22.016C79.111 22.512 78.767 23.208 78.639 24.104H84.951ZM95.0115 32.216C93.9235 32.216 92.9475 32.024 92.0835 31.64C91.2195 31.24 90.5315 30.704 90.0195 30.032C89.5235 29.36 89.2515 28.616 89.2035 27.8H92.5875C92.6515 28.312 92.8995 28.736 93.3315 29.072C93.7795 29.408 94.3315 29.576 94.9875 29.576C95.6275 29.576 96.1235 29.448 96.4755 29.192C96.8435 28.936 97.0275 28.608 97.0275 28.208C97.0275 27.776 96.8035 27.456 96.3555 27.248C95.9235 27.024 95.2275 26.784 94.2675 26.528C93.2755 26.288 92.4595 26.04 91.8195 25.784C91.1955 25.528 90.6515 25.136 90.1875 24.608C89.7395 24.08 89.5155 23.368 89.5155 22.472C89.5155 21.736 89.7235 21.064 90.1395 20.456C90.5715 19.848 91.1795 19.368 91.9635 19.016C92.7635 18.664 93.6995 18.488 94.7715 18.488C96.3555 18.488 97.6195 18.888 98.5635 19.688C99.5075 20.472 100.028 21.536 100.124 22.88H96.9075C96.8595 22.352 96.6355 21.936 96.2355 21.632C95.8515 21.312 95.3315 21.152 94.6755 21.152C94.0675 21.152 93.5955 21.264 93.2595 21.488C92.9395 21.712 92.7795 22.024 92.7795 22.424C92.7795 22.872 93.0035 23.216 93.4515 23.456C93.8995 23.68 94.5955 23.912 95.5395 24.152C96.4995 24.392 97.2915 24.64 97.9155 24.896C98.5395 25.152 99.0755 25.552 99.5235 26.096C99.9875 26.624 100.228 27.328 100.244 28.208C100.244 28.976 100.028 29.664 99.5955 30.272C99.1795 30.88 98.5715 31.36 97.7715 31.712C96.9875 32.048 96.0675 32.216 95.0115 32.216ZM105.954 21.464V27.896C105.954 28.344 106.058 28.672 106.266 28.88C106.49 29.072 106.858 29.168 107.37 29.168H108.93V32H106.818C103.986 32 102.57 30.624 102.57 27.872V21.464H100.986V18.704H102.57V15.416H105.954V18.704H108.93V21.464H105.954ZM109.522 25.304C109.522 23.96 109.786 22.768 110.314 21.728C110.858 20.688 111.586 19.888 112.498 19.328C113.426 18.768 114.458 18.488 115.594 18.488C116.586 18.488 117.45 18.688 118.186 19.088C118.938 19.488 119.538 19.992 119.986 20.6V18.704H123.37V32H119.986V30.056C119.554 30.68 118.954 31.2 118.186 31.616C117.434 32.016 116.562 32.216 115.57 32.216C114.45 32.216 113.426 31.928 112.498 31.352C111.586 30.776 110.858 29.968 110.314 28.928C109.786 27.872 109.522 26.664 109.522 25.304ZM119.986 25.352C119.986 24.536 119.826 23.84 119.506 23.264C119.186 22.672 118.754 22.224 118.21 21.92C117.666 21.6 117.082 21.44 116.458 21.44C115.834 21.44 115.258 21.592 114.73 21.896C114.202 22.2 113.77 22.648 113.434 23.24C113.114 23.816 112.954 24.504 112.954 25.304C112.954 26.104 113.114 26.808 113.434 27.416C113.77 28.008 114.202 28.464 114.73 28.784C115.274 29.104 115.85 29.264 116.458 29.264C117.082 29.264 117.666 29.112 118.21 28.808C118.754 28.488 119.186 28.04 119.506 27.464C119.826 26.872 119.986 26.168 119.986 25.352ZM138.244 18.704V32H134.86V30.32C134.428 30.896 133.86 31.352 133.156 31.688C132.468 32.008 131.716 32.168 130.9 32.168C129.86 32.168 128.94 31.952 128.14 31.52C127.34 31.072 126.708 30.424 126.244 29.576C125.796 28.712 125.572 27.688 125.572 26.504V18.704H128.932V26.024C128.932 27.08 129.196 27.896 129.724 28.472C130.252 29.032 130.972 29.312 131.884 29.312C132.812 29.312 133.54 29.032 134.068 28.472C134.596 27.896 134.86 27.08 134.86 26.024V18.704H138.244ZM143.959 20.768C144.391 20.064 144.951 19.512 145.639 19.112C146.343 18.712 147.143 18.512 148.039 18.512V22.04H147.151C146.095 22.04 145.295 22.288 144.751 22.784C144.223 23.28 143.959 24.144 143.959 25.376V32H140.599V18.704H143.959V20.768ZM148.478 25.304C148.478 23.96 148.742 22.768 149.27 21.728C149.814 20.688 150.542 19.888 151.454 19.328C152.382 18.768 153.414 18.488 154.55 18.488C155.542 18.488 156.406 18.688 157.142 19.088C157.894 19.488 158.494 19.992 158.942 20.6V18.704H162.326V32H158.942V30.056C158.51 30.68 157.91 31.2 157.142 31.616C156.39 32.016 155.518 32.216 154.526 32.216C153.406 32.216 152.382 31.928 151.454 31.352C150.542 30.776 149.814 29.968 149.27 28.928C148.742 27.872 148.478 26.664 148.478 25.304ZM158.942 25.352C158.942 24.536 158.782 23.84 158.462 23.264C158.142 22.672 157.71 22.224 157.166 21.92C156.622 21.6 156.038 21.44 155.414 21.44C154.79 21.44 154.214 21.592 153.686 21.896C153.158 22.2 152.726 22.648 152.39 23.24C152.07 23.816 151.91 24.504 151.91 25.304C151.91 26.104 152.07 26.808 152.39 27.416C152.726 28.008 153.158 28.464 153.686 28.784C154.23 29.104 154.806 29.264 155.414 29.264C156.038 29.264 156.622 29.112 157.166 28.808C157.71 28.488 158.142 28.04 158.462 27.464C158.782 26.872 158.942 26.168 158.942 25.352ZM172.016 18.512C173.6 18.512 174.88 19.016 175.856 20.024C176.832 21.016 177.32 22.408 177.32 24.2V32H173.96V24.656C173.96 23.6 173.696 22.792 173.168 22.232C172.64 21.656 171.92 21.368 171.008 21.368C170.08 21.368 169.344 21.656 168.8 22.232C168.272 22.792 168.008 23.6 168.008 24.656V32H164.648V18.704H168.008V20.36C168.456 19.784 169.024 19.336 169.712 19.016C170.416 18.68 171.184 18.512 172.016 18.512ZM183.467 21.464V27.896C183.467 28.344 183.571 28.672 183.779 28.88C184.003 29.072 184.371 29.168 184.883 29.168H186.443V32H184.331C181.499 32 180.083 30.624 180.083 27.872V21.464H178.499V18.704H180.083V15.416H183.467V18.704H186.443V21.464H183.467ZM202.931 28.808H196.259L195.155 32H191.627L197.651 15.224H201.563L207.587 32H204.035L202.931 28.808ZM202.019 26.12L199.595 19.112L197.171 26.12H202.019ZM212.238 20.624C212.67 20.016 213.262 19.512 214.014 19.112C214.782 18.696 215.654 18.488 216.63 18.488C217.766 18.488 218.79 18.768 219.702 19.328C220.63 19.888 221.358 20.688 221.886 21.728C222.43 22.752 222.702 23.944 222.702 25.304C222.702 26.664 222.43 27.872 221.886 28.928C221.358 29.968 220.63 30.776 219.702 31.352C218.79 31.928 217.766 32.216 216.63 32.216C215.654 32.216 214.79 32.016 214.038 31.616C213.302 31.216 212.702 30.712 212.238 30.104V38.336H208.878V18.704H212.238V20.624ZM219.27 25.304C219.27 24.504 219.102 23.816 218.766 23.24C218.446 22.648 218.014 22.2 217.47 21.896C216.942 21.592 216.366 21.44 215.742 21.44C215.134 21.44 214.558 21.6 214.014 21.92C213.486 22.224 213.054 22.672 212.718 23.264C212.398 23.856 212.238 24.552 212.238 25.352C212.238 26.152 212.398 26.848 212.718 27.44C213.054 28.032 213.486 28.488 214.014 28.808C214.558 29.112 215.134 29.264 215.742 29.264C216.366 29.264 216.942 29.104 217.47 28.784C218.014 28.464 218.446 28.008 218.766 27.416C219.102 26.824 219.27 26.12 219.27 25.304ZM227.544 20.624C227.976 20.016 228.568 19.512 229.32 19.112C230.088 18.696 230.96 18.488 231.936 18.488C233.072 18.488 234.096 18.768 235.008 19.328C235.936 19.888 236.664 20.688 237.192 21.728C237.736 22.752 238.008 23.944 238.008 25.304C238.008 26.664 237.736 27.872 237.192 28.928C236.664 29.968 235.936 30.776 235.008 31.352C234.096 31.928 233.072 32.216 231.936 32.216C230.96 32.216 230.096 32.016 229.344 31.616C228.608 31.216 228.008 30.712 227.544 30.104V38.336H224.184V18.704H227.544V20.624ZM234.576 25.304C234.576 24.504 234.408 23.816 234.072 23.24C233.752 22.648 233.32 22.2 232.776 21.896C232.248 21.592 231.672 21.44 231.048 21.44C230.44 21.44 229.864 21.6 229.32 21.92C228.792 22.224 228.36 22.672 228.024 23.264C227.704 23.856 227.544 24.552 227.544 25.352C227.544 26.152 227.704 26.848 228.024 27.44C228.36 28.032 228.792 28.488 229.32 28.808C229.864 29.112 230.44 29.264 231.048 29.264C231.672 29.264 232.248 29.104 232.776 28.784C233.32 28.464 233.752 28.008 234.072 27.416C234.408 26.824 234.576 26.12 234.576 25.304Z" fill="#1C1C1C"/>
</svg>
