<svg width="209" height="30" viewBox="0 0 209 30" fill="none" xmlns="http://www.w3.org/2000/svg">
<path d="M13.5865 3.64569H12.1577C9.54176 3.64779 7.02092 4.66499 5.08959 6.49781C3.15826 8.33062 1.95578 10.8468 1.71799 13.5529C1.713 13.6318 1.72369 13.711 1.74939 13.7855C1.77508 13.86 1.81524 13.9282 1.86737 13.9859C1.9195 14.0436 1.98248 14.0895 2.05242 14.1209C2.12235 14.1522 2.19774 14.1683 2.27391 14.1682H23.4718C23.548 14.1683 23.6234 14.1522 23.6933 14.1209C23.7632 14.0895 23.8262 14.0436 23.8783 13.9859C23.9305 13.9282 23.9706 13.86 23.9963 13.7855C24.022 13.711 24.0327 13.6318 24.0277 13.5529C23.7899 10.8465 22.5872 8.33013 20.6556 6.49727C18.7239 4.66442 16.2027 3.6474 13.5865 3.64569ZM12.3311 3.02323H13.4146C13.6654 3.02226 13.9056 2.91794 14.0824 2.7332C14.2592 2.54845 14.3582 2.29837 14.3577 2.03786V1.97959C14.357 1.72 14.2574 1.47124 14.0807 1.28768C13.904 1.10412 13.6645 1.00069 13.4146 1H12.3311C12.0811 1.00055 11.8415 1.10392 11.6647 1.2875C11.4878 1.47107 11.3882 1.71991 11.3875 1.97959V2.03786C11.3871 2.29842 11.4862 2.5485 11.6631 2.73323C11.84 2.91796 12.0802 3.02226 12.3311 3.02323Z" fill="#FC8019"/>
<path d="M3.60817 16.4974L1.38099 16.9596C1.11772 17.0143 0.946943 17.2803 0.99955 17.5538L2.2765 24.1919C2.3291 24.4654 2.58518 24.6428 2.84845 24.5881L5.07562 24.1258C5.33889 24.0712 5.50967 23.8052 5.45706 23.5317L4.18012 16.8936C4.12751 16.6201 3.87144 16.4427 3.60817 16.4974Z" fill="#FC8019"/>
<path d="M24.3653 15.5098C24.364 15.5098 24.3628 15.5093 24.3619 15.5083C24.361 15.5074 24.3605 15.5061 24.3605 15.5048C24.2502 15.348 24.0924 15.2344 23.9125 15.1822C23.7325 15.13 23.5408 15.1423 23.3684 15.2171C22.8726 15.3634 22.3764 15.5606 21.8951 15.7522C21.4525 15.9242 21.0003 16.1007 20.5336 16.2526C19.4983 16.5966 18.4425 16.87 17.3729 17.0709C16.4073 17.2383 15.4331 17.3478 14.4553 17.3988C14.3102 17.6801 14.1006 17.9199 13.845 18.097C13.5894 18.2741 13.2957 18.3831 12.9899 18.4142C12.9741 18.4181 12.9578 18.4198 12.9415 18.4192H12.9366L9.17273 18.3941C9.04375 18.3927 8.92056 18.3382 8.83026 18.2426C8.73996 18.1469 8.68995 18.0178 8.69124 17.8839C8.69252 17.7499 8.74499 17.6219 8.83711 17.5281C8.92922 17.4343 9.05344 17.3824 9.18242 17.3837L12.9124 17.4093C13.0892 17.3883 13.2556 17.3117 13.3893 17.1899C13.5231 17.068 13.6179 16.9067 13.661 16.7274C13.6849 16.6188 13.6816 16.5057 13.6513 16.399C13.6307 16.2942 13.5875 16.1957 13.5249 16.1108C13.4515 16.0137 13.3588 15.9341 13.2531 15.8775C13.1474 15.8209 13.0312 15.7886 12.9124 15.7828L8.55055 15.4746C8.01392 15.4379 7.4767 15.5366 6.98475 15.7623L5.48764 16.4566C5.38666 16.503 5.30397 16.5838 5.25327 16.6857C5.20258 16.7876 5.18693 16.9045 5.20892 17.0169L6.341 22.8952C6.36301 23.0112 6.4236 23.1154 6.51217 23.1896C6.60073 23.2637 6.71161 23.3032 6.82536 23.3009L14.0247 23.1637C14.9162 23.1484 15.7858 22.8736 16.5345 22.3706L24.3798 17.0924C24.5531 16.9844 24.6787 16.8101 24.7297 16.607C24.7806 16.4039 24.7529 16.1881 24.6524 16.0061L24.3653 15.5098Z" fill="#FC8019"/>
<path d="M38.98 19.52H33.74L32.9 22H29.32L34.4 7.96H38.36L43.44 22H39.82L38.98 19.52ZM38.1 16.88L36.36 11.74L34.64 16.88H38.1ZM43.9061 16.42C43.9061 15.26 44.1394 14.2467 44.6061 13.38C45.0861 12.5133 45.7461 11.8467 46.5861 11.38C47.4394 10.9133 48.4128 10.68 49.5061 10.68C50.9061 10.68 52.0728 11.0467 53.0061 11.78C53.9528 12.5133 54.5728 13.5467 54.8661 14.88H51.2261C50.9194 14.0267 50.3261 13.6 49.4461 13.6C48.8194 13.6 48.3194 13.8467 47.9461 14.34C47.5728 14.82 47.3861 15.5133 47.3861 16.42C47.3861 17.3267 47.5728 18.0267 47.9461 18.52C48.3194 19 48.8194 19.24 49.4461 19.24C50.3261 19.24 50.9194 18.8133 51.2261 17.96H54.8661C54.5728 19.2667 53.9528 20.2933 53.0061 21.04C52.0594 21.7867 50.8928 22.16 49.5061 22.16C48.4128 22.16 47.4394 21.9267 46.5861 21.46C45.7461 20.9933 45.0861 20.3267 44.6061 19.46C44.1394 18.5933 43.9061 17.58 43.9061 16.42ZM63.0955 10.72C64.4021 10.72 65.4421 11.1467 66.2155 12C67.0021 12.84 67.3955 14 67.3955 15.48V22H63.9955V15.94C63.9955 15.1933 63.8021 14.6133 63.4155 14.2C63.0288 13.7867 62.5088 13.58 61.8555 13.58C61.2021 13.58 60.6821 13.7867 60.2955 14.2C59.9088 14.6133 59.7155 15.1933 59.7155 15.94V22H56.2955V10.84H59.7155V12.32C60.0621 11.8267 60.5288 11.44 61.1155 11.16C61.7021 10.8667 62.3621 10.72 63.0955 10.72ZM74.452 22.16C73.3587 22.16 72.372 21.9267 71.492 21.46C70.6254 20.9933 69.9387 20.3267 69.432 19.46C68.9387 18.5933 68.692 17.58 68.692 16.42C68.692 15.2733 68.9454 14.2667 69.452 13.4C69.9587 12.52 70.652 11.8467 71.532 11.38C72.412 10.9133 73.3987 10.68 74.492 10.68C75.5854 10.68 76.572 10.9133 77.452 11.38C78.332 11.8467 79.0254 12.52 79.532 13.4C80.0387 14.2667 80.292 15.2733 80.292 16.42C80.292 17.5667 80.032 18.58 79.512 19.46C79.0054 20.3267 78.3054 20.9933 77.412 21.46C76.532 21.9267 75.5454 22.16 74.452 22.16ZM74.452 19.2C75.1054 19.2 75.6587 18.96 76.112 18.48C76.5787 18 76.812 17.3133 76.812 16.42C76.812 15.5267 76.5854 14.84 76.132 14.36C75.692 13.88 75.1454 13.64 74.492 13.64C73.8254 13.64 73.272 13.88 72.832 14.36C72.392 14.8267 72.172 15.5133 72.172 16.42C72.172 17.3133 72.3854 18 72.812 18.48C73.252 18.96 73.7987 19.2 74.452 19.2ZM86.7864 22.16C85.6931 22.16 84.7064 21.9267 83.8264 21.46C82.9597 20.9933 82.2731 20.3267 81.7664 19.46C81.2731 18.5933 81.0264 17.58 81.0264 16.42C81.0264 15.2733 81.2797 14.2667 81.7864 13.4C82.2931 12.52 82.9864 11.8467 83.8664 11.38C84.7464 10.9133 85.7331 10.68 86.8264 10.68C87.9197 10.68 88.9064 10.9133 89.7864 11.38C90.6664 11.8467 91.3597 12.52 91.8664 13.4C92.3731 14.2667 92.6264 15.2733 92.6264 16.42C92.6264 17.5667 92.3664 18.58 91.8464 19.46C91.3397 20.3267 90.6397 20.9933 89.7464 21.46C88.8664 21.9267 87.8797 22.16 86.7864 22.16ZM86.7864 19.2C87.4397 19.2 87.9931 18.96 88.4464 18.48C88.9131 18 89.1464 17.3133 89.1464 16.42C89.1464 15.5267 88.9197 14.84 88.4664 14.36C88.0264 13.88 87.4797 13.64 86.8264 13.64C86.1597 13.64 85.6064 13.88 85.1664 14.36C84.7264 14.8267 84.5064 15.5133 84.5064 16.42C84.5064 17.3133 84.7197 18 85.1464 18.48C85.5864 18.96 86.1331 19.2 86.7864 19.2ZM105.039 22L102.119 16.7H101.299V22H97.8791V7.96H103.619C104.726 7.96 105.666 8.15333 106.439 8.54C107.226 8.92667 107.812 9.46 108.199 10.14C108.586 10.8067 108.779 11.5533 108.779 12.38C108.779 13.3133 108.512 14.1467 107.979 14.88C107.459 15.6133 106.686 16.1333 105.659 16.44L108.899 22H105.039ZM101.299 14.28H103.419C104.046 14.28 104.512 14.1267 104.819 13.82C105.139 13.5133 105.299 13.08 105.299 12.52C105.299 11.9867 105.139 11.5667 104.819 11.26C104.512 10.9533 104.046 10.8 103.419 10.8H101.299V14.28ZM121.046 16.24C121.046 16.56 121.026 16.8933 120.986 17.24H113.246C113.299 17.9333 113.519 18.4667 113.906 18.84C114.306 19.2 114.793 19.38 115.366 19.38C116.219 19.38 116.813 19.02 117.146 18.3H120.786C120.599 19.0333 120.259 19.6933 119.766 20.28C119.286 20.8667 118.679 21.3267 117.946 21.66C117.213 21.9933 116.393 22.16 115.486 22.16C114.393 22.16 113.419 21.9267 112.566 21.46C111.713 20.9933 111.046 20.3267 110.566 19.46C110.086 18.5933 109.846 17.58 109.846 16.42C109.846 15.26 110.079 14.2467 110.546 13.38C111.026 12.5133 111.693 11.8467 112.546 11.38C113.399 10.9133 114.379 10.68 115.486 10.68C116.566 10.68 117.526 10.9067 118.366 11.36C119.206 11.8133 119.859 12.46 120.326 13.3C120.806 14.14 121.046 15.12 121.046 16.24ZM117.546 15.34C117.546 14.7533 117.346 14.2867 116.946 13.94C116.546 13.5933 116.046 13.42 115.446 13.42C114.873 13.42 114.386 13.5867 113.986 13.92C113.599 14.2533 113.359 14.7267 113.266 15.34H117.546ZM126.99 22.16C126.017 22.16 125.15 21.9933 124.39 21.66C123.63 21.3267 123.03 20.8733 122.59 20.3C122.15 19.7133 121.903 19.06 121.85 18.34H125.23C125.27 18.7267 125.45 19.04 125.77 19.28C126.09 19.52 126.483 19.64 126.95 19.64C127.377 19.64 127.703 19.56 127.93 19.4C128.17 19.2267 128.29 19.0067 128.29 18.74C128.29 18.42 128.123 18.1867 127.79 18.04C127.457 17.88 126.917 17.7067 126.17 17.52C125.37 17.3333 124.703 17.14 124.17 16.94C123.637 16.7267 123.177 16.4 122.79 15.96C122.403 15.5067 122.21 14.9 122.21 14.14C122.21 13.5 122.383 12.92 122.73 12.4C123.09 11.8667 123.61 11.4467 124.29 11.14C124.983 10.8333 125.803 10.68 126.75 10.68C128.15 10.68 129.25 11.0267 130.05 11.72C130.863 12.4133 131.33 13.3333 131.45 14.48H128.29C128.237 14.0933 128.063 13.7867 127.77 13.56C127.49 13.3333 127.117 13.22 126.65 13.22C126.25 13.22 125.943 13.3 125.73 13.46C125.517 13.6067 125.41 13.8133 125.41 14.08C125.41 14.4 125.577 14.64 125.91 14.8C126.257 14.96 126.79 15.12 127.51 15.28C128.337 15.4933 129.01 15.7067 129.53 15.92C130.05 16.12 130.503 16.4533 130.89 16.92C131.29 17.3733 131.497 17.9867 131.51 18.76C131.51 19.4133 131.323 20 130.95 20.52C130.59 21.0267 130.063 21.4267 129.37 21.72C128.69 22.0133 127.897 22.16 126.99 22.16ZM139.423 19.1V22H137.683C136.443 22 135.476 21.7 134.783 21.1C134.089 20.4867 133.743 19.4933 133.743 18.12V13.68H132.383V10.84H133.743V8.12H137.163V10.84H139.403V13.68H137.163V18.16C137.163 18.4933 137.243 18.7333 137.403 18.88C137.563 19.0267 137.829 19.1 138.203 19.1H139.423ZM140.248 16.4C140.248 15.2533 140.461 14.2467 140.888 13.38C141.328 12.5133 141.921 11.8467 142.668 11.38C143.414 10.9133 144.248 10.68 145.168 10.68C145.954 10.68 146.641 10.84 147.228 11.16C147.828 11.48 148.288 11.9 148.608 12.42V10.84H152.028V22H148.608V20.42C148.274 20.94 147.808 21.36 147.208 21.68C146.621 22 145.934 22.16 145.148 22.16C144.241 22.16 143.414 21.9267 142.668 21.46C141.921 20.98 141.328 20.3067 140.888 19.44C140.461 18.56 140.248 17.5467 140.248 16.4ZM148.608 16.42C148.608 15.5667 148.368 14.8933 147.888 14.4C147.421 13.9067 146.848 13.66 146.168 13.66C145.488 13.66 144.908 13.9067 144.428 14.4C143.961 14.88 143.728 15.5467 143.728 16.4C143.728 17.2533 143.961 17.9333 144.428 18.44C144.908 18.9333 145.488 19.18 146.168 19.18C146.848 19.18 147.421 18.9333 147.888 18.44C148.368 17.9467 148.608 17.2733 148.608 16.42ZM165.122 10.84V22H161.702V20.48C161.355 20.9733 160.882 21.3733 160.282 21.68C159.695 21.9733 159.042 22.12 158.322 22.12C157.468 22.12 156.715 21.9333 156.062 21.56C155.408 21.1733 154.902 20.62 154.542 19.9C154.182 19.18 154.002 18.3333 154.002 17.36V10.84H157.402V16.9C157.402 17.6467 157.595 18.2267 157.982 18.64C158.368 19.0533 158.888 19.26 159.542 19.26C160.208 19.26 160.735 19.0533 161.122 18.64C161.508 18.2267 161.702 17.6467 161.702 16.9V10.84H165.122ZM170.598 12.7C170.998 12.0867 171.498 11.6067 172.098 11.26C172.698 10.9 173.365 10.72 174.098 10.72V14.34H173.158C172.305 14.34 171.665 14.5267 171.238 14.9C170.812 15.26 170.598 15.9 170.598 16.82V22H167.178V10.84H170.598V12.7ZM174.653 16.4C174.653 15.2533 174.866 14.2467 175.293 13.38C175.733 12.5133 176.326 11.8467 177.073 11.38C177.82 10.9133 178.653 10.68 179.573 10.68C180.36 10.68 181.046 10.84 181.633 11.16C182.233 11.48 182.693 11.9 183.013 12.42V10.84H186.433V22H183.013V20.42C182.68 20.94 182.213 21.36 181.613 21.68C181.026 22 180.34 22.16 179.553 22.16C178.646 22.16 177.82 21.9267 177.073 21.46C176.326 20.98 175.733 20.3067 175.293 19.44C174.866 18.56 174.653 17.5467 174.653 16.4ZM183.013 16.42C183.013 15.5667 182.773 14.8933 182.293 14.4C181.826 13.9067 181.253 13.66 180.573 13.66C179.893 13.66 179.313 13.9067 178.833 14.4C178.366 14.88 178.133 15.5467 178.133 16.4C178.133 17.2533 178.366 17.9333 178.833 18.44C179.313 18.9333 179.893 19.18 180.573 19.18C181.253 19.18 181.826 18.9333 182.293 18.44C182.773 17.9467 183.013 17.2733 183.013 16.42ZM195.307 10.72C196.614 10.72 197.654 11.1467 198.427 12C199.214 12.84 199.607 14 199.607 15.48V22H196.207V15.94C196.207 15.1933 196.014 14.6133 195.627 14.2C195.241 13.7867 194.721 13.58 194.067 13.58C193.414 13.58 192.894 13.7867 192.507 14.2C192.121 14.6133 191.927 15.1933 191.927 15.94V22H188.507V10.84H191.927V12.32C192.274 11.8267 192.741 11.44 193.327 11.16C193.914 10.8667 194.574 10.72 195.307 10.72ZM207.804 19.1V22H206.064C204.824 22 203.857 21.7 203.164 21.1C202.47 20.4867 202.124 19.4933 202.124 18.12V13.68H200.764V10.84H202.124V8.12H205.544V10.84H207.784V13.68H205.544V18.16C205.544 18.4933 205.624 18.7333 205.784 18.88C205.944 19.0267 206.21 19.1 206.584 19.1H207.804Z" fill="white"/>
</svg>
