<svg width="209" height="30" viewBox="0 0 209 30" fill="none" xmlns="http://www.w3.org/2000/svg">
<path d="M12.6822 3.64568H11.2535C8.63752 3.64779 6.11666 4.66499 4.18531 6.4978C2.25397 8.33061 1.05149 10.8468 0.813692 13.5529C0.808706 13.6318 0.819394 13.711 0.845091 13.7855C0.870787 13.86 0.910945 13.9282 0.963073 13.9859C1.0152 14.0436 1.07819 14.0895 1.14812 14.1209C1.21806 14.1522 1.29345 14.1683 1.36962 14.1681H22.5676C22.6438 14.1683 22.7192 14.1522 22.7891 14.1209C22.8591 14.0895 22.9221 14.0436 22.9742 13.9859C23.0263 13.9282 23.0665 13.86 23.0922 13.7855C23.1179 13.711 23.1285 13.6318 23.1236 13.5529C22.8857 10.8465 21.683 8.33012 19.7514 6.49727C17.8197 4.66442 15.2985 3.64739 12.6822 3.64568ZM11.4269 3.02323H12.5104C12.7612 3.02225 13.0014 2.91794 13.1782 2.7332C13.355 2.54845 13.454 2.29837 13.4535 2.03786V1.97959C13.4528 1.72 13.3532 1.47124 13.1765 1.28768C12.9998 1.10412 12.7603 1.00069 12.5104 1H11.4269C11.1769 1.00055 10.9372 1.10392 10.7604 1.2875C10.5836 1.47107 10.484 1.71991 10.4833 1.97959V2.03786C10.4829 2.29842 10.582 2.5485 10.7589 2.73323C10.9358 2.91796 11.176 3.02225 11.4269 3.02323Z" fill="#FC8019"/>
<path d="M2.70389 16.4974L0.476699 16.9596C0.213426 17.0143 0.0426467 17.2803 0.095254 17.5538L1.37221 24.1919C1.42482 24.4654 1.68089 24.6427 1.94416 24.5881L4.17135 24.1258C4.43462 24.0712 4.6054 23.8052 4.5528 23.5317L3.27584 16.8936C3.22323 16.6201 2.96716 16.4427 2.70389 16.4974Z" fill="#FC8019"/>
<path d="M23.4611 15.5098C23.4598 15.5098 23.4586 15.5093 23.4577 15.5083C23.4568 15.5074 23.4563 15.5061 23.4563 15.5048C23.3461 15.348 23.1883 15.2344 23.0083 15.1822C22.8283 15.13 22.6367 15.1423 22.4642 15.2171C21.9684 15.3634 21.4722 15.5606 20.9909 15.7522C20.5484 15.9242 20.0961 16.1007 19.6294 16.2526C18.5941 16.5966 17.5383 16.87 16.4687 17.0709C15.503 17.2383 14.5289 17.3478 13.5511 17.3988C13.406 17.6801 13.1963 17.9199 12.9407 18.097C12.6851 18.2741 12.3915 18.3831 12.0857 18.4142C12.0698 18.4181 12.0535 18.4198 12.0372 18.4192H12.0324L8.26846 18.3941C8.13948 18.3927 8.01628 18.3382 7.92598 18.2426C7.83569 18.1469 7.78568 18.0178 7.78696 17.8839C7.78825 17.7499 7.84072 17.6219 7.93283 17.5281C8.02495 17.4343 8.14916 17.3824 8.27815 17.3837L12.0082 17.4093C12.1849 17.3883 12.3513 17.3117 12.4851 17.1899C12.6188 17.068 12.7136 16.9067 12.7567 16.7274C12.7807 16.6188 12.7774 16.5057 12.747 16.3989C12.7264 16.2942 12.6832 16.1957 12.6207 16.1108C12.5472 16.0137 12.4545 15.9341 12.3488 15.8775C12.2431 15.8209 12.1269 15.7886 12.0082 15.7828L7.64628 15.4746C7.10964 15.4379 6.57242 15.5366 6.08047 15.7623L4.58335 16.4566C4.48236 16.503 4.39967 16.5838 4.34898 16.6857C4.29828 16.7876 4.28263 16.9045 4.30462 17.0169L5.43671 22.8952C5.45872 23.0112 5.51932 23.1154 5.60788 23.1896C5.69644 23.2637 5.80732 23.3032 5.92107 23.3009L13.1204 23.1637C14.012 23.1484 14.8816 22.8736 15.6303 22.3706L23.4757 17.0923C23.6489 16.9844 23.7745 16.8101 23.8255 16.607C23.8765 16.4039 23.8487 16.1881 23.7482 16.0061L23.4611 15.5098Z" fill="#FC8019"/>
<path d="M38.0757 19.52H32.8357L31.9957 22H28.4157L33.4957 7.96H37.4557L42.5357 22H38.9157L38.0757 19.52ZM37.1957 16.88L35.4557 11.74L33.7357 16.88H37.1957ZM43.0018 16.42C43.0018 15.26 43.2351 14.2467 43.7018 13.38C44.1818 12.5133 44.8418 11.8467 45.6818 11.38C46.5351 10.9133 47.5085 10.68 48.6018 10.68C50.0018 10.68 51.1685 11.0467 52.1018 11.78C53.0485 12.5133 53.6685 13.5467 53.9618 14.88H50.3218C50.0151 14.0267 49.4218 13.6 48.5418 13.6C47.9151 13.6 47.4151 13.8467 47.0418 14.34C46.6685 14.82 46.4818 15.5133 46.4818 16.42C46.4818 17.3267 46.6685 18.0267 47.0418 18.52C47.4151 19 47.9151 19.24 48.5418 19.24C49.4218 19.24 50.0151 18.8133 50.3218 17.96H53.9618C53.6685 19.2667 53.0485 20.2933 52.1018 21.04C51.1551 21.7867 49.9885 22.16 48.6018 22.16C47.5085 22.16 46.5351 21.9267 45.6818 21.46C44.8418 20.9933 44.1818 20.3267 43.7018 19.46C43.2351 18.5933 43.0018 17.58 43.0018 16.42ZM62.1912 10.72C63.4978 10.72 64.5378 11.1467 65.3112 12C66.0978 12.84 66.4912 14 66.4912 15.48V22H63.0912V15.94C63.0912 15.1933 62.8978 14.6133 62.5112 14.2C62.1245 13.7867 61.6045 13.58 60.9512 13.58C60.2978 13.58 59.7778 13.7867 59.3912 14.2C59.0045 14.6133 58.8112 15.1933 58.8112 15.94V22H55.3912V10.84H58.8112V12.32C59.1578 11.8267 59.6245 11.44 60.2112 11.16C60.7978 10.8667 61.4578 10.72 62.1912 10.72ZM73.5477 22.16C72.4544 22.16 71.4677 21.9267 70.5877 21.46C69.7211 20.9933 69.0344 20.3267 68.5277 19.46C68.0344 18.5933 67.7877 17.58 67.7877 16.42C67.7877 15.2733 68.0411 14.2667 68.5477 13.4C69.0544 12.52 69.7477 11.8467 70.6277 11.38C71.5077 10.9133 72.4944 10.68 73.5877 10.68C74.6811 10.68 75.6677 10.9133 76.5477 11.38C77.4277 11.8467 78.1211 12.52 78.6277 13.4C79.1344 14.2667 79.3877 15.2733 79.3877 16.42C79.3877 17.5667 79.1277 18.58 78.6077 19.46C78.1011 20.3267 77.4011 20.9933 76.5077 21.46C75.6277 21.9267 74.6411 22.16 73.5477 22.16ZM73.5477 19.2C74.2011 19.2 74.7544 18.96 75.2077 18.48C75.6744 18 75.9077 17.3133 75.9077 16.42C75.9077 15.5267 75.6811 14.84 75.2277 14.36C74.7877 13.88 74.2411 13.64 73.5877 13.64C72.9211 13.64 72.3677 13.88 71.9277 14.36C71.4877 14.8267 71.2677 15.5133 71.2677 16.42C71.2677 17.3133 71.4811 18 71.9077 18.48C72.3477 18.96 72.8944 19.2 73.5477 19.2ZM85.8821 22.16C84.7888 22.16 83.8021 21.9267 82.9221 21.46C82.0554 20.9933 81.3688 20.3267 80.8621 19.46C80.3688 18.5933 80.1221 17.58 80.1221 16.42C80.1221 15.2733 80.3754 14.2667 80.8821 13.4C81.3888 12.52 82.0821 11.8467 82.9621 11.38C83.8421 10.9133 84.8288 10.68 85.9221 10.68C87.0154 10.68 88.0021 10.9133 88.8821 11.38C89.7621 11.8467 90.4554 12.52 90.9621 13.4C91.4688 14.2667 91.7221 15.2733 91.7221 16.42C91.7221 17.5667 91.4621 18.58 90.9421 19.46C90.4354 20.3267 89.7354 20.9933 88.8421 21.46C87.9621 21.9267 86.9754 22.16 85.8821 22.16ZM85.8821 19.2C86.5354 19.2 87.0888 18.96 87.5421 18.48C88.0088 18 88.2421 17.3133 88.2421 16.42C88.2421 15.5267 88.0154 14.84 87.5621 14.36C87.1221 13.88 86.5754 13.64 85.9221 13.64C85.2554 13.64 84.7021 13.88 84.2621 14.36C83.8221 14.8267 83.6021 15.5133 83.6021 16.42C83.6021 17.3133 83.8154 18 84.2421 18.48C84.6821 18.96 85.2288 19.2 85.8821 19.2ZM104.135 22L101.215 16.7H100.395V22H96.9748V7.96H102.715C103.821 7.96 104.761 8.15333 105.535 8.54C106.321 8.92667 106.908 9.46 107.295 10.14C107.681 10.8067 107.875 11.5533 107.875 12.38C107.875 13.3133 107.608 14.1467 107.075 14.88C106.555 15.6133 105.781 16.1333 104.755 16.44L107.995 22H104.135ZM100.395 14.28H102.515C103.141 14.28 103.608 14.1267 103.915 13.82C104.235 13.5133 104.395 13.08 104.395 12.52C104.395 11.9867 104.235 11.5667 103.915 11.26C103.608 10.9533 103.141 10.8 102.515 10.8H100.395V14.28ZM120.142 16.24C120.142 16.56 120.122 16.8933 120.082 17.24H112.342C112.395 17.9333 112.615 18.4667 113.002 18.84C113.402 19.2 113.888 19.38 114.462 19.38C115.315 19.38 115.908 19.02 116.242 18.3H119.882C119.695 19.0333 119.355 19.6933 118.862 20.28C118.382 20.8667 117.775 21.3267 117.042 21.66C116.308 21.9933 115.488 22.16 114.582 22.16C113.488 22.16 112.515 21.9267 111.662 21.46C110.808 20.9933 110.142 20.3267 109.662 19.46C109.182 18.5933 108.942 17.58 108.942 16.42C108.942 15.26 109.175 14.2467 109.642 13.38C110.122 12.5133 110.788 11.8467 111.642 11.38C112.495 10.9133 113.475 10.68 114.582 10.68C115.662 10.68 116.622 10.9067 117.462 11.36C118.302 11.8133 118.955 12.46 119.422 13.3C119.902 14.14 120.142 15.12 120.142 16.24ZM116.642 15.34C116.642 14.7533 116.442 14.2867 116.042 13.94C115.642 13.5933 115.142 13.42 114.542 13.42C113.968 13.42 113.482 13.5867 113.082 13.92C112.695 14.2533 112.455 14.7267 112.362 15.34H116.642ZM126.086 22.16C125.113 22.16 124.246 21.9933 123.486 21.66C122.726 21.3267 122.126 20.8733 121.686 20.3C121.246 19.7133 120.999 19.06 120.946 18.34H124.326C124.366 18.7267 124.546 19.04 124.866 19.28C125.186 19.52 125.579 19.64 126.046 19.64C126.473 19.64 126.799 19.56 127.026 19.4C127.266 19.2267 127.386 19.0067 127.386 18.74C127.386 18.42 127.219 18.1867 126.886 18.04C126.553 17.88 126.013 17.7067 125.266 17.52C124.466 17.3333 123.799 17.14 123.266 16.94C122.733 16.7267 122.273 16.4 121.886 15.96C121.499 15.5067 121.306 14.9 121.306 14.14C121.306 13.5 121.479 12.92 121.826 12.4C122.186 11.8667 122.706 11.4467 123.386 11.14C124.079 10.8333 124.899 10.68 125.846 10.68C127.246 10.68 128.346 11.0267 129.146 11.72C129.959 12.4133 130.426 13.3333 130.546 14.48H127.386C127.333 14.0933 127.159 13.7867 126.866 13.56C126.586 13.3333 126.213 13.22 125.746 13.22C125.346 13.22 125.039 13.3 124.826 13.46C124.613 13.6067 124.506 13.8133 124.506 14.08C124.506 14.4 124.673 14.64 125.006 14.8C125.353 14.96 125.886 15.12 126.606 15.28C127.433 15.4933 128.106 15.7067 128.626 15.92C129.146 16.12 129.599 16.4533 129.986 16.92C130.386 17.3733 130.593 17.9867 130.606 18.76C130.606 19.4133 130.419 20 130.046 20.52C129.686 21.0267 129.159 21.4267 128.466 21.72C127.786 22.0133 126.993 22.16 126.086 22.16ZM138.518 19.1V22H136.778C135.538 22 134.572 21.7 133.878 21.1C133.185 20.4867 132.838 19.4933 132.838 18.12V13.68H131.478V10.84H132.838V8.12H136.258V10.84H138.498V13.68H136.258V18.16C136.258 18.4933 136.338 18.7333 136.498 18.88C136.658 19.0267 136.925 19.1 137.298 19.1H138.518ZM139.343 16.4C139.343 15.2533 139.557 14.2467 139.983 13.38C140.423 12.5133 141.017 11.8467 141.763 11.38C142.51 10.9133 143.343 10.68 144.263 10.68C145.05 10.68 145.737 10.84 146.323 11.16C146.923 11.48 147.383 11.9 147.703 12.42V10.84H151.123V22H147.703V20.42C147.37 20.94 146.903 21.36 146.303 21.68C145.717 22 145.03 22.16 144.243 22.16C143.337 22.16 142.51 21.9267 141.763 21.46C141.017 20.98 140.423 20.3067 139.983 19.44C139.557 18.56 139.343 17.5467 139.343 16.4ZM147.703 16.42C147.703 15.5667 147.463 14.8933 146.983 14.4C146.517 13.9067 145.943 13.66 145.263 13.66C144.583 13.66 144.003 13.9067 143.523 14.4C143.057 14.88 142.823 15.5467 142.823 16.4C142.823 17.2533 143.057 17.9333 143.523 18.44C144.003 18.9333 144.583 19.18 145.263 19.18C145.943 19.18 146.517 18.9333 146.983 18.44C147.463 17.9467 147.703 17.2733 147.703 16.42ZM164.217 10.84V22H160.797V20.48C160.451 20.9733 159.977 21.3733 159.377 21.68C158.791 21.9733 158.137 22.12 157.417 22.12C156.564 22.12 155.811 21.9333 155.157 21.56C154.504 21.1733 153.997 20.62 153.637 19.9C153.277 19.18 153.097 18.3333 153.097 17.36V10.84H156.497V16.9C156.497 17.6467 156.691 18.2267 157.077 18.64C157.464 19.0533 157.984 19.26 158.637 19.26C159.304 19.26 159.831 19.0533 160.217 18.64C160.604 18.2267 160.797 17.6467 160.797 16.9V10.84H164.217ZM169.694 12.7C170.094 12.0867 170.594 11.6067 171.194 11.26C171.794 10.9 172.461 10.72 173.194 10.72V14.34H172.254C171.401 14.34 170.761 14.5267 170.334 14.9C169.907 15.26 169.694 15.9 169.694 16.82V22H166.274V10.84H169.694V12.7ZM173.749 16.4C173.749 15.2533 173.962 14.2467 174.389 13.38C174.829 12.5133 175.422 11.8467 176.169 11.38C176.915 10.9133 177.749 10.68 178.669 10.68C179.455 10.68 180.142 10.84 180.729 11.16C181.329 11.48 181.789 11.9 182.109 12.42V10.84H185.529V22H182.109V20.42C181.775 20.94 181.309 21.36 180.709 21.68C180.122 22 179.435 22.16 178.649 22.16C177.742 22.16 176.915 21.9267 176.169 21.46C175.422 20.98 174.829 20.3067 174.389 19.44C173.962 18.56 173.749 17.5467 173.749 16.4ZM182.109 16.42C182.109 15.5667 181.869 14.8933 181.389 14.4C180.922 13.9067 180.349 13.66 179.669 13.66C178.989 13.66 178.409 13.9067 177.929 14.4C177.462 14.88 177.229 15.5467 177.229 16.4C177.229 17.2533 177.462 17.9333 177.929 18.44C178.409 18.9333 178.989 19.18 179.669 19.18C180.349 19.18 180.922 18.9333 181.389 18.44C181.869 17.9467 182.109 17.2733 182.109 16.42ZM194.403 10.72C195.71 10.72 196.75 11.1467 197.523 12C198.31 12.84 198.703 14 198.703 15.48V22H195.303V15.94C195.303 15.1933 195.11 14.6133 194.723 14.2C194.336 13.7867 193.816 13.58 193.163 13.58C192.51 13.58 191.99 13.7867 191.603 14.2C191.216 14.6133 191.023 15.1933 191.023 15.94V22H187.603V10.84H191.023V12.32C191.37 11.8267 191.836 11.44 192.423 11.16C193.01 10.8667 193.67 10.72 194.403 10.72ZM206.899 19.1V22H205.159C203.919 22 202.953 21.7 202.259 21.1C201.566 20.4867 201.219 19.4933 201.219 18.12V13.68H199.859V10.84H201.219V8.12H204.639V10.84H206.879V13.68H204.639V18.16C204.639 18.4933 204.719 18.7333 204.879 18.88C205.039 19.0267 205.306 19.1 205.679 19.1H206.899Z" fill="black"/>
</svg>
