<svg width="25" height="24" viewBox="0 0 25 24" fill="none" xmlns="http://www.w3.org/2000/svg">
<path d="M13.2903 2.66994H11.7926C9.05033 2.67206 6.40781 3.69858 4.38325 5.5482C2.3587 7.39781 1.09818 9.93705 0.848906 12.6679C0.843679 12.7476 0.854883 12.8275 0.88182 12.9027C0.908757 12.9779 0.950853 13.0467 1.0055 13.1049C1.06014 13.1631 1.12617 13.2095 1.19948 13.2411C1.27279 13.2728 1.35182 13.289 1.43166 13.2888H23.6528C23.7326 13.289 23.8116 13.2728 23.8849 13.2411C23.9583 13.2095 24.0243 13.1631 24.0789 13.1049C24.1336 13.0467 24.1757 12.9779 24.2026 12.9027C24.2295 12.8275 24.2407 12.7476 24.2355 12.6679C23.9862 9.93678 22.7255 7.39731 20.7006 5.54766C18.6757 3.69801 16.0328 2.67166 13.2903 2.66994ZM11.9743 2.04177H13.1101C13.373 2.04079 13.6248 1.93552 13.8101 1.74908C13.9955 1.56264 14.0993 1.31027 14.0987 1.04738V0.98857C14.098 0.7266 13.9936 0.475559 13.8084 0.290318C13.6231 0.105076 13.3721 0.00069915 13.1101 0H11.9743C11.7122 0.000559328 11.461 0.104875 11.2757 0.290131C11.0903 0.475388 10.9859 0.726508 10.9852 0.98857V1.04738C10.9848 1.31032 11.0887 1.56269 11.2741 1.74911C11.4595 1.93554 11.7113 2.04079 11.9743 2.04177Z" fill="#FC8019"/>
<path d="M2.83439 15.6387L0.499706 16.1052C0.223726 16.1604 0.0447049 16.4288 0.0998512 16.7048L1.43844 23.4037C1.49358 23.6797 1.76201 23.8588 2.03799 23.8036L4.37267 23.3371C4.64865 23.2819 4.82767 23.0135 4.77253 22.7375L3.43394 16.0386C3.3788 15.7626 3.11037 15.5836 2.83439 15.6387Z" fill="#FC8019"/>
<path d="M24.5912 14.643C24.5899 14.643 24.5886 14.6424 24.5876 14.6415C24.5867 14.6405 24.5862 14.6392 24.5862 14.6379C24.4706 14.4797 24.3052 14.3651 24.1165 14.3124C23.9279 14.2597 23.727 14.2721 23.5462 14.3476C23.0265 14.4953 22.5063 14.6942 22.0018 14.8876C21.5379 15.0612 21.0638 15.2393 20.5746 15.3926C19.4893 15.7398 18.3826 16.0156 17.2613 16.2183C16.2491 16.3873 15.2279 16.4978 14.2029 16.5493C14.0508 16.8332 13.831 17.0752 13.5631 17.2539C13.2951 17.4326 12.9873 17.5426 12.6668 17.574C12.6501 17.578 12.6331 17.5797 12.616 17.5791H12.6109L8.66532 17.5537C8.5301 17.5523 8.40096 17.4973 8.30631 17.4008C8.21165 17.3042 8.15923 17.174 8.16058 17.0388C8.16192 16.9036 8.21693 16.7744 8.31349 16.6798C8.41005 16.5851 8.54026 16.5327 8.67547 16.5341L12.5855 16.5599C12.7708 16.5387 12.9452 16.4614 13.0854 16.3385C13.2257 16.2155 13.325 16.0526 13.3702 15.8717C13.3953 15.7622 13.3918 15.648 13.3601 15.5403C13.3384 15.4346 13.2932 15.3352 13.2276 15.2495C13.1506 15.1515 13.0534 15.0712 12.9426 15.0141C12.8318 14.957 12.71 14.9244 12.5855 14.9185L8.0131 14.6074C7.45056 14.5704 6.88742 14.67 6.37172 14.8978L4.80235 15.5984C4.69649 15.6453 4.6098 15.7269 4.55666 15.8297C4.50352 15.9325 4.48712 16.0504 4.51017 16.1639L5.69689 22.0961C5.71996 22.2131 5.78349 22.3183 5.87632 22.3931C5.96916 22.468 6.08539 22.5078 6.20463 22.5055L13.7515 22.3671C14.6861 22.3516 15.5976 22.0743 16.3825 21.5667L24.6065 16.24C24.7881 16.1311 24.9198 15.9552 24.9732 15.7502C25.0266 15.5453 24.9975 15.3275 24.8922 15.1438L24.5912 14.643Z" fill="#FC8019"/>
</svg>
