<svg width="175" height="25" viewBox="0 0 175 25" fill="none" xmlns="http://www.w3.org/2000/svg">
<path d="M12.6822 2.64568H11.2535C8.63752 2.64779 6.11666 3.66499 4.18531 5.4978C2.25397 7.33061 1.05149 9.8468 0.813692 12.5529C0.808706 12.6318 0.819394 12.711 0.845091 12.7855C0.870787 12.86 0.910945 12.9282 0.963073 12.9859C1.0152 13.0436 1.07819 13.0895 1.14812 13.1209C1.21806 13.1522 1.29345 13.1683 1.36962 13.1681H22.5676C22.6438 13.1683 22.7192 13.1522 22.7891 13.1209C22.8591 13.0895 22.9221 13.0436 22.9742 12.9859C23.0263 12.9282 23.0665 12.86 23.0922 12.7855C23.1179 12.711 23.1285 12.6318 23.1236 12.5529C22.8857 9.8465 21.683 7.33012 19.7514 5.49727C17.8197 3.66442 15.2985 2.64739 12.6822 2.64568ZM11.4269 2.02323H12.5104C12.7612 2.02225 13.0014 1.91794 13.1782 1.7332C13.355 1.54845 13.454 1.29837 13.4535 1.03786V0.97959C13.4528 0.72 13.3532 0.47124 13.1765 0.28768C12.9998 0.10412 12.7603 0.00069 12.5104 0H11.4269C11.1769 0.00055 10.9372 0.10392 10.7604 0.2875C10.5836 0.47107 10.484 0.71991 10.4833 0.97959V1.03786C10.4829 1.29842 10.582 1.5485 10.7589 1.73323C10.9358 1.91796 11.176 2.02225 11.4269 2.02323Z" fill="#FC8019"/>
<path d="M2.70409 15.4982L0.4769 15.9604C0.213627 16.0151 0.0428475 16.2811 0.0954548 16.5546L1.37241 23.1927C1.42502 23.4662 1.68109 23.6435 1.94436 23.5889L4.17155 23.1266C4.43482 23.072 4.6056 22.806 4.553 22.5325L3.27604 15.8944C3.22343 15.6209 2.96736 15.4435 2.70409 15.4982Z" fill="#FC8019"/>
<path d="M23.4611 14.5098L23.4577 14.5083L23.4563 14.5048C23.3461 14.348 23.1883 14.2344 23.0083 14.1822C22.8283 14.13 22.6367 14.1423 22.4642 14.2171C21.9684 14.3634 21.4722 14.5606 20.9909 14.7522C20.5484 14.9242 20.0961 15.1007 19.6294 15.2526C18.5941 15.5966 17.5383 15.87 16.4687 16.0709C15.503 16.2383 14.5289 16.3478 13.5511 16.3988C13.406 16.6801 13.1963 16.9199 12.9407 17.097C12.6851 17.2741 12.3915 17.3831 12.0857 17.4142C12.0698 17.4181 12.0535 17.4198 12.0372 17.4192H12.0324L8.26846 17.3941C8.13948 17.3927 8.01628 17.3382 7.92598 17.2426C7.83569 17.1469 7.78568 17.0178 7.78696 16.8839C7.78825 16.7499 7.84072 16.6219 7.93283 16.5281C8.02495 16.4343 8.14916 16.3824 8.27815 16.3837L12.0082 16.4093C12.1849 16.3883 12.3513 16.3117 12.4851 16.1899C12.6188 16.068 12.7136 15.9067 12.7567 15.7274C12.7807 15.6188 12.7774 15.5057 12.747 15.3989C12.7264 15.2942 12.6832 15.1957 12.6207 15.1108C12.5472 15.0137 12.4545 14.9341 12.3488 14.8775C12.2431 14.8209 12.1269 14.7886 12.0082 14.7828L7.64628 14.4746C7.10964 14.4379 6.57242 14.5366 6.08047 14.7623L4.58335 15.4566C4.48236 15.503 4.39967 15.5838 4.34898 15.6857C4.29828 15.7876 4.28263 15.9045 4.30462 16.0169L5.43671 21.8952C5.45872 22.0112 5.51932 22.1154 5.60788 22.1896C5.69644 22.2637 5.80732 22.3032 5.92107 22.3009L13.1204 22.1637C14.012 22.1484 14.8816 21.8736 15.6303 21.3706L23.4757 16.0923C23.6489 15.9844 23.7745 15.8101 23.8255 15.607C23.8765 15.4039 23.8487 15.1881 23.7482 15.0061L23.4611 14.5098Z" fill="#FC8019"/>
<path d="M29.0458 20V6.18182H34.7539C35.7885 6.18182 36.6813 6.36849 37.4325 6.74183C38.1882 7.11068 38.7707 7.64145 39.18 8.33416C39.5894 9.02237 39.794 9.83878 39.794 10.7834C39.794 11.7415 39.5849 12.5556 39.1665 13.2259C38.7482 13.8916 38.1545 14.3999 37.3853 14.7507C36.6161 15.0971 35.7053 15.2702 34.6527 15.2702H31.043V12.6388H34.032C34.5357 12.6388 34.9563 12.5736 35.2937 12.4432C35.6355 12.3082 35.8942 12.1058 36.0696 11.8359C36.245 11.5616 36.3327 11.2107 36.3327 10.7834C36.3327 10.3561 36.245 10.003 36.0696 9.72408C35.8942 9.4407 35.6355 9.22928 35.2937 9.08984C34.9518 8.9459 34.5313 8.87393 34.032 8.87393H32.3857V20H29.0458ZM36.8253 13.6847L40.2663 20H36.6229L33.2493 13.6847H36.8253ZM46.2662 20.1957C45.1822 20.1957 44.2466 19.982 43.4594 19.5547C42.6768 19.1229 42.074 18.5089 41.6512 17.7127C41.2329 16.9121 41.0237 15.9607 41.0237 14.8587C41.0237 13.7881 41.2351 12.8525 41.6579 12.0518C42.0808 11.2467 42.6768 10.6214 43.4459 10.1761C44.2151 9.72633 45.1215 9.50142 46.165 9.50142C46.9027 9.50142 47.5774 9.61612 48.1892 9.84552C48.8009 10.0749 49.3295 10.4145 49.7748 10.8643C50.2201 11.3142 50.5664 11.8697 50.8138 12.5309C51.0612 13.1876 51.1849 13.9411 51.1849 14.7912V15.6143H42.1775V13.6982H48.115C48.1105 13.3473 48.0273 13.0347 47.8653 12.7603C47.7034 12.4859 47.4807 12.2723 47.1974 12.1193C46.9185 11.9619 46.5969 11.8832 46.2325 11.8832C45.8637 11.8832 45.5331 11.9664 45.2407 12.1328C44.9483 12.2947 44.7166 12.5174 44.5457 12.8008C44.3748 13.0797 44.2848 13.3968 44.2758 13.7521V15.7021C44.2758 16.1249 44.359 16.496 44.5255 16.8153C44.6919 17.1302 44.9281 17.3754 45.2339 17.5508C45.5398 17.7262 45.9041 17.8139 46.327 17.8139C46.6193 17.8139 46.8847 17.7734 47.1231 17.6925C47.3615 17.6115 47.5662 17.4923 47.7371 17.3349C47.9081 17.1774 48.0363 16.984 48.1217 16.7546L51.1512 16.8423C51.0252 17.5215 50.7486 18.113 50.3213 18.6168C49.8985 19.1161 49.343 19.5052 48.6547 19.7841C47.9665 20.0585 47.1704 20.1957 46.2662 20.1957ZM61.918 12.8008L58.8885 12.8817C58.857 12.6658 58.7715 12.4747 58.6321 12.3082C58.4927 12.1373 58.3105 12.0046 58.0856 11.9102C57.8652 11.8112 57.6088 11.7617 57.3164 11.7617C56.9341 11.7617 56.608 11.8382 56.3381 11.9911C56.0727 12.1441 55.9422 12.351 55.9467 12.6119C55.9422 12.8143 56.0232 12.9897 56.1896 13.1381C56.3606 13.2866 56.6642 13.4058 57.1005 13.4957L59.0977 13.8736C60.1322 14.0715 60.9014 14.3999 61.4052 14.8587C61.9135 15.3175 62.1699 15.9247 62.1744 16.6804C62.1699 17.3911 61.9585 18.0096 61.5401 18.5359C61.1263 19.0621 60.5595 19.4715 59.8398 19.7638C59.1201 20.0517 58.297 20.1957 57.3704 20.1957C55.8905 20.1957 54.7232 19.892 53.8686 19.2848C53.0185 18.6731 52.5327 17.8544 52.4112 16.8288L55.6701 16.7479C55.7421 17.1257 55.9287 17.4136 56.2301 17.6115C56.5315 17.8094 56.9161 17.9084 57.3839 17.9084C57.8067 17.9084 58.1508 17.8297 58.4162 17.6722C58.6816 17.5148 58.8165 17.3056 58.821 17.0447C58.8165 16.8108 58.7131 16.6242 58.5107 16.4847C58.3082 16.3408 57.9911 16.2283 57.5593 16.1474L55.7511 15.8033C54.712 15.6143 53.9383 15.2657 53.43 14.7575C52.9218 14.2447 52.6699 13.5924 52.6744 12.8008C52.6699 12.1081 52.8543 11.5166 53.2276 11.0263C53.601 10.5315 54.1317 10.1536 54.82 9.89276C55.5082 9.63187 56.3201 9.50142 57.2557 9.50142C58.6591 9.50142 59.7656 9.79605 60.5753 10.3853C61.3849 10.9701 61.8325 11.7752 61.918 12.8008ZM69.6485 9.63636V12.0653H63.1105V9.63636H69.6485ZM64.4802 7.15341H67.7796V16.7411C67.7796 16.9435 67.811 17.1077 67.874 17.2337C67.9415 17.3551 68.0382 17.4428 68.1642 17.4968C68.2901 17.5463 68.4408 17.571 68.6162 17.571C68.7422 17.571 68.8749 17.5598 69.0143 17.5373C69.1582 17.5103 69.2662 17.4878 69.3382 17.4698L69.8374 19.8516C69.68 19.8965 69.4574 19.9528 69.1695 20.0202C68.8861 20.0877 68.5465 20.1304 68.1507 20.1484C67.377 20.1844 66.7135 20.0945 66.1602 19.8786C65.6115 19.6581 65.1909 19.3163 64.8985 18.853C64.6106 18.3897 64.4712 17.8072 64.4802 17.1055V7.15341ZM74.2535 20.1754C73.5922 20.1754 73.0052 20.0652 72.4925 19.8448C71.9842 19.6199 71.5816 19.2826 71.2847 18.8327C70.9923 18.3784 70.8461 17.8094 70.8461 17.1257C70.8461 16.55 70.9474 16.0642 71.1498 15.6683C71.3522 15.2725 71.6311 14.9509 71.9864 14.7035C72.3418 14.4561 72.7511 14.2694 73.2144 14.1435C73.6777 14.013 74.1725 13.9253 74.6988 13.8803C75.288 13.8263 75.7626 13.7701 76.1224 13.7116C76.4823 13.6487 76.7432 13.561 76.9051 13.4485C77.0715 13.3316 77.1547 13.1674 77.1547 12.956V12.9222C77.1547 12.5759 77.0355 12.3082 76.7971 12.1193C76.5587 11.9304 76.2371 11.8359 75.8323 11.8359C75.396 11.8359 75.0451 11.9304 74.7797 12.1193C74.5144 12.3082 74.3457 12.5691 74.2737 12.902L71.2307 12.794C71.3207 12.1643 71.5523 11.602 71.9257 11.1072C72.3035 10.608 72.8208 10.2166 73.4775 9.93324C74.1388 9.64536 74.9327 9.50142 75.8593 9.50142C76.5205 9.50142 77.13 9.58014 77.6878 9.73757C78.2455 9.89051 78.7313 10.1154 79.1452 10.4123C79.559 10.7047 79.8783 11.0645 80.1032 11.4918C80.3327 11.9192 80.4474 12.4072 80.4474 12.956V20H77.3437V18.5561H77.2627C77.0783 18.907 76.8421 19.2038 76.5542 19.4467C76.2709 19.6896 75.9358 19.8718 75.5489 19.9933C75.1666 20.1147 74.7348 20.1754 74.2535 20.1754ZM75.2723 18.0163C75.6276 18.0163 75.947 17.9444 76.2304 17.8004C76.5183 17.6565 76.7477 17.4586 76.9186 17.2067C77.0895 16.9503 77.175 16.6534 77.175 16.3161V15.331C77.0805 15.3804 76.9658 15.4254 76.8309 15.4659C76.7004 15.5064 76.5565 15.5446 76.3991 15.5806C76.2416 15.6166 76.0797 15.6481 75.9133 15.6751C75.7468 15.7021 75.5872 15.7268 75.4342 15.7493C75.1238 15.7988 74.8585 15.8752 74.6381 15.9787C74.4221 16.0821 74.2557 16.2171 74.1388 16.3835C74.0263 16.5455 73.9701 16.7389 73.9701 16.9638C73.9701 17.3056 74.0915 17.5665 74.3344 17.7464C74.5818 17.9264 74.8944 18.0163 75.2723 18.0163ZM89.1512 15.5266V9.63636H92.4438V20H89.2996V18.0703H89.1917C88.9623 18.7045 88.5709 19.2083 88.0177 19.5817C87.4689 19.9505 86.8054 20.1349 86.0273 20.1349C85.3211 20.1349 84.7003 19.973 84.165 19.6491C83.6298 19.3253 83.2137 18.8732 82.9168 18.293C82.6199 17.7082 82.4693 17.0245 82.4648 16.2418V9.63636H85.7641V15.5941C85.7686 16.1564 85.9171 16.5994 86.2094 16.9233C86.5018 17.2472 86.8999 17.4091 87.4037 17.4091C87.732 17.4091 88.0267 17.3371 88.2876 17.1932C88.5529 17.0447 88.7621 16.8311 88.915 16.5522C89.0725 16.2688 89.1512 15.927 89.1512 15.5266ZM94.5439 20V9.63636H97.7488V11.5256H97.8567C98.0456 10.8419 98.3538 10.3336 98.7811 10.0007C99.2084 9.66335 99.7054 9.49467 100.272 9.49467C100.425 9.49467 100.583 9.50592 100.744 9.52841C100.906 9.5464 101.057 9.57564 101.197 9.61612V12.4837C101.039 12.4297 100.832 12.387 100.576 12.3555C100.324 12.324 100.099 12.3082 99.9011 12.3082C99.5098 12.3082 99.1567 12.396 98.8418 12.5714C98.5314 12.7423 98.2863 12.983 98.1064 13.2933C97.9309 13.5992 97.8432 13.959 97.8432 14.3729V20H94.5439ZM105.073 20.1754C104.412 20.1754 103.825 20.0652 103.312 19.8448C102.804 19.6199 102.401 19.2826 102.104 18.8327C101.812 18.3784 101.665 17.8094 101.665 17.1257C101.665 16.55 101.767 16.0642 101.969 15.6683C102.172 15.2725 102.45 14.9509 102.806 14.7035C103.161 14.4561 103.57 14.2694 104.034 14.1435C104.497 14.013 104.992 13.9253 105.518 13.8803C106.107 13.8263 106.582 13.7701 106.942 13.7116C107.302 13.6487 107.563 13.561 107.724 13.4485C107.891 13.3316 107.974 13.1674 107.974 12.956V12.9222C107.974 12.5759 107.855 12.3082 107.616 12.1193C107.378 11.9304 107.056 11.8359 106.652 11.8359C106.215 11.8359 105.864 11.9304 105.599 12.1193C105.334 12.3082 105.165 12.5691 105.093 12.902L102.05 12.794C102.14 12.1643 102.372 11.602 102.745 11.1072C103.123 10.608 103.64 10.2166 104.297 9.93324C104.958 9.64536 105.752 9.50142 106.679 9.50142C107.34 9.50142 107.949 9.58014 108.507 9.73757C109.065 9.89051 109.551 10.1154 109.964 10.4123C110.378 10.7047 110.698 11.0645 110.923 11.4918C111.152 11.9192 111.267 12.4072 111.267 12.956V20H108.163V18.5561H108.082C107.898 18.907 107.661 19.2038 107.374 19.4467C107.09 19.6896 106.755 19.8718 106.368 19.9933C105.986 20.1147 105.554 20.1754 105.073 20.1754ZM106.092 18.0163C106.447 18.0163 106.766 17.9444 107.05 17.8004C107.338 17.6565 107.567 17.4586 107.738 17.2067C107.909 16.9503 107.994 16.6534 107.994 16.3161V15.331C107.9 15.3804 107.785 15.4254 107.65 15.4659C107.52 15.5064 107.376 15.5446 107.218 15.5806C107.061 15.6166 106.899 15.6481 106.733 15.6751C106.566 15.7021 106.406 15.7268 106.254 15.7493C105.943 15.7988 105.678 15.8752 105.457 15.9787C105.241 16.0821 105.075 16.2171 104.958 16.3835C104.846 16.5455 104.789 16.7389 104.789 16.9638C104.789 17.3056 104.911 17.5665 105.154 17.7464C105.401 17.9264 105.714 18.0163 106.092 18.0163ZM116.583 14.0895V20H113.284V9.63636H116.422V11.5391H116.536C116.766 10.9048 117.157 10.4078 117.71 10.0479C118.263 9.68359 118.922 9.50142 119.687 9.50142C120.416 9.50142 121.048 9.6656 121.583 9.99396C122.123 10.3178 122.541 10.7721 122.838 11.3569C123.139 11.9371 123.288 12.6164 123.283 13.3945V20H119.984V14.0423C119.989 13.4665 119.842 13.0167 119.545 12.6928C119.253 12.369 118.846 12.207 118.324 12.207C117.978 12.207 117.672 12.2835 117.407 12.4364C117.146 12.5849 116.943 12.7985 116.799 13.0774C116.66 13.3563 116.588 13.6937 116.583 14.0895ZM131.176 9.63636V12.0653H124.638V9.63636H131.176ZM126.008 7.15341H129.307V16.7411C129.307 16.9435 129.338 17.1077 129.401 17.2337C129.469 17.3551 129.566 17.4428 129.691 17.4968C129.817 17.5463 129.968 17.571 130.144 17.571C130.27 17.571 130.402 17.5598 130.542 17.5373C130.686 17.5103 130.794 17.4878 130.866 17.4698L131.365 19.8516C131.207 19.8965 130.985 19.9528 130.697 20.0202C130.413 20.0877 130.074 20.1304 129.678 20.1484C128.904 20.1844 128.241 20.0945 127.688 19.8786C127.139 19.6581 126.718 19.3163 126.426 18.853C126.138 18.3897 125.999 17.8072 126.008 17.1055V7.15341ZM139.93 20H136.341L141.003 6.18182H145.449L150.112 20H146.522L143.277 9.66335H143.169L139.93 20ZM139.451 14.5618H146.954V17.0987H139.451V14.5618ZM151.6 23.8864V9.63636H154.865V11.4109H154.966C155.101 11.096 155.292 10.7924 155.54 10.5C155.792 10.2076 156.111 9.96922 156.498 9.7848C156.889 9.59588 157.357 9.50142 157.901 9.50142C158.621 9.50142 159.294 9.69034 159.919 10.0682C160.549 10.446 161.057 11.0285 161.444 11.8157C161.83 12.6029 162.024 13.6059 162.024 14.8249C162.024 15.9989 161.837 16.9818 161.464 17.7734C161.095 18.5651 160.596 19.1589 159.966 19.5547C159.341 19.9505 158.646 20.1484 157.881 20.1484C157.359 20.1484 156.907 20.063 156.525 19.892C156.143 19.7211 155.821 19.4962 155.56 19.2173C155.304 18.9384 155.106 18.6393 154.966 18.32H154.899V23.8864H151.6ZM154.831 14.8182C154.831 15.3759 154.906 15.8617 155.054 16.2756C155.207 16.6894 155.425 17.011 155.709 17.2404C155.996 17.4653 156.341 17.5778 156.741 17.5778C157.146 17.5778 157.49 17.4653 157.773 17.2404C158.057 17.011 158.27 16.6894 158.414 16.2756C158.563 15.8617 158.637 15.3759 158.637 14.8182C158.637 14.2604 158.563 13.7769 158.414 13.3675C158.27 12.9582 158.057 12.6411 157.773 12.4162C157.494 12.1913 157.15 12.0788 156.741 12.0788C156.336 12.0788 155.992 12.189 155.709 12.4094C155.425 12.6299 155.207 12.9447 155.054 13.354C154.906 13.7634 154.831 14.2514 154.831 14.8182ZM163.753 23.8864V9.63636H167.018V11.4109H167.12C167.255 11.096 167.446 10.7924 167.693 10.5C167.945 10.2076 168.264 9.96922 168.651 9.7848C169.043 9.59588 169.51 9.50142 170.055 9.50142C170.774 9.50142 171.447 9.69034 172.072 10.0682C172.702 10.446 173.21 11.0285 173.597 11.8157C173.984 12.6029 174.177 13.6059 174.177 14.8249C174.177 15.9989 173.991 16.9818 173.617 17.7734C173.248 18.5651 172.749 19.1589 172.119 19.5547C171.494 19.9505 170.799 20.1484 170.034 20.1484C169.513 20.1484 169.061 20.063 168.678 19.892C168.296 19.7211 167.974 19.4962 167.713 19.2173C167.457 18.9384 167.259 18.6393 167.12 18.32H167.052V23.8864H163.753ZM166.985 14.8182C166.985 15.3759 167.059 15.8617 167.207 16.2756C167.36 16.6894 167.578 17.011 167.862 17.2404C168.15 17.4653 168.494 17.5778 168.894 17.5778C169.299 17.5778 169.643 17.4653 169.926 17.2404C170.21 17.011 170.424 16.6894 170.567 16.2756C170.716 15.8617 170.79 15.3759 170.79 14.8182C170.79 14.2604 170.716 13.7769 170.567 13.3675C170.424 12.9582 170.21 12.6411 169.926 12.4162C169.648 12.1913 169.304 12.0788 168.894 12.0788C168.489 12.0788 168.145 12.189 167.862 12.4094C167.578 12.6299 167.36 12.9447 167.207 13.354C167.059 13.7634 166.985 14.2514 166.985 14.8182Z" fill="black"/>
</svg>
