<svg width="228" height="38" viewBox="0 0 228 38" fill="none" xmlns="http://www.w3.org/2000/svg">
<path d="M20.1916 5.87746H18.0045C14 5.88056 10.1411 7.37961 7.18456 10.0806C4.22808 12.7816 2.38732 16.4897 2.02331 20.4777C2.01568 20.594 2.03204 20.7107 2.07137 20.8205C2.11071 20.9303 2.17218 21.0308 2.25198 21.1158C2.33178 21.2008 2.4282 21.2685 2.53525 21.3147C2.64231 21.3609 2.75772 21.3847 2.87432 21.3844H35.3241C35.4407 21.3847 35.5561 21.3609 35.6632 21.3147C35.7702 21.2685 35.8666 21.2008 35.9464 21.1158C36.0262 21.0308 36.0877 20.9303 36.127 20.8205C36.1664 20.7107 36.1827 20.594 36.1751 20.4777C35.811 16.4893 33.97 12.7809 31.013 10.0798C28.056 7.37877 24.1965 5.87998 20.1916 5.87746ZM18.2699 4.96014H19.9286C20.3125 4.95871 20.6801 4.80499 20.9508 4.53272C21.2214 4.26046 21.373 3.89192 21.3722 3.50801V3.42214C21.3712 3.03958 21.2187 2.67298 20.9482 2.40247C20.6777 2.13196 20.3111 1.97954 19.9286 1.97852H18.2699C17.8872 1.97933 17.5204 2.13167 17.2497 2.4022C16.979 2.67273 16.8265 3.03945 16.8255 3.42214V3.50801C16.8248 3.89199 16.9766 4.26053 17.2474 4.53277C17.5182 4.80501 17.8859 4.95871 18.2699 4.96014Z" fill="#FC8019"/>
<path d="M4.93011 24.8136L1.52074 25.4948C1.11773 25.5753 0.856299 25.9673 0.93683 26.3704L2.89158 36.1529C2.97211 36.556 3.36411 36.8174 3.76713 36.7369L7.17649 36.0556C7.57951 35.9751 7.84093 35.5831 7.7604 35.1801L5.80565 25.3975C5.72512 24.9944 5.33313 24.733 4.93011 24.8136Z" fill="#FC8019"/>
<path d="M36.7028 23.3597C36.7008 23.3597 36.6989 23.3589 36.6975 23.3576C36.6961 23.3562 36.6954 23.3543 36.6954 23.3523C36.5266 23.1213 36.2851 22.9539 36.0096 22.877C35.7341 22.8001 35.4407 22.8182 35.1767 22.9283C34.4177 23.144 33.6581 23.4345 32.9213 23.717C32.2439 23.9704 31.5517 24.2306 30.8372 24.4544C29.2524 24.9614 27.6362 25.3642 25.9988 25.6603C24.5206 25.907 23.0294 26.0684 21.5326 26.1436C21.3104 26.5581 20.9895 26.9115 20.5982 27.1725C20.2069 27.4335 19.7574 27.5941 19.2893 27.64C19.265 27.6457 19.2401 27.6482 19.2152 27.6474H19.2077L13.4459 27.6103C13.2485 27.6083 13.0599 27.528 12.9217 27.387C12.7835 27.246 12.7069 27.0558 12.7089 26.8584C12.7108 26.6609 12.7912 26.4724 12.9322 26.3341C13.0732 26.1959 13.2633 26.1193 13.4608 26.1213L19.1707 26.1591C19.4413 26.1281 19.696 26.0153 19.9007 25.8357C20.1055 25.6561 20.2506 25.4183 20.3166 25.154C20.3532 24.9941 20.3481 24.8275 20.3017 24.6701C20.2702 24.5157 20.204 24.3705 20.1083 24.2454C19.9959 24.1023 19.8539 23.985 19.6921 23.9016C19.5303 23.8183 19.3525 23.7707 19.1707 23.7621L12.4935 23.3078C11.672 23.2537 10.8497 23.3992 10.0966 23.7318L7.8048 24.755C7.65021 24.8234 7.52363 24.9425 7.44603 25.0927C7.36843 25.2429 7.34447 25.4151 7.37813 25.5807L9.11112 34.2436C9.14481 34.4145 9.23757 34.5681 9.37315 34.6774C9.50872 34.7867 9.67845 34.8448 9.85258 34.8415L20.8733 34.6393C22.2381 34.6167 23.5692 34.2118 24.7154 33.4705L36.725 25.6919C36.9903 25.5328 37.1825 25.276 37.2605 24.9767C37.3386 24.6774 37.2961 24.3594 37.1423 24.0911L36.7028 23.3597Z" fill="#FC8019"/>
<path d="M64.4621 26.5L61.2501 20.67H60.3481V26.5H56.5861V11.056H62.9001C64.1174 11.056 65.1514 11.2687 66.0021 11.694C66.8674 12.1193 67.5128 12.706 67.9381 13.454C68.3634 14.1873 68.5761 15.0087 68.5761 15.918C68.5761 16.9447 68.2828 17.8613 67.6961 18.668C67.1241 19.4747 66.2734 20.0467 65.1441 20.384L68.7081 26.5H64.4621ZM60.3481 18.008H62.6801C63.3694 18.008 63.8828 17.8393 64.2201 17.502C64.5721 17.1647 64.7481 16.688 64.7481 16.072C64.7481 15.4853 64.5721 15.0233 64.2201 14.686C63.8828 14.3487 63.3694 14.18 62.6801 14.18H60.3481V18.008ZM82.0697 20.164C82.0697 20.516 82.0477 20.8827 82.0037 21.264H73.4897C73.5483 22.0267 73.7903 22.6133 74.2157 23.024C74.6557 23.42 75.191 23.618 75.8217 23.618C76.7603 23.618 77.413 23.222 77.7797 22.43H81.7837C81.5783 23.2367 81.2043 23.9627 80.6617 24.608C80.1337 25.2533 79.4663 25.7593 78.6597 26.126C77.853 26.4927 76.951 26.676 75.9537 26.676C74.751 26.676 73.6803 26.4193 72.7417 25.906C71.803 25.3927 71.0697 24.6593 70.5417 23.706C70.0137 22.7527 69.7497 21.638 69.7497 20.362C69.7497 19.086 70.0063 17.9713 70.5197 17.018C71.0477 16.0647 71.781 15.3313 72.7197 14.818C73.6583 14.3047 74.7363 14.048 75.9537 14.048C77.1417 14.048 78.1977 14.2973 79.1217 14.796C80.0457 15.2947 80.7643 16.006 81.2777 16.93C81.8057 17.854 82.0697 18.932 82.0697 20.164ZM78.2197 19.174C78.2197 18.5287 77.9997 18.0153 77.5597 17.634C77.1197 17.2527 76.5697 17.062 75.9097 17.062C75.279 17.062 74.7437 17.2453 74.3037 17.612C73.8783 17.9787 73.6143 18.4993 73.5117 19.174H78.2197ZM88.6083 26.676C87.5376 26.676 86.5843 26.4927 85.7483 26.126C84.9123 25.7593 84.2523 25.2607 83.7683 24.63C83.2843 23.9847 83.013 23.266 82.9543 22.474H86.6723C86.7163 22.8993 86.9143 23.244 87.2663 23.508C87.6183 23.772 88.051 23.904 88.5643 23.904C89.0336 23.904 89.393 23.816 89.6423 23.64C89.9063 23.4493 90.0383 23.2073 90.0383 22.914C90.0383 22.562 89.855 22.3053 89.4883 22.144C89.1216 21.968 88.5276 21.7773 87.7063 21.572C86.8263 21.3667 86.093 21.154 85.5063 20.934C84.9196 20.6993 84.4136 20.34 83.9883 19.856C83.563 19.3573 83.3503 18.69 83.3503 17.854C83.3503 17.15 83.541 16.512 83.9223 15.94C84.3183 15.3533 84.8903 14.8913 85.6383 14.554C86.401 14.2167 87.303 14.048 88.3443 14.048C89.8843 14.048 91.0943 14.4293 91.9743 15.192C92.869 15.9547 93.3823 16.9667 93.5143 18.228H90.0383C89.9796 17.8027 89.789 17.4653 89.4663 17.216C89.1583 16.9667 88.7476 16.842 88.2343 16.842C87.7943 16.842 87.457 16.93 87.2223 17.106C86.9876 17.2673 86.8703 17.4947 86.8703 17.788C86.8703 18.14 87.0536 18.404 87.4203 18.58C87.8016 18.756 88.3883 18.932 89.1803 19.108C90.0896 19.3427 90.8303 19.5773 91.4023 19.812C91.9743 20.032 92.473 20.3987 92.8983 20.912C93.3383 21.4107 93.5656 22.0853 93.5803 22.936C93.5803 23.6547 93.375 24.3 92.9643 24.872C92.5683 25.4293 91.989 25.8693 91.2263 26.192C90.4783 26.5147 89.6056 26.676 88.6083 26.676ZM102.284 23.31V26.5H100.37C99.0059 26.5 97.9426 26.17 97.1799 25.51C96.4172 24.8353 96.0359 23.7427 96.0359 22.232V17.348H94.5399V14.224H96.0359V11.232H99.7979V14.224H102.262V17.348H99.7979V22.276C99.7979 22.6427 99.8859 22.9067 100.062 23.068C100.238 23.2293 100.531 23.31 100.942 23.31H102.284ZM103.191 20.34C103.191 19.0787 103.426 17.9713 103.895 17.018C104.379 16.0647 105.032 15.3313 105.853 14.818C106.675 14.3047 107.591 14.048 108.603 14.048C109.469 14.048 110.224 14.224 110.869 14.576C111.529 14.928 112.035 15.39 112.387 15.962V14.224H116.149V26.5H112.387V24.762C112.021 25.334 111.507 25.796 110.847 26.148C110.202 26.5 109.447 26.676 108.581 26.676C107.584 26.676 106.675 26.4193 105.853 25.906C105.032 25.378 104.379 24.6373 103.895 23.684C103.426 22.716 103.191 21.6013 103.191 20.34ZM112.387 20.362C112.387 19.4233 112.123 18.6827 111.595 18.14C111.082 17.5973 110.451 17.326 109.703 17.326C108.955 17.326 108.317 17.5973 107.789 18.14C107.276 18.668 107.019 19.4013 107.019 20.34C107.019 21.2787 107.276 22.0267 107.789 22.584C108.317 23.1267 108.955 23.398 109.703 23.398C110.451 23.398 111.082 23.1267 111.595 22.584C112.123 22.0413 112.387 21.3007 112.387 20.362ZM130.553 14.224V26.5H126.791V24.828C126.41 25.3707 125.889 25.8107 125.229 26.148C124.584 26.4707 123.865 26.632 123.073 26.632C122.134 26.632 121.306 26.4267 120.587 26.016C119.868 25.5907 119.311 24.982 118.915 24.19C118.519 23.398 118.321 22.4667 118.321 21.396V14.224H122.061V20.89C122.061 21.7113 122.274 22.3493 122.699 22.804C123.124 23.2587 123.696 23.486 124.415 23.486C125.148 23.486 125.728 23.2587 126.153 22.804C126.578 22.3493 126.791 21.7113 126.791 20.89V14.224H130.553ZM136.577 16.27C137.017 15.5953 137.567 15.0673 138.227 14.686C138.887 14.29 139.621 14.092 140.427 14.092V18.074H139.393C138.455 18.074 137.751 18.2793 137.281 18.69C136.812 19.086 136.577 19.79 136.577 20.802V26.5H132.815V14.224H136.577V16.27ZM141.037 20.34C141.037 19.0787 141.272 17.9713 141.741 17.018C142.225 16.0647 142.878 15.3313 143.699 14.818C144.521 14.3047 145.437 14.048 146.449 14.048C147.315 14.048 148.07 14.224 148.715 14.576C149.375 14.928 149.881 15.39 150.233 15.962V14.224H153.995V26.5H150.233V24.762C149.867 25.334 149.353 25.796 148.693 26.148C148.048 26.5 147.293 26.676 146.427 26.676C145.43 26.676 144.521 26.4193 143.699 25.906C142.878 25.378 142.225 24.6373 141.741 23.684C141.272 22.716 141.037 21.6013 141.037 20.34ZM150.233 20.362C150.233 19.4233 149.969 18.6827 149.441 18.14C148.928 17.5973 148.297 17.326 147.549 17.326C146.801 17.326 146.163 17.5973 145.635 18.14C145.122 18.668 144.865 19.4013 144.865 20.34C144.865 21.2787 145.122 22.0267 145.635 22.584C146.163 23.1267 146.801 23.398 147.549 23.398C148.297 23.398 148.928 23.1267 149.441 22.584C149.969 22.0413 150.233 21.3007 150.233 20.362ZM163.757 14.092C165.194 14.092 166.338 14.5613 167.189 15.5C168.054 16.424 168.487 17.7 168.487 19.328V26.5H164.747V19.834C164.747 19.0127 164.534 18.3747 164.109 17.92C163.684 17.4653 163.112 17.238 162.393 17.238C161.674 17.238 161.102 17.4653 160.677 17.92C160.252 18.3747 160.039 19.0127 160.039 19.834V26.5H156.277V14.224H160.039V15.852C160.42 15.3093 160.934 14.884 161.579 14.576C162.224 14.2533 162.95 14.092 163.757 14.092ZM177.503 23.31V26.5H175.589C174.225 26.5 173.162 26.17 172.399 25.51C171.637 24.8353 171.255 23.7427 171.255 22.232V17.348H169.759V14.224H171.255V11.232H175.017V14.224H177.481V17.348H175.017V22.276C175.017 22.6427 175.105 22.9067 175.281 23.068C175.457 23.2293 175.751 23.31 176.161 23.31H177.503ZM192.995 23.772H187.231L186.307 26.5H182.369L187.957 11.056H192.313L197.901 26.5H193.919L192.995 23.772ZM192.027 20.868L190.113 15.214L188.221 20.868H192.027ZM202.924 15.962C203.29 15.39 203.796 14.928 204.442 14.576C205.087 14.224 205.842 14.048 206.708 14.048C207.72 14.048 208.636 14.3047 209.458 14.818C210.279 15.3313 210.924 16.0647 211.394 17.018C211.878 17.9713 212.12 19.0787 212.12 20.34C212.12 21.6013 211.878 22.716 211.394 23.684C210.924 24.6373 210.279 25.378 209.458 25.906C208.636 26.4193 207.72 26.676 206.708 26.676C205.857 26.676 205.102 26.5 204.442 26.148C203.796 25.796 203.29 25.3413 202.924 24.784V32.352H199.162V14.224H202.924V15.962ZM208.292 20.34C208.292 19.4013 208.028 18.668 207.5 18.14C206.986 17.5973 206.348 17.326 205.586 17.326C204.838 17.326 204.2 17.5973 203.672 18.14C203.158 18.6827 202.902 19.4233 202.902 20.362C202.902 21.3007 203.158 22.0413 203.672 22.584C204.2 23.1267 204.838 23.398 205.586 23.398C206.334 23.398 206.972 23.1267 207.5 22.584C208.028 22.0267 208.292 21.2787 208.292 20.34ZM217.415 15.962C217.782 15.39 218.288 14.928 218.933 14.576C219.579 14.224 220.334 14.048 221.199 14.048C222.211 14.048 223.128 14.3047 223.949 14.818C224.771 15.3313 225.416 16.0647 225.885 17.018C226.369 17.9713 226.611 19.0787 226.611 20.34C226.611 21.6013 226.369 22.716 225.885 23.684C225.416 24.6373 224.771 25.378 223.949 25.906C223.128 26.4193 222.211 26.676 221.199 26.676C220.349 26.676 219.593 26.5 218.933 26.148C218.288 25.796 217.782 25.3413 217.415 24.784V32.352H213.653V14.224H217.415V15.962ZM222.783 20.34C222.783 19.4013 222.519 18.668 221.991 18.14C221.478 17.5973 220.84 17.326 220.077 17.326C219.329 17.326 218.691 17.5973 218.163 18.14C217.65 18.6827 217.393 19.4233 217.393 20.362C217.393 21.3007 217.65 22.0413 218.163 22.584C218.691 23.1267 219.329 23.398 220.077 23.398C220.825 23.398 221.463 23.1267 221.991 22.584C222.519 22.0267 222.783 21.2787 222.783 20.34Z" fill="white"/>
</svg>
