<svg width="20" height="20" viewBox="0 0 20 20" fill="none" xmlns="http://www.w3.org/2000/svg">
<path d="M19.3352 18.47L15.5289 14.629C16.8013 13.106 17.5713 11.143 17.5713 9C17.5713 4.175 13.6818 0.25 8.90045 0.25C4.11912 0.25 0.229637 4.175 0.229637 9C0.229637 13.825 4.11912 17.75 8.90045 17.75C11.0241 17.75 12.9693 16.973 14.4785 15.689L18.2847 19.53C18.4294 19.676 18.6197 19.75 18.81 19.75C19.0002 19.75 19.1905 19.677 19.3352 19.53C19.6255 19.238 19.6255 18.763 19.3352 18.47ZM1.71606 9C1.71606 5.002 4.93863 1.75 8.90045 1.75C12.8623 1.75 16.0848 5.002 16.0848 9C16.0848 12.998 12.8623 16.25 8.90045 16.25C4.93863 16.25 1.71606 12.998 1.71606 9Z" fill="#171717"/>
</svg>
